<svg width="250" height="250" viewBox="0 0 250 250" fill="none" xmlns="http://www.w3.org/2000/svg">
<path d="M193.5 65.43C193.5 65.43 172.155 43.375 138.36 44.43C104.565 45.485 75.745 66.845 51.91 83.565C28.075 100.285 21.675 126.265 35.55 146.54C49.425 166.815 71.48 158.28 99.58 171.44C127.68 184.6 133 192.075 164.325 188.875C195.65 185.675 219.47 152.945 215.91 118.08C212.35 83.215 193.5 65.43 193.5 65.43Z" fill="#99CFC2"/>
<path opacity="0.7" d="M193.5 65.43C193.5 65.43 172.155 43.375 138.36 44.43C104.565 45.485 75.745 66.845 51.91 83.565C28.075 100.285 21.675 126.265 35.55 146.54C49.425 166.815 71.48 158.28 99.58 171.44C127.68 184.6 133 192.075 164.325 188.875C195.65 185.675 219.47 152.945 215.91 118.08C212.35 83.215 193.5 65.43 193.5 65.43Z" fill="white"/>
<path d="M201.68 199.65C201.68 201.12 168.68 202.305 128.015 202.305C87.3497 202.305 54.3447 201.12 54.3447 199.65C54.3447 198.18 87.3447 197 128.015 197C168.685 197 201.68 198.185 201.68 199.65Z" fill="#99CFC2"/>
<path opacity="0.6" d="M201.68 199.65C201.68 201.12 168.68 202.305 128.015 202.305C87.3497 202.305 54.3447 201.12 54.3447 199.65C54.3447 198.18 87.3447 197 128.015 197C168.685 197 201.68 198.185 201.68 199.65Z" fill="white"/>
<path d="M58.3342 116.89C58.3642 116.89 57.9892 115.025 57.9492 114.89C57.5192 113.56 55.9042 111.24 54.3342 111.24C54.0738 111.248 53.818 111.311 53.5833 111.424C53.3487 111.538 53.1405 111.699 52.9722 111.898C52.8039 112.097 52.6793 112.329 52.6064 112.579C52.5336 112.829 52.5141 113.092 52.5492 113.35C52.6642 114.45 53.6542 115.39 54.5492 115.93C55.5992 116.585 58.3342 116.89 58.3342 116.89Z" fill="#99CFC2"/>
<path d="M61.3694 104.33C59.8944 104.86 59.1644 107.59 59.2094 108.99C59.2094 109.11 59.4894 110.99 59.5194 110.99H59.5494C59.4294 111.42 59.3044 111.88 59.1794 112.39C58.9594 113.33 58.7194 114.39 58.5344 115.57C58.3198 116.834 58.1796 118.11 58.1144 119.39C58.0371 120.825 58.0856 122.264 58.2594 123.69C58.2613 123.707 58.2613 123.723 58.2594 123.74C58.0694 123.325 57.4894 122.18 57.4344 122.095C56.6644 120.925 54.4944 119.095 52.9794 119.53C52.7311 119.607 52.5016 119.734 52.3059 119.905C52.1101 120.076 51.9525 120.286 51.8431 120.522C51.7338 120.758 51.6751 121.014 51.6711 121.273C51.667 121.533 51.7175 121.791 51.8194 122.03C52.2194 123.065 53.4194 123.705 54.4244 123.995C55.5594 124.315 58.0894 123.935 58.2894 123.905C58.5061 125.35 58.8168 126.78 59.2194 128.185C59.4544 129.005 59.7194 129.825 59.9794 130.64C59.8044 130.285 59.6394 129.97 59.6144 129.93C58.8444 128.76 56.6744 126.93 55.1594 127.365C54.9111 127.442 54.6816 127.569 54.4859 127.74C54.2901 127.911 54.1325 128.121 54.0231 128.357C53.9138 128.593 53.8552 128.849 53.8511 129.108C53.847 129.368 53.8975 129.626 53.9994 129.865C54.3994 130.895 55.5994 131.54 56.6044 131.825C57.6094 132.11 59.7894 131.825 60.3594 131.755C60.4644 132.065 60.5694 132.38 60.6794 132.69C61.1794 134.19 61.7194 135.69 62.1794 137.16C62.3444 137.66 62.4844 138.2 62.6294 138.72C62.4744 138.405 62.3344 138.14 62.3094 138.105C61.5444 136.93 59.3694 135.105 57.8594 135.54C57.6106 135.616 57.3806 135.743 57.1844 135.914C56.9881 136.085 56.8299 136.295 56.72 136.531C56.6101 136.766 56.5511 137.022 56.5467 137.283C56.5422 137.543 56.5926 137.801 56.6944 138.04C57.0944 139.07 58.2994 139.715 59.3044 140C60.3094 140.285 62.2744 140.035 62.9544 139.94C63.0894 140.475 63.2244 141.015 63.3294 141.54C63.3894 141.9 63.4744 142.24 63.5194 142.61L63.6694 143.68C63.7394 144.365 63.8194 145.07 63.8694 145.74C63.9094 146.21 63.9394 146.655 63.9694 147.1C63.8144 146.6 63.4694 145.565 63.4694 145.485C62.9158 144.385 62.0895 143.445 61.0694 142.755C61.0126 142.63 60.9457 142.509 60.8694 142.395C60.7268 142.177 60.54 141.991 60.3212 141.85C60.1023 141.709 59.8562 141.615 59.5989 141.575C59.3415 141.535 59.0786 141.55 58.8272 141.618C58.5758 141.686 58.3414 141.806 58.1394 141.97C56.9544 142.995 57.2494 145.805 57.7944 147.095C57.8244 147.17 58.2944 147.96 58.5544 148.45L57.9194 147.66C57.4794 147.125 57.0294 146.605 56.5494 146.045C56.3027 145.785 56.0577 145.52 55.8144 145.25C55.5744 144.98 55.2894 144.725 55.0244 144.455C54.3944 143.85 53.7294 143.265 53.0244 142.695C53.4944 142.31 55.1294 140.93 55.5994 139.99C56.0694 139.05 56.4044 137.735 55.9144 136.74C55.8066 136.503 55.6504 136.292 55.4557 136.119C55.261 135.947 55.0322 135.818 54.7842 135.739C54.5362 135.661 54.2745 135.636 54.0161 135.665C53.7577 135.695 53.5084 135.778 53.2844 135.91C51.9544 136.74 51.8194 139.565 52.1644 140.91C52.1644 140.995 52.5444 141.945 52.7494 142.46C52.3344 142.115 51.9244 141.775 51.4944 141.46C50.2544 140.505 48.9944 139.575 47.6944 138.64L46.5294 137.775C46.6944 137.64 48.6744 136.04 49.2044 134.985C49.6744 134.05 50.0094 132.73 49.5194 131.74C49.4122 131.502 49.2561 131.29 49.0612 131.116C48.8664 130.943 48.6371 130.812 48.3884 130.734C48.1398 130.655 47.8773 130.629 47.6181 130.659C47.359 130.688 47.1089 130.772 46.8844 130.905C45.5594 131.74 45.4244 134.56 45.7694 135.905C45.7944 136.005 46.3094 137.365 46.4594 137.705C45.6044 137.07 44.7594 136.43 43.9594 135.765C42.8652 134.869 41.8297 133.904 40.8594 132.875C40.9344 132.815 43.0094 131.15 43.5494 130.075C44.0194 129.14 44.3544 127.82 43.8644 126.825C43.7561 126.589 43.5997 126.379 43.4051 126.208C43.2106 126.036 42.9823 125.908 42.735 125.83C42.4876 125.752 42.2267 125.727 41.9691 125.756C41.7115 125.786 41.4629 125.869 41.2394 126C39.9094 126.835 39.7794 129.66 40.1194 131C40.1444 131.09 40.5344 132.13 40.7344 132.615L40.6594 132.665C39.7095 131.603 38.8562 130.458 38.1094 129.245C37.6944 128.585 37.3294 127.925 36.9894 127.28C37.4094 127.01 39.3044 125.78 39.8994 124.84C40.4944 123.9 40.9494 122.685 40.5694 121.645C40.488 121.401 40.3567 121.176 40.1838 120.985C40.0108 120.794 39.8001 120.642 39.5649 120.537C39.3298 120.432 39.0754 120.377 38.8179 120.376C38.5604 120.375 38.3055 120.427 38.0694 120.53C36.6594 121.21 36.2144 124.03 36.4094 125.39C36.4094 125.465 36.6094 126.22 36.7594 126.765C36.6094 126.475 36.4494 126.17 36.3144 125.885C35.8144 124.82 35.3894 123.81 35.0394 122.915C34.8444 122.415 34.6744 121.915 34.5394 121.495C34.8094 121.02 35.8844 119.075 35.9844 117.995C36.0844 116.915 35.9244 115.6 35.1094 114.85C34.9233 114.667 34.701 114.526 34.4567 114.434C34.2125 114.343 33.9518 114.304 33.6915 114.32C33.4312 114.336 33.1773 114.407 32.946 114.527C32.7148 114.648 32.5115 114.816 32.3494 115.02C31.4144 116.275 32.3094 118.96 33.1194 120.1C33.1894 120.2 34.4594 121.6 34.4744 121.6V121.57C34.6144 121.995 34.7644 122.445 34.9444 122.94C35.2794 123.845 35.6644 124.865 36.1594 125.94C36.6788 127.113 37.2664 128.255 37.9194 129.36C38.6474 130.598 39.4841 131.77 40.4194 132.86L40.4544 132.895C40.0644 132.655 38.9544 132.02 38.8594 131.98C37.5744 131.425 34.7594 131.115 33.7294 132.295C33.5638 132.496 33.4425 132.73 33.3733 132.981C33.3041 133.232 33.2886 133.495 33.3277 133.753C33.3669 134.01 33.4598 134.257 33.6005 134.476C33.7412 134.695 33.9265 134.882 34.1444 135.025C35.0444 135.665 36.4044 135.525 37.3994 135.225C38.5244 134.87 40.3994 133.155 40.5744 133.02C41.5524 134.107 42.6013 135.127 43.7144 136.075C44.3594 136.63 45.0244 137.17 45.7144 137.705C45.3694 137.51 45.0594 137.335 45.0144 137.315C43.7294 136.76 40.9194 136.45 39.8894 137.63C39.7228 137.831 39.6005 138.064 39.5305 138.315C39.4605 138.566 39.4443 138.829 39.483 139.087C39.5217 139.345 39.6144 139.591 39.7551 139.811C39.8958 140.03 40.0813 140.217 40.2994 140.36C41.2044 141 42.5594 140.86 43.5594 140.56C44.5594 140.26 46.2144 138.81 46.6494 138.425L47.4294 139.035C48.6894 140 49.9294 140.955 51.1544 141.93C51.5794 142.275 51.9844 142.625 52.3944 142.98C52.0894 142.805 51.8294 142.66 51.7844 142.64C50.4994 142.09 47.6894 141.775 46.6594 142.96C46.4928 143.161 46.3705 143.394 46.3005 143.645C46.2305 143.896 46.2143 144.159 46.253 144.417C46.2917 144.675 46.3844 144.921 46.5251 145.141C46.6658 145.36 46.8513 145.547 47.0694 145.69C47.9744 146.33 49.3294 146.19 50.3294 145.885C51.3294 145.58 52.8294 144.275 53.3294 143.825C53.7344 144.195 54.1444 144.57 54.5244 144.95C54.7744 145.215 55.0244 145.45 55.2744 145.735L55.9894 146.55C56.4294 147.08 56.8794 147.625 57.2944 148.155C57.5844 148.525 57.8544 148.88 58.1294 149.235C57.7094 148.89 56.8744 148.235 56.7944 148.18C55.6094 147.435 52.8794 146.705 51.6794 147.715C51.4857 147.889 51.3308 148.102 51.2248 148.34C51.1188 148.577 51.064 148.835 51.064 149.095C51.064 149.355 51.1188 149.613 51.2248 149.851C51.3308 150.088 51.4857 150.301 51.6794 150.475C52.4744 151.245 53.8344 151.325 54.8694 151.165C56.0044 150.99 58.0644 149.665 58.3194 149.48C58.7694 150.07 59.1994 150.65 59.5994 151.2C60.9844 153.115 62.0644 154.765 62.8044 155.925L62.8794 156.045L63.8394 155.58L63.6894 155.35C62.9144 154.195 61.7894 152.555 60.3444 150.65C59.8944 150.045 59.3944 149.415 58.8794 148.765C59.4143 148.181 59.9151 147.567 60.3794 146.925C61.4794 147.355 63.7744 147.37 64.0694 147.37C64.1194 148.115 64.1594 148.835 64.1844 149.515C64.2844 151.88 64.2744 153.85 64.2544 155.225C64.2544 155.28 64.2544 155.33 64.2544 155.385L65.3094 154.885C65.3094 153.515 65.2544 151.665 65.1194 149.475C65.0694 148.725 65.0044 147.92 64.9344 147.095C65.2244 147.025 67.6094 146.41 68.5094 145.69C69.3294 145.04 70.1894 143.98 70.1594 142.875C70.1614 142.615 70.1085 142.357 70.0042 142.118C69.9 141.879 69.7467 141.665 69.5542 141.49C69.3618 141.315 69.1346 141.182 68.8874 141.1C68.6401 141.018 68.3785 140.989 68.1194 141.015C66.5594 141.215 65.2594 143.72 65.0044 145.1C65.0044 145.18 64.9194 146.1 64.8894 146.645C64.8594 146.31 64.8294 145.985 64.7944 145.645C64.7244 144.96 64.6344 144.28 64.5444 143.545C64.4844 143.195 64.4244 142.835 64.3694 142.475C64.3144 142.115 64.2194 141.745 64.1444 141.38C63.9544 140.525 63.7244 139.67 63.4694 138.815C64.0694 138.755 66.1994 138.505 67.1094 137.98C68.0194 137.455 69.0244 136.545 69.1644 135.445C69.2054 135.188 69.1919 134.925 69.1248 134.674C69.0577 134.423 68.9384 134.188 68.7748 133.986C68.6112 133.784 68.4069 133.618 68.1751 133.5C67.9433 133.382 67.6892 133.314 67.4294 133.3C65.8594 133.26 64.1894 135.54 63.7294 136.865C63.6994 136.945 63.4744 137.93 63.3644 138.475C63.2044 137.975 63.0544 137.45 62.8644 136.935C62.3644 135.435 61.7994 133.97 61.2494 132.485L60.7494 131.12C60.9644 131.12 63.4994 130.86 64.5194 130.27C65.4244 129.77 66.4344 128.835 66.5744 127.735C66.6162 127.478 66.6033 127.215 66.5365 126.963C66.4697 126.712 66.3505 126.477 66.1868 126.274C66.023 126.072 65.8183 125.906 65.5861 125.788C65.3539 125.67 65.0995 125.603 64.8394 125.59C63.2694 125.55 61.5994 127.835 61.1394 129.155C61.1044 129.255 60.7844 130.655 60.7194 131.04C60.3594 130.04 60.0094 129.04 59.7194 128.04C59.3018 126.689 58.9678 125.313 58.7194 123.92C58.8194 123.92 61.4694 123.67 62.5144 123.07C63.4194 122.545 64.4294 121.63 64.5694 120.53C64.6104 120.273 64.5968 120.01 64.5294 119.758C64.462 119.506 64.3423 119.271 64.1781 119.069C64.014 118.867 63.809 118.701 63.5766 118.583C63.3442 118.465 63.0896 118.398 62.8294 118.385C61.2644 118.345 59.5944 120.63 59.1344 121.95C59.1044 122.035 58.8594 123.12 58.7544 123.635H58.6644C58.4578 122.227 58.3775 120.803 58.4244 119.38C58.4244 118.6 58.4994 117.85 58.5744 117.125C59.0744 117.125 61.3494 117.125 62.3494 116.695C63.3494 116.265 64.4094 115.475 64.6694 114.4C64.7387 114.148 64.7541 113.885 64.7145 113.626C64.6749 113.368 64.5813 113.121 64.4397 112.902C64.2981 112.682 64.1117 112.495 63.8928 112.353C63.6739 112.21 63.4274 112.116 63.1694 112.075C61.6144 111.865 59.7044 113.95 59.1044 115.21C59.0694 115.28 58.8144 116.015 58.6344 116.555C58.6694 116.225 58.7044 115.89 58.7494 115.555C58.9094 114.38 59.1244 113.315 59.3244 112.37C59.4444 111.835 59.5594 111.37 59.6744 110.905C60.1744 110.655 62.1344 109.63 62.8094 108.795C63.4844 107.96 64.0744 106.765 63.8094 105.69C63.7543 105.431 63.6444 105.187 63.4873 104.974C63.3301 104.762 63.1292 104.585 62.8981 104.456C62.667 104.327 62.4111 104.249 62.1474 104.228C61.8837 104.206 61.6184 104.241 61.3694 104.33Z" fill="#99CFC2"/>
<path d="M33.0296 128.5C34.2546 128.45 36.7046 127.19 36.7096 127.19C36.7146 127.19 35.3896 125.83 35.2946 125.75C34.1996 124.88 31.5696 123.835 30.2646 124.705C30.0519 124.855 29.8732 125.048 29.74 125.272C29.6068 125.495 29.5221 125.744 29.4914 126.003C29.4608 126.261 29.4848 126.523 29.5621 126.771C29.6393 127.02 29.7679 127.249 29.9396 127.445C30.6446 128.3 31.9996 128.54 33.0296 128.5Z" fill="#99CFC2"/>
<g opacity="0.5">
<path d="M58.3342 116.89C58.3642 116.89 57.9892 115.025 57.9492 114.89C57.5192 113.56 55.9042 111.24 54.3342 111.24C54.0738 111.248 53.818 111.311 53.5833 111.424C53.3487 111.538 53.1405 111.699 52.9722 111.898C52.8039 112.097 52.6793 112.329 52.6064 112.579C52.5336 112.829 52.5141 113.092 52.5492 113.35C52.6642 114.45 53.6542 115.39 54.5492 115.93C55.5992 116.585 58.3342 116.89 58.3342 116.89Z" fill="white"/>
<path d="M61.3694 104.33C59.8944 104.86 59.1644 107.59 59.2094 108.99C59.2094 109.11 59.4894 110.99 59.5194 110.99H59.5494C59.4294 111.42 59.3044 111.88 59.1794 112.39C58.9594 113.33 58.7194 114.39 58.5344 115.57C58.3198 116.834 58.1796 118.11 58.1144 119.39C58.0371 120.825 58.0856 122.264 58.2594 123.69C58.2613 123.707 58.2613 123.723 58.2594 123.74C58.0694 123.325 57.4894 122.18 57.4344 122.095C56.6644 120.925 54.4944 119.095 52.9794 119.53C52.7311 119.607 52.5016 119.734 52.3059 119.905C52.1101 120.076 51.9525 120.286 51.8431 120.522C51.7338 120.758 51.6751 121.014 51.6711 121.273C51.667 121.533 51.7175 121.791 51.8194 122.03C52.2194 123.065 53.4194 123.705 54.4244 123.995C55.5594 124.315 58.0894 123.935 58.2894 123.905C58.5061 125.35 58.8168 126.78 59.2194 128.185C59.4544 129.005 59.7194 129.825 59.9794 130.64C59.8044 130.285 59.6394 129.97 59.6144 129.93C58.8444 128.76 56.6744 126.93 55.1594 127.365C54.9111 127.442 54.6816 127.569 54.4859 127.74C54.2901 127.911 54.1325 128.121 54.0231 128.357C53.9138 128.593 53.8552 128.849 53.8511 129.108C53.847 129.368 53.8975 129.626 53.9994 129.865C54.3994 130.895 55.5994 131.54 56.6044 131.825C57.6094 132.11 59.7894 131.825 60.3594 131.755C60.4644 132.065 60.5694 132.38 60.6794 132.69C61.1794 134.19 61.7194 135.69 62.1794 137.16C62.3444 137.66 62.4844 138.2 62.6294 138.72C62.4744 138.405 62.3344 138.14 62.3094 138.105C61.5444 136.93 59.3694 135.105 57.8594 135.54C57.6106 135.616 57.3806 135.743 57.1844 135.914C56.9881 136.085 56.8299 136.295 56.72 136.531C56.6101 136.766 56.5511 137.022 56.5467 137.283C56.5422 137.543 56.5926 137.801 56.6944 138.04C57.0944 139.07 58.2994 139.715 59.3044 140C60.3094 140.285 62.2744 140.035 62.9544 139.94C63.0894 140.475 63.2244 141.015 63.3294 141.54C63.3894 141.9 63.4744 142.24 63.5194 142.61L63.6694 143.68C63.7394 144.365 63.8194 145.07 63.8694 145.74C63.9094 146.21 63.9394 146.655 63.9694 147.1C63.8144 146.6 63.4694 145.565 63.4694 145.485C62.9158 144.385 62.0895 143.445 61.0694 142.755C61.0126 142.63 60.9457 142.509 60.8694 142.395C60.7268 142.177 60.54 141.991 60.3212 141.85C60.1023 141.709 59.8562 141.615 59.5989 141.575C59.3415 141.535 59.0786 141.55 58.8272 141.618C58.5758 141.686 58.3414 141.806 58.1394 141.97C56.9544 142.995 57.2494 145.805 57.7944 147.095C57.8244 147.17 58.2944 147.96 58.5544 148.45L57.9194 147.66C57.4794 147.125 57.0294 146.605 56.5494 146.045C56.3027 145.785 56.0577 145.52 55.8144 145.25C55.5744 144.98 55.2894 144.725 55.0244 144.455C54.3944 143.85 53.7294 143.265 53.0244 142.695C53.4944 142.31 55.1294 140.93 55.5994 139.99C56.0694 139.05 56.4044 137.735 55.9144 136.74C55.8066 136.503 55.6504 136.292 55.4557 136.119C55.261 135.947 55.0322 135.818 54.7842 135.739C54.5362 135.661 54.2745 135.636 54.0161 135.665C53.7577 135.695 53.5084 135.778 53.2844 135.91C51.9544 136.74 51.8194 139.565 52.1644 140.91C52.1644 140.995 52.5444 141.945 52.7494 142.46C52.3344 142.115 51.9244 141.775 51.4944 141.46C50.2544 140.505 48.9944 139.575 47.6944 138.64L46.5294 137.775C46.6944 137.64 48.6744 136.04 49.2044 134.985C49.6744 134.05 50.0094 132.73 49.5194 131.74C49.4122 131.502 49.2561 131.29 49.0612 131.116C48.8664 130.943 48.6371 130.812 48.3884 130.734C48.1398 130.655 47.8773 130.629 47.6181 130.659C47.359 130.688 47.1089 130.772 46.8844 130.905C45.5594 131.74 45.4244 134.56 45.7694 135.905C45.7944 136.005 46.3094 137.365 46.4594 137.705C45.6044 137.07 44.7594 136.43 43.9594 135.765C42.8652 134.869 41.8297 133.904 40.8594 132.875C40.9344 132.815 43.0094 131.15 43.5494 130.075C44.0194 129.14 44.3544 127.82 43.8644 126.825C43.7561 126.589 43.5997 126.379 43.4051 126.208C43.2106 126.036 42.9823 125.908 42.735 125.83C42.4876 125.752 42.2267 125.727 41.9691 125.756C41.7115 125.786 41.4629 125.869 41.2394 126C39.9094 126.835 39.7794 129.66 40.1194 131C40.1444 131.09 40.5344 132.13 40.7344 132.615L40.6594 132.665C39.7095 131.603 38.8562 130.458 38.1094 129.245C37.6944 128.585 37.3294 127.925 36.9894 127.28C37.4094 127.01 39.3044 125.78 39.8994 124.84C40.4944 123.9 40.9494 122.685 40.5694 121.645C40.488 121.401 40.3567 121.176 40.1838 120.985C40.0108 120.794 39.8001 120.642 39.5649 120.537C39.3298 120.432 39.0754 120.377 38.8179 120.376C38.5604 120.375 38.3055 120.427 38.0694 120.53C36.6594 121.21 36.2144 124.03 36.4094 125.39C36.4094 125.465 36.6094 126.22 36.7594 126.765C36.6094 126.475 36.4494 126.17 36.3144 125.885C35.8144 124.82 35.3894 123.81 35.0394 122.915C34.8444 122.415 34.6744 121.915 34.5394 121.495C34.8094 121.02 35.8844 119.075 35.9844 117.995C36.0844 116.915 35.9244 115.6 35.1094 114.85C34.9233 114.667 34.701 114.526 34.4567 114.434C34.2125 114.343 33.9518 114.304 33.6915 114.32C33.4312 114.336 33.1773 114.407 32.946 114.527C32.7148 114.648 32.5115 114.816 32.3494 115.02C31.4144 116.275 32.3094 118.96 33.1194 120.1C33.1894 120.2 34.4594 121.6 34.4744 121.6V121.57C34.6144 121.995 34.7644 122.445 34.9444 122.94C35.2794 123.845 35.6644 124.865 36.1594 125.94C36.6788 127.113 37.2664 128.255 37.9194 129.36C38.6474 130.598 39.4841 131.77 40.4194 132.86L40.4544 132.895C40.0644 132.655 38.9544 132.02 38.8594 131.98C37.5744 131.425 34.7594 131.115 33.7294 132.295C33.5638 132.496 33.4425 132.73 33.3733 132.981C33.3041 133.232 33.2886 133.495 33.3277 133.753C33.3669 134.01 33.4598 134.257 33.6005 134.476C33.7412 134.695 33.9265 134.882 34.1444 135.025C35.0444 135.665 36.4044 135.525 37.3994 135.225C38.5244 134.87 40.3994 133.155 40.5744 133.02C41.5524 134.107 42.6013 135.127 43.7144 136.075C44.3594 136.63 45.0244 137.17 45.7144 137.705C45.3694 137.51 45.0594 137.335 45.0144 137.315C43.7294 136.76 40.9194 136.45 39.8894 137.63C39.7228 137.831 39.6005 138.064 39.5305 138.315C39.4605 138.566 39.4443 138.829 39.483 139.087C39.5217 139.345 39.6144 139.591 39.7551 139.811C39.8958 140.03 40.0813 140.217 40.2994 140.36C41.2044 141 42.5594 140.86 43.5594 140.56C44.5594 140.26 46.2144 138.81 46.6494 138.425L47.4294 139.035C48.6894 140 49.9294 140.955 51.1544 141.93C51.5794 142.275 51.9844 142.625 52.3944 142.98C52.0894 142.805 51.8294 142.66 51.7844 142.64C50.4994 142.09 47.6894 141.775 46.6594 142.96C46.4928 143.161 46.3705 143.394 46.3005 143.645C46.2305 143.896 46.2143 144.159 46.253 144.417C46.2917 144.675 46.3844 144.921 46.5251 145.141C46.6658 145.36 46.8513 145.547 47.0694 145.69C47.9744 146.33 49.3294 146.19 50.3294 145.885C51.3294 145.58 52.8294 144.275 53.3294 143.825C53.7344 144.195 54.1444 144.57 54.5244 144.95C54.7744 145.215 55.0244 145.45 55.2744 145.735L55.9894 146.55C56.4294 147.08 56.8794 147.625 57.2944 148.155C57.5844 148.525 57.8544 148.88 58.1294 149.235C57.7094 148.89 56.8744 148.235 56.7944 148.18C55.6094 147.435 52.8794 146.705 51.6794 147.715C51.4857 147.889 51.3308 148.102 51.2248 148.34C51.1188 148.577 51.064 148.835 51.064 149.095C51.064 149.355 51.1188 149.613 51.2248 149.851C51.3308 150.088 51.4857 150.301 51.6794 150.475C52.4744 151.245 53.8344 151.325 54.8694 151.165C56.0044 150.99 58.0644 149.665 58.3194 149.48C58.7694 150.07 59.1994 150.65 59.5994 151.2C60.9844 153.115 62.0644 154.765 62.8044 155.925L62.8794 156.045L63.8394 155.58L63.6894 155.35C62.9144 154.195 61.7894 152.555 60.3444 150.65C59.8944 150.045 59.3944 149.415 58.8794 148.765C59.4143 148.181 59.9151 147.567 60.3794 146.925C61.4794 147.355 63.7744 147.37 64.0694 147.37C64.1194 148.115 64.1594 148.835 64.1844 149.515C64.2844 151.88 64.2744 153.85 64.2544 155.225C64.2544 155.28 64.2544 155.33 64.2544 155.385L65.3094 154.885C65.3094 153.515 65.2544 151.665 65.1194 149.475C65.0694 148.725 65.0044 147.92 64.9344 147.095C65.2244 147.025 67.6094 146.41 68.5094 145.69C69.3294 145.04 70.1894 143.98 70.1594 142.875C70.1614 142.615 70.1085 142.357 70.0042 142.118C69.9 141.879 69.7467 141.665 69.5542 141.49C69.3618 141.315 69.1346 141.182 68.8874 141.1C68.6401 141.018 68.3785 140.989 68.1194 141.015C66.5594 141.215 65.2594 143.72 65.0044 145.1C65.0044 145.18 64.9194 146.1 64.8894 146.645C64.8594 146.31 64.8294 145.985 64.7944 145.645C64.7244 144.96 64.6344 144.28 64.5444 143.545C64.4844 143.195 64.4244 142.835 64.3694 142.475C64.3144 142.115 64.2194 141.745 64.1444 141.38C63.9544 140.525 63.7244 139.67 63.4694 138.815C64.0694 138.755 66.1994 138.505 67.1094 137.98C68.0194 137.455 69.0244 136.545 69.1644 135.445C69.2054 135.188 69.1919 134.925 69.1248 134.674C69.0577 134.423 68.9384 134.188 68.7748 133.986C68.6112 133.784 68.4069 133.618 68.1751 133.5C67.9433 133.382 67.6892 133.314 67.4294 133.3C65.8594 133.26 64.1894 135.54 63.7294 136.865C63.6994 136.945 63.4744 137.93 63.3644 138.475C63.2044 137.975 63.0544 137.45 62.8644 136.935C62.3644 135.435 61.7994 133.97 61.2494 132.485L60.7494 131.12C60.9644 131.12 63.4994 130.86 64.5194 130.27C65.4244 129.77 66.4344 128.835 66.5744 127.735C66.6162 127.478 66.6033 127.215 66.5365 126.963C66.4697 126.712 66.3505 126.477 66.1868 126.274C66.023 126.072 65.8183 125.906 65.5861 125.788C65.3539 125.67 65.0995 125.603 64.8394 125.59C63.2694 125.55 61.5994 127.835 61.1394 129.155C61.1044 129.255 60.7844 130.655 60.7194 131.04C60.3594 130.04 60.0094 129.04 59.7194 128.04C59.3018 126.689 58.9678 125.313 58.7194 123.92C58.8194 123.92 61.4694 123.67 62.5144 123.07C63.4194 122.545 64.4294 121.63 64.5694 120.53C64.6104 120.273 64.5968 120.01 64.5294 119.758C64.462 119.506 64.3423 119.271 64.1781 119.069C64.014 118.867 63.809 118.701 63.5766 118.583C63.3442 118.465 63.0896 118.398 62.8294 118.385C61.2644 118.345 59.5944 120.63 59.1344 121.95C59.1044 122.035 58.8594 123.12 58.7544 123.635H58.6644C58.4578 122.227 58.3775 120.803 58.4244 119.38C58.4244 118.6 58.4994 117.85 58.5744 117.125C59.0744 117.125 61.3494 117.125 62.3494 116.695C63.3494 116.265 64.4094 115.475 64.6694 114.4C64.7387 114.148 64.7541 113.885 64.7145 113.626C64.6749 113.368 64.5813 113.121 64.4397 112.902C64.2981 112.682 64.1117 112.495 63.8928 112.353C63.6739 112.21 63.4274 112.116 63.1694 112.075C61.6144 111.865 59.7044 113.95 59.1044 115.21C59.0694 115.28 58.8144 116.015 58.6344 116.555C58.6694 116.225 58.7044 115.89 58.7494 115.555C58.9094 114.38 59.1244 113.315 59.3244 112.37C59.4444 111.835 59.5594 111.37 59.6744 110.905C60.1744 110.655 62.1344 109.63 62.8094 108.795C63.4844 107.96 64.0744 106.765 63.8094 105.69C63.7543 105.431 63.6444 105.187 63.4873 104.974C63.3301 104.762 63.1292 104.585 62.8981 104.456C62.667 104.327 62.4111 104.249 62.1474 104.228C61.8837 104.206 61.6184 104.241 61.3694 104.33Z" fill="white"/>
<path d="M33.0296 128.5C34.2546 128.45 36.7046 127.19 36.7096 127.19C36.7146 127.19 35.3896 125.83 35.2946 125.75C34.1996 124.88 31.5696 123.835 30.2646 124.705C30.0519 124.855 29.8732 125.048 29.74 125.272C29.6068 125.495 29.5221 125.744 29.4914 126.003C29.4608 126.261 29.4848 126.523 29.5621 126.771C29.6393 127.02 29.7679 127.249 29.9396 127.445C30.6446 128.3 31.9996 128.54 33.0296 128.5Z" fill="white"/>
</g>
<path d="M47.3345 159.175C47.3345 159.175 54.7695 141.255 58.9295 142.035C63.0895 142.815 51.7945 170.605 51.7945 170.605C51.7945 170.605 64.8745 145.93 73.7945 145.93C82.7145 145.93 70.5245 173.2 59.2295 182.29C59.2295 182.29 77.0645 163.07 87.4745 167.23C97.8845 171.39 66.6595 190.865 66.6595 190.865C66.6595 190.865 84.7945 185.15 82.7145 189.565C80.6345 193.98 74.9995 194.76 74.9995 194.76L95.4995 195.8H24.1445L40.1995 194.24C40.1995 194.24 23.5495 185.93 27.9995 182.55C32.4495 179.17 42.2695 186.445 42.2695 186.445C42.2695 186.445 25.3245 167.745 28.5945 160.735C31.8645 153.725 46.4345 173.46 46.4345 173.46C46.4345 173.46 34.5395 148.27 36.9345 143.85C39.3295 139.43 47.3345 159.175 47.3345 159.175Z" fill="#99CFC2"/>
<path opacity="0.4" d="M47.3345 159.175C47.3345 159.175 54.7695 141.255 58.9295 142.035C63.0895 142.815 51.7945 170.605 51.7945 170.605C51.7945 170.605 64.8745 145.93 73.7945 145.93C82.7145 145.93 70.5245 173.2 59.2295 182.29C59.2295 182.29 77.0645 163.07 87.4745 167.23C97.8845 171.39 66.6595 190.865 66.6595 190.865C66.6595 190.865 84.7945 185.15 82.7145 189.565C80.6345 193.98 74.9995 194.76 74.9995 194.76L95.4995 195.8H24.1445L40.1995 194.24C40.1995 194.24 23.5495 185.93 27.9995 182.55C32.4495 179.17 42.2695 186.445 42.2695 186.445C42.2695 186.445 25.3245 167.745 28.5945 160.735C31.8645 153.725 46.4345 173.46 46.4345 173.46C46.4345 173.46 34.5395 148.27 36.9345 143.85C39.3295 139.43 47.3345 159.175 47.3345 159.175Z" fill="white"/>
<path d="M44.9593 160.12C51.4993 179.445 51.4993 193.12 51.4993 193.12C51.4993 193.12 43.7693 193.42 35.7393 187.475" stroke="#E3851E" stroke-linecap="round" stroke-linejoin="round"/>
<path d="M48.2295 170.525C49.5756 164.748 51.3642 159.083 53.5795 153.58" stroke="#E3851E" stroke-linecap="round" stroke-linejoin="round"/>
<path d="M67.5543 159.23L50.9043 183.905C50.9043 183.905 39.6043 174.405 35.7393 169.04" stroke="#E3851E" stroke-linecap="round" stroke-linejoin="round"/>
<path d="M51.1992 189.85C51.1992 189.85 68.7392 181.525 75.8792 176.77" stroke="#E3851E" stroke-linecap="round" stroke-linejoin="round"/>
<path d="M197.309 116.89C197.279 116.89 197.659 115.025 197.694 114.89C198.124 113.56 199.744 111.24 201.309 111.24C201.57 111.248 201.826 111.311 202.06 111.424C202.295 111.538 202.503 111.699 202.671 111.898C202.84 112.097 202.964 112.329 203.037 112.579C203.11 112.829 203.129 113.092 203.094 113.35C202.979 114.45 201.989 115.39 201.094 115.93C200.044 116.585 197.309 116.89 197.309 116.89Z" fill="#99CFC2"/>
<path d="M194.274 104.33C195.749 104.86 196.484 107.59 196.434 108.99C196.434 109.11 196.154 110.99 196.129 110.99H196.099C196.214 111.42 196.339 111.88 196.464 112.39C196.684 113.33 196.924 114.39 197.109 115.57C197.324 116.834 197.464 118.11 197.529 119.39C197.609 120.825 197.56 122.264 197.384 123.69C197.382 123.707 197.382 123.723 197.384 123.74C197.579 123.325 198.159 122.18 198.209 122.095C198.979 120.925 201.149 119.095 202.664 119.53C202.913 119.606 203.143 119.733 203.339 119.904C203.535 120.075 203.693 120.285 203.803 120.521C203.912 120.757 203.971 121.013 203.974 121.273C203.978 121.533 203.927 121.791 203.824 122.03C203.424 123.065 202.224 123.705 201.219 123.995C200.084 124.315 197.554 123.935 197.354 123.905C197.14 125.351 196.829 126.781 196.424 128.185C196.191 129.005 195.937 129.823 195.664 130.64C195.839 130.285 196.004 129.97 196.029 129.93C196.799 128.76 198.974 126.93 200.484 127.365C200.733 127.441 200.963 127.568 201.159 127.739C201.355 127.91 201.513 128.12 201.623 128.356C201.732 128.592 201.791 128.848 201.794 129.108C201.798 129.368 201.747 129.626 201.644 129.865C201.244 130.895 200.044 131.54 199.039 131.825C198.034 132.11 195.854 131.825 195.284 131.755L194.969 132.69C194.469 134.19 193.924 135.69 193.469 137.16C193.304 137.66 193.159 138.2 193.014 138.72C193.174 138.405 193.309 138.14 193.334 138.105C194.104 136.93 196.274 135.105 197.784 135.54C198.033 135.616 198.263 135.743 198.459 135.914C198.655 136.085 198.814 136.295 198.923 136.531C199.033 136.766 199.092 137.022 199.097 137.283C199.101 137.543 199.051 137.801 198.949 138.04C198.549 139.07 197.344 139.715 196.339 140C195.334 140.285 193.369 140.035 192.689 139.94C192.554 140.475 192.424 141.015 192.319 141.54C192.254 141.9 192.169 142.24 192.124 142.61L191.974 143.68C191.904 144.365 191.824 145.07 191.774 145.74C191.734 146.21 191.704 146.655 191.674 147.1C191.834 146.6 192.174 145.565 192.199 145.485C192.754 144.386 193.58 143.446 194.599 142.755C194.656 142.629 194.724 142.508 194.804 142.395C194.946 142.177 195.132 141.99 195.35 141.849C195.569 141.707 195.814 141.613 196.072 141.573C196.329 141.533 196.592 141.548 196.843 141.616C197.094 141.684 197.328 141.805 197.529 141.97C198.719 142.995 198.419 145.805 197.874 147.095C197.844 147.17 197.399 147.96 197.114 148.45C197.329 148.185 197.529 147.95 197.754 147.66C198.189 147.125 198.639 146.605 199.119 146.045L199.854 145.25C200.094 144.98 200.384 144.725 200.649 144.455C201.274 143.85 201.939 143.265 202.624 142.695C202.159 142.31 200.519 140.93 200.049 139.99C199.579 139.05 199.244 137.735 199.734 136.74C199.842 136.503 199.998 136.291 200.193 136.118C200.388 135.945 200.618 135.815 200.866 135.737C201.115 135.658 201.377 135.633 201.636 135.663C201.895 135.693 202.145 135.777 202.369 135.91C203.694 136.74 203.829 139.565 203.484 140.91C203.484 140.995 203.104 141.945 202.899 142.46C203.314 142.115 203.724 141.775 204.154 141.46C205.394 140.505 206.679 139.575 207.954 138.64L209.119 137.775C208.954 137.64 206.974 136.04 206.444 134.985C205.979 134.05 205.639 132.73 206.129 131.74C206.236 131.502 206.392 131.29 206.587 131.116C206.782 130.943 207.011 130.812 207.26 130.734C207.509 130.655 207.771 130.629 208.03 130.659C208.289 130.688 208.54 130.772 208.764 130.905C210.094 131.74 210.224 134.56 209.879 135.905C209.854 136.005 209.339 137.365 209.194 137.705C210.044 137.07 210.889 136.43 211.694 135.765C212.788 134.869 213.824 133.904 214.794 132.875C214.719 132.815 212.644 131.15 212.104 130.075C211.634 129.14 211.299 127.82 211.789 126.825C211.896 126.588 212.052 126.376 212.247 126.203C212.441 126.03 212.67 125.9 212.918 125.821C213.166 125.743 213.428 125.717 213.686 125.746C213.945 125.775 214.195 125.858 214.419 125.99C215.749 126.825 215.884 129.65 215.539 130.99C215.514 131.08 215.124 132.12 214.929 132.605C214.952 132.625 214.977 132.641 215.004 132.655C215.952 131.593 216.804 130.448 217.549 129.235C217.969 128.575 218.329 127.915 218.669 127.27C218.249 127 216.354 125.77 215.759 124.83C215.164 123.89 214.714 122.675 215.089 121.635C215.17 121.388 215.302 121.16 215.477 120.967C215.651 120.774 215.865 120.62 216.103 120.514C216.341 120.409 216.599 120.355 216.859 120.356C217.119 120.357 217.377 120.413 217.614 120.52C219.029 121.2 219.469 124.02 219.274 125.38C219.274 125.455 219.074 126.21 218.929 126.755C219.074 126.465 219.234 126.16 219.369 125.875C219.869 124.81 220.294 123.8 220.644 122.905C220.844 122.405 221.009 121.905 221.144 121.485C220.869 121.01 219.799 119.065 219.694 117.985C219.589 116.905 219.759 115.59 220.574 114.84C220.76 114.657 220.982 114.516 221.225 114.425C221.469 114.333 221.73 114.295 221.989 114.311C222.249 114.327 222.503 114.397 222.734 114.518C222.965 114.638 223.167 114.806 223.329 115.01C224.269 116.265 223.374 118.95 222.564 120.09C222.494 120.19 221.219 121.59 221.204 121.59V121.56C221.064 121.985 220.914 122.435 220.734 122.93C220.404 123.835 220.019 124.855 219.524 125.93C219.001 127.102 218.412 128.244 217.759 129.35C217.031 130.588 216.194 131.76 215.259 132.85L215.224 132.885C215.614 132.645 216.724 132.01 216.819 131.97C218.109 131.415 220.919 131.105 221.949 132.285C222.115 132.486 222.237 132.719 222.306 132.97C222.376 133.221 222.392 133.484 222.353 133.741C222.314 133.999 222.222 134.245 222.082 134.465C221.941 134.684 221.757 134.872 221.539 135.015C220.634 135.655 219.279 135.515 218.279 135.215C217.154 134.86 215.279 133.145 215.109 133.01C214.131 134.097 213.082 135.117 211.969 136.065C211.324 136.62 210.654 137.16 209.969 137.695C210.314 137.5 210.624 137.325 210.669 137.305C211.954 136.75 214.764 136.44 215.794 137.62C215.961 137.82 216.083 138.054 216.153 138.305C216.223 138.556 216.239 138.819 216.2 139.077C216.162 139.335 216.069 139.581 215.928 139.801C215.788 140.02 215.602 140.207 215.384 140.35C214.484 140.99 213.124 140.85 212.129 140.55C211.134 140.25 209.469 138.8 209.039 138.415C208.774 138.62 208.539 138.825 208.254 139.025C206.999 139.99 205.754 140.945 204.529 141.92C204.104 142.265 203.699 142.615 203.289 142.97L203.899 142.63C205.184 142.08 207.994 141.765 209.024 142.95C209.191 143.15 209.313 143.384 209.383 143.635C209.453 143.886 209.469 144.149 209.43 144.407C209.392 144.665 209.299 144.911 209.158 145.131C209.018 145.35 208.832 145.537 208.614 145.68C207.709 146.32 206.354 146.18 205.359 145.875C204.364 145.57 202.859 144.265 202.359 143.815C201.954 144.185 201.544 144.56 201.169 144.94C200.914 145.205 200.669 145.44 200.419 145.725L199.699 146.54C199.264 147.07 198.809 147.615 198.394 148.145C198.104 148.515 197.834 148.87 197.564 149.225C197.979 148.88 198.819 148.225 198.894 148.17C200.079 147.425 202.814 146.695 204.009 147.705C204.203 147.879 204.358 148.092 204.464 148.329C204.57 148.567 204.624 148.825 204.624 149.085C204.624 149.345 204.57 149.603 204.464 149.84C204.358 150.078 204.203 150.291 204.009 150.465C203.209 151.235 201.849 151.315 200.819 151.155C199.679 150.98 197.619 149.655 197.364 149.47C196.914 150.06 196.484 150.64 196.084 151.19C194.699 153.105 193.619 154.755 192.879 155.915C192.879 155.96 192.829 155.995 192.804 156.035L191.844 155.57L191.994 155.34C192.769 154.185 193.899 152.545 195.339 150.64C195.794 150.035 196.289 149.405 196.804 148.755C196.268 148.172 195.767 147.557 195.304 146.915C194.199 147.345 191.909 147.36 191.609 147.36C191.564 148.105 191.524 148.825 191.494 149.505C191.394 151.87 191.404 153.84 191.429 155.215V155.375L190.374 154.875C190.374 153.505 190.429 151.655 190.569 149.465C190.614 148.715 190.679 147.91 190.754 147.085C190.459 147.015 188.074 146.4 187.174 145.68C186.359 145.03 185.499 143.97 185.529 142.865C185.526 142.604 185.579 142.346 185.683 142.107C185.787 141.868 185.94 141.654 186.133 141.478C186.325 141.303 186.553 141.17 186.8 141.088C187.048 141.007 187.31 140.978 187.569 141.005C189.124 141.205 190.429 143.71 190.684 145.09C190.684 145.17 190.764 146.09 190.794 146.635C190.829 146.3 190.854 145.975 190.894 145.635C190.959 144.95 191.049 144.27 191.144 143.535C191.199 143.185 191.259 142.825 191.314 142.465C191.369 142.105 191.464 141.735 191.539 141.37C191.729 140.515 191.959 139.66 192.214 138.805C191.614 138.745 189.489 138.495 188.574 137.97C187.659 137.445 186.659 136.535 186.524 135.435C186.482 135.178 186.495 134.915 186.562 134.663C186.629 134.412 186.748 134.177 186.912 133.974C187.075 133.772 187.28 133.606 187.512 133.488C187.745 133.37 187.999 133.303 188.259 133.29C189.824 133.25 191.494 135.53 191.954 136.855C191.984 136.935 192.209 137.92 192.319 138.465C192.479 137.965 192.629 137.44 192.819 136.925C193.319 135.425 193.884 133.96 194.434 132.475C194.604 132.02 194.764 131.565 194.934 131.11C194.719 131.11 192.184 130.85 191.164 130.26C190.259 129.76 189.249 128.825 189.109 127.725C189.068 127.468 189.082 127.205 189.149 126.954C189.216 126.703 189.335 126.468 189.499 126.266C189.662 126.064 189.867 125.898 190.098 125.78C190.33 125.662 190.584 125.594 190.844 125.58C192.414 125.54 194.084 127.825 194.544 129.145C194.579 129.245 194.899 130.645 194.964 131.03C195.324 130.03 195.679 129.03 195.964 128.03C196.386 126.68 196.72 125.304 196.964 123.91C196.864 123.91 194.219 123.66 193.174 123.06C192.264 122.535 191.254 121.62 191.119 120.52C191.077 120.263 191.09 120 191.157 119.748C191.224 119.497 191.343 119.262 191.507 119.059C191.67 118.857 191.875 118.691 192.107 118.573C192.34 118.455 192.594 118.388 192.854 118.375C194.419 118.335 196.089 120.62 196.549 121.94C196.579 122.025 196.829 123.11 196.934 123.625H197.019C197.226 122.217 197.306 120.793 197.259 119.37C197.259 118.59 197.184 117.84 197.109 117.115C196.609 117.115 194.339 117.115 193.339 116.685C192.339 116.255 191.274 115.465 191.014 114.39C190.945 114.138 190.929 113.875 190.969 113.616C191.008 113.358 191.102 113.111 191.244 112.892C191.385 112.672 191.572 112.485 191.791 112.343C192.01 112.2 192.256 112.106 192.514 112.065C194.069 111.855 195.979 113.94 196.584 115.2C196.614 115.27 196.874 116.005 197.049 116.545C197.014 116.215 196.979 115.88 196.934 115.545C196.779 114.37 196.559 113.305 196.359 112.36C196.239 111.825 196.124 111.36 196.009 110.895C195.509 110.645 193.549 109.62 192.879 108.785C192.209 107.95 191.609 106.755 191.879 105.68C191.936 105.427 192.046 105.19 192.201 104.982C192.355 104.774 192.552 104.601 192.777 104.474C193.003 104.347 193.253 104.268 193.51 104.244C193.768 104.219 194.028 104.248 194.274 104.33Z" fill="#99CFC2"/>
<path d="M222.614 128.5C221.389 128.45 218.939 127.19 218.939 127.19C218.939 127.19 220.254 125.83 220.349 125.75C221.444 124.88 224.074 123.835 225.379 124.705C225.593 124.854 225.772 125.047 225.906 125.271C226.039 125.494 226.124 125.744 226.155 126.002C226.186 126.261 226.161 126.523 226.084 126.772C226.006 127.02 225.877 127.25 225.704 127.445C224.999 128.3 223.659 128.54 222.614 128.5Z" fill="#99CFC2"/>
<g opacity="0.5">
<path d="M197.309 116.89C197.279 116.89 197.659 115.025 197.694 114.89C198.124 113.56 199.744 111.24 201.309 111.24C201.57 111.248 201.826 111.311 202.06 111.424C202.295 111.538 202.503 111.699 202.671 111.898C202.84 112.097 202.964 112.329 203.037 112.579C203.11 112.829 203.129 113.092 203.094 113.35C202.979 114.45 201.989 115.39 201.094 115.93C200.044 116.585 197.309 116.89 197.309 116.89Z" fill="white"/>
<path d="M194.274 104.33C195.749 104.86 196.484 107.59 196.434 108.99C196.434 109.11 196.154 110.99 196.129 110.99H196.099C196.214 111.42 196.339 111.88 196.464 112.39C196.684 113.33 196.924 114.39 197.109 115.57C197.324 116.834 197.464 118.11 197.529 119.39C197.609 120.825 197.56 122.264 197.384 123.69C197.382 123.707 197.382 123.723 197.384 123.74C197.579 123.325 198.159 122.18 198.209 122.095C198.979 120.925 201.149 119.095 202.664 119.53C202.913 119.606 203.143 119.733 203.339 119.904C203.535 120.075 203.693 120.285 203.803 120.521C203.912 120.757 203.971 121.013 203.974 121.273C203.978 121.533 203.927 121.791 203.824 122.03C203.424 123.065 202.224 123.705 201.219 123.995C200.084 124.315 197.554 123.935 197.354 123.905C197.14 125.351 196.829 126.781 196.424 128.185C196.191 129.005 195.937 129.823 195.664 130.64C195.839 130.285 196.004 129.97 196.029 129.93C196.799 128.76 198.974 126.93 200.484 127.365C200.733 127.441 200.963 127.568 201.159 127.739C201.355 127.91 201.513 128.12 201.623 128.356C201.732 128.592 201.791 128.848 201.794 129.108C201.798 129.368 201.747 129.626 201.644 129.865C201.244 130.895 200.044 131.54 199.039 131.825C198.034 132.11 195.854 131.825 195.284 131.755L194.969 132.69C194.469 134.19 193.924 135.69 193.469 137.16C193.304 137.66 193.159 138.2 193.014 138.72C193.174 138.405 193.309 138.14 193.334 138.105C194.104 136.93 196.274 135.105 197.784 135.54C198.033 135.616 198.263 135.743 198.459 135.914C198.655 136.085 198.814 136.295 198.923 136.531C199.033 136.766 199.092 137.022 199.097 137.283C199.101 137.543 199.051 137.801 198.949 138.04C198.549 139.07 197.344 139.715 196.339 140C195.334 140.285 193.369 140.035 192.689 139.94C192.554 140.475 192.424 141.015 192.319 141.54C192.254 141.9 192.169 142.24 192.124 142.61L191.974 143.68C191.904 144.365 191.824 145.07 191.774 145.74C191.734 146.21 191.704 146.655 191.674 147.1C191.834 146.6 192.174 145.565 192.199 145.485C192.754 144.386 193.58 143.446 194.599 142.755C194.656 142.629 194.724 142.508 194.804 142.395C194.946 142.177 195.132 141.99 195.35 141.849C195.569 141.707 195.814 141.613 196.072 141.573C196.329 141.533 196.592 141.548 196.843 141.616C197.094 141.684 197.328 141.805 197.529 141.97C198.719 142.995 198.419 145.805 197.874 147.095C197.844 147.17 197.399 147.96 197.114 148.45C197.329 148.185 197.529 147.95 197.754 147.66C198.189 147.125 198.639 146.605 199.119 146.045L199.854 145.25C200.094 144.98 200.384 144.725 200.649 144.455C201.274 143.85 201.939 143.265 202.624 142.695C202.159 142.31 200.519 140.93 200.049 139.99C199.579 139.05 199.244 137.735 199.734 136.74C199.842 136.503 199.998 136.291 200.193 136.118C200.388 135.945 200.618 135.815 200.866 135.737C201.115 135.658 201.377 135.633 201.636 135.663C201.895 135.693 202.145 135.777 202.369 135.91C203.694 136.74 203.829 139.565 203.484 140.91C203.484 140.995 203.104 141.945 202.899 142.46C203.314 142.115 203.724 141.775 204.154 141.46C205.394 140.505 206.679 139.575 207.954 138.64L209.119 137.775C208.954 137.64 206.974 136.04 206.444 134.985C205.979 134.05 205.639 132.73 206.129 131.74C206.236 131.502 206.392 131.29 206.587 131.116C206.782 130.943 207.011 130.812 207.26 130.734C207.509 130.655 207.771 130.629 208.03 130.659C208.289 130.688 208.54 130.772 208.764 130.905C210.094 131.74 210.224 134.56 209.879 135.905C209.854 136.005 209.339 137.365 209.194 137.705C210.044 137.07 210.889 136.43 211.694 135.765C212.788 134.869 213.824 133.904 214.794 132.875C214.719 132.815 212.644 131.15 212.104 130.075C211.634 129.14 211.299 127.82 211.789 126.825C211.896 126.588 212.052 126.376 212.247 126.203C212.441 126.03 212.67 125.9 212.918 125.821C213.166 125.743 213.428 125.717 213.686 125.746C213.945 125.775 214.195 125.858 214.419 125.99C215.749 126.825 215.884 129.65 215.539 130.99C215.514 131.08 215.124 132.12 214.929 132.605C214.952 132.625 214.977 132.641 215.004 132.655C215.952 131.593 216.804 130.448 217.549 129.235C217.969 128.575 218.329 127.915 218.669 127.27C218.249 127 216.354 125.77 215.759 124.83C215.164 123.89 214.714 122.675 215.089 121.635C215.17 121.388 215.302 121.16 215.477 120.967C215.651 120.774 215.865 120.62 216.103 120.514C216.341 120.409 216.599 120.355 216.859 120.356C217.119 120.357 217.377 120.413 217.614 120.52C219.029 121.2 219.469 124.02 219.274 125.38C219.274 125.455 219.074 126.21 218.929 126.755C219.074 126.465 219.234 126.16 219.369 125.875C219.869 124.81 220.294 123.8 220.644 122.905C220.844 122.405 221.009 121.905 221.144 121.485C220.869 121.01 219.799 119.065 219.694 117.985C219.589 116.905 219.759 115.59 220.574 114.84C220.76 114.657 220.982 114.516 221.225 114.425C221.469 114.333 221.73 114.295 221.989 114.311C222.249 114.327 222.503 114.397 222.734 114.518C222.965 114.638 223.167 114.806 223.329 115.01C224.269 116.265 223.374 118.95 222.564 120.09C222.494 120.19 221.219 121.59 221.204 121.59V121.56C221.064 121.985 220.914 122.435 220.734 122.93C220.404 123.835 220.019 124.855 219.524 125.93C219.001 127.102 218.412 128.244 217.759 129.35C217.031 130.588 216.194 131.76 215.259 132.85L215.224 132.885C215.614 132.645 216.724 132.01 216.819 131.97C218.109 131.415 220.919 131.105 221.949 132.285C222.115 132.486 222.237 132.719 222.306 132.97C222.376 133.221 222.392 133.484 222.353 133.741C222.314 133.999 222.222 134.245 222.082 134.465C221.941 134.684 221.757 134.872 221.539 135.015C220.634 135.655 219.279 135.515 218.279 135.215C217.154 134.86 215.279 133.145 215.109 133.01C214.131 134.097 213.082 135.117 211.969 136.065C211.324 136.62 210.654 137.16 209.969 137.695C210.314 137.5 210.624 137.325 210.669 137.305C211.954 136.75 214.764 136.44 215.794 137.62C215.961 137.82 216.083 138.054 216.153 138.305C216.223 138.556 216.239 138.819 216.2 139.077C216.162 139.335 216.069 139.581 215.928 139.801C215.788 140.02 215.602 140.207 215.384 140.35C214.484 140.99 213.124 140.85 212.129 140.55C211.134 140.25 209.469 138.8 209.039 138.415C208.774 138.62 208.539 138.825 208.254 139.025C206.999 139.99 205.754 140.945 204.529 141.92C204.104 142.265 203.699 142.615 203.289 142.97L203.899 142.63C205.184 142.08 207.994 141.765 209.024 142.95C209.191 143.15 209.313 143.384 209.383 143.635C209.453 143.886 209.469 144.149 209.43 144.407C209.392 144.665 209.299 144.911 209.158 145.131C209.018 145.35 208.832 145.537 208.614 145.68C207.709 146.32 206.354 146.18 205.359 145.875C204.364 145.57 202.859 144.265 202.359 143.815C201.954 144.185 201.544 144.56 201.169 144.94C200.914 145.205 200.669 145.44 200.419 145.725L199.699 146.54C199.264 147.07 198.809 147.615 198.394 148.145C198.104 148.515 197.834 148.87 197.564 149.225C197.979 148.88 198.819 148.225 198.894 148.17C200.079 147.425 202.814 146.695 204.009 147.705C204.203 147.879 204.358 148.092 204.464 148.329C204.57 148.567 204.624 148.825 204.624 149.085C204.624 149.345 204.57 149.603 204.464 149.84C204.358 150.078 204.203 150.291 204.009 150.465C203.209 151.235 201.849 151.315 200.819 151.155C199.679 150.98 197.619 149.655 197.364 149.47C196.914 150.06 196.484 150.64 196.084 151.19C194.699 153.105 193.619 154.755 192.879 155.915C192.879 155.96 192.829 155.995 192.804 156.035L191.844 155.57L191.994 155.34C192.769 154.185 193.899 152.545 195.339 150.64C195.794 150.035 196.289 149.405 196.804 148.755C196.268 148.172 195.767 147.557 195.304 146.915C194.199 147.345 191.909 147.36 191.609 147.36C191.564 148.105 191.524 148.825 191.494 149.505C191.394 151.87 191.404 153.84 191.429 155.215V155.375L190.374 154.875C190.374 153.505 190.429 151.655 190.569 149.465C190.614 148.715 190.679 147.91 190.754 147.085C190.459 147.015 188.074 146.4 187.174 145.68C186.359 145.03 185.499 143.97 185.529 142.865C185.526 142.604 185.579 142.346 185.683 142.107C185.787 141.868 185.94 141.654 186.133 141.478C186.325 141.303 186.553 141.17 186.8 141.088C187.048 141.007 187.31 140.978 187.569 141.005C189.124 141.205 190.429 143.71 190.684 145.09C190.684 145.17 190.764 146.09 190.794 146.635C190.829 146.3 190.854 145.975 190.894 145.635C190.959 144.95 191.049 144.27 191.144 143.535C191.199 143.185 191.259 142.825 191.314 142.465C191.369 142.105 191.464 141.735 191.539 141.37C191.729 140.515 191.959 139.66 192.214 138.805C191.614 138.745 189.489 138.495 188.574 137.97C187.659 137.445 186.659 136.535 186.524 135.435C186.482 135.178 186.495 134.915 186.562 134.663C186.629 134.412 186.748 134.177 186.912 133.974C187.075 133.772 187.28 133.606 187.512 133.488C187.745 133.37 187.999 133.303 188.259 133.29C189.824 133.25 191.494 135.53 191.954 136.855C191.984 136.935 192.209 137.92 192.319 138.465C192.479 137.965 192.629 137.44 192.819 136.925C193.319 135.425 193.884 133.96 194.434 132.475C194.604 132.02 194.764 131.565 194.934 131.11C194.719 131.11 192.184 130.85 191.164 130.26C190.259 129.76 189.249 128.825 189.109 127.725C189.068 127.468 189.082 127.205 189.149 126.954C189.216 126.703 189.335 126.468 189.499 126.266C189.662 126.064 189.867 125.898 190.098 125.78C190.33 125.662 190.584 125.594 190.844 125.58C192.414 125.54 194.084 127.825 194.544 129.145C194.579 129.245 194.899 130.645 194.964 131.03C195.324 130.03 195.679 129.03 195.964 128.03C196.386 126.68 196.72 125.304 196.964 123.91C196.864 123.91 194.219 123.66 193.174 123.06C192.264 122.535 191.254 121.62 191.119 120.52C191.077 120.263 191.09 120 191.157 119.748C191.224 119.497 191.343 119.262 191.507 119.059C191.67 118.857 191.875 118.691 192.107 118.573C192.34 118.455 192.594 118.388 192.854 118.375C194.419 118.335 196.089 120.62 196.549 121.94C196.579 122.025 196.829 123.11 196.934 123.625H197.019C197.226 122.217 197.306 120.793 197.259 119.37C197.259 118.59 197.184 117.84 197.109 117.115C196.609 117.115 194.339 117.115 193.339 116.685C192.339 116.255 191.274 115.465 191.014 114.39C190.945 114.138 190.929 113.875 190.969 113.616C191.008 113.358 191.102 113.111 191.244 112.892C191.385 112.672 191.572 112.485 191.791 112.343C192.01 112.2 192.256 112.106 192.514 112.065C194.069 111.855 195.979 113.94 196.584 115.2C196.614 115.27 196.874 116.005 197.049 116.545C197.014 116.215 196.979 115.88 196.934 115.545C196.779 114.37 196.559 113.305 196.359 112.36C196.239 111.825 196.124 111.36 196.009 110.895C195.509 110.645 193.549 109.62 192.879 108.785C192.209 107.95 191.609 106.755 191.879 105.68C191.936 105.427 192.046 105.19 192.201 104.982C192.355 104.774 192.552 104.601 192.777 104.474C193.003 104.347 193.253 104.268 193.51 104.244C193.768 104.219 194.028 104.248 194.274 104.33Z" fill="white"/>
<path d="M222.614 128.5C221.389 128.45 218.939 127.19 218.939 127.19C218.939 127.19 220.254 125.83 220.349 125.75C221.444 124.88 224.074 123.835 225.379 124.705C225.593 124.854 225.772 125.047 225.906 125.271C226.039 125.494 226.124 125.744 226.155 126.002C226.186 126.261 226.161 126.523 226.084 126.772C226.006 127.02 225.877 127.25 225.704 127.445C224.999 128.3 223.659 128.54 222.614 128.5Z" fill="white"/>
</g>
<path d="M208.31 159.175C208.31 159.175 200.875 141.255 196.715 142.035C192.555 142.815 203.85 170.605 203.85 170.605C203.85 170.605 190.77 145.93 181.85 145.93C172.93 145.93 185.12 173.2 196.42 182.29C196.42 182.29 178.58 163.07 168.175 167.23C157.77 171.39 189 190.865 189 190.865C189 190.865 170.865 185.15 172.945 189.565C175.025 193.98 180.675 194.76 180.675 194.76L160.175 195.8H231.5L215.445 194.24C215.445 194.24 232.095 185.93 227.635 182.55C223.175 179.17 213.365 186.445 213.365 186.445C213.365 186.445 230.31 167.745 227.04 160.735C223.77 153.725 209.2 173.46 209.2 173.46C209.2 173.46 221.095 148.27 218.7 143.85C216.305 139.43 208.31 159.175 208.31 159.175Z" fill="#99CFC2"/>
<path opacity="0.4" d="M208.31 159.175C208.31 159.175 200.875 141.255 196.715 142.035C192.555 142.815 203.85 170.605 203.85 170.605C203.85 170.605 190.77 145.93 181.85 145.93C172.93 145.93 185.12 173.2 196.42 182.29C196.42 182.29 178.58 163.07 168.175 167.23C157.77 171.39 189 190.865 189 190.865C189 190.865 170.865 185.15 172.945 189.565C175.025 193.98 180.675 194.76 180.675 194.76L160.175 195.8H231.5L215.445 194.24C215.445 194.24 232.095 185.93 227.635 182.55C223.175 179.17 213.365 186.445 213.365 186.445C213.365 186.445 230.31 167.745 227.04 160.735C223.77 153.725 209.2 173.46 209.2 173.46C209.2 173.46 221.095 148.27 218.7 143.85C216.305 139.43 208.31 159.175 208.31 159.175Z" fill="white"/>
<path d="M210.689 160.12C204.149 179.445 204.149 193.12 204.149 193.12C204.149 193.12 211.879 193.42 219.904 187.475" stroke="#E3851E" stroke-linecap="round" stroke-linejoin="round"/>
<path d="M207.419 170.525C206.07 164.748 204.28 159.083 202.064 153.58" stroke="#E3851E" stroke-linecap="round" stroke-linejoin="round"/>
<path d="M188.095 159.23L204.74 183.905C204.74 183.905 216.04 174.405 219.905 169.04" stroke="#E3851E" stroke-linecap="round" stroke-linejoin="round"/>
<path d="M204.445 189.85C204.445 189.85 186.905 181.525 179.77 176.77" stroke="#E3851E" stroke-linecap="round" stroke-linejoin="round"/>
<path d="M93.3502 69.52L89.2652 63H53.2852V69.52V71.865V180.335H201.385V69.52H93.3502Z" fill="#E3851E"/>
<path d="M200.41 72.51H54.3848V177.97H200.41V72.51Z" fill="white"/>
<mask id="mask0_2_12725" style="mask-type:luminance" maskUnits="userSpaceOnUse" x="54" y="72" width="147" height="106">
<path d="M200.41 72.51H54.3848V177.97H200.41V72.51Z" fill="white"/>
</mask>
<g mask="url(#mask0_2_12725)">
<path opacity="0.17" d="M201.124 71.605H197.734V178.77H201.124V71.605Z" fill="black"/>
<path opacity="0.17" d="M201.124 136.4H197.734V177.9H201.124V136.4Z" fill="black"/>
<path d="M200.6 71.085H53.8047V76.82H200.6V71.085Z" fill="#99CFC2" stroke="#E3851E" stroke-miterlimit="10"/>
</g>
<path d="M200.41 72.51H54.3848V177.97H200.41V72.51Z" stroke="#E3851E" stroke-linecap="round" stroke-linejoin="round"/>
<g opacity="0.17">
<path d="M130.466 82.35H120.251C120.132 82.35 120.015 82.3267 119.906 82.2815C119.797 82.2362 119.698 82.17 119.614 82.0864C119.531 82.0028 119.464 81.9036 119.419 81.7944C119.374 81.6852 119.351 81.5682 119.351 81.45C119.35 81.3314 119.373 81.2138 119.418 81.104C119.463 80.9943 119.529 80.8945 119.612 80.8104C119.696 80.7263 119.796 80.6595 119.905 80.614C120.015 80.5684 120.132 80.545 120.251 80.545H130.466C130.584 80.545 130.702 80.5684 130.811 80.614C130.921 80.6595 131.02 80.7263 131.104 80.8104C131.187 80.8945 131.254 80.9943 131.299 81.104C131.343 81.2138 131.366 81.3314 131.366 81.45C131.366 81.5682 131.342 81.6852 131.297 81.7944C131.252 81.9036 131.186 82.0028 131.102 82.0864C131.018 82.17 130.919 82.2362 130.81 82.2815C130.701 82.3267 130.584 82.35 130.466 82.35Z" fill="black"/>
<path d="M150.895 82.35H140.68C140.442 82.3487 140.214 82.2534 140.045 82.0849C139.877 81.9164 139.782 81.6883 139.78 81.45C139.78 81.2108 139.875 80.9814 140.044 80.8118C140.212 80.6422 140.441 80.5463 140.68 80.545H150.895C151.135 80.545 151.365 80.6403 151.535 80.8101C151.705 80.9798 151.8 81.21 151.8 81.45C151.799 81.6891 151.703 81.918 151.533 82.0867C151.364 82.2553 151.134 82.35 150.895 82.35Z" fill="black"/>
<path d="M171.331 82.35H161.116C160.877 82.35 160.647 82.2553 160.478 82.0867C160.308 81.918 160.212 81.6891 160.211 81.45C160.211 81.21 160.306 80.9798 160.476 80.8101C160.646 80.6403 160.876 80.545 161.116 80.545H171.331C171.57 80.5463 171.799 80.6422 171.968 80.8118C172.136 80.9814 172.231 81.2108 172.231 81.45C172.23 81.6883 172.134 81.9164 171.966 82.0849C171.797 82.2534 171.569 82.3487 171.331 82.35Z" fill="black"/>
<path d="M191.761 82.35H181.546C181.427 82.35 181.31 82.3267 181.201 82.2815C181.092 82.2362 180.993 82.17 180.909 82.0864C180.826 82.0028 180.759 81.9036 180.714 81.7944C180.669 81.6852 180.646 81.5682 180.646 81.45C180.645 81.3314 180.668 81.2138 180.713 81.104C180.758 80.9943 180.824 80.8945 180.907 80.8104C180.991 80.7263 181.09 80.6595 181.2 80.614C181.309 80.5684 181.427 80.545 181.546 80.545H191.761C192 80.5463 192.229 80.6422 192.397 80.8118C192.566 80.9814 192.661 81.2108 192.661 81.45C192.659 81.6883 192.564 81.9164 192.395 82.0849C192.227 82.2534 191.999 82.3487 191.761 82.35Z" fill="black"/>
</g>
<path d="M68.1855 125.395H83.6206" stroke="#E3851E" stroke-width="3" stroke-linecap="round" stroke-linejoin="round"/>
<path d="M83.3447 127.8H85.0297" stroke="#E3851E" stroke-linecap="round" stroke-linejoin="round"/>
<path d="M73.6797 127.8H82.3247" stroke="#E3851E" stroke-linecap="round" stroke-linejoin="round"/>
<path d="M67.0049 127.8H72.7649" stroke="#E3851E" stroke-linecap="round" stroke-linejoin="round"/>
<path d="M77.9502 130.205H85.0302" stroke="#E3851E" stroke-linecap="round" stroke-linejoin="round"/>
<path d="M74.085 130.205H76.835" stroke="#E3851E" stroke-linecap="round" stroke-linejoin="round"/>
<path d="M67.0049 130.205H72.8649" stroke="#E3851E" stroke-linecap="round" stroke-linejoin="round"/>
<path d="M70.8301 132.605H85.0301" stroke="#E3851E" stroke-linecap="round" stroke-linejoin="round"/>
<path d="M67.0049 132.605H69.5099" stroke="#E3851E" stroke-linecap="round" stroke-linejoin="round"/>
<path d="M81.5156 135.01H85.0306" stroke="#E3851E" stroke-linecap="round" stroke-linejoin="round"/>
<path d="M74.7998 135.01H80.2898" stroke="#E3851E" stroke-linecap="round" stroke-linejoin="round"/>
<path d="M67.0049 135.01H73.6799" stroke="#E3851E" stroke-linecap="round" stroke-linejoin="round"/>
<path d="M72.8652 137.415H85.0302" stroke="#E3851E" stroke-linecap="round" stroke-linejoin="round"/>
<path d="M67.0049 137.415H71.7449" stroke="#E3851E" stroke-linecap="round" stroke-linejoin="round"/>
<path d="M103.385 125.395H118.82" stroke="#E3851E" stroke-width="3" stroke-linecap="round" stroke-linejoin="round"/>
<path d="M118.545 127.8H120.23" stroke="#E3851E" stroke-linecap="round" stroke-linejoin="round"/>
<path d="M108.88 127.8H117.525" stroke="#E3851E" stroke-linecap="round" stroke-linejoin="round"/>
<path d="M102.205 127.8H107.965" stroke="#E3851E" stroke-linecap="round" stroke-linejoin="round"/>
<path d="M113.15 130.205H120.23" stroke="#E3851E" stroke-linecap="round" stroke-linejoin="round"/>
<path d="M109.285 130.205H112.035" stroke="#E3851E" stroke-linecap="round" stroke-linejoin="round"/>
<path d="M102.205 130.205H108.065" stroke="#E3851E" stroke-linecap="round" stroke-linejoin="round"/>
<path d="M106.03 132.605H120.23" stroke="#E3851E" stroke-linecap="round" stroke-linejoin="round"/>
<path d="M102.205 132.605H104.71" stroke="#E3851E" stroke-linecap="round" stroke-linejoin="round"/>
<path d="M116.715 135.01H120.23" stroke="#E3851E" stroke-linecap="round" stroke-linejoin="round"/>
<path d="M110 135.01H115.49" stroke="#E3851E" stroke-linecap="round" stroke-linejoin="round"/>
<path d="M102.205 135.01H108.88" stroke="#E3851E" stroke-linecap="round" stroke-linejoin="round"/>
<path d="M108.065 137.415H120.23" stroke="#E3851E" stroke-linecap="round" stroke-linejoin="round"/>
<path d="M102.205 137.415H106.945" stroke="#E3851E" stroke-linecap="round" stroke-linejoin="round"/>
<path d="M138.585 125.395H154.02" stroke="#E3851E" stroke-width="3" stroke-linecap="round" stroke-linejoin="round"/>
<path d="M153.745 127.8H155.43" stroke="#E3851E" stroke-linecap="round" stroke-linejoin="round"/>
<path d="M144.08 127.8H152.725" stroke="#E3851E" stroke-linecap="round" stroke-linejoin="round"/>
<path d="M137.405 127.8H143.165" stroke="#E3851E" stroke-linecap="round" stroke-linejoin="round"/>
<path d="M148.351 130.205H155.431" stroke="#E3851E" stroke-linecap="round" stroke-linejoin="round"/>
<path d="M144.485 130.205H147.235" stroke="#E3851E" stroke-linecap="round" stroke-linejoin="round"/>
<path d="M137.405 130.205H143.265" stroke="#E3851E" stroke-linecap="round" stroke-linejoin="round"/>
<path d="M141.23 132.605H155.43" stroke="#E3851E" stroke-linecap="round" stroke-linejoin="round"/>
<path d="M137.405 132.605H139.91" stroke="#E3851E" stroke-linecap="round" stroke-linejoin="round"/>
<path d="M151.915 135.01H155.43" stroke="#E3851E" stroke-linecap="round" stroke-linejoin="round"/>
<path d="M145.2 135.01H150.69" stroke="#E3851E" stroke-linecap="round" stroke-linejoin="round"/>
<path d="M137.405 135.01H144.08" stroke="#E3851E" stroke-linecap="round" stroke-linejoin="round"/>
<path d="M143.266 137.415H155.431" stroke="#E3851E" stroke-linecap="round" stroke-linejoin="round"/>
<path d="M137.405 137.415H142.145" stroke="#E3851E" stroke-linecap="round" stroke-linejoin="round"/>
<path d="M173.785 125.395H189.22" stroke="#E3851E" stroke-width="3" stroke-linecap="round" stroke-linejoin="round"/>
<path d="M188.945 127.8H190.63" stroke="#E3851E" stroke-linecap="round" stroke-linejoin="round"/>
<path d="M179.28 127.8H187.925" stroke="#E3851E" stroke-linecap="round" stroke-linejoin="round"/>
<path d="M172.605 127.8H178.365" stroke="#E3851E" stroke-linecap="round" stroke-linejoin="round"/>
<path d="M183.55 130.205H190.63" stroke="#E3851E" stroke-linecap="round" stroke-linejoin="round"/>
<path d="M179.686 130.205H182.436" stroke="#E3851E" stroke-linecap="round" stroke-linejoin="round"/>
<path d="M172.605 130.205H178.465" stroke="#E3851E" stroke-linecap="round" stroke-linejoin="round"/>
<path d="M176.43 132.605H190.63" stroke="#E3851E" stroke-linecap="round" stroke-linejoin="round"/>
<path d="M172.605 132.605H175.11" stroke="#E3851E" stroke-linecap="round" stroke-linejoin="round"/>
<path d="M187.115 135.01H190.63" stroke="#E3851E" stroke-linecap="round" stroke-linejoin="round"/>
<path d="M180.4 135.01H185.89" stroke="#E3851E" stroke-linecap="round" stroke-linejoin="round"/>
<path d="M172.605 135.01H179.28" stroke="#E3851E" stroke-linecap="round" stroke-linejoin="round"/>
<path d="M178.465 137.415H190.63" stroke="#E3851E" stroke-linecap="round" stroke-linejoin="round"/>
<path d="M172.605 137.415H177.345" stroke="#E3851E" stroke-linecap="round" stroke-linejoin="round"/>
<path d="M195.385 117.65H59.3848V89.595H195.385V117.65Z" fill="#99CFC2"/>
<path opacity="0.7" d="M195.385 117.65H59.3848V89.595H195.385V117.65Z" fill="white"/>
<path d="M160.97 117.65H93.8252V89.595H160.97V117.65Z" fill="#99CFC2"/>
<path opacity="0.92" d="M160.97 117.65H93.8252V89.595H160.97V117.65Z" fill="white"/>
<path d="M147.25 97.725H151.825" stroke="#E3851E" stroke-linecap="round" stroke-linejoin="round"/>
<path d="M121.061 97.725H144.496" stroke="#E3851E" stroke-linecap="round" stroke-linejoin="round"/>
<path d="M102.97 97.725H118.575" stroke="#E3851E" stroke-linecap="round" stroke-linejoin="round"/>
<path d="M132.641 100.13H151.826" stroke="#E3851E" stroke-linecap="round" stroke-linejoin="round"/>
<path d="M122.16 100.13H129.605" stroke="#E3851E" stroke-linecap="round" stroke-linejoin="round"/>
<path d="M102.97 100.13H118.855" stroke="#E3851E" stroke-linecap="round" stroke-linejoin="round"/>
<path d="M113.34 102.535H151.825" stroke="#E3851E" stroke-linecap="round" stroke-linejoin="round"/>
<path d="M102.97 102.535H109.755" stroke="#E3851E" stroke-linecap="round" stroke-linejoin="round"/>
<path d="M142.29 104.94H151.825" stroke="#E3851E" stroke-linecap="round" stroke-linejoin="round"/>
<path d="M124.09 104.94H138.98" stroke="#E3851E" stroke-linecap="round" stroke-linejoin="round"/>
<path d="M102.97 104.94H121.06" stroke="#E3851E" stroke-linecap="round" stroke-linejoin="round"/>
<path d="M118.855 107.34H151.825" stroke="#E3851E" stroke-linecap="round" stroke-linejoin="round"/>
<path d="M102.97 107.34H115.82" stroke="#E3851E" stroke-linecap="round" stroke-linejoin="round"/>
<path d="M195.385 177.62H59.3848V149.565H195.385V177.62Z" fill="#99CFC2"/>
<path opacity="0.7" d="M195.385 177.62H59.3848V149.565H195.385V177.62Z" fill="white"/>
<mask id="mask1_2_12725" style="mask-type:luminance" maskUnits="userSpaceOnUse" x="166" y="138" width="31" height="40">
<path d="M196.435 138.175H166.24V177.795H196.435V138.175Z" fill="white"/>
</mask>
<g mask="url(#mask1_2_12725)">
<path d="M179.29 160.24C179.29 160.24 171.325 163.44 170.075 163.835C168.825 164.23 168.75 164.77 168.75 166.485C168.75 168.2 168.985 175.935 168.985 176.56C168.985 177.185 168.905 178.355 168.905 178.355H195C195 178.355 193.28 171.355 192.265 168.05C191.25 164.745 191.72 164.455 189.925 163.365C188.13 162.275 183.425 160.71 182.425 160.475C181.388 160.312 180.34 160.234 179.29 160.24Z" fill="#E3851E" stroke="#E3851E" stroke-linecap="round" stroke-linejoin="round"/>
<path d="M179.68 159.38C179.68 159.38 177.805 159.225 177.025 160.79C176.245 162.355 174.37 166 174.37 166L176.635 167.405L174 168.75C174.44 170.679 174.988 172.582 175.64 174.45C176.094 175.676 176.615 176.876 177.2 178.045C177.2 178.045 181 173.75 182.5 172.42C183.489 171.474 184.308 170.364 184.92 169.14L182.97 167.345L186.33 166.955C186.33 166.955 185.47 162.585 184.375 160.79C183.28 158.995 179.68 159.38 179.68 159.38Z" fill="#E3851E" stroke="#E3851E" stroke-linecap="round" stroke-linejoin="round"/>
<path d="M175.845 174.5C175.985 174.89 176.135 175.26 176.28 175.585" stroke="white" stroke-width="0.5" stroke-linecap="round" stroke-linejoin="round"/>
<path d="M176.13 162.735L174.37 166L176.635 167.405L174.21 168.78C174.21 168.78 174.775 171.245 175.485 173.455" stroke="white" stroke-width="0.5" stroke-linecap="round" stroke-linejoin="round"/>
<path d="M185 161.255L186.315 166.955L182.955 167.345L184.905 169.14C184.905 169.14 181.155 173.535 179.6 175.31" stroke="white" stroke-width="0.5" stroke-linecap="round" stroke-linejoin="round"/>
<path d="M189.91 170L188.505 178.67" stroke="white" stroke-width="0.5" stroke-linecap="round" stroke-linejoin="round"/>
<path d="M170.625 168.44C170.625 168.44 170.47 173.67 170.545 175.31C170.607 176.35 170.817 177.375 171.17 178.355" stroke="white" stroke-width="0.5" stroke-linecap="round" stroke-linejoin="round"/>
<path d="M185.07 172.11L186.395 170.315L187.49 172.11H185.07Z" fill="white" stroke="#E3851E" stroke-miterlimit="10"/>
<path d="M186.63 154.93C186.63 154.93 187.955 154.775 188.27 156.73C188.585 158.685 187.645 161.18 184.52 161.18C181.395 161.18 181.635 158.835 181.71 157.12C181.785 155.405 186.63 154.93 186.63 154.93Z" fill="#E3851E" stroke="#E3851E" stroke-miterlimit="10"/>
<path d="M178.9 158.135C178.9 158.135 178.82 160.395 178.665 162.975C178.51 165.555 177.26 169.065 177.26 172.03C177.249 173.673 177.328 175.315 177.495 176.95C177.495 176.95 180.07 171.95 181.24 169.065C182.41 166.18 183.74 157.82 183.74 157.82L178.9 158.135Z" fill="white" stroke="#E3851E" stroke-miterlimit="10"/>
<path d="M186.55 153C187.132 151.861 187.453 150.608 187.49 149.33C187.49 147.38 187.1 144.725 184.835 143.55C182.57 142.375 178.195 143.16 177.105 145.425C176.369 146.873 176.025 148.488 176.105 150.11C176.184 150.987 176.367 151.851 176.65 152.685C176.65 152.685 176.965 151.185 179.07 150.425C181.175 149.665 183.445 148.86 184.535 149.425C185.625 149.99 186.55 153 186.55 153Z" fill="#E3851E" stroke="#E3851E" stroke-linecap="round" stroke-linejoin="round"/>
<path d="M176.715 152.2C176.715 152.2 175.775 150.795 175.385 151.81C174.995 152.825 175.545 154.31 176.165 154.62C176.785 154.93 177.105 154.775 177.105 154.775L176.715 152.2Z" fill="white" stroke="#E3851E" stroke-linecap="round" stroke-linejoin="round"/>
<path d="M186.55 152.435C186.55 152.435 187.645 151.34 187.645 152.355C187.59 153.297 187.24 154.198 186.645 154.93C186.175 155.555 185.94 155.245 185.94 155.245L186.55 152.435Z" fill="white" stroke="#E3851E" stroke-linecap="round" stroke-linejoin="round"/>
<path d="M184.695 147.94L185.47 145.755C185.501 145.669 185.496 145.575 185.457 145.493C185.418 145.411 185.349 145.348 185.263 145.317C185.177 145.287 185.083 145.292 185.001 145.331C184.919 145.37 184.856 145.439 184.825 145.525L184.175 147.35C183.492 147.188 182.782 147.168 182.09 147.29C181.398 147.412 180.738 147.674 180.15 148.06C178.12 149.39 176.48 150.56 176.48 150.56C176.48 150.56 176.56 155.01 177.415 156.65C178.27 158.29 179.76 160.24 181.01 160.24C182.26 160.24 184.445 157.51 185.305 156.65C186.165 155.79 186.71 152.435 186.71 151.34C186.71 150.555 185.42 148.845 184.695 147.94Z" fill="white" stroke="#E3851E" stroke-miterlimit="10"/>
<path d="M181.62 168C180.351 168.115 179.073 167.944 177.88 167.5C177.522 168.997 177.314 170.527 177.26 172.065C177.249 173.708 177.328 175.35 177.495 176.985C177.495 176.985 180.07 171.985 181.24 169.1C181.365 168.76 181.5 168.385 181.62 168Z" fill="#99CFC2" stroke="#E3851E" stroke-miterlimit="10"/>
</g>
<mask id="mask2_2_12725" style="mask-type:luminance" maskUnits="userSpaceOnUse" x="130" y="138" width="32" height="40">
<path d="M161.045 138.175H130.85V177.795H161.045V138.175Z" fill="white"/>
</mask>
<g mask="url(#mask2_2_12725)">
<path d="M144.715 156.095C142.723 156.321 140.745 156.655 138.79 157.095C136.505 157.685 135.405 157.94 135.405 159.04C135.405 160.14 135.15 164.88 134.405 167C133.66 169.12 132.795 172.165 132.795 173.265C132.795 174.365 134.405 179.02 134.405 179.02H137.365C137.365 179.02 136.265 173.6 136.265 173.095C136.265 172.59 137.79 168.095 137.79 168.095L137.875 179.185H153.375L153.21 168.6C153.21 168.6 154.56 172.92 154.56 173.68C154.56 174.44 154.06 179.44 154.06 179.44H157C157 179.44 158.44 173.94 158.355 171.99C158.27 170.04 156.855 163.86 156.665 161.99C156.475 160.12 157.595 159.11 155.565 157.84C153.535 156.57 148.875 155.81 147.86 155.725C146.802 155.746 145.749 155.87 144.715 156.095Z" fill="#99CFC2" stroke="#E3851E" stroke-miterlimit="10"/>
<path d="M137.775 168.12L138.03 163.885L137.095 160.67" stroke="#E3851E" stroke-linecap="round" stroke-linejoin="round"/>
<path d="M153.185 163.21V168.625" stroke="#E3851E" stroke-linecap="round" stroke-linejoin="round"/>
<path d="M153.265 164.735L154.62 162.7" stroke="#E3851E" stroke-linecap="round" stroke-linejoin="round"/>
<path d="M146.155 161.855L145.65 179.04" stroke="#E3851E" stroke-linecap="round" stroke-linejoin="round"/>
<path d="M145.9 154.065C145.146 154.106 144.43 154.405 143.87 154.91C142.94 155.76 142.6 159.06 142.6 159.06C142.6 159.06 145.565 158.215 146.07 158.06C146.575 157.905 151.07 158.905 151.07 158.905C151.07 158.905 150.65 155.945 149.465 154.675C148.28 153.405 145.9 154.065 145.9 154.065Z" fill="#E3851E" stroke="#E3851E" stroke-linecap="round" stroke-linejoin="round"/>
<path d="M144.715 151.355C144.715 151.355 145.395 152.355 145.395 155.355C145.395 158.355 145.73 161.45 146.155 161.855C146.58 162.26 148.355 157.855 148.355 155.855C148.389 154.532 148.708 153.233 149.29 152.045C149.29 152.045 147.17 150.605 146.07 150.435C145.769 150.388 145.463 150.457 145.211 150.628C144.959 150.799 144.782 151.059 144.715 151.355Z" fill="white" stroke="#E3851E" stroke-linecap="round" stroke-linejoin="round"/>
<path d="M145.53 158.655C145.665 160.3 145.895 161.595 146.155 161.855C146.415 162.115 147.23 160.465 147.79 158.695C147.04 158.801 146.277 158.788 145.53 158.655Z" fill="#E3851E" stroke="#E3851E" stroke-linecap="round" stroke-linejoin="round"/>
<path d="M149.88 143.23C149.88 143.23 150.38 143.4 151.32 142.55C152.26 141.7 151.82 140.095 151.405 140.435C151.14 140.651 150.91 140.908 150.725 141.195C150.561 140.7 150.258 140.261 149.853 139.932C149.449 139.602 148.958 139.395 148.44 139.335C146.665 139.165 144.545 141.62 144.545 141.62C144.545 141.62 140.655 144.5 141.075 146.785C141.495 149.07 143.7 151.1 144.715 151.355C145.73 151.61 147.595 149.75 147.255 148.14C146.915 146.53 146.665 144.14 147.255 143.905C148.116 143.631 148.993 143.405 149.88 143.23Z" fill="#E3851E" stroke="#E3851E" stroke-linecap="round" stroke-linejoin="round"/>
<path d="M144.545 150C144.545 150 143.11 149 142.77 149.75C142.43 150.5 143.195 151.865 144.125 152.285C145.055 152.705 145.9 151.355 145.9 151.355C145.9 151.355 148.865 153.725 150.9 153.81C152.935 153.895 153.02 152.285 152.68 149.24C152.34 146.195 151.325 143.82 150.565 142.975C149.805 142.13 146.84 142.89 145.905 143.65C144.97 144.41 144.405 145.09 145.315 145.26C146.225 145.43 147.09 145.76 146.245 146.7C145.4 147.64 144.975 147.29 145.245 147.97C145.515 148.65 146.6 149.325 145.585 149.665L144.545 150Z" fill="white" stroke="#E3851E" stroke-linecap="round" stroke-linejoin="round"/>
</g>
<mask id="mask3_2_12725" style="mask-type:luminance" maskUnits="userSpaceOnUse" x="91" y="137" width="31" height="41">
<path d="M121.425 137.985H91.2305V177.8H121.425V137.985Z" fill="white"/>
</mask>
<g mask="url(#mask3_2_12725)">
<path d="M107.34 154.5C107.34 154.5 96.6703 155.77 96.3403 156.7C96.0103 157.63 92.1103 166.7 92.7003 167.535C93.2903 168.37 94.4803 168.535 95.4103 168.535C96.069 168.476 96.6922 168.21 97.1903 167.775L94.4803 179.275H114.12L114.715 171.23C114.715 171.23 117 172.23 118.525 172.08C120.05 171.93 119.71 170.725 119.37 168.44C119.03 166.155 118.87 160.31 118.27 159.21C117.67 158.11 110.48 155.06 110.48 155.06L107.34 154.5Z" fill="#E3851E" stroke="#E3851E" stroke-linecap="round" stroke-linejoin="round"/>
<path d="M114.875 168.29V163.04L115.295 162.025" stroke="white" stroke-linecap="round" stroke-linejoin="round"/>
<path d="M97.7705 163.885L98.6205 160.33L98.4505 159.57" stroke="white" stroke-linecap="round" stroke-linejoin="round"/>
<path d="M100 179.635C100 179.635 101.605 172.69 102.37 168.375C103.135 164.06 106.32 154.5 106.32 154.5L111.235 155.855C111.235 155.855 107.93 165.505 107.085 169.655C106.24 173.805 105.53 179.685 105.53 179.685L100 179.635Z" fill="#99CFC2" stroke="#E3851E" stroke-miterlimit="10"/>
<path d="M107 153.5C107 153.5 105.56 153.5 105.05 154.5C104.54 155.5 103.865 159.41 103.865 159.41C103.865 159.41 106.915 158.055 107.17 158.055C107.425 158.055 108.61 158.14 109.2 158.815C109.79 159.49 111.065 161.1 111.065 161.1C111.065 161.1 113.01 157.97 112.505 155.94C112.332 155.271 111.952 154.673 111.42 154.233C110.888 153.792 110.23 153.53 109.54 153.485L107 153.5Z" fill="#99CFC2" stroke="#E3851E" stroke-miterlimit="10"/>
<path d="M106.5 151.27C106.5 151.27 106.33 157.2 106.5 158.89C106.67 160.58 106.925 161.005 106.925 161.005C106.925 161.005 108.365 158.635 108.785 157.79C109.205 156.945 110.48 156.01 111.075 155.25C111.67 154.49 112.075 151.61 112.075 151.61C112.075 151.61 109.875 153.305 108.69 152.88C107.852 152.509 107.105 151.96 106.5 151.27Z" fill="white" stroke="#E3851E" stroke-linecap="round" stroke-linejoin="round"/>
<path d="M110 140.555C108.56 140.765 107.155 141.485 106.75 142.89C106.41 144.075 106.25 147.97 106.16 149.915C106.07 151.86 107.09 154.32 107.935 154.575C108.64 154.825 109.399 154.884 110.135 154.745C110.56 154.575 112.51 151.95 113.015 151.44C113.52 150.93 115.045 146.19 115.045 144.5C115.082 143.666 114.846 142.843 114.374 142.156C113.901 141.468 113.217 140.954 112.425 140.69C111.635 140.475 110.809 140.429 110 140.555Z" fill="white" stroke="#E3851E" stroke-linecap="round" stroke-linejoin="round"/>
<path d="M114.195 148.5C114.195 148.5 115.55 147.31 115.195 148.835C115.086 149.291 114.878 149.717 114.586 150.083C114.294 150.45 113.925 150.747 113.505 150.955L114.195 148.5Z" fill="white" stroke="#E3851E" stroke-linecap="round" stroke-linejoin="round"/>
<path d="M106.32 146.87C106.32 146.87 105.32 145.94 105.32 147.21C105.359 148.042 105.656 148.84 106.17 149.495L106.32 146.87Z" fill="white" stroke="#E3851E" stroke-linecap="round" stroke-linejoin="round"/>
<path d="M114.195 148.5C114.634 147.205 114.918 145.862 115.04 144.5C115.077 143.666 114.842 142.843 114.369 142.156C113.896 141.468 113.212 140.954 112.42 140.69C111.63 140.475 110.804 140.429 109.995 140.555C108.555 140.765 107.15 141.485 106.745 142.89C106.484 144.291 106.332 145.71 106.29 147.135C106.72 146.8 107.615 145.98 107.425 145.005C107.17 143.735 106.66 143.145 107.59 142.55C108.52 141.955 109.625 142.805 111.15 143.315C112.675 143.825 114.195 143.145 114.62 143.565C115.045 143.985 113.265 145.77 113.52 146.445C113.775 147.12 114.365 147.885 114.195 148.48V148.5Z" fill="#E3851E" stroke="#E3851E" stroke-linecap="round" stroke-linejoin="round"/>
<path d="M102 164.735C102 164.735 100.73 162.955 99.8849 162.87C99.0399 162.785 97.0049 164.735 97.0049 164.735H102Z" fill="white" stroke="#E3851E" stroke-linecap="round" stroke-linejoin="round"/>
<path d="M110.045 164.9H111.235L111.485 167.275L110.215 166.935L110.045 164.9Z" fill="white" stroke="#E3851E" stroke-linecap="round" stroke-linejoin="round"/>
<path d="M111.235 164.9L113.35 165.835L113.855 168.46L111.485 167.275L111.235 164.9Z" fill="white" stroke="#E3851E" stroke-linecap="round" stroke-linejoin="round"/>
<path d="M118.001 169.5L105.896 164.76C105.198 165.103 104.543 165.528 103.946 166.025C103.592 166.38 103.332 166.816 103.186 167.295C103.186 167.295 108.941 171.445 111.736 172.715C114.531 173.985 118.596 174.41 119.271 173.715C119.946 173.02 119.771 170.415 119.356 169.99C119.131 169.759 118.875 169.56 118.596 169.4" fill="#E3851E"/>
<path d="M118.001 169.5L105.896 164.76C105.198 165.103 104.543 165.528 103.946 166.025C103.592 166.38 103.332 166.816 103.186 167.295C103.186 167.295 108.941 171.445 111.736 172.715C114.531 173.985 118.596 174.41 119.271 173.715C119.946 173.02 119.771 170.415 119.356 169.99C119.131 169.759 118.875 169.56 118.596 169.4" stroke="#E3851E" stroke-linecap="round" stroke-linejoin="round"/>
<path d="M110.045 164.5L110.215 166.955C110.215 166.955 101.325 168.985 98.0253 169.58C94.7253 170.175 92.9453 169.745 92.4403 168.225C91.9353 166.705 93.6253 164.835 94.3853 164.415C95.1453 163.995 110.045 164.5 110.045 164.5Z" fill="#E3851E" stroke="#E3851E" stroke-linecap="round" stroke-linejoin="round"/>
</g>
<mask id="mask4_2_12725" style="mask-type:luminance" maskUnits="userSpaceOnUse" x="60" y="138" width="28" height="40">
<path d="M87.5748 138.175H60.8398V177.795H87.5748V138.175Z" fill="white"/>
</mask>
<g mask="url(#mask4_2_12725)">
<path d="M77.3449 158.695C77.3449 158.695 80.7349 159.54 82.0899 159.965C83.4449 160.39 83.8649 160.895 83.8649 161.91C83.8649 162.925 83.1049 167.41 83.1049 168.09V172.665C83.1049 173.935 84.3749 178.59 84.3749 178.59H67.8749C67.8749 178.59 66.0149 171.48 64.7449 167.59C63.4749 163.7 63.3049 162.34 64.5749 161.745C67.5938 160.639 70.6739 159.707 73.7999 158.955C74.974 158.786 76.1586 158.699 77.3449 158.695Z" fill="#99CFC2" stroke="#E3851E" stroke-miterlimit="10"/>
<path d="M82.2596 164.28C82.2596 164.28 83.2596 168.94 82.9346 170.63C82.6096 172.32 80.3096 178.76 80.3096 178.76" stroke="#E3851E" stroke-linecap="round" stroke-linejoin="round"/>
<path d="M64.5645 161.74C64.5645 161.74 63.0645 161.995 63.4645 163.945C63.8645 165.895 61.9395 178.5 61.9395 178.5H65.6645C65.6645 178.5 68.2045 171.81 68.6245 170.205C69.0445 168.6 69.3895 167.325 68.6245 165.97" fill="#99CFC2"/>
<path d="M64.5645 161.74C64.5645 161.74 63.0645 161.995 63.4645 163.945C63.8645 165.895 61.9395 178.5 61.9395 178.5H65.6645C65.6645 178.5 68.2045 171.81 68.6245 170.205C69.0445 168.6 69.3895 167.325 68.6245 165.97" stroke="#E3851E" stroke-miterlimit="10"/>
<path d="M80.3396 150.45L80.8946 167.695H75.8896V151.935L80.3396 150.45Z" fill="#E3851E" stroke="#E3851E" stroke-linecap="round" stroke-linejoin="round"/>
<path d="M73.8743 162.845C73.8743 162.845 75.3143 169.345 75.9093 171.31C76.5043 173.275 76.5843 177.81 76.4093 178.42C76.2343 179.03 78.5243 178.42 78.5243 178.42C78.5243 178.42 79.1193 173.92 79.4593 171.31C79.7993 168.7 78.7793 163.775 78.7793 163.775L77.6793 159.455L73.5293 160.22L73.8743 162.845Z" fill="white" stroke="#E3851E" stroke-linecap="round" stroke-linejoin="round"/>
<path d="M77.4996 155.73C77.2636 157.078 77.2925 158.458 77.5846 159.795C78.0846 161.66 79.4496 165.045 78.2646 165.975C77.0796 166.905 75.4696 166.4 74.6246 164.705C73.7796 163.01 73.0146 158.78 73.0146 155.31C73.0146 151.84 73.3547 151.245 74.5396 151.245C75.7246 151.245 77.4996 155.73 77.4996 155.73Z" fill="white" stroke="#E3851E" stroke-linecap="round" stroke-linejoin="round"/>
<path d="M75.0592 154.125C74.2978 154.787 73.4023 155.276 72.4342 155.56C71.1642 155.815 70.4892 152.43 70.3192 149.06C70.1492 145.69 70.9992 143.81 72.7742 142.965C74.5492 142.12 78.8692 142.54 80.5642 143.215C82.2592 143.89 84.2892 144.995 84.2892 146.77C84.2892 148.545 81.9992 150 81.3242 150.4C80.6492 150.8 79.0392 151.4 78.0242 152.43C77.1472 153.171 76.1424 153.745 75.0592 154.125Z" fill="#E3851E" stroke="#E3851E" stroke-linecap="round" stroke-linejoin="round"/>
<path d="M75.0596 154.125C75.0596 154.125 76.0596 156.665 77.9396 156.745C79.8196 156.825 81.9396 152.515 82.0046 150.65C82.0696 148.785 80.1396 145.57 80.1396 145.57C80.1396 145.57 76.8396 153.105 75.0596 154.125Z" fill="white" stroke="#E3851E" stroke-linecap="round" stroke-linejoin="round"/>
<path d="M74.5548 150.315L74.7198 168.6H69.0498L70.3198 147.35" fill="#E3851E"/>
<path d="M74.5548 150.315L74.7198 168.6H69.0498L70.3198 147.35" stroke="#E3851E" stroke-linecap="round" stroke-linejoin="round"/>
</g>
</svg>
