<svg width="19" height="19" viewBox="0 0 19 19" fill="none" xmlns="http://www.w3.org/2000/svg">
<path fill-rule="evenodd" clip-rule="evenodd" d="M14.3782 2.93794C14.3782 1.75029 15.3426 0.785889 16.5302 0.785889C17.7179 0.785889 18.6823 1.75029 18.6823 2.93794C18.6823 4.12558 17.7179 5.08999 16.5302 5.08999C15.3426 5.08999 14.3782 4.12558 14.3782 2.93794ZM10.9403 12.1794L13.521 8.84953L13.4853 8.86739C13.6281 8.67094 13.6549 8.42091 13.5567 8.19767C13.4594 7.97443 13.2442 7.82262 13.0129 7.80476C12.7709 7.77798 12.5307 7.88513 12.3869 8.08158L10.2268 10.8766L7.75241 8.9299C7.60061 8.81382 7.42202 8.76828 7.24342 8.78703C7.06572 8.81382 6.90499 8.91115 6.79694 9.05402L4.15465 12.4928L4.10018 12.5732C3.94838 12.8581 4.01981 13.2242 4.2877 13.4215C4.41272 13.5019 4.54667 13.5555 4.69847 13.5555C4.90474 13.5644 5.1003 13.4563 5.22532 13.2876L7.46667 10.4024L10.0116 12.3142L10.092 12.3669C10.3777 12.5187 10.7349 12.4482 10.9403 12.1794ZM12.8336 2.37561C12.7979 2.59885 12.7801 2.8221 12.7801 3.04534C12.7801 5.05451 14.4053 6.67882 16.4055 6.67882C16.6287 6.67882 16.8431 6.65292 17.0663 6.6172V13.8225C17.0663 16.8506 15.2804 18.6455 12.2443 18.6455H5.64615C2.60917 18.6455 0.823242 16.8506 0.823242 13.8225V7.21549C0.823242 4.1794 2.60917 2.37561 5.64615 2.37561H12.8336Z" fill="#DEB181"/>
</svg>
