<svg width="19" height="15" viewBox="0 0 19 15" fill="none" xmlns="http://www.w3.org/2000/svg">
<path d="M2.18046 14.8593C1.68933 14.8593 1.26904 14.6846 0.919596 14.3351C0.570148 13.9857 0.395127 13.5651 0.394531 13.0734V2.35776C0.394531 1.86662 0.569553 1.44633 0.919596 1.09689C1.26964 0.74744 1.68993 0.572418 2.18046 0.571823H6.80157C7.03969 0.571823 7.2668 0.616472 7.4829 0.705768C7.699 0.795065 7.8886 0.921568 8.05172 1.08528L9.32419 2.35776H16.4679C16.9591 2.35776 17.3796 2.53278 17.7297 2.88282C18.0797 3.23286 18.2545 3.65315 18.2539 4.14369V13.0734C18.2539 13.5645 18.0791 13.9851 17.7297 14.3351C17.3802 14.6852 16.9597 14.8599 16.4679 14.8593H2.18046ZM11.1101 9.50149V10.3945C11.1101 10.6475 11.1959 10.8597 11.3673 11.0311C11.5388 11.2026 11.7507 11.288 12.0031 11.2874C12.2561 11.2874 12.4683 11.2017 12.6398 11.0302C12.8112 10.8588 12.8967 10.6469 12.8961 10.3945V9.50149H13.789C14.042 9.50149 14.2543 9.41576 14.4257 9.24431C14.5972 9.07286 14.6826 8.86093 14.682 8.60852C14.682 8.35551 14.5963 8.14358 14.4248 7.97273C14.2534 7.80187 14.0414 7.71615 13.789 7.71555H12.8961V6.82259C12.8961 6.56958 12.8103 6.35765 12.6389 6.1868C12.4674 6.01594 12.2555 5.93022 12.0031 5.92962C11.7501 5.92962 11.5382 6.01535 11.3673 6.1868C11.1964 6.35824 11.1107 6.57018 11.1101 6.82259V7.71555H10.2172C9.96415 7.71555 9.75222 7.80128 9.58137 7.97273C9.41052 8.14418 9.32479 8.35611 9.32419 8.60852C9.32419 8.86153 9.40992 9.07376 9.58137 9.2452C9.75282 9.41665 9.96475 9.50208 10.2172 9.50149H11.1101Z" fill=""/>
</svg>
