<svg width="24" height="22" viewBox="0 0 24 22" fill="none" xmlns="http://www.w3.org/2000/svg">
<path d="M6.81083 12.1667L7.799 9.69917L8.78483 12.1667H6.81083ZM16.6668 11H17.8335V13.3333H16.6668C16.3574 13.3333 16.0607 13.2104 15.8419 12.9916C15.6231 12.7728 15.5002 12.4761 15.5002 12.1667C15.5002 11.8572 15.6231 11.5605 15.8419 11.3417C16.0607 11.1229 16.3574 11 16.6668 11ZM22.5002 0.5H1.50016C1.19074 0.5 0.893997 0.622916 0.675205 0.841709C0.456412 1.0605 0.333496 1.35725 0.333496 1.66667V20.3333C0.333496 20.6428 0.456412 20.9395 0.675205 21.1583C0.893997 21.3771 1.19074 21.5 1.50016 21.5H22.5002C22.8096 21.5 23.1063 21.3771 23.3251 21.1583C23.5439 20.9395 23.6668 20.6428 23.6668 20.3333V1.66667C23.6668 1.35725 23.5439 1.0605 23.3251 0.841709C23.1063 0.622916 22.8096 0.5 22.5002 0.5ZM12.6978 15.6667H10.1837L9.717 14.5H5.87866L5.412 15.6667H2.899L4.29783 12.169L4.299 12.1667L6.63233 6.33333H8.96566L12.6978 15.6667ZM17.8335 6.33333H20.1668V15.6667H16.6668C15.7386 15.6667 14.8483 15.2979 14.192 14.6415C13.5356 13.9852 13.1668 13.0949 13.1668 12.1667C13.1668 11.2384 13.5356 10.3482 14.192 9.69179C14.8483 9.03541 15.7386 8.66667 16.6668 8.66667H17.8335V6.33333Z" fill="black"/>
</svg>
