<svg width="18" height="15" viewBox="0 0 18 15" fill="none" xmlns="http://www.w3.org/2000/svg">
<path d="M15.6152 2.30127H12.959L12.3262 0.527832C12.2825 0.406481 12.2023 0.301586 12.0968 0.227476C11.9912 0.153366 11.8653 0.113656 11.7363 0.11377H5.74414C5.48047 0.11377 5.24414 0.279785 5.15625 0.527832L4.52148 2.30127H1.86523C1.00195 2.30127 0.302734 3.00049 0.302734 3.86377V12.77C0.302734 13.6333 1.00195 14.3325 1.86523 14.3325H15.6152C16.4785 14.3325 17.1777 13.6333 17.1777 12.77V3.86377C17.1777 3.00049 16.4785 2.30127 15.6152 2.30127ZM8.74023 11.2075C7.01367 11.2075 5.61523 9.80908 5.61523 8.08252C5.61523 6.35596 7.01367 4.95752 8.74023 4.95752C10.4668 4.95752 11.8652 6.35596 11.8652 8.08252C11.8652 9.80908 10.4668 11.2075 8.74023 11.2075ZM6.86523 8.08252C6.86523 8.5798 7.06278 9.05671 7.41441 9.40835C7.76604 9.75998 8.24295 9.95752 8.74023 9.95752C9.23752 9.95752 9.71443 9.75998 10.0661 9.40835C10.4177 9.05671 10.6152 8.5798 10.6152 8.08252C10.6152 7.58524 10.4177 7.10833 10.0661 6.75669C9.71443 6.40506 9.23752 6.20752 8.74023 6.20752C8.24295 6.20752 7.76604 6.40506 7.41441 6.75669C7.06278 7.10833 6.86523 7.58524 6.86523 8.08252Z" fill="#17DBAC"/>
</svg>
