<svg width="212" height="212" viewBox="0 0 212 212" fill="none" xmlns="http://www.w3.org/2000/svg">
<path d="M41.2378 182.087C77.7272 201.167 136.892 201.167 173.382 182.087C209.871 163.007 209.871 132.114 173.382 113.051C136.892 93.9882 77.7272 93.9712 41.2378 113.051C4.74837 132.131 4.74413 163.028 41.2378 182.087Z" fill="#F5F5F5"/>
<path d="M150.376 164.783C159.952 164.783 167.714 160.302 167.714 154.773C167.714 149.244 159.952 144.762 150.376 144.762C140.801 144.762 133.039 149.244 133.039 154.773C133.039 160.302 140.801 164.783 150.376 164.783Z" fill="#E0E0E0"/>
<path d="M44.7754 149.545C44.5167 146.602 41.8582 140.696 38.4705 137.143C35.0827 133.589 30.0414 131.207 26.7342 132.678C23.6517 134.043 24.3598 138.19 28.4556 140.602C32.5514 143.015 38.6316 145.987 40.7516 150.613L44.8178 156.159L44.7754 149.545Z" fill="#E3851E"/>
<path opacity="0.1" d="M44.7754 149.545C44.5167 146.602 41.8582 140.696 38.4705 137.143C35.0827 133.589 30.0414 131.207 26.7342 132.678C23.6517 134.043 24.3598 138.19 28.4556 140.602C32.5514 143.015 38.6316 145.987 40.7516 150.613L44.8178 156.159L44.7754 149.545Z" fill="black"/>
<path d="M45.3433 153.551C45.296 153.553 45.2496 153.538 45.2118 153.51C45.174 153.481 45.1471 153.44 45.1355 153.394C42.2862 143.524 33.4501 136.074 28.4299 134.692C28.4021 134.684 28.376 134.671 28.3532 134.654C28.3303 134.636 28.3112 134.614 28.2968 134.589C28.2824 134.564 28.2731 134.537 28.2694 134.508C28.2657 134.479 28.2677 134.45 28.2752 134.423C28.2827 134.395 28.2956 134.369 28.3132 134.346C28.3308 134.323 28.3527 134.304 28.3777 134.289C28.4027 134.275 28.4303 134.266 28.4589 134.262C28.4875 134.258 28.5166 134.26 28.5444 134.268C33.6579 135.676 42.6594 143.248 45.5468 153.267C45.5553 153.294 45.5582 153.323 45.5555 153.351C45.5528 153.379 45.5445 153.406 45.531 153.431C45.5176 153.456 45.4993 153.478 45.4773 153.496C45.4552 153.514 45.4299 153.527 45.4027 153.534L45.3433 153.551Z" fill="white"/>
<path d="M44.407 160.111C43.788 158.499 41.5323 155.947 38.047 153.975C34.231 151.8 29.5416 151.054 28.295 149.201C26.8237 146.984 28.6003 144.609 32.3527 144.745C36.1051 144.88 43.0714 149.375 44.7844 156.909L44.407 160.111Z" fill="#E3851E"/>
<path d="M44.9746 158.313C44.9326 158.313 44.8914 158.301 44.856 158.279C44.8206 158.256 44.7926 158.224 44.7753 158.186C40.9593 149.854 34.1159 147.408 31.0419 147.276C31.0135 147.275 30.9856 147.268 30.9598 147.256C30.934 147.245 30.9107 147.228 30.8914 147.207C30.8722 147.186 30.8572 147.161 30.8473 147.135C30.8375 147.108 30.833 147.08 30.8342 147.051C30.8346 147.023 30.841 146.995 30.8527 146.969C30.8644 146.943 30.8814 146.92 30.9024 146.901C30.9235 146.882 30.9482 146.867 30.9751 146.858C31.0021 146.849 31.0306 146.846 31.0589 146.848C34.4509 146.988 41.2349 149.498 45.1696 158.008C45.1916 158.059 45.1929 158.118 45.1732 158.171C45.1535 158.224 45.1142 158.267 45.0636 158.292C45.0356 158.305 45.0054 158.312 44.9746 158.313Z" fill="white"/>
<path d="M159.92 145.733C159.857 143.363 160.514 139.394 162.846 135.43C165.343 131.19 168.638 128.349 171.406 129.214C173.984 130.019 173.416 133.517 169.541 137.329C166.819 140.005 164.088 143.397 162.816 147.276L160.637 152.271L159.92 145.733Z" fill="#E3851E"/>
<path d="M159.92 145.733C159.857 143.363 160.514 139.394 162.846 135.43C165.343 131.19 168.638 128.349 171.406 129.214C173.984 130.019 173.416 133.517 169.541 137.329C166.819 140.005 164.088 143.397 162.816 147.276L160.637 152.271L159.92 145.733Z" fill="#E3851E"/>
<g opacity="0.1">
<path d="M159.92 145.733C159.857 143.363 160.514 139.394 162.846 135.43C165.343 131.19 168.638 128.349 171.406 129.214C173.984 130.019 173.416 133.517 169.541 137.329C166.819 140.005 164.088 143.397 162.816 147.276L160.637 152.271L159.92 145.733Z" fill="black"/>
</g>
<path d="M160.353 147.492C160.387 147.49 160.42 147.476 160.446 147.453C160.472 147.43 160.49 147.399 160.497 147.365C162.159 140.607 166.365 133.492 170.287 130.829C170.318 130.802 170.338 130.765 170.344 130.724C170.349 130.683 170.339 130.642 170.317 130.608C170.294 130.573 170.259 130.548 170.22 130.538C170.18 130.527 170.138 130.531 170.101 130.549C166.119 133.267 161.85 140.463 160.171 147.297C160.165 147.319 160.165 147.341 160.168 147.362C160.172 147.383 160.179 147.404 160.191 147.423C160.202 147.441 160.217 147.457 160.235 147.47C160.252 147.483 160.272 147.492 160.293 147.497C160.313 147.5 160.334 147.498 160.353 147.492Z" fill="white"/>
<path d="M159.899 153.395C161.208 154.555 162.799 155.351 164.513 155.701C167.481 156.35 168.863 155.006 168.863 155.006C168.863 155.006 167.854 152.144 166.213 151.258C168.019 151.776 169.723 152.598 171.254 153.687C171.254 153.687 173.069 153.823 173.959 151.092C173.959 151.092 172.98 149.354 169.418 148.239C171.222 148.024 173.051 148.224 174.765 148.824C174.998 148.934 176.223 145.406 176.63 143.77C177.038 142.133 176.368 142.108 175.1 141.688C173.832 141.268 169.444 140.789 168.596 141.45C167.748 142.112 167.188 144.512 167.188 144.512C167.188 144.512 166.497 143.096 166.764 141.879C165.879 141.567 164.921 141.533 164.016 141.781C162.537 142.205 162.588 142.913 162.524 143.969C162.455 145.031 162.538 146.098 162.77 147.136C162.77 147.136 161.82 146.208 161.977 143.011C161.977 143.011 159.916 144.571 159.043 145.979C158.17 147.386 158.153 151.13 159.899 153.395Z" fill="#E3851E"/>
<path d="M159.887 153.564C159.919 153.566 159.95 153.559 159.978 153.544C160.006 153.529 160.029 153.507 160.044 153.479C162.745 148.629 172.026 143.359 175.266 142.926C175.288 142.923 175.308 142.916 175.327 142.905C175.346 142.893 175.363 142.879 175.376 142.861C175.389 142.844 175.399 142.824 175.404 142.802C175.41 142.781 175.411 142.759 175.408 142.737C175.405 142.716 175.397 142.695 175.386 142.676C175.375 142.657 175.36 142.641 175.343 142.627C175.325 142.614 175.305 142.605 175.284 142.599C175.263 142.594 175.241 142.592 175.219 142.595C171.929 143.019 162.499 148.387 159.752 153.314C159.73 153.353 159.725 153.399 159.737 153.442C159.749 153.484 159.777 153.521 159.815 153.543C159.837 153.556 159.862 153.563 159.887 153.564Z" fill="white"/>
<path d="M47.0641 163.359L45.9108 162.693C45.417 162.371 45.0061 161.937 44.7114 161.427C44.4167 160.916 44.2466 160.343 44.2148 159.755V58.635C44.2462 58.0457 44.4162 57.4722 44.7109 56.9609C45.0056 56.4496 45.4167 56.015 45.9108 55.6925L92.5508 28.7685C93.0763 28.5015 93.6574 28.3623 94.2468 28.3623C94.8363 28.3623 95.4174 28.5015 95.9428 28.7685L97.0961 29.4342C97.5897 29.7563 98.0005 30.1902 98.2952 30.7007C98.5898 31.2112 98.7601 31.7839 98.7921 32.3725V133.496C98.7601 134.085 98.5898 134.658 98.2952 135.168C98.0005 135.679 97.5897 136.113 97.0961 136.435L50.4561 163.359C49.9306 163.626 49.3495 163.765 48.7601 163.765C48.1707 163.765 47.5896 163.626 47.0641 163.359Z" fill="#37474F"/>
<path d="M51.037 60.6321L44.7109 56.9814C44.4066 57.4888 44.2359 58.065 44.2148 58.6562V159.755C44.2466 160.343 44.4167 160.916 44.7114 161.427C45.0061 161.937 45.417 162.371 45.9108 162.693L47.0641 163.359C47.5896 163.626 48.1707 163.765 48.7601 163.765C49.3495 163.765 49.9306 163.626 50.4561 163.359L51.0328 163.028L51.037 60.6321Z" fill="#263238"/>
<path d="M48.7598 61.2597V162.392C48.7598 163.478 49.5187 163.914 50.4558 163.372L97.0958 136.448C97.5894 136.125 98.0001 135.692 98.2948 135.181C98.5895 134.671 98.7597 134.098 98.7918 133.509V32.3725C98.7918 31.2913 98.0328 30.8546 97.0958 31.3931L50.4558 58.3213C49.9615 58.6427 49.5501 59.0765 49.2554 59.5871C48.9606 60.0978 48.7908 60.6709 48.7598 61.2597Z" fill="#455A64"/>
<path d="M52.4914 67.6534L94.8914 43.1674C95.6928 42.7053 96.3457 43.0826 96.3457 44.0154V124.681C96.3184 125.186 96.1725 125.677 95.9198 126.115C95.6671 126.552 95.3148 126.924 94.8914 127.2L52.4914 151.682C51.6858 152.148 51.0371 151.771 51.0371 150.834V70.172C51.0635 69.6672 51.209 69.1758 51.4617 68.738C51.7145 68.3002 52.0674 67.9286 52.4914 67.6534Z" fill="#FAFAFA"/>
<g opacity="0.4">
<path d="M73.9295 74.0093C78.6825 71.266 82.5367 73.492 82.5367 78.9786C82.5367 84.4651 78.6825 91.1474 73.9295 93.8907C69.1764 96.6339 65.3223 94.4122 65.3223 88.9214C65.3223 83.4306 69.1764 76.7441 73.9295 74.0093Z" fill="#E3851E"/>
<path d="M90.8938 103.371C90.8938 94.3529 84.5635 90.3461 76.7534 94.8575L71.8689 97.6771C64.0588 102.184 57.7285 113.153 57.7285 122.172V124.601L90.8938 105.462V103.371Z" fill="#E3851E"/>
</g>
<path d="M73.7769 47.4881C74.4045 47.1234 74.9133 47.4202 74.9133 48.1453C74.8922 48.5395 74.7783 48.9232 74.5809 49.2651C74.3834 49.607 74.1079 49.8974 73.7769 50.1126C73.1494 50.4773 72.6406 50.1805 72.6406 49.4554C72.6617 49.0612 72.7755 48.6775 72.973 48.3356C73.1705 47.9937 73.4459 47.7033 73.7769 47.4881Z" fill="#263238"/>
<path d="M70.4942 53.1612C72.805 51.8892 76.9263 49.4342 79.2032 48.0944C79.589 47.8654 79.9028 48.0223 79.9028 48.4421C79.886 48.6788 79.8135 48.9082 79.6912 49.1116C79.5689 49.315 79.4002 49.4865 79.199 49.6123L70.4773 54.6494C70.0872 54.8741 69.7734 54.7173 69.7734 54.2933C69.7931 54.0603 69.869 53.8357 69.9945 53.6385C70.1201 53.4414 70.2915 53.2776 70.4942 53.1612Z" fill="#263238"/>
<path d="M68.2887 54.4374C68.6406 54.2339 68.9289 54.3993 68.9289 54.8063C68.9165 55.0281 68.852 55.2438 68.7408 55.436C68.6296 55.6282 68.4747 55.7916 68.2887 55.913C67.9368 56.1165 67.6484 55.9511 67.6484 55.5441C67.6609 55.3223 67.7253 55.1066 67.8366 54.9144C67.9478 54.7222 68.1027 54.5588 68.2887 54.4374Z" fill="#263238"/>
<path d="M73.7765 142.04C75.0485 141.315 76.0534 141.905 76.0534 143.355C76.0109 144.144 75.7825 144.912 75.3868 145.597C74.9912 146.281 74.4394 146.863 73.7765 147.294C72.5045 148.019 71.5039 147.429 71.5039 145.979C71.5466 145.19 71.7747 144.422 72.1695 143.738C72.5644 143.054 73.1149 142.472 73.7765 142.04Z" fill="#263238"/>
<path d="M112.448 113.691L107.335 110.723L107.28 110.694C104.736 109.261 101.251 109.468 97.388 111.703C93.7755 113.785 90.4768 117.257 87.9921 121.281C85.1216 125.911 83.3281 131.275 83.3281 136.079C83.3281 140.56 84.8969 143.711 87.4324 145.182L92.6264 148.15C95.1916 149.787 98.8084 149.638 102.828 147.323C110.591 142.888 116.896 131.953 116.896 122.96C116.896 118.296 115.183 115.078 112.448 113.691Z" fill="#E3851E"/>
<path opacity="0.1" d="M92.5165 148.124L87.4285 145.216C84.8845 143.745 83.3242 140.594 83.3242 136.113C83.3242 131.304 85.1305 125.937 87.9882 121.315L93.4239 124.448C90.5492 129.083 88.7599 134.434 88.7599 139.233C88.7387 143.511 90.1761 146.577 92.5165 148.124Z" fill="black"/>
<path opacity="0.4" d="M112.36 113.632C109.85 112.415 106.505 112.725 102.833 114.841C99.1613 116.956 95.905 120.416 93.4162 124.44L87.9805 121.307C90.4651 117.283 93.7638 113.81 97.3763 111.728C101.235 109.498 104.724 109.286 107.268 110.719L107.323 110.749L112.36 113.632Z" fill="white"/>
<path d="M110.151 119.356L108.201 118.228L100.564 136.227L101.866 136.978L110.151 119.356Z" fill="white"/>
<path d="M99.0664 132.208L97.116 131.084L95.0215 135.515L96.9719 136.638L99.0664 132.208Z" fill="white"/>
<path d="M102.366 142.256L96.9727 136.638L99.0672 132.208L101.866 136.978L110.151 119.356L113.22 122.35L102.366 142.256Z" fill="#F5F5F5"/>
<path d="M95.0215 135.515L96.9719 136.638L102.365 142.256L100.419 141.141L95.0215 135.515Z" fill="#E0E0E0"/>
<path d="M152.216 69.5021C154.425 69.5021 156.543 68.6247 158.105 67.0631C159.666 65.5014 160.544 63.3833 160.544 61.1747V60.6829C160.544 59.756 160.362 58.8381 160.008 57.9816C159.654 57.1251 159.134 56.3469 158.479 55.6913C157.824 55.0357 157.046 54.5156 156.189 54.1608C155.333 53.8059 154.415 53.6233 153.488 53.6233H150.944C149.072 53.6233 147.276 54.3671 145.952 55.691C144.629 57.0149 143.885 58.8106 143.885 60.6829V61.1747C143.885 62.2687 144.1 63.3519 144.519 64.3625C144.938 65.3731 145.552 66.2912 146.325 67.0646C147.099 67.8379 148.018 68.4512 149.028 68.8694C150.039 69.2877 151.122 69.5026 152.216 69.5021Z" fill="#263238"/>
<path d="M143.625 151.873C142.654 152.892 141.589 153.817 140.445 154.637C140.27 154.754 140.125 154.909 140.021 155.091C139.872 155.405 139.639 156.176 141.059 156.672C141.778 156.921 142.541 157.012 143.298 156.939C144.054 156.866 144.786 156.63 145.444 156.248C146.614 155.519 146.665 154.001 147.767 153.132C148.581 152.492 149.599 152.326 150.26 151.487C150.718 150.902 150.599 150.126 150.358 149.163C150.099 148.112 149.976 147.319 149.629 147.399L149.688 147.883C149.264 148.574 147.004 148.777 146.003 148.307C145.986 148.298 144.256 151.182 143.625 151.873Z" fill="#263238"/>
<path d="M142.638 152.852C142.977 152.542 143.308 152.22 143.626 151.873C144.292 151.008 144.905 150.105 145.462 149.167C145.846 148.599 146.027 147.918 145.975 147.234C145.895 146.505 145.695 144.643 145.695 144.643L149.257 144.389L149.681 147.883C149.766 148.676 149.113 149.379 147.951 150.38C146.789 151.381 145.322 153.708 144.271 154.294C143.219 154.879 142.473 154.857 142.023 154.556C141.574 154.255 141.51 154.009 142.638 152.852Z" fill="#B16668"/>
<path d="M157.171 152.191V151.652C156.964 152.284 155.984 154.985 154.496 156.342C153.317 157.419 151.706 158.661 151.295 159.865C150.884 161.069 153.538 161.531 154.64 161.336C155.912 161.112 157.583 160.382 158.486 159.276C159.118 158.495 159.525 157.58 159.978 156.956C160.432 156.333 161.475 155.659 161.721 154.947C161.857 154.557 161.696 153.704 161.505 152.983C161.314 152.263 161.144 151.593 160.92 151.652V152.076C160.386 152.495 159.724 152.718 159.046 152.708C158.499 152.716 157.167 152.606 157.171 152.191Z" fill="#263238"/>
<path d="M153.427 157.304C153.792 156.977 154.161 156.659 154.496 156.354C155.535 155.409 156.328 153.81 156.781 152.708C157.041 152.083 157.175 151.413 157.176 150.736V148.616H160.919V152.093V152.186C160.741 152.966 159.02 155.036 158.045 156.384C157.392 157.287 156.149 158.44 154.653 158.64C153.232 158.801 152.512 158.355 153.427 157.304Z" fill="#B16668"/>
<path d="M160.175 93.9923C163.079 100.331 160.069 122.667 160.069 122.667C160.158 123.698 161.341 125.724 161.765 130.253C162.282 135.604 160.951 149.036 160.951 149.036C160.38 149.368 159.736 149.556 159.076 149.583C158.416 149.609 157.76 149.474 157.164 149.189C157.164 149.189 153.598 128.951 152.924 123.634C152.339 118.991 151.228 108.078 151.228 108.078L148.311 123.732C148.851 125.196 149.233 126.714 149.452 128.26C149.753 131.393 149.528 145.864 149.528 145.864C149.528 145.864 148.256 146.84 145.793 146.479C145.793 146.479 141.553 126.661 141.218 122.896C141.023 120.649 143.584 93.0637 143.584 93.0637L160.175 93.9923Z" fill="#E3851E"/>
<path opacity="0.6" d="M160.175 93.9923C163.079 100.331 160.069 122.667 160.069 122.667C160.158 123.698 161.341 125.724 161.765 130.253C162.282 135.604 160.951 149.036 160.951 149.036C160.38 149.368 159.736 149.556 159.076 149.583C158.416 149.609 157.76 149.474 157.164 149.189C157.164 149.189 153.598 128.951 152.924 123.634C152.339 118.991 151.228 108.078 151.228 108.078L148.311 123.732C148.851 125.196 149.233 126.714 149.452 128.26C149.753 131.393 149.528 145.864 149.528 145.864C149.528 145.864 148.256 146.84 145.793 146.479C145.793 146.479 141.553 126.661 141.218 122.896C141.023 120.649 143.584 93.0637 143.584 93.0637L160.175 93.9923Z" fill="black"/>
<path opacity="0.3" d="M151.224 108.078L150.282 102.892C150.282 102.892 146.293 102.065 144.486 100.348C144.486 100.348 146.382 102.71 149.201 103.482L150.261 108.014L148.595 122.176L151.224 108.078Z" fill="black"/>
<path d="M164.905 91.2364C164.876 90.8124 164.095 86.3816 163.561 83.897L158.342 85.4955L159.27 90.0662L163.663 93.5939C165.045 93.3225 164.935 91.6519 164.905 91.2364Z" fill="#B16668"/>
<path d="M139.661 81.8745L137.193 86.3986L141.035 89.6888L144.55 84.1132L139.661 81.8745Z" fill="#B16668"/>
<path d="M148.921 71.7959C146.474 71.8213 143.778 72.7075 142.849 74.6282C141.921 76.5489 139.355 81.8362 139.355 81.8362C139.355 81.8362 141.641 84.9399 145.071 84.7152L148.921 71.7959Z" fill="#E3851E"/>
<path opacity="0.6" d="M148.921 71.7959C146.474 71.8213 143.778 72.7075 142.849 74.6282C141.921 76.5489 139.355 81.8362 139.355 81.8362C139.355 81.8362 141.641 84.9399 145.071 84.7152L148.921 71.7959Z" fill="black"/>
<path d="M153.983 71.8807L156.023 71.9655C158.236 72.4955 159.038 74.0177 159.966 75.9808C160.647 77.4967 160.711 79.2182 160.144 80.7805L157.549 88.2853C157.549 88.2853 158.762 91.2193 160.174 93.9923C153.665 97.626 145.537 95.7137 143.578 93.0637C143.498 92.4998 143.608 89.9685 143.451 87.0853C143.286 84.0071 142.862 80.5345 143.345 78.635C144.244 75.1073 145.923 71.7959 149.281 71.7959L153.983 71.8807Z" fill="#F5F5F5"/>
<path d="M156.031 71.9656C158.249 72.2793 161.514 72.7245 162.637 78.0033C163.778 83.3542 163.994 84.6305 163.994 84.6305C163.994 84.6305 162.052 86.5681 158.368 86.5512C158.359 86.5512 155.111 76.0445 156.031 71.9656Z" fill="#E3851E"/>
<path opacity="0.6" d="M156.031 71.9656C158.249 72.2793 161.514 72.7245 162.637 78.0033C163.778 83.3542 163.994 84.6305 163.994 84.6305C163.994 84.6305 162.052 86.5681 158.368 86.5512C158.359 86.5512 155.111 76.0445 156.031 71.9656Z" fill="black"/>
<path d="M158.263 86.2247C157.839 84.8212 157.415 83.2185 157.012 81.4971C157.029 83.6611 157.249 85.8188 157.669 87.9419L158.263 86.2247Z" fill="#EBEBEB"/>
<path d="M146.603 56.9897C145.725 57.5113 144.639 59.7245 144.745 64.3631C144.835 68.2936 146.111 69.2645 146.751 69.5444C147.391 69.8242 148.625 69.6546 149.825 69.4553V71.817C149.825 71.817 148.167 73.742 148.269 74.8232C148.371 75.9044 150.665 76.163 152.216 75.103C153.221 74.3796 154.083 73.4769 154.76 72.4403V66.7333C154.76 66.7333 155.57 67.8145 156.88 66.9368C158.191 66.0591 158.254 63.8797 157.487 63.0953C156.719 62.3109 155.053 62.5611 154.748 63.6423C154.748 63.6423 152.831 63.7144 150.283 62.3152C149.295 61.7783 148.447 61.0166 147.808 60.0915C147.168 59.1663 146.755 58.1038 146.603 56.9897Z" fill="#B16668"/>
<path d="M149.133 63.3753C149.131 63.4727 149.158 63.5683 149.211 63.6504C149.263 63.7324 149.339 63.7972 149.428 63.8367C149.517 63.8761 149.615 63.8885 149.711 63.8723C149.807 63.8561 149.897 63.812 149.968 63.7455C150.039 63.679 150.089 63.5931 150.111 63.4984C150.134 63.4037 150.128 63.3044 150.095 63.213C150.061 63.1215 150.002 63.0419 149.924 62.9841C149.845 62.9263 149.752 62.8928 149.654 62.8877C149.588 62.8855 149.522 62.8963 149.46 62.9196C149.398 62.9429 149.341 62.9782 149.293 63.0234C149.244 63.0687 149.205 63.1231 149.178 63.1835C149.15 63.2439 149.135 63.3091 149.133 63.3753Z" fill="#263238"/>
<path d="M149.003 66.708L147.854 67.0769C147.873 67.1547 147.908 67.2277 147.957 67.2916C148.005 67.3554 148.066 67.4088 148.136 67.4484C148.206 67.488 148.283 67.5131 148.363 67.5221C148.442 67.5312 148.523 67.5239 148.6 67.5009C148.757 67.4476 148.887 67.3347 148.963 67.1866C149.038 67.0384 149.052 66.8666 149.003 66.708Z" fill="#9A4A4D"/>
<path d="M145.08 61.8573L146.08 61.1662C146.039 61.0961 145.983 61.0355 145.917 60.9883C145.85 60.941 145.775 60.9082 145.695 60.8918C145.615 60.8754 145.533 60.8759 145.453 60.8932C145.373 60.9106 145.298 60.9443 145.232 60.9924C145.101 61.0899 145.013 61.2338 144.984 61.3945C144.956 61.5553 144.99 61.7209 145.08 61.8573Z" fill="#263238"/>
<path d="M145.309 63.019C145.308 63.1162 145.336 63.2114 145.389 63.2929C145.442 63.3744 145.517 63.4386 145.606 63.4774C145.696 63.5162 145.794 63.528 145.89 63.5113C145.986 63.4946 146.074 63.4502 146.145 63.3835C146.216 63.3168 146.265 63.2308 146.288 63.1363C146.31 63.0417 146.304 62.9426 146.27 62.8514C146.237 62.7602 146.177 62.6808 146.099 62.6232C146.021 62.5655 145.927 62.5322 145.83 62.5272C145.696 62.5248 145.567 62.575 145.469 62.6669C145.372 62.7588 145.314 62.8852 145.309 63.019Z" fill="#263238"/>
<path d="M147.641 62.7351L147.565 65.7116L146 65.2282L147.641 62.7351Z" fill="#9A4A4D"/>
<path d="M149.824 69.4553C151.096 69.29 153.687 68.5437 154.094 67.5134C153.932 68.0345 153.613 68.4933 153.182 68.8278C152.406 69.4935 149.824 70.244 149.824 70.244V69.4553Z" fill="#9A4A4D"/>
<path d="M129.129 81.5989L143.481 85.3767L147.721 103.193L134.073 99.2288L129.129 81.5989Z" fill="#E3851E"/>
<path opacity="0.15" d="M135.388 93.386C135.256 93.7506 134.468 94.7597 132.797 94.6792L132.594 93.9414L135.388 93.386Z" fill="black"/>
<path opacity="0.15" d="M138.598 93.9414C138.661 94.4163 139.636 95.2982 141.286 95.8452C143.164 96.4727 146.043 96.142 146.043 96.142L145.784 95.2558L138.598 93.9414Z" fill="black"/>
<path opacity="0.15" d="M133.332 84.1767C133.332 84.1767 133.281 83.9308 133.213 83.6298C133.145 83.3287 133.993 83.3117 135.095 83.6001L137.215 84.147C138.318 84.4354 139.268 84.9145 139.335 85.2155L139.454 85.7625L133.332 84.1767Z" fill="black"/>
<path d="M132.34 82.112C132.297 81.9212 132.636 81.8745 133.098 82.0017L133.946 82.2307C133.946 82.2307 133.696 81.0477 135.553 81.4632C137.411 81.8788 137.818 83.2186 137.818 83.2186L138.712 83.473C139.208 83.6129 139.654 83.897 139.713 84.0708L139.819 84.41L132.424 82.4639C132.424 82.4639 132.378 82.2985 132.34 82.112Z" fill="#37474F"/>
<path d="M133.355 82.7013C134.034 82.8666 134.313 82.9557 134.415 83.4221C134.53 83.9563 134.576 84.3464 134.576 84.3464L137.85 85.1944C137.85 85.1944 137.693 84.5202 137.642 84.2574C137.591 83.9945 137.701 83.8334 138.223 83.9733L138.265 83.7655L133.135 82.4766L133.355 82.7013Z" fill="#37474F"/>
<path d="M133.242 84.2276C133.242 84.2276 133.191 83.9816 133.123 83.6806C133.055 83.3796 133.903 83.3668 135.006 83.6509L137.126 84.2021C138.228 84.4862 139.178 84.9653 139.246 85.2664L139.364 85.8133L133.242 84.2276Z" fill="#37474F"/>
<path d="M163.663 93.5937L159.266 90.066C159.266 90.066 149.548 91.7959 148.403 91.885C147.799 91.9013 147.204 91.7348 146.696 91.4072C146.189 91.0796 145.792 90.6062 145.558 90.0491C145.134 88.9255 144.358 89.0654 144.358 89.0654C144.358 89.0654 144.693 90.4858 144.782 90.9395C144.871 91.3931 142.153 91.7875 140.635 91.2532C139.117 90.719 136.917 91.4864 138.278 93.5513C139.639 95.6162 142.289 95.8579 144.125 95.8579C144.895 95.8521 145.663 95.8012 146.427 95.7052C147.021 95.6289 147.614 95.5695 148.212 95.5271C151.999 95.2558 161.967 94.1279 163.663 93.5937Z" fill="#B16668"/>
<path d="M130.592 86.8056L131.228 89.0782C131.351 89.5022 133.017 90.3078 134.073 90.6004C135.129 90.893 136.282 91.2322 135.769 92.7204C135.311 94.0814 133.573 94.391 132.691 94.3528C131.809 94.3146 130.596 93.4709 130.121 92.1099C129.511 90.3715 129.837 88.5143 129.596 87.501C129.354 86.4876 130.062 86.1993 130.592 86.8056Z" fill="#B16668"/>
<path d="M159.483 78.6351C158.863 78.6356 158.249 78.514 157.676 78.2771C157.103 78.0401 156.582 77.6926 156.143 77.2544C155.705 76.8161 155.357 76.2957 155.119 75.7229C154.882 75.15 154.76 74.536 154.76 73.9159V67.2888C156.011 67.2899 157.211 67.7875 158.095 68.6723C158.98 69.557 159.478 70.7567 159.479 72.0079L159.483 78.6351Z" fill="#263238"/>
</svg>
