<svg width="15" height="15" viewBox="0 0 15 15" fill="none" xmlns="http://www.w3.org/2000/svg">
<path fill-rule="evenodd" clip-rule="evenodd" d="M10.4158 1.25646C11.3149 1.20027 12.2015 1.51244 12.8695 2.12431C13.4814 2.79237 13.7936 3.67895 13.7436 4.58427V10.4157C13.7998 11.321 13.4814 12.2076 12.8758 12.8757C12.2077 13.4876 11.3149 13.7997 10.4158 13.7435H4.58429C3.67897 13.7997 2.79238 13.4876 2.12432 12.8757C1.51245 12.2076 1.20027 11.321 1.25646 10.4157V4.58427C1.20027 3.67895 1.51245 2.79237 2.12432 2.12431C2.79238 1.51244 3.67897 1.20027 4.58429 1.25646H10.4158ZM6.8632 10.5281L11.0651 6.31372C11.446 5.92662 11.446 5.30226 11.0651 4.92141L10.2535 4.10975C9.86637 3.72265 9.24201 3.72265 8.85491 4.10975L8.43659 4.53431C8.37415 4.59674 8.37415 4.70288 8.43659 4.76532C8.43659 4.76532 9.42932 5.7518 9.44805 5.77677C9.51673 5.85169 9.56043 5.95159 9.56043 6.06397C9.56043 6.28874 9.37937 6.47605 9.14836 6.47605C9.04222 6.47605 8.94232 6.43234 8.87364 6.36366L7.83096 5.32724C7.78101 5.27729 7.6936 5.27729 7.64365 5.32724L4.66546 8.3054C4.45942 8.51144 4.34079 8.78616 4.33455 9.0796L4.29709 10.5593C4.29709 10.6405 4.32206 10.7154 4.37825 10.7716C4.43445 10.8278 4.50937 10.859 4.59054 10.859H6.05778C6.35747 10.859 6.64468 10.7404 6.8632 10.5281Z" fill="#272727"/>
<path d="M12.8695 2.12431L13.11 1.90407L13.1003 1.89351L13.0898 1.88384L12.8695 2.12431ZM10.4158 1.25646V1.58255H10.426L10.4361 1.58191L10.4158 1.25646ZM13.7436 4.58427L13.4181 4.5663L13.4176 4.57528V4.58427H13.7436ZM13.7436 10.4157H13.4176V10.4258L13.4182 10.4359L13.7436 10.4157ZM12.8758 12.8757L13.096 13.1162L13.1072 13.1059L13.1174 13.0947L12.8758 12.8757ZM10.4158 13.7435L10.4361 13.4181L10.426 13.4175H10.4158V13.7435ZM4.58429 13.7435V13.4175H4.57418L4.56409 13.4181L4.58429 13.7435ZM2.12432 12.8757L1.88385 13.0959L1.89352 13.1065L1.90408 13.1162L2.12432 12.8757ZM1.25646 10.4157L1.58192 10.4359L1.58255 10.4258V10.4157H1.25646ZM1.25646 4.58427H1.58255V4.57416L1.58192 4.56407L1.25646 4.58427ZM2.12432 2.12431L1.90408 1.88384L1.89352 1.89351L1.88385 1.90407L2.12432 2.12431ZM4.58429 1.25646L4.56409 1.58192L4.57418 1.58255H4.58429V1.25646ZM11.0651 6.31372L11.2961 6.54396L11.2976 6.54241L11.0651 6.31372ZM6.8632 10.5281L7.09044 10.762L7.09412 10.7583L6.8632 10.5281ZM11.0651 4.92141L10.8346 5.15199L10.8346 5.15199L11.0651 4.92141ZM10.2535 4.10975L10.4841 3.87917L10.4841 3.87917L10.2535 4.10975ZM8.85491 4.10975L8.62432 3.87916L8.62263 3.88088L8.85491 4.10975ZM8.43659 4.53431L8.66717 4.76489L8.66887 4.76317L8.43659 4.53431ZM8.43659 4.76532L8.20601 4.9959L8.20674 4.99662L8.43659 4.76532ZM9.44805 5.77677L9.18718 5.97242L9.19682 5.98527L9.20767 5.99712L9.44805 5.77677ZM8.87364 6.36366L9.10422 6.13308L9.10352 6.13239L8.87364 6.36366ZM7.83096 5.32724L7.60038 5.55782L7.60108 5.55851L7.83096 5.32724ZM7.64365 5.32724L7.87423 5.55782L7.87423 5.55781L7.64365 5.32724ZM4.66546 8.3054L4.43488 8.07483L4.43488 8.07483L4.66546 8.3054ZM4.33455 9.0796L4.66053 9.08786L4.66056 9.08654L4.33455 9.0796ZM4.29709 10.5593L3.971 10.5511V10.5593H4.29709ZM4.37825 10.7716L4.60883 10.541L4.60883 10.541L4.37825 10.7716ZM13.0898 1.88384C12.3564 1.21216 11.383 0.869289 10.3955 0.931008L10.4361 1.58191C11.2468 1.53125 12.0465 1.81273 12.6493 2.36478L13.0898 1.88384ZM14.0692 4.60223C14.124 3.6105 13.782 2.63772 13.11 1.90407L12.6291 2.34456C13.1809 2.94702 13.4632 3.74741 13.4181 4.5663L14.0692 4.60223ZM14.0697 10.4157V4.58427H13.4176V10.4157H14.0697ZM13.1174 13.0947C13.781 12.3627 14.1308 11.3902 14.0691 10.3955L13.4182 10.4359C13.4688 11.2518 13.1818 12.0526 12.6342 12.6567L13.1174 13.0947ZM10.3955 14.069C11.3824 14.1307 12.3622 13.7882 13.096 13.1162L12.6555 12.6352C12.0532 13.1869 11.2474 13.4688 10.4361 13.4181L10.3955 14.069ZM4.58429 14.0696H10.4158V13.4175H4.58429V14.0696ZM1.90408 13.1162C2.6377 13.7881 3.61117 14.1307 4.60449 14.069L4.56409 13.4181C3.74677 13.4688 2.94707 13.187 2.34456 12.6352L1.90408 13.1162ZM0.930999 10.3955C0.869344 11.3888 1.21194 12.3623 1.88385 13.0959L2.36479 12.6554C1.81296 12.0529 1.53119 11.2532 1.58192 10.4359L0.930999 10.3955ZM0.930373 4.58427V10.4157H1.58255V4.58427H0.930373ZM1.88385 1.90407C1.21194 2.63768 0.869344 3.61115 0.930999 4.60447L1.58192 4.56407C1.53119 3.74675 1.81296 2.94706 2.36479 2.34456L1.88385 1.90407ZM4.60449 0.930999C3.61117 0.869345 2.6377 1.21193 1.90408 1.88384L2.34456 2.36478C2.94707 1.81296 3.74677 1.53119 4.56409 1.58192L4.60449 0.930999ZM10.4158 0.930373H4.58429V1.58255H10.4158V0.930373ZM10.8342 6.08348L6.63228 10.2979L7.09412 10.7583L11.2961 6.54395L10.8342 6.08348ZM10.8346 5.15199C11.0871 5.40447 11.0897 5.82378 10.8327 6.08502L11.2976 6.54241C11.8023 6.02945 11.8049 5.20005 11.2957 4.69083L10.8346 5.15199ZM10.0229 4.34032L10.8346 5.15199L11.2957 4.69083L10.4841 3.87917L10.0229 4.34032ZM9.08549 4.34032C9.34524 4.08057 9.76314 4.08057 10.0229 4.34033L10.4841 3.87917C9.9696 3.36472 9.13878 3.36472 8.62433 3.87917L9.08549 4.34032ZM8.66887 4.76317L9.08719 4.33861L8.62263 3.88088L8.20431 4.30544L8.66887 4.76317ZM8.66717 4.53474C8.7022 4.56977 8.71585 4.61296 8.71585 4.64981C8.71585 4.68667 8.7022 4.72985 8.66717 4.76489L8.20601 4.30373C8.01623 4.49351 8.01623 4.80612 8.20601 4.9959L8.66717 4.53474ZM9.70892 5.58112C9.69945 5.5685 9.6906 5.55872 9.68974 5.55776C9.68668 5.55434 9.68385 5.55128 9.6818 5.54908C9.67758 5.54456 9.67284 5.53961 9.6682 5.53481C9.65873 5.525 9.64619 5.51219 9.63147 5.49725C9.60186 5.4672 9.56101 5.42609 9.51304 5.37797C9.41697 5.28161 9.29083 5.15567 9.16551 5.03074C9.04014 4.90576 8.91538 4.78158 8.82197 4.68866C8.77526 4.6422 8.73638 4.60354 8.70918 4.5765C8.69558 4.56298 8.6849 4.55236 8.67761 4.54512C8.67397 4.5415 8.67118 4.53873 8.6693 4.53685C8.66836 4.53592 8.66764 4.53521 8.66716 4.53473C8.66692 4.53449 8.66674 4.53431 8.66662 4.53419C8.66656 4.53413 8.66651 4.53409 8.66648 4.53406C8.66647 4.53404 8.66646 4.53403 8.66645 4.53402C8.66644 4.53402 8.66644 4.53401 8.43659 4.76532C8.20674 4.99662 8.20674 4.99663 8.20675 4.99663C8.20676 4.99664 8.20677 4.99665 8.20678 4.99667C8.20681 4.9967 8.20686 4.99674 8.20692 4.9968C8.20704 4.99692 8.20722 4.9971 8.20745 4.99733C8.20793 4.9978 8.20864 4.99851 8.20958 4.99944C8.21145 5.0013 8.21423 5.00407 8.21787 5.00768C8.22513 5.01491 8.2358 5.02551 8.24938 5.03901C8.27654 5.06601 8.31537 5.10462 8.36202 5.15103C8.45534 5.24385 8.57993 5.36786 8.70508 5.49262C8.83028 5.61743 8.95584 5.74279 9.05118 5.83842C9.09891 5.8863 9.13869 5.92635 9.16695 5.95502C9.18117 5.96946 9.19187 5.9804 9.19901 5.98778C9.21681 6.00622 9.20167 5.99175 9.18718 5.97242L9.70892 5.58112ZM9.88652 6.06397C9.88652 5.86435 9.80829 5.68719 9.68842 5.55642L9.20767 5.99712C9.22517 6.0162 9.23435 6.03883 9.23435 6.06397H9.88652ZM9.14836 6.80213C9.56267 6.80213 9.88652 6.46561 9.88652 6.06397H9.23435C9.23435 6.11187 9.19607 6.14996 9.14836 6.14996V6.80213ZM8.64306 6.59424C8.7722 6.72338 8.95475 6.80213 9.14836 6.80213V6.14996C9.13996 6.14996 9.13098 6.1482 9.12237 6.14461C9.11354 6.14093 9.10745 6.13632 9.10422 6.13308L8.64306 6.59424ZM7.60108 5.55851L8.64376 6.59493L9.10352 6.13239L8.06084 5.09597L7.60108 5.55851ZM7.87423 5.55781C7.83136 5.60069 7.7795 5.61586 7.73731 5.61586C7.69511 5.61586 7.64325 5.60069 7.60038 5.55781L8.06154 5.09666C7.88424 4.91936 7.59037 4.91936 7.41307 5.09666L7.87423 5.55781ZM4.89604 8.53598L7.87423 5.55782L7.41307 5.09666L4.43488 8.07483L4.89604 8.53598ZM4.66056 9.08654C4.665 8.87789 4.74894 8.68308 4.89604 8.53598L4.43488 8.07483C4.1699 8.3398 4.01658 8.69443 4.00854 9.07267L4.66056 9.08654ZM4.62307 10.5676L4.66053 9.08786L4.00857 9.07135L3.9711 10.5511L4.62307 10.5676ZM4.60883 10.541C4.61199 10.5442 4.61494 10.5479 4.61745 10.5518C4.61993 10.5557 4.62152 10.5592 4.62247 10.5618C4.62433 10.5668 4.62317 10.5667 4.62317 10.5593H3.971C3.971 10.7079 4.01806 10.8726 4.14768 11.0022L4.60883 10.541ZM4.59054 10.5329C4.59206 10.5329 4.59538 10.5333 4.59952 10.535C4.60364 10.5367 4.60684 10.539 4.60883 10.541L4.14768 11.0022C4.26535 11.1199 4.42336 11.1851 4.59054 11.1851V10.5329ZM6.05778 10.5329H4.59054V11.1851H6.05778V10.5329ZM6.63599 10.2942C6.47668 10.449 6.27036 10.5329 6.05778 10.5329V11.1851C6.44459 11.1851 6.81268 11.0318 7.09041 10.762L6.63599 10.2942Z" fill="black"/>
</svg>
