<svg width="18" height="18" viewBox="0 0 18 18" fill="none" xmlns="http://www.w3.org/2000/svg">
<path d="M10.9668 10.8583C10.4097 11.3075 9.71566 11.5524 9.00008 11.5524C8.28451 11.5524 7.59049 11.3075 7.03342 10.8583C6.86324 10.7169 6.64384 10.6488 6.42348 10.6691C6.20313 10.6895 5.99987 10.7965 5.85842 10.9667C5.71697 11.1368 5.64892 11.3562 5.66923 11.5766C5.68955 11.797 5.79657 12.0002 5.96675 12.1417C6.81787 12.8522 7.89139 13.2414 9.00008 13.2414C10.1088 13.2414 11.1823 12.8522 12.0334 12.1417C12.2036 12.0002 12.3106 11.797 12.3309 11.5766C12.3513 11.3562 12.2832 11.1368 12.1418 10.9667C12.0717 10.8824 11.9858 10.8128 11.8888 10.7617C11.7919 10.7107 11.6858 10.6792 11.5767 10.6691C11.3563 10.6488 11.1369 10.7169 10.9668 10.8583ZM6.50008 8.16666C6.6649 8.16666 6.82602 8.11779 6.96306 8.02622C7.1001 7.93465 7.20691 7.80451 7.26998 7.65223C7.33306 7.49996 7.34956 7.33241 7.31741 7.17076C7.28525 7.00911 7.20588 6.86062 7.08934 6.74408C6.9728 6.62753 6.82431 6.54816 6.66266 6.51601C6.50101 6.48386 6.33345 6.50036 6.18118 6.56343C6.02891 6.6265 5.89876 6.73331 5.80719 6.87036C5.71563 7.0074 5.66675 7.16851 5.66675 7.33333C5.66675 7.55434 5.75455 7.76631 5.91083 7.92259C6.06711 8.07887 6.27907 8.16666 6.50008 8.16666ZM11.5001 6.5C11.3353 6.5 11.1742 6.54887 11.0371 6.64044C10.9001 6.73201 10.7933 6.86216 10.7302 7.01443C10.6671 7.1667 10.6506 7.33426 10.6828 7.49591C10.7149 7.65756 10.7943 7.80604 10.9108 7.92259C11.0274 8.03913 11.1759 8.1185 11.3375 8.15065C11.4992 8.18281 11.6667 8.1663 11.819 8.10323C11.9713 8.04016 12.1014 7.93335 12.193 7.79631C12.2845 7.65927 12.3334 7.49815 12.3334 7.33333C12.3334 7.11232 12.2456 6.90036 12.0893 6.74408C11.9331 6.5878 11.7211 6.5 11.5001 6.5ZM9.00008 0.666664C7.35191 0.666664 5.74074 1.15541 4.37033 2.07108C2.99992 2.98676 1.93182 4.28825 1.30109 5.81097C0.670359 7.33369 0.505331 9.00924 0.826874 10.6258C1.14842 12.2423 1.94209 13.7271 3.10753 14.8926C4.27297 16.058 5.75782 16.8517 7.37433 17.1732C8.99084 17.4948 10.6664 17.3297 12.1891 16.699C13.7118 16.0683 15.0133 15.0002 15.929 13.6298C16.8447 12.2593 17.3334 10.6482 17.3334 9C17.3334 7.90565 17.1179 6.82202 16.6991 5.81097C16.2803 4.79992 15.6665 3.88126 14.8926 3.10744C14.1188 2.33362 13.2002 1.71979 12.1891 1.301C11.1781 0.882212 10.0944 0.666664 9.00008 0.666664ZM9.00008 15.6667C7.68154 15.6667 6.39261 15.2757 5.29628 14.5431C4.19996 13.8106 3.34547 12.7694 2.84089 11.5512C2.3363 10.333 2.20428 8.9926 2.46152 7.6994C2.71875 6.40619 3.35369 5.2183 4.28604 4.28595C5.21839 3.3536 6.40628 2.71866 7.69948 2.46143C8.99269 2.20419 10.3331 2.33622 11.5513 2.8408C12.7695 3.34539 13.8107 4.19987 14.5432 5.2962C15.2758 6.39252 15.6668 7.68146 15.6668 9C15.6668 10.7681 14.9644 12.4638 13.7141 13.714C12.4639 14.9643 10.7682 15.6667 9.00008 15.6667Z" fill="#D07D36"/>
</svg>
