<svg width="15" height="11" viewBox="0 0 15 11" fill="none" xmlns="http://www.w3.org/2000/svg">
<g clip-path="url(#clip0_2_11091)">
<path d="M1.48474 0.839554C1.85279 0.839554 2.15015 1.14155 2.15015 1.51536V6.92177H6.80798V3.54276C6.80798 3.16896 7.10533 2.86696 7.47338 2.86696H12.1312C13.2333 2.86696 14.1274 3.77507 14.1274 4.89436V9.62498C14.1274 9.99878 13.8301 10.3008 13.462 10.3008C13.094 10.3008 12.7966 9.99878 12.7966 9.62498V8.94917H2.15015V9.62498C2.15015 9.99878 1.85279 10.3008 1.48474 10.3008C1.11669 10.3008 0.819336 9.99878 0.819336 9.62498V1.51536C0.819336 1.14155 1.11669 0.839554 1.48474 0.839554ZM4.47906 2.86696C4.92025 2.86696 5.34337 3.04496 5.65534 3.3618C5.96731 3.67865 6.14257 4.10838 6.14257 4.55646C6.14257 5.00455 5.96731 5.43428 5.65534 5.75112C5.34337 6.06797 4.92025 6.24597 4.47906 6.24597C4.03787 6.24597 3.61475 6.06797 3.30278 5.75112C2.99081 5.43428 2.81555 5.00455 2.81555 4.55646C2.81555 4.10838 2.99081 3.67865 3.30278 3.3618C3.61475 3.04496 4.03787 2.86696 4.47906 2.86696Z" fill="#E3851E"/>
</g>
<defs>
<clipPath id="clip0_2_11091">
<rect width="13.3081" height="10.8128" fill="white" transform="translate(0.819336 0.164047)"/>
</clipPath>
</defs>
</svg>
