<svg width="212" height="212" viewBox="0 0 212 212" fill="none" xmlns="http://www.w3.org/2000/svg">
<path d="M106 202.642C161.167 202.642 205.89 176.821 205.89 144.97C205.89 113.118 161.167 87.2974 106 87.2974C50.8317 87.2974 6.10938 113.118 6.10938 144.97C6.10938 176.821 50.8317 202.642 106 202.642Z" fill="#F0F0F0"/>
<path d="M85.3305 188.672C104.354 188.672 119.776 179.769 119.776 168.786C119.776 157.803 104.354 148.9 85.3305 148.9C66.3067 148.9 50.8848 157.803 50.8848 168.786C50.8848 179.769 66.3067 188.672 85.3305 188.672Z" fill="#E0E0E0"/>
<path d="M183.288 143.906L179.248 141.574C179.248 141.574 178.26 132.924 178.917 126.225C179.841 116.812 185.921 105.483 193.172 108.145C200.422 110.808 189.848 120.391 187.495 128.375C185.141 136.358 183.288 143.906 183.288 143.906Z" fill="#E3851E"/>
<path opacity="0.15" d="M183.288 143.906L179.248 141.574C179.248 141.574 178.26 132.924 178.917 126.225C179.841 116.812 185.921 105.483 193.172 108.145C200.422 110.808 189.848 120.391 187.495 128.375C185.141 136.358 183.288 143.906 183.288 143.906Z" fill="black"/>
<path d="M181.165 142.926C181.229 142.923 181.29 142.894 181.333 142.847C181.377 142.799 181.4 142.736 181.398 142.672C180.69 121.756 191.103 111.232 191.205 111.13C191.251 111.084 191.277 111.022 191.277 110.957C191.277 110.891 191.251 110.829 191.205 110.783C191.182 110.76 191.156 110.742 191.126 110.73C191.097 110.718 191.065 110.711 191.033 110.711C191.001 110.711 190.97 110.718 190.94 110.73C190.911 110.742 190.884 110.76 190.861 110.783C190.751 110.885 180.189 121.561 180.906 142.689C180.907 142.721 180.915 142.754 180.928 142.783C180.942 142.813 180.961 142.84 180.985 142.862C181.01 142.884 181.038 142.901 181.069 142.912C181.099 142.923 181.132 142.928 181.165 142.926Z" fill="white"/>
<path d="M185.828 145.36L182.953 143.702C182.953 143.702 182.461 137.766 185.374 130.558C187.918 124.283 194.193 119.072 197.356 120.166C200.52 121.26 200.439 123.503 198.896 125.856C197.352 128.209 187.978 133.81 185.828 145.36Z" fill="#E3851E"/>
<path d="M184.311 144.732C184.375 144.731 184.437 144.705 184.483 144.659C184.529 144.613 184.555 144.551 184.556 144.486C184.497 131.258 196.916 122.32 197.043 122.231C197.07 122.212 197.092 122.189 197.11 122.162C197.127 122.135 197.138 122.105 197.143 122.073C197.149 122.041 197.147 122.009 197.14 121.978C197.132 121.946 197.118 121.917 197.098 121.891C197.061 121.839 197.004 121.804 196.941 121.793C196.878 121.781 196.812 121.796 196.759 121.832C196.632 121.921 184.01 131.012 184.065 144.486C184.065 144.552 184.091 144.614 184.137 144.66C184.183 144.706 184.245 144.732 184.311 144.732Z" fill="white"/>
<path d="M33.7768 138.712L37.508 136.193C37.508 136.193 39.1488 126.441 37.6224 117.838C35.477 105.771 27.1369 101.76 24.1689 103.032C21.2009 104.304 20.5649 107.895 26.1066 114.781C29.3926 118.83 33.6623 127.476 33.7768 138.712Z" fill="#E3851E"/>
<g opacity="0.15">
<path d="M33.7768 138.712L37.508 136.193C37.508 136.193 39.1488 126.441 37.6224 117.838C35.477 105.771 27.1369 101.76 24.1689 103.032C21.2009 104.304 20.5649 107.895 26.1066 114.781C29.3926 118.83 33.6623 127.476 33.7768 138.712Z" fill="black"/>
</g>
<path d="M35.0567 133.878H35.0186C34.9804 133.876 34.9433 133.865 34.9095 133.847C34.8756 133.83 34.846 133.805 34.8224 133.775C34.7987 133.745 34.7817 133.71 34.7724 133.673C34.7631 133.636 34.7618 133.598 34.7684 133.56C36.1167 122.201 31.3213 109.871 26.1018 104.965C26.0516 104.915 26.0234 104.846 26.0234 104.775C26.0234 104.703 26.0516 104.635 26.1018 104.584C26.1267 104.558 26.1564 104.538 26.1892 104.525C26.2219 104.511 26.2571 104.504 26.2926 104.504C26.3282 104.504 26.3634 104.511 26.3961 104.525C26.4289 104.538 26.4586 104.558 26.4834 104.584C31.8004 109.579 36.6849 122.112 35.3196 133.636C35.3116 133.701 35.2808 133.761 35.2326 133.805C35.1844 133.85 35.1221 133.875 35.0567 133.878Z" fill="white"/>
<path d="M24.0077 145.3C23.4141 145.657 21.6842 144.372 21.2051 144.062C20.384 143.526 19.7151 142.787 19.2632 141.917C18.7562 140.93 18.568 139.81 18.7247 138.712C18.8115 138.138 18.9376 137.572 19.102 137.016C19.2504 136.46 19.3988 135.905 19.526 135.345C19.7141 134.801 19.7863 134.223 19.738 133.649C19.5727 132.517 18.5508 131.741 17.618 131.075C16.592 130.333 15.498 129.354 15.498 127.989C15.5504 126.916 15.9609 125.892 16.664 125.08C17.3 124.232 18.0632 123.494 18.6356 122.608C19.0832 121.994 19.3117 121.247 19.2844 120.488C19.2107 120.02 19.0434 119.571 18.7925 119.169C18.2922 118.287 17.6435 117.473 17.2916 116.536C16.9396 115.599 16.9651 114.395 17.7156 113.696C18.3134 113.123 19.225 113.03 20.0518 113.068C20.8309 113.146 21.5835 113.393 22.2566 113.793C24.4487 114.959 25.7376 117.503 28.0569 118.389C28.9516 118.728 29.9268 118.788 30.8553 119.017C31.7839 119.246 32.7421 119.699 33.1873 120.543C34.065 122.218 32.5344 124.329 33.1619 126.106C33.7216 127.683 35.2819 128.26 36.1638 129.672C36.5217 130.299 36.6703 131.024 36.5878 131.741C36.5381 132.952 36.2664 134.143 35.7864 135.256C35.2344 136.41 34.6113 137.529 33.9208 138.606C33.9208 138.606 24.0968 145.245 24.0077 145.3Z" fill="#E3851E"/>
<path d="M29.7396 141.785C29.704 141.785 29.6688 141.777 29.6361 141.763C29.6034 141.749 29.5738 141.729 29.549 141.703C29.5242 141.677 29.5047 141.647 29.4916 141.614C29.4784 141.581 29.472 141.545 29.4725 141.51C29.71 130.774 24.4269 119.038 20.6872 115.646C20.6341 115.598 20.602 115.531 20.5981 115.459C20.5941 115.388 20.6185 115.318 20.6661 115.264C20.6909 115.239 20.7206 115.219 20.7534 115.205C20.7861 115.191 20.8213 115.184 20.8568 115.184C20.8924 115.184 20.9276 115.191 20.9603 115.205C20.9931 115.219 21.0228 115.239 21.0476 115.264C24.8636 118.699 30.2527 130.638 30.011 141.523C30.0105 141.558 30.003 141.592 29.9891 141.624C29.9751 141.657 29.955 141.686 29.9298 141.71C29.9046 141.735 29.8748 141.754 29.8422 141.767C29.8096 141.78 29.7747 141.786 29.7396 141.785Z" fill="white"/>
<path d="M27.7607 128.705C27.7357 128.712 27.7095 128.712 27.6844 128.705C24.2161 127.705 19.9167 127.603 19.8743 127.599C19.8389 127.598 19.8039 127.59 19.7714 127.576C19.739 127.562 19.7096 127.542 19.6852 127.516C19.6607 127.49 19.6416 127.46 19.6289 127.427C19.6163 127.394 19.6103 127.358 19.6115 127.323C19.6108 127.287 19.6176 127.252 19.6314 127.219C19.6451 127.186 19.6656 127.156 19.6915 127.131C19.7174 127.106 19.7482 127.087 19.7819 127.075C19.8155 127.063 19.8513 127.058 19.8871 127.06C19.9295 127.06 24.2967 127.166 27.8328 128.184C27.9012 128.204 27.9586 128.251 27.9927 128.314C28.0269 128.376 28.0349 128.45 28.0151 128.519C27.9986 128.573 27.9649 128.621 27.919 128.654C27.8732 128.688 27.8176 128.706 27.7607 128.705Z" fill="white"/>
<path d="M127.691 131.33L126.084 130.401C125.816 130.227 125.593 129.993 125.434 129.716C125.274 129.44 125.181 129.13 125.164 128.811V62.0227C125.182 61.7045 125.274 61.3949 125.433 61.1187C125.592 60.8425 125.813 60.6076 126.08 60.4327L170.748 34.6451C171.033 34.5009 171.347 34.4258 171.666 34.4258C171.985 34.4258 172.3 34.5009 172.584 34.6451L174.191 35.5736C174.459 35.7475 174.682 35.9821 174.842 36.2584C175.002 36.5347 175.094 36.8449 175.111 37.1636V103.952C175.094 104.27 175.002 104.58 174.843 104.856C174.684 105.132 174.462 105.367 174.195 105.542L129.527 131.334C129.242 131.479 128.928 131.553 128.609 131.553C128.289 131.552 127.975 131.476 127.691 131.33Z" fill="#455A64"/>
<path d="M175.112 37.0152C175.048 36.5404 174.662 36.3665 174.2 36.6336L129.527 62.4255C129.257 62.595 129.034 62.8298 128.879 63.1082L125.432 61.1196C125.586 60.8391 125.809 60.6027 126.08 60.4327L170.749 34.6451C171.033 34.5009 171.348 34.4258 171.667 34.4258C171.986 34.4258 172.3 34.5009 172.585 34.6451L174.192 35.5736C174.44 35.7334 174.651 35.945 174.809 36.1938C174.968 36.4426 175.071 36.7228 175.112 37.0152Z" fill="#455A64"/>
<path d="M129.37 131.406C129.098 131.516 128.806 131.566 128.514 131.554C128.221 131.542 127.935 131.467 127.674 131.334L126.062 130.401C125.796 130.226 125.574 129.991 125.415 129.715C125.256 129.439 125.164 129.129 125.146 128.811V62.0228C125.157 61.7039 125.249 61.3931 125.414 61.1196L128.861 63.1082C128.693 63.382 128.6 63.6947 128.589 64.0155V130.804C128.606 131.33 128.937 131.571 129.37 131.406Z" fill="#263238"/>
<path d="M128.607 64.024V130.804C128.607 131.389 129.031 131.627 129.527 131.334L174.196 105.542C174.462 105.367 174.684 105.132 174.843 104.856C175.002 104.58 175.094 104.27 175.112 103.952V37.1636C175.112 36.5784 174.688 36.341 174.196 36.6336L129.527 62.4255C129.259 62.6001 129.035 62.8361 128.875 63.114C128.715 63.3919 128.623 63.7037 128.607 64.024Z" fill="#37474F"/>
<path d="M118.177 89.464C117.6 89.1206 114.925 87.5984 114.785 87.5179C114.676 87.4528 114.583 87.3641 114.512 87.2583C114.442 87.1525 114.397 87.0323 114.379 86.9065C114.362 86.7808 114.373 86.6527 114.411 86.5317C114.45 86.4108 114.515 86.3 114.602 86.2077L125.164 74.8784L128.607 76.8543L118.049 88.192C117.966 88.2803 117.903 88.3853 117.864 88.5C117.826 88.6147 117.812 88.7364 117.824 88.8569C117.836 88.9775 117.874 89.094 117.934 89.1987C117.995 89.3034 118.078 89.3939 118.177 89.464Z" fill="#455A64"/>
<path d="M128.607 76.8669L118.049 88.192C117.932 88.3172 117.856 88.475 117.83 88.6445C117.804 88.8141 117.83 88.9875 117.905 89.1418C117.98 89.2962 118.1 89.4241 118.249 89.5089C118.398 89.5937 118.57 89.6312 118.741 89.6166L128.607 88.8025V76.8669Z" fill="#37474F"/>
<path d="M151.859 56.4769C157.066 53.4707 161.285 55.9087 161.285 61.921C161.285 67.9333 157.066 75.2389 151.859 78.245C146.652 81.2512 142.434 78.8132 142.434 72.8051C142.434 66.797 146.652 59.483 151.859 56.4769Z" fill="#E3851E"/>
<path d="M151.792 61.2086C153.488 60.2334 154.849 61.0221 154.849 62.9725C154.791 64.0327 154.484 65.0643 153.953 65.9837C153.422 66.9031 152.681 67.6843 151.792 68.264C150.096 69.2392 148.73 68.4505 148.73 66.5001C148.789 65.4395 149.096 64.4076 149.628 63.4882C150.16 62.5688 150.901 61.7878 151.792 61.2086Z" fill="white"/>
<path d="M157.82 71.6051C157.82 68.4039 155.569 67.1022 152.796 68.7049L151.062 69.7055C148.289 71.3083 146.037 75.2175 146.037 78.4103V79.2879C146.561 79.4553 147.107 79.5397 147.657 79.5381C149.144 79.4875 150.593 79.049 151.859 78.2661C154.269 76.7815 156.308 74.7656 157.82 72.3725V71.6051Z" fill="white"/>
<path d="M145.889 108.006L157.829 101.111C158.337 100.819 158.749 101.056 158.749 101.641V105.487C158.731 105.806 158.639 106.116 158.479 106.392C158.319 106.669 158.096 106.903 157.829 107.077L145.889 113.971C145.38 114.264 144.969 114.026 144.969 113.441V109.596C144.986 109.277 145.078 108.967 145.238 108.69C145.398 108.414 145.621 108.179 145.889 108.006Z" fill="#E3851E"/>
<path d="M140.043 99.4154L163.664 85.7711C164.27 85.4192 164.766 85.7033 164.766 86.4071V87.836C164.745 88.2183 164.635 88.5904 164.443 88.9219C164.252 89.2534 163.984 89.5351 163.664 89.744L140.03 103.388C139.423 103.74 138.932 103.456 138.932 102.752V101.336C138.951 100.951 139.062 100.576 139.255 100.242C139.448 99.9076 139.718 99.6244 140.043 99.4154Z" fill="#FAFAFA"/>
<path d="M142.806 89.5403C143.128 89.3537 143.378 89.324 143.557 89.4555C143.735 89.5869 143.824 89.8795 143.824 90.3289C143.833 90.7391 143.741 91.1453 143.557 91.5119C143.39 91.8432 143.129 92.1177 142.806 92.3005L142.17 92.6694V94.0389C142.169 94.0861 142.157 94.1324 142.136 94.1746C142.121 94.213 142.095 94.2456 142.06 94.2679L141.738 94.4544C141.727 94.4627 141.713 94.4672 141.699 94.4672C141.686 94.4672 141.672 94.4627 141.661 94.4544C141.638 94.4257 141.628 94.3892 141.632 94.3527V90.3883C141.631 90.3414 141.641 90.295 141.661 90.2526C141.677 90.2149 141.704 90.1825 141.738 90.1593L142.806 89.5403ZM142.17 91.9019L142.785 91.5458C142.933 91.462 143.059 91.3425 143.15 91.1981C143.246 91.0278 143.293 90.834 143.285 90.6384C143.285 90.4095 143.239 90.278 143.15 90.2399C143.087 90.2246 143.021 90.2239 142.958 90.2378C142.895 90.2518 142.836 90.2801 142.785 90.3204L142.17 90.6766V91.9019Z" fill="#FAFAFA"/>
<path d="M145.601 87.9248C145.644 87.8994 145.677 87.8994 145.699 87.9248C145.726 87.9629 145.745 88.0062 145.754 88.052L146.733 91.3677C146.733 91.3677 146.733 91.3932 146.733 91.4059C146.733 91.4531 146.721 91.4996 146.699 91.5416C146.684 91.5799 146.658 91.6126 146.623 91.6348L146.335 91.8002C146.284 91.8299 146.246 91.8341 146.224 91.8002C146.204 91.7789 146.189 91.7526 146.182 91.7239L146.008 91.143L144.736 91.8723L144.567 92.6524C144.555 92.6947 144.539 92.7358 144.52 92.7754C144.499 92.8271 144.46 92.8693 144.41 92.8941L144.121 93.0595C144.111 93.0685 144.097 93.0734 144.083 93.0734C144.069 93.0734 144.056 93.0685 144.045 93.0595C144.023 93.0321 144.012 92.9971 144.015 92.962C144.013 92.9465 144.013 92.9308 144.015 92.9153L144.991 88.4718C145.002 88.4065 145.021 88.3425 145.046 88.281C145.066 88.2364 145.101 88.1994 145.143 88.175L145.601 87.9248ZM145.822 90.4943L145.398 88.9976L144.974 90.9988L145.822 90.4943Z" fill="#FAFAFA"/>
<path d="M148.217 86.3518C148.359 86.2623 148.52 86.2084 148.687 86.1949C148.806 86.1843 148.924 86.211 149.027 86.2712C149.12 86.3316 149.192 86.4189 149.234 86.5214C149.281 86.6258 149.307 86.738 149.311 86.8521C149.313 86.8992 149.303 86.9462 149.281 86.9878C149.266 87.0262 149.239 87.0588 149.205 87.0811L148.925 87.2422C148.878 87.2676 148.844 87.2719 148.823 87.2422C148.797 87.2249 148.775 87.2017 148.759 87.1744C148.742 87.1362 148.718 87.1019 148.687 87.0735C148.657 87.045 148.621 87.0231 148.581 87.009C148.452 86.9905 148.321 87.0241 148.217 87.1023C148.148 87.1466 148.083 87.1962 148.022 87.2507C147.959 87.3086 147.903 87.3741 147.856 87.4457C147.811 87.5147 147.774 87.5887 147.746 87.6662C147.721 87.7399 147.708 87.8173 147.708 87.8952C147.703 87.9665 147.716 88.038 147.746 88.1029C147.759 88.1257 147.777 88.1449 147.8 88.159C147.822 88.173 147.847 88.1814 147.873 88.1835C147.952 88.1971 148.032 88.1971 148.111 88.1835L148.48 88.1029C148.617 88.0622 148.76 88.045 148.904 88.052C149.006 88.0517 149.105 88.0844 149.188 88.1453C149.265 88.2106 149.321 88.2978 149.349 88.3955C149.39 88.5328 149.409 88.6761 149.404 88.8195C149.404 89.0089 149.376 89.1973 149.323 89.3792C149.272 89.5661 149.196 89.7457 149.099 89.9134C148.996 90.0853 148.874 90.2447 148.734 90.3883C148.591 90.5362 148.429 90.6632 148.251 90.7656C148.12 90.8451 147.977 90.9011 147.827 90.931C147.705 90.9545 147.579 90.9442 147.462 90.9013C147.356 90.8521 147.268 90.7704 147.212 90.6681C147.143 90.5373 147.105 90.3921 147.102 90.2441C147.101 90.1959 147.111 90.1481 147.131 90.1042C147.15 90.0681 147.178 90.0374 147.212 90.0152L147.492 89.854C147.534 89.8286 147.568 89.8201 147.593 89.8328C147.619 89.8455 147.636 89.8667 147.653 89.9049C147.67 89.9485 147.693 89.9898 147.721 90.0279C147.747 90.0648 147.784 90.0929 147.827 90.1084C147.882 90.1213 147.94 90.1213 147.996 90.1084C148.086 90.0872 148.172 90.0514 148.251 90.0024C148.333 89.9556 148.411 89.9016 148.484 89.8413C148.626 89.7285 148.74 89.5831 148.815 89.4173C148.848 89.3324 148.866 89.2417 148.865 89.1502C148.869 89.117 148.867 89.0833 148.857 89.0512C148.848 89.0192 148.832 88.9893 148.81 88.9636C148.787 88.9434 148.76 88.9284 148.731 88.9196C148.702 88.9109 148.671 88.9085 148.641 88.9128C148.544 88.9167 148.449 88.9324 148.357 88.9594C148.246 88.9848 148.119 89.0145 147.971 89.04C147.857 89.0684 147.74 89.077 147.623 89.0654C147.531 89.0595 147.444 89.022 147.377 88.9594C147.304 88.8876 147.252 88.7964 147.229 88.6965C147.195 88.5492 147.179 88.3982 147.182 88.2471C147.182 88.0604 147.209 87.8747 147.263 87.6959C147.313 87.5119 147.387 87.3352 147.483 87.1701C147.575 87.0062 147.686 86.8539 147.814 86.7164C147.93 86.5764 148.066 86.4536 148.217 86.3518Z" fill="#FAFAFA"/>
<path d="M151.003 84.7491C151.144 84.6568 151.305 84.6014 151.473 84.588C151.592 84.578 151.71 84.6046 151.813 84.6643C151.903 84.7263 151.974 84.8132 152.016 84.9145C152.062 85.0189 152.088 85.1311 152.092 85.2452C152.097 85.2925 152.087 85.34 152.063 85.3809C152.048 85.4193 152.021 85.4519 151.986 85.4742L151.707 85.6353C151.664 85.6607 151.63 85.6692 151.605 85.6353C151.578 85.6183 151.557 85.593 151.545 85.5632C151.507 85.4888 151.442 85.4314 151.363 85.4021C151.3 85.3928 151.235 85.3963 151.173 85.4123C151.112 85.4283 151.054 85.4566 151.003 85.4954C150.932 85.5386 150.865 85.5883 150.803 85.6438C150.742 85.7018 150.688 85.7673 150.642 85.8388C150.596 85.9069 150.558 85.9811 150.532 86.0593C150.506 86.1328 150.491 86.2101 150.49 86.2883C150.485 86.3596 150.498 86.4311 150.528 86.496C150.541 86.5188 150.559 86.538 150.581 86.5521C150.604 86.5661 150.629 86.5745 150.655 86.5766C150.734 86.5903 150.814 86.5903 150.892 86.5766L151.261 86.496C151.399 86.4576 151.542 86.4404 151.685 86.4451C151.788 86.4442 151.888 86.477 151.969 86.5384C152.047 86.6046 152.104 86.6913 152.135 86.7886C152.172 86.9267 152.189 87.0695 152.186 87.2126C152.185 87.402 152.158 87.5904 152.105 87.7723C152.053 87.9592 151.978 88.1388 151.88 88.3065C151.778 88.4801 151.656 88.6409 151.516 88.7856C151.373 88.9299 151.212 89.0553 151.037 89.1587C150.906 89.2379 150.762 89.2939 150.613 89.3241C150.492 89.3472 150.367 89.3369 150.252 89.2944C150.144 89.2467 150.055 89.1648 149.998 89.0612C149.928 88.9308 149.892 88.7851 149.892 88.6372C149.887 88.59 149.897 88.5424 149.922 88.5015C149.936 88.4632 149.963 88.4305 149.998 88.4083L150.278 88.2471C150.32 88.2217 150.358 88.2132 150.379 88.2259C150.394 88.2326 150.407 88.2426 150.417 88.2551C150.428 88.2676 150.435 88.2823 150.439 88.298C150.458 88.3408 150.481 88.3819 150.507 88.421C150.535 88.4582 150.573 88.4863 150.617 88.5015C150.673 88.5144 150.731 88.5144 150.786 88.5015C150.877 88.4803 150.962 88.4445 151.041 88.3955C151.121 88.3476 151.198 88.2937 151.27 88.2344C151.344 88.1763 151.41 88.1077 151.465 88.0309C151.52 87.9577 151.565 87.8779 151.601 87.7935C151.635 87.7085 151.652 87.6178 151.651 87.5263C151.655 87.4931 151.653 87.4594 151.643 87.4274C151.634 87.3953 151.618 87.3655 151.596 87.3398C151.573 87.3196 151.546 87.3046 151.517 87.2958C151.488 87.287 151.457 87.2846 151.427 87.2889C151.332 87.2947 151.238 87.3103 151.147 87.3355C151.037 87.361 150.905 87.3907 150.761 87.4161C150.646 87.4445 150.527 87.4531 150.409 87.4415C150.317 87.4367 150.23 87.3991 150.163 87.3355C150.091 87.2633 150.041 87.1722 150.019 87.0727C149.981 86.9274 149.964 86.7775 149.968 86.6275C149.97 86.4395 149.997 86.2526 150.049 86.072C150.101 85.8887 150.175 85.7122 150.269 85.5463C150.361 85.3813 150.474 85.2288 150.604 85.0926C150.718 84.9581 150.853 84.8422 151.003 84.7491Z" fill="#FAFAFA"/>
<path d="M154.093 85.279L153.75 87.31C153.739 87.3711 153.722 87.4308 153.699 87.4881C153.682 87.5338 153.651 87.5726 153.61 87.5983L153.287 87.7849C153.245 87.8103 153.215 87.8103 153.194 87.7849C153.166 87.75 153.149 87.7069 153.147 87.6619L152.639 84.0791C152.639 84.0791 152.639 84.0452 152.639 84.0325C152.64 83.9853 152.651 83.939 152.673 83.8968C152.689 83.8591 152.715 83.8267 152.749 83.8035L153.041 83.6339C153.066 83.624 153.093 83.624 153.118 83.6339C153.143 83.6339 153.16 83.6678 153.169 83.7357L153.504 86.1482L153.796 84.3377C153.804 84.2926 153.817 84.2485 153.834 84.2063C153.851 84.1527 153.887 84.1073 153.936 84.0791L154.263 83.8883C154.309 83.8629 154.343 83.8671 154.364 83.8883C154.383 83.9153 154.396 83.9455 154.403 83.9773L154.699 85.4486L155.034 82.6502C155.038 82.5952 155.054 82.5417 155.081 82.4933C155.101 82.4617 155.127 82.4343 155.157 82.4128L155.45 82.2432C155.461 82.2349 155.474 82.2305 155.488 82.2305C155.502 82.2305 155.515 82.2349 155.526 82.2432C155.538 82.2571 155.547 82.2732 155.553 82.2907C155.559 82.3082 155.561 82.3266 155.56 82.345C155.562 82.3619 155.562 82.3789 155.56 82.3958L155.051 86.5637C155.043 86.6247 155.027 86.6845 155.005 86.7418C154.985 86.7871 154.953 86.8255 154.911 86.8521L154.585 87.0386C154.547 87.0598 154.517 87.0598 154.496 87.0386C154.474 86.9997 154.457 86.9584 154.445 86.9157L154.093 85.279Z" fill="#FAFAFA"/>
<path d="M156.078 83.4814C156.087 83.2463 156.116 83.0124 156.163 82.7818C156.211 82.5565 156.285 82.3374 156.383 82.1289C156.477 81.9261 156.597 81.7365 156.74 81.5649C156.884 81.3948 157.058 81.2513 157.253 81.1409C157.402 81.0396 157.577 80.9823 157.757 80.9756C157.892 80.9771 158.021 81.0302 158.118 81.124C158.22 81.2394 158.294 81.3774 158.334 81.5268C158.388 81.7215 158.418 81.9224 158.423 82.1246C158.423 82.2009 158.423 82.2857 158.423 82.379C158.423 82.4723 158.423 82.5698 158.423 82.6716C158.423 82.7733 158.423 82.8709 158.423 82.9641C158.423 83.0574 158.423 83.1465 158.423 83.227C158.414 83.4607 158.385 83.6933 158.338 83.9224C158.289 84.147 158.217 84.3659 158.122 84.5753C158.025 84.7775 157.904 84.9669 157.761 85.1393C157.616 85.3078 157.444 85.4511 157.253 85.5633C157.1 85.6639 156.922 85.721 156.74 85.7286C156.673 85.73 156.608 85.7179 156.547 85.6931C156.485 85.6683 156.43 85.6314 156.383 85.5845C156.273 85.4657 156.197 85.3192 156.163 85.1605C156.112 84.965 156.084 84.7644 156.078 84.5626C156.078 84.4863 156.078 84.4015 156.078 84.3082C156.078 84.2149 156.078 84.1174 156.078 84.0157C156.078 83.9139 156.078 83.8206 156.078 83.7231C156.078 83.6256 156.074 83.5577 156.078 83.4814ZM157.884 82.4681C157.894 82.3643 157.882 82.2598 157.85 82.1607C157.818 82.0616 157.766 81.97 157.698 81.8914C157.587 81.7939 157.435 81.7981 157.253 81.8914C157.055 82.0078 156.898 82.1825 156.803 82.3918C156.683 82.6389 156.619 82.9098 156.617 83.1846C156.617 83.3415 156.617 83.5153 156.617 83.7061C156.617 83.8969 156.617 84.0665 156.617 84.2192C156.607 84.3229 156.619 84.4275 156.651 84.5266C156.683 84.6257 156.735 84.7173 156.803 84.7958C156.913 84.8891 157.066 84.8806 157.253 84.7746C157.447 84.6575 157.602 84.4847 157.698 84.2785C157.818 84.0329 157.882 83.7634 157.884 83.4899C157.884 83.3288 157.884 83.1549 157.884 82.9641C157.884 82.7733 157.889 82.6207 157.884 82.4681Z" fill="#FAFAFA"/>
<path d="M160.272 79.4492C160.607 79.2584 160.857 79.2288 161.031 79.3687C161.134 79.4822 161.211 79.6171 161.255 79.7637C161.3 79.9103 161.312 80.065 161.29 80.2167C161.293 80.5047 161.249 80.7912 161.158 81.0647C161.072 81.3194 160.938 81.5553 160.764 81.76L161.315 82.96C161.317 82.9797 161.317 82.9996 161.315 83.0193C161.315 83.0575 161.307 83.0953 161.29 83.1296C161.278 83.1603 161.257 83.1869 161.23 83.2059L160.891 83.4009C160.836 83.4306 160.798 83.4348 160.773 83.4009C160.75 83.3787 160.731 83.3529 160.717 83.3246L160.196 82.1925L159.666 82.4978V83.9309C159.666 83.9778 159.656 84.0242 159.636 84.0666C159.619 84.1034 159.593 84.1355 159.56 84.1599L159.238 84.3464C159.227 84.3554 159.213 84.3603 159.199 84.3603C159.186 84.3603 159.172 84.3554 159.161 84.3464C159.149 84.3334 159.14 84.3181 159.134 84.3013C159.128 84.2845 159.126 84.2666 159.127 84.2489V80.2845C159.129 80.2374 159.14 80.191 159.161 80.1488C159.176 80.1105 159.203 80.0778 159.238 80.0556L160.272 79.4492ZM159.674 81.7304L160.272 81.4081C160.418 81.3266 160.543 81.2118 160.637 81.0732C160.735 80.9098 160.782 80.7208 160.773 80.5304C160.773 80.3015 160.726 80.1743 160.637 80.1488C160.508 80.1313 160.377 80.1647 160.272 80.2421L159.696 80.5728L159.674 81.7304Z" fill="#FAFAFA"/>
<path d="M163.112 77.8169C163.266 77.7164 163.442 77.6553 163.625 77.6388C163.758 77.6339 163.887 77.6811 163.986 77.7702C164.098 77.8883 164.176 78.035 164.21 78.1942C164.267 78.4045 164.299 78.6209 164.304 78.8387C164.304 79.1355 164.304 79.4408 164.304 79.7503C164.295 80.0027 164.264 80.2539 164.21 80.5008C164.162 80.7302 164.088 80.9535 163.99 81.1664C163.895 81.3621 163.775 81.5445 163.634 81.7092C163.492 81.8777 163.323 82.0211 163.133 82.1332L162.128 82.6801C162.118 82.6891 162.104 82.694 162.09 82.694C162.076 82.694 162.063 82.6891 162.052 82.6801C162.04 82.6673 162.03 82.6519 162.024 82.6351C162.019 82.6183 162.016 82.6004 162.018 82.5826V78.6182C162.019 78.571 162.031 78.5247 162.052 78.4825C162.067 78.4442 162.094 78.4115 162.128 78.3893L163.112 77.8169ZM163.765 79.1355C163.763 79.0207 163.746 78.9066 163.714 78.7963C163.694 78.7128 163.652 78.6365 163.591 78.5758C163.565 78.5492 163.533 78.5283 163.498 78.5145C163.463 78.5006 163.425 78.4941 163.388 78.4953C163.282 78.5023 163.179 78.5375 163.091 78.597L162.557 78.9023V81.6668L163.112 81.3488C163.22 81.2862 163.316 81.2059 163.396 81.1113C163.475 81.0183 163.542 80.9158 163.595 80.8061C163.648 80.6892 163.688 80.5669 163.714 80.4414C163.744 80.3105 163.761 80.177 163.765 80.0429C163.778 79.7333 163.778 79.4323 163.765 79.1355Z" fill="#FAFAFA"/>
<path d="M104.89 16.2773C105.622 16.4401 106.327 16.7056 106.984 17.0659C107.614 17.4044 108.178 17.8523 108.651 18.3888C109.103 18.9048 109.438 19.5122 109.634 20.1696C109.834 20.8733 109.849 21.6167 109.677 22.3277C109.563 22.8914 109.34 23.4273 109.019 23.905C108.727 24.3135 108.379 24.6789 107.985 24.9905C107.598 25.2909 107.185 25.5562 106.751 25.7833L105.53 26.4321C105.162 26.6239 104.813 26.8496 104.487 27.1062C104.192 27.3325 103.966 27.6364 103.834 27.9839C103.769 28.1427 103.662 28.2806 103.524 28.3825C103.459 28.4331 103.383 28.4682 103.302 28.4851C103.222 28.502 103.138 28.5003 103.058 28.48L101.26 28.0814C101.174 28.0633 101.092 28.028 101.019 27.9778C100.946 27.9276 100.884 27.8633 100.836 27.7889C100.785 27.7196 100.752 27.6394 100.738 27.5547C100.724 27.47 100.73 27.3832 100.756 27.3013C100.9 26.7445 101.156 26.2225 101.506 25.7664C101.826 25.3629 102.196 25.0023 102.609 24.6937C103.01 24.3998 103.436 24.1402 103.881 23.9177C104.305 23.7015 104.729 23.4937 105.097 23.286C105.441 23.1015 105.763 22.8812 106.06 22.6288C106.32 22.4108 106.501 22.1125 106.573 21.7808C106.64 21.4927 106.637 21.1926 106.563 20.9061C106.489 20.6196 106.347 20.3552 106.149 20.1357C105.653 19.5943 104.99 19.2346 104.266 19.1138C102.927 18.817 101.796 19.2679 100.874 20.4664C100.785 20.5972 100.673 20.7107 100.544 20.8013C100.397 20.8739 100.228 20.8861 100.073 20.8353L98.1608 20.4113C98.0244 20.3849 97.904 20.3056 97.8258 20.1908C97.7841 20.1294 97.7561 20.0598 97.7436 19.9866C97.7312 19.9135 97.7347 19.8385 97.7538 19.7668C97.9163 19.1776 98.2189 18.6365 98.6357 18.1895C99.1058 17.6711 99.6642 17.2404 100.285 16.9175C100.964 16.5624 101.695 16.319 102.452 16.1967C103.262 16.0649 104.09 16.0923 104.89 16.2773ZM102.859 29.9216C103.027 29.9611 103.173 30.0648 103.266 30.2106C103.358 30.3564 103.39 30.5327 103.355 30.7017L102.897 32.7793C102.881 32.8663 102.848 32.9491 102.798 33.0221C102.748 33.0952 102.684 33.1569 102.609 33.2033C102.538 33.2523 102.457 33.2859 102.372 33.3019C102.288 33.318 102.201 33.3162 102.117 33.2966L100.065 32.826C99.9773 32.8113 99.8942 32.7779 99.8211 32.7281C99.7479 32.6784 99.6863 32.6134 99.6406 32.5377C99.593 32.466 99.5606 32.3855 99.5453 32.3009C99.53 32.2163 99.5321 32.1295 99.5515 32.0458L100.014 29.9682C100.053 29.7998 100.157 29.6534 100.302 29.56C100.448 29.4666 100.624 29.4336 100.794 29.4679L102.859 29.9216Z" fill="#E3851E"/>
<path d="M107.154 36.1671C107.664 36.0852 108.184 36.0752 108.697 36.1374C109.187 36.1957 109.664 36.3392 110.105 36.5614C110.525 36.7793 110.894 37.0825 111.19 37.4518C111.456 37.8132 111.643 38.2263 111.74 38.6645C111.836 39.1027 111.84 39.5562 111.75 39.9958C111.669 40.3338 111.539 40.6581 111.364 40.9583C111.195 41.2503 110.999 41.5257 110.779 41.7808C110.563 42.0352 110.355 42.2769 110.164 42.5101C109.977 42.7274 109.811 42.9616 109.668 43.2097C109.534 43.4272 109.466 43.6792 109.473 43.9348C109.469 44.0542 109.436 44.1708 109.375 44.274C109.345 44.3215 109.304 44.362 109.257 44.3927C109.209 44.4234 109.156 44.4436 109.1 44.452L107.828 44.6556C107.768 44.6663 107.707 44.6651 107.648 44.652C107.589 44.6389 107.534 44.6142 107.484 44.5792C107.434 44.5477 107.392 44.5048 107.362 44.4539C107.332 44.4031 107.314 44.3457 107.311 44.2867C107.257 43.8921 107.286 43.4908 107.395 43.108C107.495 42.769 107.638 42.4442 107.819 42.1412C107.998 41.8505 108.202 41.5766 108.43 41.3229C108.655 41.0685 108.854 40.8311 109.049 40.6021C109.223 40.3976 109.374 40.1744 109.498 39.9364C109.609 39.7316 109.649 39.4963 109.613 39.2665C109.581 39.0642 109.501 38.8726 109.379 38.708C109.257 38.5434 109.097 38.4106 108.913 38.321C108.457 38.1008 107.941 38.0382 107.446 38.1429C106.998 38.2085 106.581 38.4112 106.252 38.7231C105.923 39.0351 105.699 39.4412 105.61 39.8856C105.585 39.9924 105.542 40.0943 105.483 40.1866C105.407 40.2671 105.305 40.3169 105.195 40.3265L103.855 40.5428C103.761 40.5608 103.663 40.541 103.584 40.4876C103.543 40.4596 103.508 40.4231 103.483 40.3807C103.457 40.3383 103.441 40.2909 103.435 40.2417C103.395 39.821 103.461 39.3969 103.626 39.0079C103.794 38.5552 104.041 38.1359 104.355 37.7698C104.7 37.3689 105.107 37.0254 105.559 36.7522C106.048 36.4559 106.589 36.2572 107.154 36.1671ZM109.342 45.4315C109.4 45.4222 109.46 45.4246 109.517 45.4384C109.574 45.4522 109.629 45.4772 109.676 45.512C109.726 45.5449 109.769 45.5879 109.801 45.6384C109.833 45.6888 109.854 45.7454 109.863 45.8046L110.1 47.2589C110.119 47.3769 110.09 47.4974 110.02 47.5942C109.95 47.691 109.845 47.7564 109.727 47.7762L108.307 48.0094C108.189 48.0276 108.069 47.9987 107.972 47.9288C107.923 47.8956 107.881 47.8523 107.85 47.8019C107.818 47.7515 107.798 47.6951 107.79 47.6363L107.552 46.182C107.541 46.1236 107.543 46.0636 107.557 46.0059C107.571 45.9482 107.597 45.8941 107.633 45.847C107.666 45.7978 107.709 45.7562 107.76 45.7248C107.81 45.6934 107.867 45.6729 107.925 45.6647L109.342 45.4315Z" fill="#E3851E"/>
<g opacity="0.2">
<path d="M107.154 36.1671C107.664 36.0852 108.184 36.0752 108.697 36.1374C109.187 36.1957 109.664 36.3392 110.105 36.5614C110.525 36.7793 110.894 37.0825 111.19 37.4518C111.456 37.8132 111.643 38.2263 111.74 38.6645C111.836 39.1027 111.84 39.5562 111.75 39.9958C111.669 40.3338 111.539 40.6581 111.364 40.9583C111.195 41.2503 110.999 41.5257 110.779 41.7808C110.563 42.0352 110.355 42.2769 110.164 42.5101C109.977 42.7274 109.811 42.9616 109.668 43.2097C109.534 43.4272 109.466 43.6792 109.473 43.9348C109.469 44.0542 109.436 44.1708 109.375 44.274C109.345 44.3215 109.304 44.362 109.257 44.3927C109.209 44.4234 109.156 44.4436 109.1 44.452L107.828 44.6556C107.768 44.6663 107.707 44.6651 107.648 44.652C107.589 44.6389 107.534 44.6142 107.484 44.5792C107.434 44.5477 107.392 44.5048 107.362 44.4539C107.332 44.4031 107.314 44.3457 107.311 44.2867C107.257 43.8921 107.286 43.4908 107.395 43.108C107.495 42.769 107.638 42.4442 107.819 42.1412C107.998 41.8505 108.202 41.5766 108.43 41.3229C108.655 41.0685 108.854 40.8311 109.049 40.6021C109.223 40.3976 109.374 40.1744 109.498 39.9364C109.609 39.7316 109.649 39.4963 109.613 39.2665C109.581 39.0642 109.501 38.8726 109.379 38.708C109.257 38.5434 109.097 38.4106 108.913 38.321C108.457 38.1008 107.941 38.0382 107.446 38.1429C106.998 38.2085 106.581 38.4112 106.252 38.7231C105.923 39.0351 105.699 39.4412 105.61 39.8856C105.585 39.9924 105.542 40.0943 105.483 40.1866C105.407 40.2671 105.305 40.3169 105.195 40.3265L103.855 40.5428C103.761 40.5608 103.663 40.541 103.584 40.4876C103.543 40.4596 103.508 40.4231 103.483 40.3807C103.457 40.3383 103.441 40.2909 103.435 40.2417C103.395 39.821 103.461 39.3969 103.626 39.0079C103.794 38.5552 104.041 38.1359 104.355 37.7698C104.7 37.3689 105.107 37.0254 105.559 36.7522C106.048 36.4559 106.589 36.2572 107.154 36.1671ZM109.342 45.4315C109.4 45.4222 109.46 45.4246 109.517 45.4384C109.574 45.4522 109.629 45.4772 109.676 45.512C109.726 45.5449 109.769 45.5879 109.801 45.6384C109.833 45.6888 109.854 45.7454 109.863 45.8046L110.1 47.2589C110.119 47.3769 110.09 47.4974 110.02 47.5942C109.95 47.691 109.845 47.7564 109.727 47.7762L108.307 48.0094C108.189 48.0276 108.069 47.9987 107.972 47.9288C107.923 47.8956 107.881 47.8523 107.85 47.8019C107.818 47.7515 107.798 47.6951 107.79 47.6363L107.552 46.182C107.541 46.1236 107.543 46.0636 107.557 46.0059C107.571 45.9482 107.597 45.8941 107.633 45.847C107.666 45.7978 107.709 45.7562 107.76 45.7248C107.81 45.6934 107.867 45.6729 107.925 45.6647L109.342 45.4315Z" fill="black"/>
</g>
<path d="M119.145 38.4525C119.202 38.4926 119.251 38.5442 119.289 38.604C119.326 38.6638 119.35 38.7305 119.361 38.8001C119.374 38.8691 119.373 38.9401 119.358 39.0087C119.343 39.0773 119.313 39.142 119.272 39.1987L118.263 40.6191C118.223 40.6769 118.171 40.7259 118.111 40.7631C118.051 40.8003 117.985 40.8248 117.915 40.8353C117.846 40.8488 117.775 40.8479 117.706 40.8326C117.638 40.8172 117.573 40.7879 117.516 40.7463L116.126 39.7584C116.068 39.7187 116.019 39.6672 115.982 39.6073C115.946 39.5473 115.922 39.4803 115.914 39.4107C115.9 39.3417 115.901 39.2707 115.917 39.2021C115.932 39.1335 115.961 39.0688 116.003 39.0121L117.025 37.5917C117.107 37.4766 117.232 37.3987 117.372 37.3749C117.511 37.3511 117.655 37.3833 117.771 37.4645L119.145 38.4525ZM125.013 28.8319C125.52 29.1873 125.971 29.6159 126.353 30.1039C126.724 30.5578 127.012 31.0748 127.201 31.6303C127.377 32.1626 127.436 32.7266 127.374 33.2839C127.303 33.8782 127.078 34.4436 126.722 34.9248C126.457 35.3138 126.117 35.6455 125.721 35.9C125.373 36.1183 124.994 36.2841 124.597 36.3918C124.211 36.4928 123.816 36.5609 123.419 36.5953L122.291 36.6971C121.953 36.7241 121.618 36.7823 121.29 36.8709C120.988 36.9395 120.712 37.0924 120.493 37.3119C120.394 37.4122 120.269 37.4827 120.133 37.5154C120.067 37.5341 119.999 37.5369 119.932 37.5236C119.866 37.5103 119.804 37.4814 119.751 37.4391L118.521 36.5656C118.404 36.4817 118.323 36.3556 118.297 36.2137C118.281 36.145 118.281 36.0734 118.298 36.0049C118.315 35.9364 118.348 35.8729 118.394 35.8194C118.681 35.4467 119.04 35.1353 119.45 34.9036C119.819 34.7022 120.212 34.5497 120.62 34.4499C121.014 34.3543 121.416 34.2933 121.82 34.2676C122.219 34.2421 122.592 34.2125 122.939 34.1785C123.258 34.1504 123.572 34.0879 123.876 33.992C124.143 33.9032 124.373 33.7288 124.529 33.4959C124.671 33.2992 124.763 33.0712 124.798 32.8313C124.833 32.5914 124.809 32.3467 124.729 32.1179C124.528 31.5528 124.145 31.0708 123.639 30.7484C122.723 30.0954 121.724 30.0742 120.641 30.6848C120.532 30.7541 120.412 30.803 120.285 30.8289C120.219 30.8335 120.153 30.825 120.091 30.8039C120.028 30.7828 119.97 30.7495 119.921 30.706L118.615 29.7774C118.567 29.746 118.527 29.7054 118.496 29.6581C118.464 29.6108 118.443 29.5576 118.432 29.5018C118.422 29.4441 118.424 29.3849 118.438 29.328C118.452 29.2711 118.477 29.2177 118.513 29.1711C118.821 28.7763 119.221 28.4633 119.679 28.2595C120.199 28.024 120.755 27.8806 121.324 27.8355C121.95 27.7832 122.58 27.8333 123.19 27.9839C123.848 28.1425 124.468 28.4308 125.013 28.8319Z" fill="#E3851E"/>
<g opacity="0.6">
<path d="M119.145 38.4525C119.202 38.4926 119.251 38.5442 119.289 38.604C119.326 38.6638 119.35 38.7305 119.361 38.8001C119.374 38.8691 119.373 38.9401 119.358 39.0087C119.343 39.0773 119.313 39.142 119.272 39.1987L118.263 40.6191C118.223 40.6769 118.171 40.7259 118.111 40.7631C118.051 40.8003 117.985 40.8248 117.915 40.8353C117.846 40.8488 117.775 40.8479 117.706 40.8326C117.638 40.8172 117.573 40.7879 117.516 40.7463L116.126 39.7584C116.068 39.7187 116.019 39.6672 115.982 39.6073C115.946 39.5473 115.922 39.4803 115.914 39.4107C115.9 39.3417 115.901 39.2707 115.917 39.2021C115.932 39.1335 115.961 39.0688 116.003 39.0121L117.025 37.5917C117.107 37.4766 117.232 37.3987 117.372 37.3749C117.511 37.3511 117.655 37.3833 117.771 37.4645L119.145 38.4525ZM125.013 28.8319C125.52 29.1873 125.971 29.6159 126.353 30.1039C126.724 30.5578 127.012 31.0748 127.201 31.6303C127.377 32.1626 127.436 32.7266 127.374 33.2839C127.303 33.8782 127.078 34.4436 126.722 34.9248C126.457 35.3138 126.117 35.6455 125.721 35.9C125.373 36.1183 124.994 36.2841 124.597 36.3918C124.211 36.4928 123.816 36.5609 123.419 36.5953L122.291 36.6971C121.953 36.7241 121.618 36.7823 121.29 36.8709C120.988 36.9395 120.712 37.0924 120.493 37.3119C120.394 37.4122 120.269 37.4827 120.133 37.5154C120.067 37.5341 119.999 37.5369 119.932 37.5236C119.866 37.5103 119.804 37.4814 119.751 37.4391L118.521 36.5656C118.404 36.4817 118.323 36.3556 118.297 36.2137C118.281 36.145 118.281 36.0734 118.298 36.0049C118.315 35.9364 118.348 35.8729 118.394 35.8194C118.681 35.4467 119.04 35.1353 119.45 34.9036C119.819 34.7022 120.212 34.5497 120.62 34.4499C121.014 34.3543 121.416 34.2933 121.82 34.2676C122.219 34.2421 122.592 34.2125 122.939 34.1785C123.258 34.1504 123.572 34.0879 123.876 33.992C124.143 33.9032 124.373 33.7288 124.529 33.4959C124.671 33.2992 124.763 33.0712 124.798 32.8313C124.833 32.5914 124.809 32.3467 124.729 32.1179C124.528 31.5528 124.145 31.0708 123.639 30.7484C122.723 30.0954 121.724 30.0742 120.641 30.6848C120.532 30.7541 120.412 30.803 120.285 30.8289C120.219 30.8335 120.153 30.825 120.091 30.8039C120.028 30.7828 119.97 30.7495 119.921 30.706L118.615 29.7774C118.567 29.746 118.527 29.7054 118.496 29.6581C118.464 29.6108 118.443 29.5576 118.432 29.5018C118.422 29.4441 118.424 29.3849 118.438 29.328C118.452 29.2711 118.477 29.2177 118.513 29.1711C118.821 28.7763 119.221 28.4633 119.679 28.2595C120.199 28.024 120.755 27.8806 121.324 27.8355C121.95 27.7832 122.58 27.8333 123.19 27.9839C123.848 28.1425 124.468 28.4308 125.013 28.8319Z" fill="white"/>
</g>
<path d="M87.5686 75.9849H72.5039V39.487C72.5039 36.317 73.7632 33.2768 76.0047 31.0352C78.2463 28.7937 81.2865 27.5344 84.4565 27.5344H85.8472C89.0172 27.5344 92.0574 28.7937 94.2989 31.0352C96.5405 33.2768 97.7997 36.317 97.7997 39.487V65.775C97.7941 68.4848 96.7137 71.0816 94.7956 72.9958C92.8775 74.9099 90.2784 75.9849 87.5686 75.9849Z" fill="#263238"/>
<path d="M71.0375 163.851C70.771 165.363 70.6292 166.894 70.6135 168.43C70.5584 171.211 70.0496 172.199 69.9817 174.48C69.9012 177.088 70.3549 178.063 71.4106 179.53C72.4664 180.997 75.2266 182.324 76.4223 179.848C77.618 177.372 77.4441 175.748 77.0668 173.191C76.6809 170.546 76.6428 169.083 76.4053 167.069C76.2103 165.292 75.9813 163.94 75.9813 163.94L71.0375 163.851Z" fill="#263238"/>
<path d="M78.9318 145.377L69.7734 145.211C69.9091 151.326 70.8801 158.114 71.0454 163.867C71.0794 164.949 71.02 172.258 71.427 174.467C72.0418 177.809 76.002 177.355 76.214 175.358C76.426 173.361 75.9596 164.826 75.9723 163.944C75.9342 160.263 77.6683 154.052 78.563 147.446C78.6011 147.128 78.8894 145.695 78.9318 145.377Z" fill="#FFA8A7"/>
<path d="M90.6976 159.093C90.6976 159.093 90.3372 158.898 90.2736 159.284C90.1846 159.742 90.0489 160.687 89.8496 161.442C89.5867 162.489 89.3663 164.215 89.5231 165.072C89.68 165.928 91.6728 167.022 92.966 167.421C94.5598 167.912 96.0134 168.777 97.206 169.943C98.478 171.148 101.247 172.284 103.142 172.271C105.368 172.271 106.92 171.529 107.653 170.338C108.387 169.146 106.983 169.002 104.439 167.37L102.468 166.098C98.4356 163.465 96.9559 162.057 95.8238 159.424L90.6976 159.093Z" fill="#263238"/>
<path d="M95.8585 157.461C95.7907 155.57 97.0966 139.496 97.0966 139.496L88.4004 143.46C90.2618 154.578 90.6603 157.202 90.69 159.021C90.6518 159.173 90.6361 159.331 90.6433 159.487C90.6433 161.646 93.0898 162.812 94.9893 164.253C96.6041 165.518 98.3249 166.642 100.132 167.611C101.515 168.302 104.322 168.366 104.669 167.48C102.354 165.712 98.9877 163.066 97.1475 161.048C96.2486 160.098 95.9264 159.356 95.8585 157.461Z" fill="#FFA8A7"/>
<path d="M73.5258 85.7158C70.1847 93.0468 70.1846 98.7199 70.7401 108.078C71.2319 116.664 72.0502 124.232 72.0502 124.232C71.923 125.754 69.8073 128.726 69.5317 135.459C69.2773 141.752 69.9557 149.753 69.9557 149.753C69.9557 149.753 74.7087 152.386 78.2237 149.727C78.2237 149.727 81.6157 133.535 82.6078 125.657C83.4558 118.784 84.9822 110.003 84.9822 110.003L88.1919 125.61C87.4992 127.824 86.997 130.094 86.691 132.394C86.2415 137.028 88.8364 146.127 88.8364 146.127C88.8364 146.127 93.7463 147.59 96.744 144.932C96.744 144.932 97.8634 130.138 98.2831 124.558C98.8428 117.083 97.6641 96.8501 96.744 86.1356L73.5258 85.7158Z" fill="#455A64"/>
<path d="M84.9902 109.99L86.3089 98.2281C86.3089 98.2281 92.2194 97.4395 94.8991 94.9209C94.1322 96.1208 93.1104 97.1372 91.9065 97.8979C90.7025 98.6585 89.3458 99.1447 87.9328 99.322L86.0248 110.265L88.1914 125.61L84.9902 109.99Z" fill="#263238"/>
<path d="M108.925 82.824C109.169 80.6776 109.277 78.518 109.248 76.358C109.116 74.4924 108.781 74.1871 106.174 70.8841C102.654 66.4194 99.6482 62.4041 96.4682 58.4143C94.1955 55.565 91.8042 55.1283 89.4807 55.2555C87.8525 55.3445 91.0325 63.1758 92.631 67.8101L101.76 77.6385C102.043 78.0263 102.172 78.5049 102.124 78.9825L101.573 87.3438L104.308 91.0072C104.308 91.0072 108.45 87.4371 108.925 82.824Z" fill="#FFA8A7"/>
<path d="M80.6781 55.51C78.9101 55.633 75.6961 55.934 75.6961 55.934C73.8433 56.9686 73.3726 57.8208 73.0292 60.28C72.8808 61.3316 73.7373 64.1257 74.4708 68.0986L75.8615 75.4635L75.7089 79.1184C74.9881 81.3486 73.3557 84.1173 71.9141 88.2004C78.9949 92.1521 84.9309 92.3005 90.3157 91.5924C94.42 91.0624 96.5951 90.0703 97.3201 89.0866C97.1675 85.0544 96.8961 82.5612 96.8113 78.3467C96.7817 76.5786 96.8877 74.7893 96.9597 72.7541C99.7115 70.49 99.7454 66.7248 98.2317 64.2741C94.7422 58.6222 91.346 55.0648 89.0988 55.2472L80.6781 55.51Z" fill="#E3851E"/>
<path opacity="0.6" d="M80.6781 55.51C78.9101 55.633 75.6961 55.934 75.6961 55.934C73.8433 56.9686 73.3726 57.8208 73.0292 60.28C72.8808 61.3316 73.7373 64.1257 74.4708 68.0986L75.8615 75.4635L75.7089 79.1184C74.9881 81.3486 73.3557 84.1173 71.9141 88.2004C78.9949 92.1521 84.9309 92.3005 90.3157 91.5924C94.42 91.0624 96.5951 90.0703 97.3201 89.0866C97.1675 85.0544 96.8961 82.5612 96.8113 78.3467C96.7817 76.5786 96.8877 74.7893 96.9597 72.7541C99.7115 70.49 99.7454 66.7248 98.2317 64.2741C94.7422 58.6222 91.346 55.0648 89.0988 55.2472L80.6781 55.51Z" fill="white"/>
<path opacity="0.1" d="M91.4786 72.8092C91.4786 72.8092 88.2477 75.3193 84.5547 74.0091C83.5176 73.6824 82.5825 73.0935 81.8397 72.2994C81.0969 71.5054 80.5716 70.5331 80.3147 69.4766C80.3147 69.4766 79.9246 73.6954 84.5759 75.1327C89.083 76.5192 91.4786 72.8092 91.4786 72.8092Z" fill="black"/>
<path d="M95.863 43.9306C95.723 50.0531 93.743 51.5626 92.7423 51.9866C91.7417 52.4106 89.8252 52.1562 87.9596 51.8466V55.5439C87.9596 55.5439 90.1135 57.7996 89.9524 59.4829C89.7913 61.1662 86.5604 61.357 84.1521 59.7076C82.8232 58.7948 81.6213 57.7098 80.5778 56.481C80.3774 56.2439 80.2677 55.9434 80.2682 55.633V46.9834C80.2682 46.9834 79.2464 48.0646 77.4402 46.8265C77.0504 46.5778 76.7167 46.2507 76.4602 45.866C76.2037 45.4813 76.0301 45.0475 75.9504 44.5921C75.8706 44.1367 75.8865 43.6697 75.997 43.2207C76.1075 42.7718 76.3101 42.3508 76.5922 41.9844C77.3808 41.0558 79.3821 40.9922 80.3403 42.4084C80.883 43.4642 80.9551 44.5284 81.5614 44.1044C83.1726 42.9426 82.3077 40.2884 84.2538 39.0164C84.8925 38.6831 85.5559 38.3996 86.2382 38.1684C89.7107 36.9685 92.7211 35.9594 93.4462 33.585C94.8114 34.3651 96.0326 36.7098 95.863 43.9306Z" fill="#FFA8A7"/>
<path d="M89.0146 49.4003C89.4595 49.4003 89.8202 49.0396 89.8202 48.5947C89.8202 48.1497 89.4595 47.7891 89.0146 47.7891C88.5697 47.7891 88.209 48.1497 88.209 48.5947C88.209 49.0396 88.5697 49.4003 89.0146 49.4003Z" fill="#B16668"/>
<path d="M88.4812 43.0019C88.4809 43.1678 88.4321 43.3299 88.3407 43.4683C88.2492 43.6067 88.1192 43.7152 87.9667 43.7805C87.8142 43.8457 87.6459 43.8648 87.4827 43.8354C87.3195 43.8059 87.1684 43.7293 87.0483 43.6149C86.9282 43.5005 86.8443 43.3534 86.8069 43.1918C86.7696 43.0302 86.7804 42.8612 86.8382 42.7057C86.8959 42.5502 86.998 42.415 87.1317 42.317C87.2655 42.2189 87.4251 42.1622 87.5908 42.1539C87.7056 42.1481 87.8205 42.1658 87.9283 42.2059C88.0361 42.2459 88.1347 42.3074 88.218 42.3868C88.3013 42.4661 88.3676 42.5615 88.4128 42.6673C88.458 42.773 88.4813 42.8869 88.4812 43.0019Z" fill="#263238"/>
<path d="M94.9046 43.0868C94.9133 43.1906 94.9013 43.295 94.8692 43.394C94.8371 43.4931 94.7856 43.5847 94.7177 43.6636C94.6498 43.7426 94.5669 43.8072 94.4738 43.8538C94.3807 43.9003 94.2792 43.9279 94.1754 43.9348C94.0706 43.9445 93.9649 43.9318 93.8654 43.8975C93.7659 43.8632 93.6748 43.8081 93.5982 43.736C93.5216 43.6638 93.4613 43.5761 93.4212 43.4788C93.381 43.3815 93.3621 43.2768 93.3655 43.1716C93.3546 43.0671 93.3651 42.9615 93.3964 42.8612C93.4278 42.7609 93.4792 42.668 93.5477 42.5883C93.6162 42.5087 93.7002 42.4438 93.7947 42.3977C93.8891 42.3516 93.9919 42.3253 94.0969 42.3204C94.2019 42.3155 94.3067 42.3321 94.4051 42.3691C94.5034 42.4062 94.5931 42.4629 94.6687 42.5359C94.7444 42.6088 94.8043 42.6964 94.8449 42.7933C94.8854 42.8903 94.9058 42.9945 94.9046 43.0995V43.0868Z" fill="#263238"/>
<path d="M87.3911 45.1813C86.6598 45.1813 85.9583 44.8911 85.4408 44.3744C84.9233 43.8577 84.632 43.1567 84.6309 42.4253C84.6309 40.5513 86.5643 40.5513 87.3911 40.5513C88.2179 40.5513 90.1471 40.5513 90.1471 42.4253C90.146 43.1559 89.8553 43.8563 89.3386 44.3729C88.822 44.8895 88.1217 45.1802 87.3911 45.1813ZM87.3911 40.9838C85.6951 40.9838 85.0676 41.4077 85.0676 42.4253C85.0676 43.0438 85.3133 43.637 85.7506 44.0743C86.1879 44.5117 86.7811 44.7573 87.3996 44.7573C88.0181 44.7573 88.6112 44.5117 89.0486 44.0743C89.4859 43.637 89.7316 43.0438 89.7316 42.4253C89.7146 41.3865 89.0617 40.9838 87.3911 40.9838Z" fill="#455A64"/>
<path d="M94.3911 45.1813C93.6598 45.1813 92.9583 44.8911 92.4408 44.3744C91.9233 43.8577 91.632 43.1567 91.6309 42.4253C91.6309 40.5513 93.5643 40.5513 94.3911 40.5513C95.2179 40.5513 97.1471 40.5513 97.1471 42.4253C97.146 43.1559 96.8553 43.8563 96.3386 44.3729C95.822 44.8895 95.1217 45.1802 94.3911 45.1813ZM94.3911 40.9838C92.7205 40.9838 92.0676 41.4077 92.0676 42.4253C92.0676 43.0438 92.3133 43.637 92.7506 44.0743C93.1879 44.5117 93.7811 44.7573 94.3996 44.7573C95.0181 44.7573 95.6112 44.5117 96.0486 44.0743C96.4859 43.637 96.7316 43.0438 96.7316 42.4253C96.7146 41.3865 96.0617 40.9838 94.3911 40.9838Z" fill="#455A64"/>
<path d="M90.5762 41.5349L90.7119 46.6865L93.4212 45.847L90.5762 41.5349Z" fill="#F28F8F"/>
<path d="M87.955 51.8593C85.9876 51.6007 81.9384 50.4389 81.3066 48.8362C81.5609 49.6462 82.0565 50.3592 82.727 50.8799C83.9354 51.9187 87.955 53.0847 87.955 53.0847V51.8593Z" fill="#F28F8F"/>
<path d="M88.0521 39.0333L86.2543 40.1314C86.1127 39.8846 86.0715 39.5927 86.1394 39.3164C86.2073 39.04 86.3791 38.8005 86.619 38.6474C86.7376 38.5755 86.8695 38.5283 87.0069 38.5088C87.1442 38.4892 87.2841 38.4977 87.4181 38.5338C87.552 38.5699 87.6773 38.6327 87.7863 38.7186C87.8952 38.8044 87.9857 38.9115 88.0521 39.0333Z" fill="#263238"/>
<path d="M95.3665 40.2545L93.3652 39.5549C93.404 39.4223 93.4694 39.299 93.5576 39.1926C93.6457 39.0862 93.7547 38.9989 93.8778 38.9362C94.0009 38.8734 94.1355 38.8365 94.2734 38.8277C94.4113 38.8189 94.5496 38.8384 94.6796 38.885C94.948 38.9815 95.1691 39.1775 95.2969 39.4324C95.4248 39.6874 95.4497 39.9817 95.3665 40.2545Z" fill="#263238"/>
<path d="M89.9311 42.6458C89.9024 42.6458 89.8739 42.6401 89.8474 42.629C89.8209 42.6179 89.7968 42.6015 89.7767 42.581C89.7566 42.5605 89.7407 42.5361 89.7301 42.5094C89.7195 42.4827 89.7143 42.4541 89.7149 42.4254C89.7149 42.0734 90.4102 41.8445 91.0378 41.8445C91.6653 41.8445 92.0681 42.0734 92.0681 42.4254C92.0549 42.4714 92.0271 42.512 91.9889 42.5408C91.9506 42.5697 91.904 42.5853 91.8561 42.5853C91.8082 42.5853 91.7616 42.5697 91.7233 42.5408C91.6851 42.512 91.6572 42.4714 91.6441 42.4254C91.6441 42.383 91.4278 42.277 91.0505 42.277C90.7467 42.2705 90.4444 42.3223 90.1601 42.4296C90.1601 42.4591 90.1542 42.4883 90.1425 42.5154C90.1308 42.5425 90.1138 42.5669 90.0923 42.5872C90.0709 42.6074 90.0455 42.6231 90.0178 42.6332C89.9901 42.6433 89.9606 42.6476 89.9311 42.6458Z" fill="#455A64"/>
<path d="M84.856 42.4593H84.8306L79.9843 42.0353C79.7578 41.8109 79.4881 41.6349 79.1914 41.5181L84.8815 42.0438C84.9385 42.0513 84.9904 42.0807 85.0261 42.1258C85.0617 42.171 85.0783 42.2283 85.0723 42.2855C85.0623 42.3352 85.0352 42.3799 84.9957 42.4117C84.9562 42.4435 84.9068 42.4603 84.856 42.4593Z" fill="#455A64"/>
<path d="M64.9572 47.5134C66.5429 45.3934 67.6241 43.7949 69.07 42.0014C69.8925 40.971 70.4183 40.2333 71.19 39.1775C71.7327 38.4482 72.038 37.8334 72.657 37.6087C73.3258 37.3347 73.9286 36.9213 74.4251 36.3961C74.7303 36.0584 75.0136 35.7015 75.2731 35.3276C76.1819 34.1044 77.2613 33.0178 78.4785 32.101C79.7505 31.1427 81.1709 30.405 82.4811 29.4934C83.2613 28.9464 84.0965 28.039 83.1468 27.191C82.8555 26.9457 82.5069 26.778 82.1334 26.7034C79.8226 26.2031 77.8129 26.996 75.5529 27.5726C74.5713 27.8177 73.6113 28.1424 72.6825 28.5436C72.2256 28.7243 71.7972 28.9699 71.4105 29.2729C70.8698 29.818 70.4266 30.4519 70.1003 31.147C69.1124 32.9108 66.9924 34.4881 65.5084 35.883C63.7742 37.5154 62.2224 39.0122 60.2423 40.8099C58.4615 42.4338 56.7189 43.9263 55.0865 45.6986C53.7339 47.1614 54.2385 48.3062 54.4165 48.7048C55.5189 50.969 56.7528 51.783 58.2325 53.1865C60.7765 55.616 69.5745 62.6078 72.4874 64.9186C73.1133 65.4101 73.6048 66.0519 73.9163 66.7842L74.476 68.0774C77.8001 68.6879 80.0177 63.6974 77.2659 57.6894C76.8102 56.7178 76.1141 55.8787 75.2434 55.2514C71.7666 52.7201 64.9572 47.5134 64.9572 47.5134Z" fill="#FFA8A7"/>
<path d="M64.9565 47.5134C63.8984 48.815 62.4884 49.7849 60.8945 50.3076C60.8945 50.3076 63.0145 50.8503 65.9189 48.2427L64.9565 47.5134Z" fill="#F28F8F"/>
<path d="M108.061 78.4017L107.519 77.9353C107.437 77.8819 107.345 77.8483 107.248 77.8373C107.152 77.8262 107.054 77.838 106.963 77.8717L101.074 79.4745C100.777 79.5734 100.505 79.7352 100.277 79.9489C100.049 80.1626 99.8692 80.4231 99.7509 80.7125L95.5109 92.9365C95.4598 93.0361 95.4398 93.1487 95.4534 93.2598C95.467 93.3709 95.5136 93.4754 95.5872 93.5597L96.1469 94.0431C96.2283 94.0993 96.3222 94.1348 96.4204 94.1466C96.5187 94.1584 96.6183 94.1462 96.7108 94.1109L102.609 92.5082C102.905 92.4093 103.177 92.2475 103.405 92.0338C103.634 91.8201 103.813 91.5596 103.931 91.2701C104.779 88.8661 107.323 81.4503 108.171 79.0462C108.273 78.7452 108.222 78.5162 108.061 78.4017Z" fill="#455A64"/>
<path d="M96.0659 93.4071L100.306 81.1832C100.424 80.8939 100.603 80.6337 100.832 80.4207C101.06 80.2076 101.332 80.0468 101.629 79.9493L107.514 78.3466C108.061 78.1982 108.362 78.512 108.167 79.0462C107.319 81.4503 104.775 88.8661 103.927 91.2701C103.809 91.5596 103.629 91.8201 103.401 92.0338C103.172 92.2475 102.901 92.4093 102.604 92.5082L96.7189 94.1279C96.1762 94.2551 95.8836 93.9413 96.0659 93.4071Z" fill="#E3851E"/>
<path d="M100.989 80.2886C100.683 80.5204 100.445 80.8311 100.302 81.1874L96.0619 93.4071C96.0133 93.5042 95.9931 93.6129 96.0036 93.721C96.0141 93.829 96.0549 93.9318 96.1212 94.0177L95.5955 93.5682C95.5202 93.4849 95.4721 93.3806 95.4577 93.2692C95.4433 93.1578 95.4632 93.0447 95.5149 92.945L99.7549 80.721C99.889 80.3887 100.107 80.0966 100.387 79.873L100.989 80.2886Z" fill="#37474F"/>
<path d="M106.445 83.9731C106.021 85.2154 104.549 86.0465 102.116 86.6231C99.6819 87.1997 98.3378 89.7819 98.7237 90.5663C99.1095 91.3507 103.044 92.0842 104.617 91.8595C106.19 91.6348 107.768 89.3621 108.247 88.6583C108.726 87.9545 109.277 83.0445 108.772 82.3704C108.268 81.6962 107.204 81.8022 107.204 81.8022L106.445 83.9731Z" fill="#F28F8F"/>
</svg>
