<svg width="14" height="14" viewBox="0 0 14 14" fill="none" xmlns="http://www.w3.org/2000/svg">
<path d="M0.214355 0.851964C0.214355 0.7057 0.272458 0.565427 0.375882 0.462003C0.479306 0.358579 0.619579 0.300476 0.765843 0.300476C0.912107 0.300476 1.05238 0.358579 1.1558 0.462003C1.25923 0.565427 1.31733 0.7057 1.31733 0.851964V12.4332H12.8986C13.0448 12.4332 13.1851 12.4913 13.2885 12.5947C13.392 12.6982 13.4501 12.8384 13.4501 12.9847C13.4501 13.131 13.392 13.2712 13.2885 13.3747C13.1851 13.4781 13.0448 13.5362 12.8986 13.5362H0.765843C0.619579 13.5362 0.479306 13.4781 0.375882 13.3747C0.272458 13.2712 0.214355 13.131 0.214355 12.9847V0.851964ZM12.3471 3.05791C12.3471 2.9555 12.3186 2.8551 12.2647 2.76798C12.2109 2.68086 12.1338 2.61045 12.0422 2.56465C11.9506 2.51885 11.8481 2.49946 11.7461 2.50865C11.6441 2.51785 11.5466 2.55527 11.4647 2.61672L7.34693 5.70506L4.53802 4.05353C4.45885 4.00692 4.36929 3.98082 4.27748 3.97761C4.18566 3.9744 4.0945 3.99418 4.01227 4.03515L2.05265 5.01459V11.6979H12.3471V3.05791Z" fill="#E3851E"/>
</svg>
