<svg width="21" height="21" viewBox="0 0 21 21" fill="none" xmlns="http://www.w3.org/2000/svg">
<path d="M20.25 14.8768C20.2496 16.0734 19.8406 17.234 19.0906 18.1664C18.3407 19.0989 17.2948 19.7473 16.1261 20.0042L15.5679 18.3295C16.0791 18.2453 16.5652 18.0487 16.9913 17.754C17.4174 17.4593 17.7728 17.0737 18.0319 16.625H15.875C15.4109 16.625 14.9658 16.4406 14.6376 16.1124C14.3094 15.7842 14.125 15.3391 14.125 14.875V11.375C14.125 10.9109 14.3094 10.4658 14.6376 10.1376C14.9658 9.80937 15.4109 9.625 15.875 9.625H18.4457C18.2322 7.93353 17.4088 6.37811 16.13 5.25059C14.8512 4.12307 13.2049 3.50094 11.5 3.50094C9.79511 3.50094 8.14881 4.12307 6.87 5.25059C5.59119 6.37811 4.76778 7.93353 4.55425 9.625H7.125C7.58913 9.625 8.03425 9.80937 8.36244 10.1376C8.69063 10.4658 8.875 10.9109 8.875 11.375V14.875C8.875 15.3391 8.69063 15.7842 8.36244 16.1124C8.03425 16.4406 7.58913 16.625 7.125 16.625H4.5C4.03587 16.625 3.59075 16.4406 3.26256 16.1124C2.93437 15.7842 2.75 15.3391 2.75 14.875V10.5C2.75 5.66738 6.66738 1.75 11.5 1.75C16.3326 1.75 20.25 5.66738 20.25 10.5V14.8768Z" fill="#122C3E"/>
</svg>
