<svg width="40" height="40" viewBox="0 0 40 40" fill="none" xmlns="http://www.w3.org/2000/svg">
<path opacity="0.4" d="M4.58303 31.0833C3.8997 31.0833 3.33303 30.5166 3.33303 29.8333V20.3333C3.2497 15.8166 4.93303 11.55 8.06636 8.34996C11.1997 5.16663 15.3997 3.41663 19.9164 3.41663C29.1497 3.41663 36.6664 10.9333 36.6664 20.1666V29.6666C36.6664 30.35 36.0997 30.9166 35.4164 30.9166C34.733 30.9166 34.1664 30.35 34.1664 29.6666V20.1666C34.1664 12.3166 27.783 5.91663 19.9164 5.91663C16.0664 5.91663 12.4997 7.39996 9.8497 10.1C7.18303 12.8166 5.76636 16.4333 5.83303 20.3V29.8166C5.83303 30.5166 5.28303 31.0833 4.58303 31.0833Z" fill="black"/>
<path d="M9.89967 20.75H9.68301C6.18301 20.75 3.33301 23.6 3.33301 27.1V30.2333C3.33301 33.7333 6.18301 36.5833 9.68301 36.5833H9.89967C13.3997 36.5833 16.2497 33.7333 16.2497 30.2333V27.1C16.2497 23.6 13.3997 20.75 9.89967 20.75Z" fill="black"/>
<path d="M30.3167 20.75H30.1C26.6 20.75 23.75 23.6 23.75 27.1V30.2333C23.75 33.7333 26.6 36.5833 30.1 36.5833H30.3167C33.8167 36.5833 36.6667 33.7333 36.6667 30.2333V27.1C36.6667 23.6 33.8167 20.75 30.3167 20.75Z" fill="black"/>
</svg>
