<svg width="18" height="18" viewBox="0 0 18 18" fill="none" xmlns="http://www.w3.org/2000/svg">
<path fill-rule="evenodd" clip-rule="evenodd" d="M11.8873 1.87555C12.3605 1.87555 12.833 1.9423 13.2823 2.09305C16.0505 2.99305 17.048 6.03055 16.2148 8.68555C15.7423 10.0423 14.9698 11.2805 13.958 12.2923C12.5098 13.6948 10.9205 14.9398 9.20977 16.0123L9.02227 16.1255L8.82727 16.0048C7.11052 14.9398 5.51227 13.6948 4.05052 12.2848C3.04552 11.273 2.27227 10.0423 1.79227 8.68555C0.944768 6.03055 1.94227 2.99305 4.74052 2.0773C4.95802 2.0023 5.18227 1.9498 5.40727 1.92055H5.49727C5.70802 1.8898 5.91727 1.87555 6.12727 1.87555H6.20977C6.68227 1.8898 7.13977 1.9723 7.58302 2.12305H7.62727C7.65727 2.1373 7.67977 2.15305 7.69477 2.1673C7.86052 2.22055 8.01727 2.28055 8.16727 2.36305L8.45227 2.49055C8.52114 2.52728 8.59843 2.5834 8.66524 2.6319C8.70757 2.66263 8.74568 2.6903 8.77477 2.70805C8.78701 2.71527 8.79945 2.72253 8.81199 2.72985C8.8763 2.76739 8.94328 2.80649 8.99977 2.8498C9.83302 2.21305 10.8448 1.86805 11.8873 1.87555ZM13.8823 7.27555C14.1898 7.2673 14.4523 7.02055 14.4748 6.7048V6.61555C14.4973 5.5648 13.8605 4.61305 12.8923 4.24555C12.5848 4.1398 12.2473 4.30555 12.1348 4.62055C12.0298 4.93555 12.1948 5.28055 12.5098 5.3923C12.9905 5.5723 13.3123 6.04555 13.3123 6.5698V6.59305C13.298 6.7648 13.3498 6.93055 13.4548 7.05805C13.5598 7.18555 13.7173 7.2598 13.8823 7.27555Z" fill="#212121"/>
</svg>
