<svg width="20" height="20" viewBox="0 0 20 20" fill="none" xmlns="http://www.w3.org/2000/svg">
<path d="M14.7577 2.28337L14.523 2.99574L14.5296 2.99785L14.7577 2.28337ZM13.2077 2.04609L13.2024 2.79609H13.2077V2.04609ZM18.016 9.47551L18.7229 9.72623L18.7268 9.71511L18.7304 9.70386L18.016 9.47551ZM15.5085 13.4103L16.0254 13.9539L16.034 13.9455L15.5085 13.4103ZM10.2327 17.4687L10.6153 18.1139L10.6258 18.1074L10.2327 17.4687ZM10.0244 17.5922L9.63473 18.2331L10.0196 18.4671L10.4069 18.2373L10.0244 17.5922ZM9.8077 17.4605L9.41754 18.101L9.41806 18.1014L9.8077 17.4605ZM4.5002 13.4021L3.97295 13.9355L3.97865 13.9412L3.98446 13.9467L4.5002 13.4021ZM1.99103 9.47551L1.27778 9.7074L1.28143 9.71864L1.28544 9.72976L1.99103 9.47551ZM5.26686 2.26619L5.49633 2.98032L5.50738 2.97658L5.26686 2.26619ZM6.0077 2.09518V1.34518H5.96002L5.91274 1.35122L6.0077 2.09518ZM6.1077 2.09518V2.84518H6.16115L6.21406 2.8376L6.1077 2.09518ZM6.89936 2.04609L6.92156 1.29642L6.91047 1.29609H6.89936V2.04609ZM8.4252 2.3161L8.18764 3.02749L8.30328 3.0661H8.4252V2.3161ZM8.47436 2.3161L8.79137 1.63639L8.64066 1.5661H8.47436V2.3161ZM8.54936 2.36438L8.03779 2.91283L8.1619 3.02858L8.32374 3.07964L8.54936 2.36438ZM9.07436 2.57793L8.71799 3.23785L8.74482 3.25234L8.77274 3.26461L9.07436 2.57793ZM9.39103 2.71703L9.73896 2.05261L9.71619 2.04069L9.69265 2.03035L9.39103 2.71703ZM9.62766 2.87124L10.063 2.26053L10.063 2.26053L9.62766 2.87124ZM9.74936 2.95431L9.36396 3.59781L9.37341 3.60328L9.74936 2.95431ZM9.79072 2.9781L9.41777 3.6288L9.41778 3.6288L9.79072 2.9781ZM9.99936 3.10896L9.54831 3.70816L9.99863 4.04715L10.4495 3.70886L9.99936 3.10896ZM16.0827 7.3146L16.8307 7.36889L16.8327 7.34178V7.3146H16.0827ZM15.4244 7.93726L15.3544 8.68399L15.3992 8.68819L15.4441 8.687L15.4244 7.93726ZM16.0827 7.21723L15.3329 7.20088L15.3327 7.20905V7.21723H16.0827ZM14.3244 4.63166L14.5863 3.92888L14.5753 3.92481L14.5643 3.92108L14.3244 4.63166ZM13.4827 5.04077L12.7779 4.7844L12.7751 4.792L12.7725 4.79967L13.4827 5.04077ZM13.8994 5.88272L14.1582 5.17867L14.1461 5.17445L13.8994 5.88272ZM14.791 7.19268L15.5384 7.25584L15.541 7.22432V7.19268H14.791ZM14.9924 1.57104C14.4075 1.37832 13.802 1.29609 13.2077 1.29609V2.79609C13.6651 2.79609 14.1096 2.8595 14.523 2.99571L14.9924 1.57104ZM18.7304 9.70386C19.7455 6.52803 18.5625 2.71066 14.9858 1.56889L14.5296 2.99785C17.1045 3.81981 18.1382 6.63001 17.3016 9.24717L18.7304 9.70386ZM16.034 13.9455C17.2399 12.7614 18.16 11.3131 18.7229 9.72623L17.3092 9.2248C16.822 10.5982 16.0255 11.8517 14.9831 12.8752L16.034 13.9455ZM10.6258 18.1074C12.5708 16.9102 14.3782 15.5201 16.0253 13.9538L14.9917 12.8668C13.4206 14.3607 11.6962 15.6871 9.83955 16.83L10.6258 18.1074ZM10.4069 18.2373L10.6153 18.1138L9.85013 16.8236L9.64179 16.9472L10.4069 18.2373ZM9.41806 18.1014L9.63473 18.2331L10.414 16.9514L10.1973 16.8197L9.41806 18.1014ZM3.98446 13.9467C5.64686 15.5211 7.46477 16.9116 9.41754 18.101L10.1978 16.82C8.33563 15.6857 6.60186 14.3596 5.01593 12.8576L3.98446 13.9467ZM1.28544 9.72976C1.85676 11.3153 2.77695 12.7533 3.97295 13.9355L5.02744 12.8687C3.99011 11.8434 3.19197 10.596 2.69662 9.22127L1.28544 9.72976ZM5.03743 1.55215C1.4319 2.71068 0.243204 6.52513 1.27778 9.7074L2.70428 9.24363C1.85552 6.63291 2.88349 3.81979 5.4963 2.98023L5.03743 1.55215ZM5.91274 1.35122C5.6133 1.38944 5.31537 1.45795 5.02634 1.5558L5.50738 2.97658C5.70169 2.91079 5.90209 2.86475 6.10266 2.83915L5.91274 1.35122ZM6.1077 1.34518H6.0077V2.84518H6.1077V1.34518ZM6.8077 1.29609C6.54075 1.29609 6.27263 1.3139 6.00134 1.35276L6.21406 2.8376C6.4111 2.80938 6.60798 2.79609 6.8077 2.79609V1.29609ZM6.89936 1.29609H6.8077V2.79609H6.89936V1.29609ZM8.66275 1.60472C8.09998 1.41679 7.51905 1.31411 6.92156 1.29642L6.87716 2.79576C7.32968 2.80916 7.76541 2.88649 8.18764 3.02749L8.66275 1.60472ZM8.47436 1.5661H8.4252V3.0661H8.47436V1.5661ZM9.06093 1.81593C8.97685 1.73749 8.88271 1.67899 8.79137 1.63639L8.15736 2.99581C8.13269 2.98431 8.08855 2.96017 8.03779 2.91283L9.06093 1.81593ZM9.43074 1.91801C9.20606 1.79668 8.98245 1.71456 8.77498 1.64912L8.32374 3.07964C8.48461 3.13038 8.60933 3.17918 8.71799 3.23785L9.43074 1.91801ZM9.69265 2.03035L9.37599 1.89126L8.77274 3.26461L9.08941 3.4037L9.69265 2.03035ZM10.063 2.26053C10.0006 2.21602 9.87022 2.12135 9.73896 2.05261L9.0431 3.38144C9.06488 3.39285 9.10629 3.42063 9.19231 3.48195L10.063 2.26053ZM10.1347 2.31089C10.1392 2.31359 10.1361 2.31189 10.1201 2.3009C10.1052 2.29056 10.0877 2.27811 10.063 2.26053L9.19231 3.48195C9.22907 3.50815 9.29992 3.55936 9.364 3.59774L10.1347 2.31089ZM10.1637 2.3274C10.1495 2.31926 10.1372 2.31221 10.1253 2.30535L9.37341 3.60328C9.38876 3.61218 9.4041 3.62097 9.41777 3.6288L10.1637 2.3274ZM10.4504 2.50975C10.3433 2.42912 10.226 2.36314 10.1637 2.3274L9.41778 3.6288C9.49833 3.67497 9.5299 3.69431 9.54831 3.70816L10.4504 2.50975ZM13.213 1.29611C11.888 1.28675 10.6043 1.7174 9.54924 2.50905L10.4495 3.70886C11.2461 3.11118 12.2107 2.78907 13.2024 2.79607L13.213 1.29611ZM15.3347 7.26031C15.3367 7.23291 15.3493 7.21398 15.3589 7.20493C15.3678 7.19659 15.3829 7.18809 15.4046 7.18752L15.4441 8.687C16.1597 8.66815 16.777 8.1093 16.8307 7.36889L15.3347 7.26031ZM15.3327 7.21723V7.3146H16.8327V7.21723H15.3327ZM14.0625 5.33445C14.8407 5.62448 15.3509 6.37531 15.3329 7.20088L16.8325 7.23358C16.8645 5.7665 15.9597 4.44069 14.5863 3.92888L14.0625 5.33445ZM14.1875 5.29714C14.1748 5.33199 14.1332 5.35871 14.0844 5.34224L14.5643 3.92108C13.8322 3.67388 13.0406 4.06225 12.7779 4.7844L14.1875 5.29714ZM14.1461 5.17445C14.1805 5.18643 14.2102 5.2309 14.1929 5.28187L12.7725 4.79967C12.5219 5.53795 12.9183 6.33517 13.6527 6.59098L14.1461 5.17445ZM15.541 7.16732C15.541 6.28441 14.9906 5.48482 14.1581 5.17878L13.6406 6.58666C13.8764 6.67336 14.041 6.90636 14.041 7.16732H15.541ZM15.541 7.19268V7.16732H14.041V7.19268H15.541ZM15.524 7.21801C15.5297 7.22485 15.5338 7.23255 15.5361 7.23998C15.5385 7.24744 15.5386 7.2531 15.5384 7.25584L14.0437 7.12953C14.0114 7.51118 14.1288 7.88871 14.3747 8.18195L15.524 7.21801ZM15.4943 7.19054C15.4886 7.18999 15.4876 7.18874 15.4917 7.19076C15.4963 7.19302 15.5094 7.20056 15.524 7.21801L14.3747 8.18195C14.6369 8.49451 15.0055 8.65129 15.3544 8.68399L15.4943 7.19054Z" fill="black"/>
</svg>
