<svg width="18" height="19" viewBox="0 0 18 19" fill="none" xmlns="http://www.w3.org/2000/svg">
<path d="M6.15706 17.5499V14.8194C6.15706 14.1224 6.72623 13.5574 7.42833 13.5574H9.99487C10.332 13.5574 10.6554 13.6903 10.8938 13.927C11.1322 14.1637 11.2662 14.4847 11.2662 14.8194V17.5499C11.264 17.8396 11.3785 18.1183 11.5841 18.3239C11.7898 18.5296 12.0696 18.6452 12.3615 18.6452H14.1125C14.9303 18.6473 15.7153 18.3263 16.2944 17.753C16.8734 17.1797 17.1988 16.4012 17.1988 15.5893V7.81073C17.1988 7.15494 16.906 6.53288 16.3992 6.11214L10.4426 1.38942C9.40646 0.561363 7.92186 0.588098 6.91662 1.45292L1.09593 6.11214C0.565267 6.52048 0.248095 7.14438 0.232422 7.81073V15.5814C0.232422 17.2735 1.61418 18.6452 3.31867 18.6452H5.0297C5.63596 18.6452 6.12868 18.1596 6.13307 17.5578L6.15706 17.5499Z" fill="#E3851E"/>
</svg>
