<svg width="20" height="17" viewBox="0 0 20 17" fill="none" xmlns="http://www.w3.org/2000/svg">
<path d="M19.334 8.32001C19.334 8.76298 19.0048 9.12908 18.5777 9.18702L18.459 9.19501L0.958983 9.19501C0.475734 9.19501 0.0839831 8.80326 0.0839831 8.32001C0.0839831 7.87703 0.413163 7.51093 0.840251 7.453L0.958983 7.44501L18.459 7.44501C18.9422 7.44501 19.334 7.83676 19.334 8.32001Z" fill="black"/>
<path d="M8.63399 14.7284C8.97643 15.0694 8.97762 15.6234 8.63665 15.9659C8.32668 16.2772 7.84063 16.3065 7.49754 16.053L7.39922 15.9685L0.340883 8.94054C0.0286402 8.62964 0.000235245 8.14184 0.255682 7.79875L0.340832 7.70049L7.39917 0.671323C7.74158 0.330322 8.2956 0.331469 8.6366 0.673885C8.9466 0.985172 8.97383 1.47134 8.71896 1.81336L8.63404 1.91132L2.19867 8.32084L8.63399 14.7284Z" fill="black"/>
</svg>
