<svg width="18" height="16" viewBox="0 0 18 16" fill="none" xmlns="http://www.w3.org/2000/svg">
<path d="M13.932 9.9334C13.7162 10.1426 13.617 10.4451 13.6662 10.7417L14.407 14.8417C14.4695 15.1892 14.3228 15.5409 14.032 15.7417C13.747 15.9501 13.3678 15.9751 13.057 15.8084L9.36616 13.8834C9.23782 13.8151 9.09532 13.7784 8.94949 13.7742H8.72366C8.64532 13.7859 8.56866 13.8109 8.49866 13.8492L4.80699 15.7834C4.62449 15.8751 4.41782 15.9076 4.21532 15.8751C3.72199 15.7817 3.39282 15.3117 3.47366 14.8159L4.21532 10.7159C4.26449 10.4167 4.16532 10.1126 3.94949 9.90007L0.940323 6.9834C0.688656 6.73924 0.601156 6.37257 0.716156 6.04174C0.827823 5.71174 1.11282 5.4709 1.45699 5.41674L5.59866 4.8159C5.91366 4.7834 6.19032 4.59174 6.33199 4.3084L8.15699 0.566738C8.20032 0.483405 8.25616 0.406738 8.32366 0.341738L8.39866 0.283405C8.43782 0.240071 8.48282 0.204238 8.53282 0.175071L8.62366 0.141738L8.76532 0.0834045H9.11616C9.42949 0.115905 9.70532 0.303405 9.84949 0.583405L11.6987 4.3084C11.832 4.5809 12.0912 4.77007 12.3903 4.8159L16.532 5.41674C16.882 5.46674 17.1745 5.7084 17.2903 6.04174C17.3995 6.3759 17.3053 6.74257 17.0487 6.9834L13.932 9.9334Z" fill="#D07D36"/>
</svg>
