<svg width="15" height="17" viewBox="0 0 15 17" fill="none" xmlns="http://www.w3.org/2000/svg">
<path fill-rule="evenodd" clip-rule="evenodd" d="M0.819336 7.11662C0.819336 3.4106 3.91628 0.415161 7.66234 0.415161C11.419 0.415161 14.5159 3.4106 14.5159 7.11662C14.5159 8.98414 13.8367 10.7179 12.7188 12.1874C11.4856 13.8084 9.96555 15.2207 8.2546 16.3293C7.86301 16.5855 7.50961 16.6049 7.07984 16.3293C5.35914 15.2207 3.8391 13.8084 2.61641 12.1874C1.49771 10.7179 0.819336 8.98414 0.819336 7.11662ZM5.40786 7.32522C5.40786 8.56674 6.42095 9.54319 7.66314 9.54319C8.90614 9.54319 9.92897 8.56674 9.92897 7.32522C9.92897 6.09337 8.90614 5.06938 7.66314 5.06938C6.42095 5.06938 5.40786 6.09337 5.40786 7.32522Z" fill="#D07D36"/>
</svg>
