<svg width="19" height="18" viewBox="0 0 19 18" fill="none" xmlns="http://www.w3.org/2000/svg">
<path d="M11.5 5.4248V3.4248C11.5 2.89437 11.2893 2.38566 10.9142 2.01059C10.5391 1.63552 10.0304 1.4248 9.5 1.4248H2.5C1.96957 1.4248 1.46086 1.63552 1.08579 2.01059C0.710714 2.38566 0.5 2.89437 0.5 3.4248V15.4248C0.5 15.9552 0.710714 16.4639 1.08579 16.839C1.46086 17.2141 1.96957 17.4248 2.5 17.4248H9.5C10.0304 17.4248 10.5391 17.2141 10.9142 16.839C11.2893 16.4639 11.5 15.9552 11.5 15.4248V13.4248" stroke="black" stroke-linecap="round" stroke-linejoin="round"/>
<path d="M4.5 9.4248H18.5M18.5 9.4248L15.5 6.4248M18.5 9.4248L15.5 12.4248" stroke="black" stroke-linecap="round" stroke-linejoin="round"/>
</svg>
