<svg width="25" height="25" viewBox="0 0 25 25" fill="none" xmlns="http://www.w3.org/2000/svg">
<path d="M19.5 8.75C21.1569 8.75 22.5 7.40685 22.5 5.75C22.5 4.09315 21.1569 2.75 19.5 2.75C17.8431 2.75 16.5 4.09315 16.5 5.75C16.5 7.40685 17.8431 8.75 19.5 8.75Z" fill="black"/>
<path d="M21.5 11.15V17.23C21.5 17.37 21.49 17.51 21.48 17.64C21.47 17.76 21.46 17.87 21.44 17.99C21.43 18.11 21.41 18.23 21.39 18.34C21.04 20.76 19.5 22.29 17.09 22.64C16.98 22.66 16.86 22.68 16.74 22.69C16.62 22.71 16.51 22.72 16.39 22.73C16.26 22.74 16.12 22.75 15.98 22.75H8.02C7.88 22.75 7.74 22.74 7.61 22.73C7.49 22.72 7.38 22.71 7.26 22.69C7.14 22.68 7.02 22.66 6.91 22.64C4.5 22.29 2.96 20.76 2.61 18.34C2.59 18.23 2.57 18.11 2.56 17.99C2.54 17.87 2.53 17.76 2.52 17.64C2.51 17.51 2.5 17.37 2.5 17.23V9.27C2.5 9.13 2.51 8.99 2.52 8.86C2.53 8.74 2.54 8.63 2.56 8.51C2.57 8.39 2.59 8.27 2.61 8.16C2.96 5.74 4.5 4.21 6.91 3.86C7.02 3.84 7.14 3.82 7.26 3.81C7.38 3.79 7.49 3.78 7.61 3.77C7.74 3.76 7.88 3.75 8.02 3.75H14.1C14.74 3.75 15.2 4.33 15.08 4.95C15.08 4.97 15.07 4.99 15.07 5.01C15.05 5.11 15.04 5.21 15.02 5.32C14.98 5.74 15 6.19 15.09 6.65C15.12 6.77 15.14 6.87 15.18 6.98C15.26 7.31 15.39 7.62 15.56 7.91C15.62 8.03 15.7 8.15 15.77 8.26C16.1 8.74 16.51 9.15 16.99 9.48C17.1 9.55 17.22 9.63 17.34 9.69C17.63 9.86 17.94 9.99 18.27 10.07C18.38 10.11 18.48 10.13 18.6 10.16C19.06 10.25 19.51 10.27 19.93 10.23C20.04 10.21 20.14 10.2 20.24 10.18C20.26 10.18 20.28 10.17 20.3 10.17C20.92 10.05 21.5 10.51 21.5 11.15Z" fill="black"/>
</svg>
