<svg width="14" height="13" viewBox="0 0 14 13" fill="none" xmlns="http://www.w3.org/2000/svg">
<path d="M12.0337 5.30366H8.00587V1.27579C8.00587 0.719939 7.55575 0.268799 6.99888 0.268799C6.44202 0.268799 5.99189 0.719939 5.99189 1.27579V5.30366H1.96402C1.40716 5.30366 0.957031 5.7548 0.957031 6.31065C0.957031 6.8665 1.40716 7.31764 1.96402 7.31764H5.99189V11.3455C5.99189 11.9014 6.44202 12.3525 6.99888 12.3525C7.55575 12.3525 8.00587 11.9014 8.00587 11.3455V7.31764H12.0337C12.5906 7.31764 13.0407 6.8665 13.0407 6.31065C13.0407 5.7548 12.5906 5.30366 12.0337 5.30366Z" fill="#555555"/>
</svg>
