<svg width="37" height="36" viewBox="0 0 37 36" fill="none" xmlns="http://www.w3.org/2000/svg">
<path d="M26.081 33.3113C25.8133 33.3113 25.5399 33.2773 25.2691 33.2065L3.36124 27.3398C1.67121 26.8736 0.663935 25.1255 1.10596 23.4368L3.51429 14.2014C3.66163 13.6346 4.24114 13.2904 4.81054 13.4421C5.37734 13.5895 5.71872 14.1703 5.57008 14.7384L3.16149 23.9753C3.01285 24.5447 3.35138 25.1325 3.91818 25.2884L25.8133 31.1523C26.3757 31.3009 26.9565 30.9665 27.1039 30.407L27.8517 27.3893C27.9936 26.8199 28.5687 26.4741 29.1381 26.6132C29.7078 26.7548 30.0549 27.3299 29.9145 27.8993L29.1638 30.9313C28.7853 32.3663 27.4935 33.3113 26.081 33.3113Z" fill="#555555"/>
<path d="M31.8145 24.8112H9.85555C8.09755 24.8112 6.66797 23.3816 6.66797 21.6236V5.33138C6.66797 3.57338 8.09755 2.1438 9.85555 2.1438H31.8145C33.5725 2.1438 35.0021 3.57338 35.0021 5.33138V21.6236C35.0021 23.3816 33.5725 24.8112 31.8145 24.8112ZM9.85555 4.26885C9.26903 4.26885 8.79302 4.74486 8.79302 5.33138V21.6236C8.79302 22.2101 9.26903 22.6861 9.85555 22.6861H31.8145C32.401 22.6861 32.877 22.2101 32.877 21.6236V5.33138C32.877 4.74486 32.401 4.26885 31.8145 4.26885H9.85555Z" fill="#555555"/>
<path d="M13.7515 12.0608C12.1888 12.0608 10.918 10.7899 10.918 9.22729C10.918 7.66463 12.1888 6.3938 13.7515 6.3938C15.3141 6.3938 16.5847 7.66463 16.5847 9.22729C16.5847 10.7899 15.3141 12.0608 13.7515 12.0608ZM13.7515 8.51885C13.3603 8.51885 13.043 8.83636 13.043 9.22729C13.043 9.61821 13.3603 9.93573 13.7515 9.93573C14.1424 9.93573 14.4596 9.61821 14.4596 9.22729C14.4596 8.83636 14.1424 8.51885 13.7515 8.51885Z" fill="#555555"/>
<path d="M7.75927 23.366C7.48742 23.366 7.2153 23.2625 7.00855 23.0545C6.5935 22.6394 6.5935 21.9662 7.00855 21.5512L13.412 15.1478C14.3811 14.1786 15.9578 14.1786 16.9254 15.1478L18.6382 16.8606L23.8998 10.5449C24.3701 9.98092 25.0601 9.65511 25.7926 9.65096C26.5802 9.60712 27.2178 9.96536 27.6923 10.5223L34.7447 18.7504C35.1271 19.1953 35.0747 19.8669 34.6298 20.2492C34.1836 20.6319 33.5136 20.5795 33.131 20.1346L26.0759 11.9036C25.9823 11.7916 25.8676 11.7973 25.8038 11.7773C25.7431 11.7773 25.6253 11.7957 25.5319 11.9062L19.5251 19.1175C19.3337 19.3468 19.0548 19.4858 18.7573 19.4985C18.4541 19.5154 18.1679 19.3992 17.9581 19.1883L15.4224 16.6523C15.2424 16.4723 15.0937 16.4723 14.9137 16.6523L8.51025 23.0545C8.30325 23.2625 8.03139 23.366 7.75927 23.366Z" fill="#555555"/>
</svg>
