<svg width="21" height="21" viewBox="0 0 21 21" fill="none" xmlns="http://www.w3.org/2000/svg">
<path d="M17.5875 8.06751C16.0038 8.06751 15.3563 6.9475 16.1438 5.57376C16.5988 4.77751 16.3275 3.76251 15.5313 3.30751L14.0175 2.44126C13.3263 2.03001 12.4338 2.27501 12.0225 2.96626L11.9263 3.13251C11.1388 4.50626 9.84375 4.50626 9.0475 3.13251L8.95125 2.96626C8.5575 2.27501 7.665 2.03001 6.97375 2.44126L5.46 3.30751C4.66375 3.76251 4.3925 4.78626 4.8475 5.58251C5.64375 6.94751 4.99625 8.06751 3.4125 8.06751C2.5025 8.06751 1.75 8.81125 1.75 9.73V11.27C1.75 12.18 2.49375 12.9325 3.4125 12.9325C4.99625 12.9325 5.64375 14.0525 4.8475 15.4263C4.3925 16.2225 4.66375 17.2375 5.46 17.6925L6.97375 18.5588C7.665 18.97 8.5575 18.725 8.96875 18.0338L9.065 17.8675C9.8525 16.4938 11.1475 16.4938 11.9438 17.8675L12.04 18.0338C12.4513 18.725 13.3438 18.97 14.035 18.5588L15.5488 17.6925C16.345 17.2375 16.6163 16.2138 16.1613 15.4263C15.365 14.0525 16.0125 12.9325 17.5963 12.9325C18.5063 12.9325 19.2588 12.1888 19.2588 11.27V9.73C19.25 8.82 18.5063 8.06751 17.5875 8.06751ZM10.5 13.3438C8.93375 13.3438 7.65625 12.0663 7.65625 10.5C7.65625 8.93375 8.93375 7.65626 10.5 7.65626C12.0663 7.65626 13.3438 8.93375 13.3438 10.5C13.3438 12.0663 12.0663 13.3438 10.5 13.3438Z" fill=""/>
</svg>
