<svg width="15" height="12" viewBox="0 0 15 12" fill="none" xmlns="http://www.w3.org/2000/svg">
<path d="M14.6667 6.22858C14.6667 6.54499 14.4316 6.80649 14.1266 6.84787L14.0417 6.85358L1.54175 6.85358C1.19657 6.85358 0.916749 6.57375 0.916749 6.22858C0.916749 5.91216 1.15188 5.65067 1.45694 5.60928L1.54175 5.60358L14.0417 5.60358C14.3869 5.60358 14.6667 5.8834 14.6667 6.22858Z" fill="black"/>
<path d="M7.02424 10.806C7.26884 11.0496 7.2697 11.4453 7.02614 11.6899C6.80473 11.9123 6.45756 11.9332 6.21249 11.7522L6.14226 11.6918L1.1006 6.6718C0.877565 6.44972 0.857276 6.1013 1.03974 5.85623L1.10056 5.78605L6.14223 0.765213C6.38681 0.521641 6.78254 0.522461 7.02611 0.767043C7.24754 0.989391 7.26699 1.33665 7.08494 1.58095L7.02428 1.65092L2.42758 6.22915L7.02424 10.806Z" fill="black"/>
</svg>
