<svg width="23" height="22" viewBox="0 0 23 22" fill="none" xmlns="http://www.w3.org/2000/svg">
<path d="M7.6729 2.23235C7.6729 2.05472 7.60234 1.88438 7.47674 1.75878C7.35114 1.63318 7.1808 1.56262 7.00317 1.56262C6.82555 1.56262 6.6552 1.63318 6.52961 1.75878C6.40401 1.88438 6.33345 2.05472 6.33345 2.23235V3.64323C5.04758 3.74592 4.20462 3.99774 3.5849 4.61835C2.96429 5.23807 2.71247 6.08192 2.60889 7.3669H20.3271C20.2235 6.08103 19.9717 5.23807 19.3511 4.61835C18.7314 3.99774 17.8875 3.74592 16.6026 3.64234V2.23235C16.6026 2.05472 16.532 1.88438 16.4064 1.75878C16.2808 1.63318 16.1105 1.56262 15.9328 1.56262C15.7552 1.56262 15.5849 1.63318 15.4593 1.75878C15.3337 1.88438 15.2631 2.05472 15.2631 2.23235V3.5834C14.6693 3.5718 14.0031 3.5718 13.2539 3.5718H9.68207C8.93287 3.5718 8.26672 3.5718 7.6729 3.5834V2.23235Z" fill="#DEB181"/>
<path fill-rule="evenodd" clip-rule="evenodd" d="M2.53857 10.7156C2.53857 9.9664 2.53857 9.30024 2.55018 8.70642H20.3863C20.3979 9.30024 20.3979 9.9664 20.3979 10.7156V12.5015C20.3979 15.8689 20.3979 17.553 19.3513 18.5987C18.3057 19.6453 16.6215 19.6453 13.2542 19.6453H9.6823C6.31493 19.6453 4.63079 19.6453 3.58513 18.5987C2.53857 17.553 2.53857 15.8689 2.53857 12.5015V10.7156ZM15.9331 12.5015C16.1699 12.5015 16.397 12.4074 16.5645 12.24C16.732 12.0725 16.826 11.8454 16.826 11.6086C16.826 11.3717 16.732 11.1446 16.5645 10.9771C16.397 10.8097 16.1699 10.7156 15.9331 10.7156C15.6962 10.7156 15.4691 10.8097 15.3016 10.9771C15.1342 11.1446 15.0401 11.3717 15.0401 11.6086C15.0401 11.8454 15.1342 12.0725 15.3016 12.24C15.4691 12.4074 15.6962 12.5015 15.9331 12.5015ZM15.9331 16.0734C16.1699 16.0734 16.397 15.9793 16.5645 15.8119C16.732 15.6444 16.826 15.4173 16.826 15.1804C16.826 14.9436 16.732 14.7165 16.5645 14.549C16.397 14.3815 16.1699 14.2875 15.9331 14.2875C15.6962 14.2875 15.4691 14.3815 15.3016 14.549C15.1342 14.7165 15.0401 14.9436 15.0401 15.1804C15.0401 15.4173 15.1342 15.6444 15.3016 15.8119C15.4691 15.9793 15.6962 16.0734 15.9331 16.0734ZM12.3612 11.6086C12.3612 11.8454 12.2671 12.0725 12.0997 12.24C11.9322 12.4074 11.7051 12.5015 11.4682 12.5015C11.2314 12.5015 11.0043 12.4074 10.8368 12.24C10.6694 12.0725 10.5753 11.8454 10.5753 11.6086C10.5753 11.3717 10.6694 11.1446 10.8368 10.9771C11.0043 10.8097 11.2314 10.7156 11.4682 10.7156C11.7051 10.7156 11.9322 10.8097 12.0997 10.9771C12.2671 11.1446 12.3612 11.3717 12.3612 11.6086ZM12.3612 15.1804C12.3612 15.4173 12.2671 15.6444 12.0997 15.8119C11.9322 15.9793 11.7051 16.0734 11.4682 16.0734C11.2314 16.0734 11.0043 15.9793 10.8368 15.8119C10.6694 15.6444 10.5753 15.4173 10.5753 15.1804C10.5753 14.9436 10.6694 14.7165 10.8368 14.549C11.0043 14.3815 11.2314 14.2875 11.4682 14.2875C11.7051 14.2875 11.9322 14.3815 12.0997 14.549C12.2671 14.7165 12.3612 14.9436 12.3612 15.1804ZM7.00341 12.5015C7.24023 12.5015 7.46736 12.4074 7.63483 12.24C7.80229 12.0725 7.89637 11.8454 7.89637 11.6086C7.89637 11.3717 7.80229 11.1446 7.63483 10.9771C7.46736 10.8097 7.24023 10.7156 7.00341 10.7156C6.76658 10.7156 6.53945 10.8097 6.37198 10.9771C6.20452 11.1446 6.11044 11.3717 6.11044 11.6086C6.11044 11.8454 6.20452 12.0725 6.37198 12.24C6.53945 12.4074 6.76658 12.5015 7.00341 12.5015ZM7.00341 16.0734C7.24023 16.0734 7.46736 15.9793 7.63483 15.8119C7.80229 15.6444 7.89637 15.4173 7.89637 15.1804C7.89637 14.9436 7.80229 14.7165 7.63483 14.549C7.46736 14.3815 7.24023 14.2875 7.00341 14.2875C6.76658 14.2875 6.53945 14.3815 6.37198 14.549C6.20452 14.7165 6.11044 14.9436 6.11044 15.1804C6.11044 15.4173 6.20452 15.6444 6.37198 15.8119C6.53945 15.9793 6.76658 16.0734 7.00341 16.0734Z" fill="#DEB181"/>
</svg>
