<svg width="14" height="14" viewBox="0 0 14 14" fill="none" xmlns="http://www.w3.org/2000/svg">
<g clip-path="url(#clip0_2_11097)">
<path d="M2.00668 2.57105C2.00673 2.36178 2.07965 2.15906 2.21293 1.99771C2.34621 1.83637 2.53151 1.72647 2.73701 1.68691C2.94251 1.64735 3.15537 1.68059 3.33903 1.78092C3.52268 1.88125 3.66566 2.04241 3.7434 2.23671L3.82272 2.4339C3.48306 2.68224 3.21975 3.02074 3.06259 3.41105C2.83911 3.95889 2.83516 4.57175 3.05158 5.12243C3.07191 5.17391 3.10238 5.22078 3.14118 5.26026C3.17998 5.29973 3.22631 5.33101 3.27743 5.35223C3.32856 5.37345 3.38342 5.38418 3.43877 5.38378C3.49412 5.38338 3.54883 5.37187 3.59964 5.34992L6.8825 3.93652C6.98105 3.89416 7.05927 3.81512 7.10059 3.71613C7.14192 3.61714 7.14311 3.50595 7.10393 3.40609C6.99893 3.13511 6.841 2.88776 6.63938 2.67848C6.43775 2.46919 6.19646 2.30216 5.92959 2.18713C5.50084 2.00315 5.02333 1.96598 4.57128 2.08138L4.51069 1.9299C4.3617 1.55722 4.08755 1.24808 3.73536 1.05561C3.38316 0.863144 2.97492 0.799366 2.58081 0.875243C2.18669 0.95112 1.83131 1.16191 1.57575 1.47139C1.3202 1.78087 1.18042 2.1697 1.18045 2.57105V6.3524H1.04275C0.933186 6.3524 0.82811 6.39593 0.750636 6.4734C0.673163 6.55087 0.629639 6.65595 0.629639 6.76551C0.629639 6.87508 0.673163 6.98015 0.750636 7.05763C0.82811 7.1351 0.933186 7.17863 1.04275 7.17863H1.18045V7.37417C1.18045 7.58072 1.18045 7.7019 1.18927 7.83685C1.26748 9.06903 1.93287 10.2065 2.8979 10.9501C2.89009 10.9622 2.88291 10.9747 2.87642 10.9875L2.3256 12.0891C2.27767 12.1871 2.27038 12.2999 2.30531 12.4032C2.34024 12.5064 2.41458 12.5917 2.5121 12.6404C2.60963 12.6891 2.72245 12.6973 2.82598 12.6631C2.92951 12.629 3.01535 12.5553 3.0648 12.4582L3.59799 11.3924C4.04176 11.619 4.52351 11.7618 5.01909 11.8137C5.15404 11.8275 5.23611 11.8303 5.37602 11.8358H5.37987C5.78748 11.8512 6.18627 11.8606 6.55091 11.8606C6.91555 11.8606 7.31434 11.8512 7.72194 11.8358H7.7258C7.86571 11.8303 7.94833 11.8275 8.08273 11.8137C8.5783 11.7618 9.06006 11.619 9.50383 11.3924L10.037 12.4587C10.0613 12.5073 10.0949 12.5506 10.1359 12.5861C10.1769 12.6217 10.2245 12.6488 10.2759 12.666C10.3274 12.6831 10.3818 12.69 10.4359 12.6861C10.49 12.6823 10.5429 12.6678 10.5914 12.6435C10.64 12.6193 10.6832 12.5857 10.7188 12.5447C10.7543 12.5037 10.7815 12.4561 10.7986 12.4046C10.8158 12.3531 10.8226 12.2988 10.8188 12.2447C10.815 12.1905 10.8005 12.1377 10.7762 12.0891L10.2254 10.9875C10.219 10.9747 10.2121 10.9622 10.2045 10.9501C11.1689 10.2065 11.8349 9.06847 11.9131 7.83685C11.9214 7.7019 11.9214 7.58072 11.9214 7.37417V7.35323C11.9214 7.32019 11.9214 7.28548 11.9192 7.25409C11.9176 7.22884 11.915 7.20367 11.9114 7.17863H12.0591C12.1686 7.17863 12.2737 7.1351 12.3512 7.05763C12.4287 6.98015 12.4722 6.87508 12.4722 6.76551C12.4722 6.65595 12.4287 6.55087 12.3512 6.4734C12.2737 6.39593 12.1686 6.3524 12.0591 6.3524H2.00668V2.57105Z" fill="#E3851E"/>
</g>
<defs>
<clipPath id="clip0_2_11097">
<rect width="13.2196" height="13.2196" fill="white" transform="translate(0.0791016 0.293411)"/>
</clipPath>
</defs>
</svg>
