<svg width="244" height="234" viewBox="0 0 244 234" fill="none" xmlns="http://www.w3.org/2000/svg">
<path d="M45.1429 19.4949C41.6563 18.8838 38.5979 21.6339 37.9862 24.9951C37.3746 28.3563 38.1086 30.9841 40.2495 33.9786C37.3134 31.7786 34.5608 31.1674 31.1354 31.6563C27.71 32.1452 24.8963 35.2009 25.3856 38.6843C25.6914 40.7621 27.0371 42.6566 28.7498 44.0011C30.4626 45.3456 32.4199 46.5067 34.4997 46.7512C41.8398 47.5456 44.3477 46.5067 51.5044 45.2233C52.9725 38.1343 53.6453 36.1176 52.9725 28.7841C52.789 26.7062 51.6879 24.6895 50.3422 22.9784C49.0577 21.2672 47.1615 19.8616 45.1429 19.4949Z" fill="#EBEBEB"/>
<path d="M17.1263 14.1782C18.1049 13.2004 18.3496 11.6115 17.7379 10.1448C16.9427 8.31138 14.863 7.39469 13.0891 8.12804C11.3153 8.86139 10.5813 11.0003 11.3764 12.8948C11.9881 14.3004 13.395 15.156 14.8019 15.156C10.2754 18.0283 12.8445 23.2228 12.8445 23.2228L24.3441 18.2116C24.3441 18.2116 22.2644 12.7726 17.1263 14.1782Z" fill="#F5F5F5"/>
<path d="M221.369 101.875C224.06 101.569 226.507 99.5524 227.363 96.6801C228.525 92.83 226.507 88.8577 222.898 87.8188C219.289 86.7799 215.497 88.9799 214.334 92.83C213.478 95.7634 214.457 98.8191 216.598 100.53C206.138 99.1246 203.385 110.125 203.385 110.125L227.057 117.153C227.119 117.092 230.85 106.275 221.369 101.875Z" fill="#E0E0E0"/>
<path d="M131.328 181.016C131.328 178.632 129.371 176.677 126.985 176.677L33.6423 176.799C31.2567 176.799 29.2993 178.754 29.2993 181.138L29.3605 209.8C29.3605 212.183 31.3179 214.139 33.7034 214.139L114.812 214.016L125.578 224.894V214.016H127.107C129.493 214.016 131.45 212.061 131.45 209.677L131.328 181.016Z" fill="#EBEBEB"/>
<path d="M45.3869 210.533C45.448 210.533 45.448 210.533 45.5092 210.533L45.3257 207.477L45.3869 210.533Z" fill="#F5F5F5"/>
<path d="M49.4236 179.854C40.7989 179.854 33.8257 186.882 33.8257 195.499C33.8257 200.816 36.5171 205.522 40.5542 208.333C39.5143 203.016 39.3308 197.027 39.3308 195.316H39.2697C39.3308 195.071 39.3308 194.705 39.392 194.277C39.4532 193.727 39.5143 193.116 39.5755 192.81C41.3494 185.293 47.772 183.766 48.9954 183.704C50.3411 183.704 52.7267 182.849 56.2744 186.516C59.8222 190.182 57.9871 194.155 57.9871 194.155C58.0483 196.599 58.1095 199.288 58.0483 200.999C57.926 204.605 54.3782 205.033 54.3782 205.033C54.3782 205.033 54.1947 208.149 54.1335 210.288C60.495 208.272 65.0826 202.344 65.0215 195.377C65.0215 186.821 58.0483 179.854 49.4236 179.854Z" fill="#F5F5F5"/>
<path d="M54.3169 205.949C50.8303 206.194 49.7293 203.566 49.7293 203.566C52.0537 205.155 54.378 205.094 54.378 205.094C54.378 205.094 57.9258 204.666 58.0481 201.06C58.1093 199.349 58.0481 196.66 57.987 194.216L57.3753 193.666L52.2372 192.382C52.6042 190.977 51.9925 189.205 51.6255 188.41L51.5643 188.349C50.6468 193.727 44.897 194.399 44.897 194.399L45.264 207.477L45.4475 210.533C46.732 210.838 48.0166 211.022 49.4234 211.022C51.075 211.022 52.6042 210.777 54.1334 210.288C54.1945 208.088 54.378 205.033 54.378 205.033L54.3169 205.949ZM51.6255 195.744C51.3808 195.744 51.1973 195.56 51.1973 195.316C51.1973 195.071 51.3808 194.827 51.6255 194.827C51.8701 194.827 52.0537 195.01 52.0537 195.255C52.0537 195.56 51.8701 195.744 51.6255 195.744ZM56.8248 195.683C56.5801 195.683 56.3966 195.499 56.3966 195.255C56.3966 195.01 56.5801 194.766 56.8248 194.766C57.0694 194.766 57.2529 194.949 57.2529 195.194C57.2529 195.438 57.0694 195.683 56.8248 195.683ZM56.0908 194.338C56.2743 194.216 56.5189 194.094 56.8248 194.155C57.1306 194.155 57.3753 194.277 57.4976 194.399C57.62 194.521 57.6811 194.644 57.6811 194.644C57.62 194.705 57.3141 194.399 56.8248 194.399C56.3354 194.399 55.9684 194.644 55.9073 194.582C55.8461 194.582 55.9072 194.46 56.0908 194.338ZM53.9499 194.644C54.011 194.644 54.4392 195.805 54.9286 197.21C55.0509 197.577 55.1732 197.883 55.2344 198.249C55.2956 198.371 55.3567 198.555 55.2956 198.799C55.2344 198.921 55.1732 198.983 55.1121 198.983C55.0509 198.983 54.9897 198.983 54.9286 198.983C54.4392 198.983 54.1334 198.983 54.1334 198.983C54.1334 198.983 54.4392 198.921 54.9286 198.86C55.0509 198.86 55.1732 198.86 55.1732 198.738C55.1732 198.616 55.1732 198.494 55.1121 198.371C54.9897 198.066 54.8674 197.699 54.7451 197.333C54.2557 195.805 53.8887 194.644 53.9499 194.644ZM54.8674 200.205C54.8674 200.205 54.2557 201.122 53.277 200.694C52.2372 200.266 52.543 199.41 52.543 199.41C52.0537 199.105 53.8887 200.205 54.8674 200.205ZM50.708 194.46C50.8915 194.338 51.1361 194.216 51.442 194.277C51.7478 194.277 51.9925 194.399 52.1148 194.521C52.2372 194.644 52.2983 194.766 52.2983 194.766C52.2372 194.827 51.9313 194.521 51.442 194.521C50.9526 194.521 50.5856 194.766 50.5244 194.705C50.5244 194.705 50.5856 194.582 50.708 194.46Z" fill="#EBEBEB"/>
<path d="M56.7641 194.766C56.5194 194.766 56.3359 195.01 56.3359 195.255C56.3359 195.499 56.5194 195.683 56.7641 195.683C57.0088 195.683 57.1923 195.438 57.1923 195.194C57.2535 194.949 57.0088 194.766 56.7641 194.766Z" fill="#E0E0E0"/>
<path d="M56.7642 194.46C57.2535 194.46 57.5594 194.766 57.6205 194.705C57.6205 194.705 57.6205 194.583 57.437 194.46C57.3147 194.338 57.07 194.216 56.7642 194.216C56.4584 194.216 56.2137 194.338 56.0302 194.399C55.8467 194.521 55.7855 194.644 55.8467 194.644C55.969 194.644 56.2748 194.399 56.7642 194.46Z" fill="#E0E0E0"/>
<path d="M51.5649 194.827C51.3202 194.827 51.1367 195.071 51.1367 195.316C51.1367 195.56 51.3202 195.744 51.5649 195.744C51.8096 195.744 51.9931 195.499 51.9931 195.255C52.0542 195.01 51.8096 194.827 51.5649 194.827Z" fill="#E0E0E0"/>
<path d="M51.4414 194.521C51.9308 194.521 52.2366 194.827 52.2978 194.766C52.2978 194.766 52.2978 194.644 52.1143 194.521C51.992 194.399 51.7473 194.277 51.4414 194.277C51.1356 194.277 50.8909 194.399 50.7074 194.46C50.5239 194.583 50.4627 194.705 50.5239 194.705C50.5851 194.766 50.9521 194.521 51.4414 194.521Z" fill="#E0E0E0"/>
<path d="M55.1117 198.31C55.1729 198.494 55.2341 198.616 55.1729 198.677C55.1729 198.738 55.0506 198.799 54.9282 198.799C54.4389 198.86 54.133 198.922 54.133 198.922C54.133 198.922 54.4389 198.983 54.9282 198.922C54.9894 198.922 55.0506 198.922 55.1117 198.922C55.1729 198.922 55.2952 198.86 55.2952 198.738C55.3564 198.555 55.2952 198.371 55.2341 198.188C55.1117 197.883 54.9894 197.516 54.9282 197.149C54.4389 195.683 54.0107 194.521 53.9495 194.583C53.8884 194.583 54.2554 195.805 54.7447 197.271C54.8671 197.638 54.9894 198.005 55.1117 198.31Z" fill="#E0E0E0"/>
<path d="M53.2772 200.694C54.2559 201.122 54.8676 200.205 54.8676 200.205C53.8889 200.205 51.9927 199.105 52.5432 199.41C52.5432 199.41 52.2373 200.266 53.2772 200.694Z" fill="white"/>
<path d="M49.6685 203.566C49.6685 203.566 50.7695 206.194 54.2561 205.949L54.3172 205.094C54.3784 205.094 51.9928 205.155 49.6685 203.566Z" fill="#E0E0E0"/>
<path d="M44.9585 194.399C44.9585 194.399 50.7083 193.727 51.6259 188.349L51.687 188.41C52.054 189.205 52.6657 190.977 52.2987 192.382L57.4368 193.666L58.0485 194.216C58.0485 194.216 59.8836 190.182 56.3358 186.577C52.7881 182.91 50.4025 183.766 49.0568 183.766C47.7723 183.766 41.4108 185.293 39.6369 192.871C39.5757 193.177 39.5146 193.788 39.4534 194.338C39.3922 194.766 39.3922 195.133 39.3311 195.377H39.3922C39.3922 197.088 39.5757 203.077 40.6156 208.394C42.0836 209.372 43.674 210.166 45.4479 210.594L45.3867 207.599L44.9585 194.399Z" fill="#E0E0E0"/>
<path d="M70.7673 190.474L119.824 190.4L119.82 187.711L70.7633 187.785L70.7673 190.474Z" fill="#F5F5F5"/>
<path d="M70.7268 197.402L119.784 197.329L119.78 194.64L70.7227 194.713L70.7268 197.402Z" fill="#F5F5F5"/>
<path d="M95.4925 204.135L119.837 204.098L119.833 201.409L95.4884 201.446L95.4925 204.135Z" fill="#F5F5F5"/>
<path d="M204.241 72.2351C203.384 71.4406 202.039 71.6239 201.305 72.4184C200.51 73.2129 200.265 74.0684 200.265 75.2907C199.898 74.1296 199.225 73.4573 198.246 72.9684C197.207 72.4795 195.922 72.7851 195.371 73.824C195.066 74.4351 195.066 75.2296 195.31 75.9018C195.494 76.5741 195.861 77.2463 196.35 77.6741C198.185 79.263 199.042 79.4463 201.244 80.363C202.956 78.713 203.507 78.2852 204.669 76.2074C204.975 75.5963 205.097 74.8629 205.036 74.1296C205.036 73.4573 204.73 72.724 204.241 72.2351Z" fill="#F5F5F5"/>
<path d="M62.8196 6.96692L63.6147 8.55585L65.4498 8.86141L64.1653 10.0837L64.4711 11.917L62.8196 11.0615L61.2292 11.917L61.535 10.0837L60.2505 8.86141L62.0244 8.55585L62.8196 6.96692Z" fill="#E0E0E0"/>
<path d="M27.6479 56.6514L29.116 59.5848L32.4191 60.0737L30.0335 62.3959L30.584 65.6349L27.6479 64.1071L24.773 65.6349L25.3235 62.3959L22.938 60.0737L26.2411 59.5848L27.6479 56.6514Z" fill="#E0E0E0"/>
<path d="M48.4452 58.6681L48.8734 59.4626L49.7909 59.5848L49.118 60.257L49.3015 61.1126L48.4452 60.6848L47.65 61.1126L47.8335 60.257L47.1606 59.5848L48.0782 59.4626L48.4452 58.6681Z" fill="#E0E0E0"/>
<path d="M183.936 210.594C171.335 201.794 168.46 185.477 168.95 170.81C169.011 168.365 168.766 165.798 169.928 163.598C171.09 161.459 173.843 159.993 175.984 161.032C177.819 161.887 178.614 164.026 179.593 165.737C180.939 168.06 182.957 170.015 185.343 171.237C186.933 172.032 188.829 172.521 190.358 171.665C192.499 170.504 192.744 167.571 192.683 165.126C192.683 160.604 192.622 156.02 192.622 151.498C192.622 149.054 192.622 146.548 193.356 144.287C194.09 141.964 195.802 139.826 198.127 139.153C200.451 138.481 203.326 139.826 203.815 142.209C203.999 143.187 203.815 144.226 203.877 145.265C203.938 146.303 204.427 147.404 205.406 147.648C206.385 147.954 207.363 147.22 208.097 146.548C210.605 144.103 212.318 140.926 213.908 137.748C215.499 134.57 217.028 131.392 219.352 128.703C221.615 126.014 224.796 123.875 228.283 123.692C231.769 123.508 235.501 125.647 236.357 129.07C237.213 132.492 235.256 135.975 233.054 138.787C229.812 142.881 225.958 146.548 221.738 149.604C220.943 150.154 220.147 150.765 219.842 151.62C219.291 153.27 220.881 154.859 222.472 155.409C224.307 156.02 226.264 155.837 228.16 156.02C230.057 156.265 232.136 157.059 232.87 158.893C233.849 161.398 231.769 163.965 229.751 165.676C225.653 169.098 220.943 171.787 215.927 173.621C214.153 174.293 212.257 174.843 210.789 176.126C209.321 177.41 208.464 179.549 209.321 181.321C210.177 183.032 212.44 183.582 214.336 183.215C216.233 182.849 217.884 181.871 219.658 181.199C223.022 179.915 227.365 180.16 229.506 183.032C230.913 184.927 231.035 187.554 230.301 189.877C229.567 192.138 228.16 194.094 226.631 195.927C221.248 202.221 214.398 207.294 206.629 209.983C198.861 212.672 191.704 213.405 183.936 210.594Z" fill="#D07D36"/>
<path d="M183.749 221.472C184.299 215.666 185.584 208.822 187.724 201.366C189.865 193.971 192.924 186.027 196.41 177.838C197.267 175.821 198.123 173.804 198.979 171.787C199.836 169.832 200.692 167.815 201.61 165.982C203.506 162.254 205.586 158.77 207.665 155.531C209.745 152.293 211.825 149.298 213.843 146.548C215.862 143.798 217.758 141.231 219.593 138.97C223.263 134.448 226.627 131.148 229.013 129.009C230.236 127.909 231.154 127.114 231.827 126.564C232.133 126.32 232.377 126.075 232.561 125.953C232.744 125.831 232.805 125.77 232.805 125.77C232.805 125.77 232.744 125.831 232.561 126.014C232.377 126.197 232.133 126.381 231.827 126.686C231.215 127.236 230.236 128.092 229.074 129.192C226.689 131.392 223.386 134.692 219.777 139.214C217.942 141.476 216.107 144.042 214.088 146.792C212.131 149.604 210.051 152.598 207.971 155.776C205.891 159.015 203.812 162.437 201.977 166.165C201.059 167.998 200.203 169.954 199.346 171.971C198.49 173.987 197.634 175.943 196.777 178.021C193.291 186.21 190.294 194.094 188.091 201.488C185.889 208.883 184.605 215.666 184.054 221.472" fill="#263238"/>
<path d="M201.797 165.982C201.797 165.982 201.675 165.615 201.553 164.943C201.43 164.271 201.247 163.293 201.124 162.071C200.757 159.626 200.39 156.265 200.023 152.537C199.656 148.809 199.228 145.448 198.861 143.065C198.678 141.842 198.494 140.864 198.372 140.192C198.25 139.52 198.188 139.153 198.25 139.153C198.25 139.153 198.372 139.52 198.555 140.192C198.739 140.864 198.922 141.842 199.167 143.003C199.656 145.387 200.085 148.748 200.452 152.476C200.819 156.143 201.186 159.443 201.43 162.009C201.553 163.171 201.675 164.087 201.736 164.882C201.797 165.615 201.797 165.982 201.797 165.982Z" fill="#263238"/>
<path d="M233.113 160.115C233.113 160.176 232.685 160.176 231.89 160.237C231.095 160.298 229.932 160.421 228.464 160.543C225.589 160.848 221.613 161.398 217.332 162.254C212.989 163.048 209.135 163.965 206.321 164.76C204.914 165.126 203.813 165.432 203.018 165.676C202.223 165.921 201.795 165.982 201.795 165.982C201.795 165.982 202.223 165.798 202.957 165.493C203.752 165.248 204.853 164.882 206.199 164.454C208.952 163.659 212.866 162.682 217.209 161.826C221.552 161.032 225.528 160.482 228.403 160.237C229.871 160.115 231.033 160.054 231.829 160.054C232.685 160.115 233.113 160.115 233.113 160.115Z" fill="#263238"/>
<path d="M188.157 200.816C188.157 200.816 188.096 200.694 187.912 200.449C187.79 200.144 187.606 199.777 187.362 199.288C186.872 198.31 186.261 196.844 185.527 195.071C183.998 191.466 182.101 186.454 180.022 180.893C177.942 175.332 176.107 170.26 174.639 166.654C173.966 164.882 173.354 163.476 172.926 162.376C172.743 161.887 172.62 161.52 172.437 161.215C172.314 160.97 172.314 160.787 172.314 160.787C172.314 160.787 172.376 160.909 172.559 161.154C172.681 161.459 172.865 161.826 173.11 162.315C173.599 163.293 174.211 164.759 174.945 166.532C176.474 170.137 178.37 175.149 180.45 180.71C182.53 186.271 184.365 191.343 185.833 194.949C186.567 196.721 187.117 198.127 187.545 199.227C187.729 199.716 187.851 200.082 188.035 200.388C188.096 200.632 188.157 200.755 188.157 200.816Z" fill="#263238"/>
<path d="M229.811 187.371C229.811 187.371 229.689 187.432 229.383 187.554C229.077 187.677 228.649 187.799 228.16 187.982C227.059 188.349 225.53 188.838 223.695 189.449C219.902 190.671 214.764 192.443 209.014 194.338C203.264 196.294 198.065 198.005 194.273 199.105C192.377 199.655 190.847 200.144 189.746 200.388C189.257 200.51 188.829 200.633 188.523 200.694C188.217 200.755 188.095 200.816 188.095 200.755C188.095 200.755 188.217 200.694 188.523 200.571C188.829 200.449 189.257 200.327 189.746 200.144C190.847 199.777 192.377 199.288 194.212 198.677C198.004 197.455 203.142 195.682 208.892 193.788C214.642 191.832 219.841 190.182 223.633 189.021C225.53 188.471 227.059 187.982 228.16 187.738C228.649 187.616 229.077 187.493 229.383 187.432C229.628 187.371 229.811 187.371 229.811 187.371Z" fill="#263238"/>
<path d="M236.905 3.23897V11.1225C236.905 12.8948 235.437 14.3615 233.663 14.3615H220.022V18.8838L217.576 14.6059C216.046 14.4837 214.884 13.2614 214.884 11.7336V3.23897C214.884 1.4667 216.352 0 218.126 0H233.663C235.437 0 236.905 1.4667 236.905 3.23897Z" fill="#0F4450"/>
<path d="M230.789 8.92247C231.532 8.92247 232.134 8.32053 232.134 7.578C232.134 6.83546 231.532 6.23352 230.789 6.23352C230.045 6.23352 229.443 6.83546 229.443 7.578C229.443 8.32053 230.045 8.92247 230.789 8.92247Z" fill="#263238"/>
<path d="M225.711 8.92247C226.454 8.92247 227.057 8.32053 227.057 7.578C227.057 6.83546 226.454 6.23352 225.711 6.23352C224.968 6.23352 224.365 6.83546 224.365 7.578C224.365 8.32053 224.968 8.92247 225.711 8.92247Z" fill="#263238"/>
<path d="M219.35 7.578C219.35 8.31135 219.962 8.92247 220.696 8.92247C221.43 8.92247 222.041 8.31135 222.041 7.578C222.041 6.84465 221.43 6.23352 220.696 6.23352C219.901 6.23352 219.35 6.84465 219.35 7.578Z" fill="#263238"/>
<path d="M196.044 11.6115L198.124 15.8282L202.772 16.5005L199.408 19.8005L200.203 24.4451L196.044 22.245L191.885 24.4451L192.68 19.8005L189.315 16.5005L193.964 15.8282L196.044 11.6115Z" fill="#D07D36"/>
<path d="M230.788 77.1852L231.828 79.263L234.152 79.6297L232.44 81.2797L232.868 83.602L230.788 82.502L228.708 83.602L229.075 81.2797L227.424 79.6297L229.748 79.263L230.788 77.1852Z" fill="#D07D36"/>
<path d="M34.0703 126.87L35.1102 129.009L37.4346 129.314L35.783 130.964L36.15 133.287L34.0703 132.187L31.9906 133.287L32.4188 130.964L30.7061 129.314L33.0304 129.009L34.0703 126.87Z" fill="#D07D36"/>
<path d="M168.826 233.511L91.6925 234C82.3949 234.061 74.8101 226.605 74.7489 217.316L73.4032 24.0783C73.342 14.7892 80.8046 7.21127 90.1021 7.15016L167.235 6.66126C176.533 6.60015 184.118 14.0559 184.179 23.345L185.525 216.583C185.586 225.872 178.123 233.45 168.826 233.511Z" fill="#263238"/>
<path d="M167.234 13.3225L152.247 13.4448C150.229 13.4448 148.638 15.1559 148.638 17.2338V19.9227C148.638 22.0005 147.048 23.7117 145.03 23.7117L115.852 23.895C113.834 23.895 112.182 22.245 112.182 20.106V17.4171C112.182 15.3393 110.531 13.6281 108.512 13.6281L103.252 13.6892L90.1617 13.7503C83.6778 13.8115 78.4174 19.0671 78.4786 25.6062L79.7631 214.261C79.8243 220.739 85.0847 225.994 91.6297 225.933L168.641 225.444C175.124 225.383 180.385 220.127 180.324 213.588L179.039 24.9339C179.039 18.5171 173.717 13.2614 167.234 13.3225Z" fill="#FAFAFA"/>
<path d="M145.335 221.839C145.702 221.9 146.069 221.961 146.436 222.022V221.961L144.907 221.778C145.029 221.778 145.213 221.778 145.335 221.839Z" fill="#B78876"/>
<path d="M127.84 225.75C127.84 225.628 127.779 225.444 127.779 225.322C127.657 223.672 127.657 222.328 127.718 221.411C127.779 220.922 127.779 220.617 127.84 220.372C127.84 220.189 127.901 220.067 127.901 220.005C125.638 219.761 123.559 219.578 121.846 219.394C120.439 219.272 119.338 219.15 118.42 219.028L118.971 225.811L127.84 225.75Z" fill="#B78876"/>
<path d="M133.59 220.616C131.572 220.372 129.675 220.189 127.902 220.005C127.902 220.128 127.84 220.616 127.84 221.411C127.84 222.328 127.84 223.672 128.024 225.322C128.024 225.506 128.085 225.628 128.085 225.811L147.414 225.689C146.864 223.855 146.497 222.694 146.435 222.45C146.435 222.389 146.435 222.328 146.435 222.267C146.068 222.205 145.701 222.144 145.334 222.144C142.337 221.655 138.178 221.105 133.59 220.616Z" fill="#B78876"/>
<path d="M127.902 221.411C127.902 220.616 127.963 220.128 127.963 220.005C127.963 220.066 127.902 220.189 127.902 220.372C127.841 220.617 127.779 220.983 127.779 221.411C127.718 222.328 127.657 223.672 127.841 225.322C127.841 225.444 127.902 225.628 127.902 225.75H128.208C128.208 225.567 128.146 225.444 128.146 225.261C127.902 223.611 127.841 222.328 127.902 221.411Z" fill="#A36957"/>
<path d="M103.679 110.675L100.56 107.13C100.56 107.13 100.682 107.008 100.865 106.825C98.6021 108.536 96.9506 109.636 96.7671 109.086C94.0757 99.1857 94.3815 86.4743 94.6262 81.6464C94.8709 81.2186 95.1767 80.7297 95.5437 80.2408C95.9719 79.6297 96.4612 79.1408 97.0729 78.713C97.8069 78.163 98.7245 77.5519 99.3973 77.3074C100.193 77.063 100.315 76.0241 99.5808 75.7796C98.908 75.5352 96.7059 76.1463 94.6874 77.9186C92.6688 79.6908 93.4028 75.5963 93.6475 74.1296C93.8922 72.6629 94.3815 67.9572 94.0145 67.5294C93.4028 66.9183 92.6077 67.4683 92.4241 68.935C92.2406 70.4628 91.3231 74.924 90.5279 74.7407C89.7327 74.6185 91.0784 66.9794 91.0784 66.9794C91.0784 66.9794 91.629 65.3905 90.7114 65.2071C89.0599 64.8405 88.2647 73.0296 88.2647 73.824C88.2035 74.374 87.3472 74.2518 87.4083 73.6407C87.4695 73.0295 88.8764 66.0627 87.2249 65.696C85.9403 65.3905 86.4908 72.4184 85.3898 73.7018C84.2888 74.9851 85.5121 68.3239 84.2888 68.1405C83.8606 68.0794 83.4936 68.0794 83.3101 71.9906C83.2489 74.0685 83.5548 78.1019 83.9218 81.402C83.1266 92.1578 81.9644 125.097 96.7671 123.509C102.823 122.897 107.227 120.758 110.408 118.314L103.801 110.797L103.679 110.675Z" fill="#B78876"/>
<path d="M137.994 149.359C142.582 149.481 146.741 149.604 150.35 149.726C150.411 145.937 150.472 142.27 150.534 138.787C150.472 138.603 150.411 138.481 150.35 138.298V137.748C146.802 137.687 142.704 137.564 138.3 137.442C138.178 141.231 138.116 145.265 137.994 149.359Z" fill="#0F4450"/>
<path d="M131.511 137.259C129.064 137.198 126.679 137.137 124.415 137.076C124.293 140.926 124.11 144.959 123.987 149.054C126.128 149.115 128.269 149.176 130.532 149.237C133.04 149.298 135.426 149.359 137.75 149.42C137.811 145.326 137.934 141.292 138.056 137.442C135.915 137.32 133.713 137.32 131.511 137.259Z" fill="#0F4450"/>
<path d="M149.862 199.044C146.498 198.983 142.399 198.86 137.75 198.738C137.75 199.777 137.75 200.816 137.812 201.794C137.873 205.155 137.873 208.211 137.934 210.777C142.522 210.9 146.62 211.022 149.984 211.144C149.923 208.822 149.923 206.255 149.862 203.322C149.862 201.977 149.862 200.572 149.862 199.044Z" fill="#0F4450"/>
<path d="M150.228 217.255C150.228 218.905 150.289 220.128 150.289 221.044C150.289 221.472 150.289 221.778 150.289 222.022C150.289 222.266 150.289 222.328 150.289 222.328C150.289 222.328 151.329 217.989 152.614 211.45C151.819 211.45 151.023 211.388 150.167 211.388C150.167 213.711 150.228 215.666 150.228 217.255Z" fill="#0F4450"/>
<path d="M150.106 203.383C150.106 206.255 150.167 208.883 150.167 211.205C151.085 211.205 151.88 211.266 152.675 211.266C153.348 207.783 154.143 203.627 154.877 199.166C153.531 199.166 151.941 199.105 150.106 199.044C150.106 200.572 150.106 201.977 150.106 203.383Z" fill="#0F4450"/>
<path d="M150.228 221.044C150.228 220.189 150.167 218.905 150.106 217.255C150.044 215.666 149.983 213.65 149.983 211.388C146.619 211.327 142.521 211.205 137.933 211.083C137.933 212.855 137.994 214.444 137.994 215.789C137.994 217.439 138.055 218.722 138.055 219.578C138.055 220.005 138.055 220.311 138.055 220.555C138.055 220.678 138.055 220.739 138.055 220.8C140.625 221.105 143.01 221.472 144.906 221.716L146.435 221.9L150.289 222.328C150.289 222.328 150.289 222.205 150.289 222.022C150.228 221.778 150.228 221.472 150.228 221.044Z" fill="#0F4450"/>
<path d="M155.917 149.909C153.531 142.148 151.818 140.987 150.84 139.398C150.778 142.759 150.717 146.181 150.717 149.726C152.613 149.787 154.387 149.848 155.917 149.909Z" fill="#0F4450"/>
<path d="M137.505 161.948C134.936 161.887 132.244 161.826 129.492 161.765C127.412 161.704 125.455 161.643 123.497 161.582C123.314 165.676 123.191 169.71 123.008 173.56C124.782 173.621 126.617 173.682 128.452 173.682C131.571 173.743 134.569 173.865 137.382 173.927C137.444 170.076 137.444 166.043 137.505 161.948Z" fill="#0F4450"/>
<path d="M150.595 157.609C150.595 159.076 150.534 160.543 150.534 162.01C153.592 162.132 156.222 162.193 158.18 162.254C157.996 159.015 157.629 156.143 157.018 153.698C156.651 152.354 156.345 151.193 155.978 150.093C154.448 150.031 152.675 150.031 150.717 149.97C150.656 152.476 150.595 155.043 150.595 157.609Z" fill="#0F4450"/>
<path d="M137.689 149.665C135.364 149.604 132.979 149.543 130.471 149.481C128.208 149.42 126.067 149.359 123.926 149.298C123.865 150.581 123.803 151.926 123.803 153.27C123.681 155.959 123.62 158.648 123.498 161.276C125.455 161.337 127.412 161.398 129.492 161.46C132.245 161.521 134.936 161.582 137.505 161.704C137.505 159.748 137.566 157.854 137.566 155.837C137.627 153.698 137.627 151.681 137.689 149.665Z" fill="#0F4450"/>
<path d="M150.166 162.254C146.619 162.193 142.398 162.071 137.81 161.948C137.749 166.043 137.749 170.076 137.688 173.926C142.276 174.049 146.496 174.171 149.983 174.293C150.044 170.382 150.105 166.348 150.166 162.254Z" fill="#0F4450"/>
<path d="M150.351 149.97C146.742 149.909 142.582 149.787 137.995 149.665C137.933 151.682 137.933 153.698 137.872 155.776C137.811 157.732 137.811 159.687 137.811 161.643C142.399 161.765 146.619 161.887 150.167 162.01C150.167 160.543 150.228 159.076 150.228 157.609C150.289 155.043 150.351 152.476 150.351 149.97Z" fill="#0F4450"/>
<path d="M150.596 94.1746C150.596 95.0302 150.657 96.3135 150.718 97.9636C150.718 98.5136 150.779 99.1247 150.779 99.7969C150.779 99.9803 150.779 100.225 150.84 100.408C153.776 100.469 156.407 100.591 158.792 100.653C157.447 96.7413 154.388 94.1746 151.085 92.5245C150.963 92.8301 150.779 93.0746 150.596 93.319C150.596 93.5023 150.596 93.8079 150.596 94.1746Z" fill="#0F4450"/>
<path d="M150.535 94.1746C150.535 93.8079 150.535 93.5634 150.535 93.319C150.473 93.3801 150.473 93.4412 150.412 93.4412C150.351 93.5023 150.29 93.5634 150.229 93.6245C149.862 94.3579 149.372 95.0912 148.761 95.6412C149.739 96.4968 150.351 97.5968 150.657 98.8191C150.657 98.5135 150.657 98.208 150.657 97.9024C150.596 96.3135 150.596 95.0301 150.535 94.1746Z" fill="#0F4450"/>
<path d="M125.088 111.469C121.235 111.347 117.687 111.286 114.445 111.164C114.323 112.386 114.139 113.608 114.017 114.831C113.895 115.931 113.772 117.031 113.65 118.131C113.772 119.781 114.078 122.286 114.996 124.242C117.932 124.303 121.112 124.364 124.599 124.486C124.783 119.781 124.966 115.442 125.088 111.469Z" fill="#0F4450"/>
<path d="M139.217 111.531C140.685 111.592 142.092 111.592 143.499 111.653C143.683 111.592 143.927 111.592 144.172 111.531C144.05 111.408 144.05 111.286 144.05 111.225H144.111C143.621 110.736 143.316 110.064 143.316 109.392C143.316 107.925 144.294 106.642 145.273 105.48C144.355 103.953 143.988 102.18 144.111 100.469C142.704 100.408 141.236 100.408 139.707 100.347C139.584 103.036 139.462 106.153 139.278 109.697C139.278 110.308 139.217 110.919 139.217 111.531Z" fill="#0F4450"/>
<path d="M132.489 124.975C129.859 124.914 127.29 124.853 124.843 124.792C124.721 128.581 124.537 132.553 124.415 136.77C126.678 136.831 129.064 136.892 131.511 136.953C133.713 137.015 135.915 137.076 137.994 137.137C138.117 132.981 138.239 128.948 138.361 125.159C136.465 125.098 134.508 125.036 132.489 124.975Z" fill="#0F4450"/>
<path d="M150.718 92.3412C150.718 92.4634 150.657 92.5856 150.596 92.769C150.657 92.6467 150.718 92.5245 150.779 92.4023L150.718 92.3412Z" fill="#0F4450"/>
<path d="M135.364 123.081C133.773 122.836 132.428 122.164 131.571 121.492C131.143 121.186 130.837 120.881 130.654 120.636C130.47 120.392 130.348 120.27 130.409 120.27C130.47 120.209 130.898 120.697 131.755 121.309C132.611 121.92 133.896 122.531 135.486 122.775C136.648 122.898 137.688 122.836 138.544 122.592C138.667 118.742 138.85 115.136 138.973 111.836C136.587 111.775 134.079 111.714 131.51 111.653C129.369 111.592 127.351 111.531 125.332 111.469C125.21 115.442 125.026 119.781 124.843 124.425C127.29 124.486 129.859 124.548 132.489 124.609C134.507 124.67 136.465 124.731 138.361 124.792C138.361 124.12 138.422 123.509 138.422 122.836C137.627 123.142 136.526 123.264 135.364 123.081Z" fill="#0F4450"/>
<path d="M150.778 100.775C150.778 101.753 150.839 102.791 150.839 103.892C150.901 106.214 150.901 108.842 150.962 111.775V111.836C155.121 111.958 158.486 112.081 160.81 112.142C160.504 109.942 160.015 106.886 159.342 102.669C159.22 101.997 159.097 101.386 158.853 100.775C156.467 100.714 153.776 100.653 150.839 100.591C150.839 100.714 150.778 100.775 150.778 100.775Z" fill="#0F4450"/>
<path d="M150.718 117.153C150.718 115.442 150.718 113.731 150.718 112.142C149.25 112.081 147.721 112.081 146.069 112.019C145.886 112.019 145.641 112.019 145.458 112.019C145.335 112.019 145.152 112.019 144.968 112.019C145.029 112.081 145.029 112.142 145.029 112.142C145.029 112.203 144.846 112.142 144.723 112.081C144.723 112.142 144.723 112.142 144.785 112.203C144.846 112.264 144.907 112.325 144.968 112.386C145.213 112.753 145.458 113.303 145.458 113.914C145.458 114.586 145.335 115.136 145.09 115.503C144.968 115.686 144.907 115.808 144.785 115.931C144.723 115.992 144.662 116.053 144.662 116.053C144.662 116.053 144.662 115.992 144.723 115.869C144.785 115.747 144.846 115.625 144.907 115.442C145.029 115.075 145.152 114.525 145.152 113.975C145.152 113.608 145.029 113.242 144.968 112.936C145.09 113.792 144.968 114.708 144.601 115.503C144.112 116.664 143.194 117.581 142.093 118.131C142.216 117.642 142.277 117.153 142.399 116.725C141.971 117.214 141.359 117.458 140.748 117.458C140.809 116.786 140.992 116.175 141.298 115.564C140.931 115.686 140.564 115.869 140.197 115.992C140.136 114.831 140.625 113.731 141.359 112.875C141.726 112.447 142.216 112.142 142.705 111.897C141.543 111.897 140.381 111.836 139.218 111.836C139.096 115.136 138.913 118.681 138.79 122.531C139.035 122.47 139.218 122.409 139.402 122.347C140.381 121.981 140.931 121.675 140.931 121.675C140.931 121.675 140.809 121.797 140.564 121.981C140.319 122.164 139.952 122.347 139.463 122.531C139.28 122.592 139.035 122.714 138.79 122.775C138.79 123.447 138.729 124.12 138.729 124.792C143.072 124.914 147.048 125.036 150.596 125.159L150.718 117.397C147.231 117.092 144.723 116.786 144.723 116.725C144.662 116.664 147.231 116.847 150.718 117.153Z" fill="#0F4450"/>
<path d="M150.963 117.153C151.574 117.214 152.186 117.275 152.798 117.275C157.324 117.642 160.933 118.008 160.933 118.131C160.933 118.131 160.749 118.131 160.444 118.131L161.239 118.192C161.239 118.192 161.483 117.764 160.749 112.325C158.425 112.264 155.061 112.203 150.901 112.142C150.963 113.731 150.963 115.381 150.963 117.153Z" fill="#0F4450"/>
<path d="M125.333 111.164C127.351 111.225 129.37 111.286 131.511 111.347C134.08 111.408 136.587 111.469 138.973 111.53C138.973 110.919 139.034 110.308 139.034 109.697C139.218 106.153 139.34 103.036 139.524 100.347C138.606 100.347 137.689 100.286 136.71 100.286C132.856 100.164 129.125 100.102 125.7 99.9802C125.638 102.303 125.516 104.93 125.455 107.803C125.455 108.903 125.394 110.003 125.333 111.164Z" fill="#0F4450"/>
<path d="M115.913 99.4914C118.788 99.5525 122.029 99.6136 125.577 99.7358C125.638 97.5358 125.761 95.6413 125.822 94.1135C125.883 92.5245 125.944 91.2412 126.005 90.3856C126.005 90.2022 126.005 90.0189 126.005 89.8356C124.293 89.8356 120.623 89.9578 116.891 91.6078C116.708 92.8912 116.524 94.5412 116.28 96.4968C116.157 97.3524 116.035 98.3913 115.913 99.4914Z" fill="#0F4450"/>
<path d="M124.599 124.792C121.235 124.67 118.054 124.609 115.179 124.547C115.24 124.731 115.363 124.914 115.485 125.036C117.442 128.214 120.073 132.614 120.073 132.614L119.339 136.648C120.929 136.709 122.519 136.709 124.232 136.77C124.293 132.553 124.416 128.581 124.599 124.792Z" fill="#0F4450"/>
<path d="M138.3 137.076C142.704 137.198 146.802 137.32 150.35 137.442L150.533 125.403C146.986 125.342 143.01 125.22 138.667 125.098C138.544 128.948 138.422 132.92 138.3 137.076Z" fill="#0F4450"/>
<path d="M123.498 153.27C123.559 151.926 123.62 150.643 123.681 149.298C121.235 149.237 118.849 149.176 116.647 149.115C115.852 151.987 114.812 156.143 113.956 161.032C116.83 161.093 119.889 161.154 123.192 161.276C123.253 158.648 123.375 155.959 123.498 153.27Z" fill="#0F4450"/>
<path d="M143.989 90.2023C142.337 89.8967 141.114 89.7745 140.685 89.7134C140.685 89.7134 140.502 89.7745 140.135 89.7745C139.768 89.7745 139.217 89.8356 138.545 89.8356C137.199 89.8967 135.364 89.8967 133.345 89.8967C131.388 89.8967 129.553 89.8967 128.146 89.8356C126.923 89.8356 126.189 89.8356 126.005 89.7745C126.005 89.8967 126.005 90.0801 126.005 90.2634C126.005 91.119 125.944 92.4023 125.883 93.9913C125.822 95.5802 125.76 97.4747 125.699 99.6136C129.125 99.6747 132.856 99.797 136.709 99.9192C137.627 99.9192 138.606 99.9803 139.523 99.9803C139.584 98.3303 139.707 96.9247 139.768 95.7024C139.89 94.0524 139.951 92.769 140.013 91.9134C140.013 91.4856 140.074 91.1801 140.074 90.9356C140.074 90.6912 140.135 90.6301 140.135 90.6301C140.135 90.6301 140.135 90.7523 140.135 90.9967C140.135 91.2412 140.135 91.5468 140.074 91.9745C140.013 92.8301 139.951 94.1135 139.89 95.7635C139.829 96.9858 139.768 98.4525 139.707 100.041C141.175 100.103 142.643 100.103 144.111 100.164C144.294 98.5747 144.906 96.9858 145.946 95.7024C144.417 94.2968 143.683 92.1579 143.989 90.2023Z" fill="#0F4450"/>
<path d="M150.717 111.836C150.717 108.903 150.656 106.275 150.656 103.953C150.656 103.219 150.656 102.547 150.656 101.875C150.35 103.28 149.616 104.625 148.393 105.542C149.005 107.13 148.944 108.903 148.087 110.431C147.781 110.981 147.353 111.469 146.803 111.775C148.21 111.775 149.494 111.836 150.717 111.836Z" fill="#0F4450"/>
<path d="M121.907 219.15C124.905 219.394 129.064 219.761 133.652 220.311C135.181 220.494 136.649 220.678 138.056 220.861C138.056 220.8 138.056 220.739 138.056 220.616C138.056 220.372 138.056 220.066 137.995 219.639C137.995 218.783 137.933 217.5 137.872 215.85C137.811 214.505 137.811 212.916 137.75 211.144C134.325 211.083 130.716 210.961 126.862 210.838C125.027 210.777 123.253 210.716 121.54 210.716C121.54 211.327 121.479 211.938 121.479 212.488C121.418 214.077 121.357 215.361 121.296 216.216C121.296 216.644 121.235 216.95 121.235 217.194C121.235 217.439 121.235 217.5 121.235 217.5C121.235 217.5 121.235 217.377 121.235 217.194C121.235 216.95 121.235 216.644 121.235 216.216C121.235 215.361 121.296 214.077 121.357 212.488C121.357 211.938 121.418 211.327 121.418 210.716C119.705 210.655 118.054 210.594 116.463 210.594C117.259 216.644 117.503 218.844 117.503 218.844L118.176 218.905C118.237 218.905 118.298 218.905 118.421 218.905C119.155 218.905 120.378 219.028 121.907 219.15Z" fill="#0F4450"/>
<path d="M124.109 137.014C122.397 136.953 120.806 136.892 119.216 136.892L117.503 146.181C117.32 146.854 117.014 147.709 116.708 148.809C118.91 148.87 121.234 148.931 123.681 148.993C123.804 144.898 123.987 140.865 124.109 137.014Z" fill="#0F4450"/>
<path d="M150.167 186.821C150.106 191.16 150.106 195.194 150.106 198.86C151.941 198.922 153.593 198.983 154.938 199.044C155.611 195.194 156.223 191.099 156.712 186.944C155.061 186.882 152.797 186.821 150.167 186.821Z" fill="#0F4450"/>
<path d="M121.417 210.35C121.54 207.294 121.662 203.322 121.846 198.677C121.846 198.555 121.846 198.433 121.846 198.371C119.338 198.31 116.952 198.249 114.689 198.188C115.423 203.26 115.973 207.233 116.402 210.288C117.992 210.288 119.705 210.35 121.417 210.35Z" fill="#0F4450"/>
<path d="M149.86 186.76C146.435 186.699 142.276 186.577 137.688 186.455C137.688 190.732 137.749 194.766 137.749 198.433C142.337 198.555 146.496 198.677 149.86 198.799C149.86 195.133 149.86 191.099 149.86 186.76Z" fill="#0F4450"/>
<path d="M122.274 185.782C122.396 182.054 122.58 178.021 122.702 173.804C119.093 173.682 115.668 173.621 112.548 173.499C112.364 177.349 112.426 181.443 112.793 185.477C115.79 185.599 118.971 185.721 122.274 185.782Z" fill="#0F4450"/>
<path d="M121.846 198.066C121.968 194.46 122.152 190.427 122.274 186.088C118.971 186.027 115.79 185.904 112.854 185.843C112.976 186.882 113.099 187.982 113.282 189.021C113.772 192.321 114.2 195.255 114.628 197.883C116.891 197.944 119.338 198.005 121.846 198.066Z" fill="#0F4450"/>
<path d="M127.473 186.21C125.822 186.149 124.17 186.149 122.519 186.088C122.335 190.427 122.213 194.46 122.029 198.066C123.436 198.127 124.904 198.127 126.433 198.188C130.348 198.31 134.018 198.372 137.505 198.494C137.444 194.827 137.444 190.794 137.383 186.516C134.263 186.393 130.899 186.332 127.473 186.21Z" fill="#0F4450"/>
<path d="M137.505 198.738C134.019 198.677 130.288 198.555 126.434 198.433C124.966 198.372 123.498 198.372 122.03 198.31C122.03 198.433 122.03 198.555 122.03 198.616C121.846 203.261 121.663 207.233 121.541 210.288C123.253 210.35 125.027 210.35 126.862 210.411C130.655 210.533 134.325 210.594 137.75 210.716C137.689 208.15 137.628 205.155 137.567 201.733C137.567 200.877 137.567 199.838 137.505 198.738Z" fill="#0F4450"/>
<path d="M150.534 162.254C150.473 166.41 150.412 170.382 150.351 174.293C153.531 174.415 156.1 174.476 157.935 174.538C158.241 170.26 158.302 166.104 158.119 162.437C156.223 162.376 153.593 162.315 150.534 162.254Z" fill="#0F4450"/>
<path d="M150.35 174.538C150.289 177.349 150.289 180.16 150.228 182.849C150.228 184.132 150.228 185.355 150.167 186.638C152.858 186.699 155.06 186.821 156.712 186.882C157.201 182.849 157.63 178.754 157.935 174.782C156.1 174.66 153.47 174.599 150.35 174.538Z" fill="#0F4450"/>
<path d="M137.383 174.232C134.569 174.171 131.511 174.11 128.452 173.988C126.617 173.926 124.782 173.865 123.008 173.865C122.825 178.082 122.703 182.054 122.519 185.843C124.109 185.905 125.761 185.905 127.474 185.966C130.96 186.088 134.263 186.149 137.444 186.21C137.383 182.421 137.383 178.388 137.383 174.232Z" fill="#0F4450"/>
<path d="M122.763 173.499C122.886 169.649 123.069 165.676 123.191 161.521C119.888 161.459 116.769 161.337 113.894 161.276C113.282 164.943 112.793 168.976 112.609 173.254C115.668 173.315 119.093 173.438 122.763 173.499Z" fill="#0F4450"/>
<path d="M149.983 174.538C146.496 174.477 142.276 174.354 137.688 174.232C137.688 178.388 137.688 182.421 137.688 186.21C142.276 186.332 146.435 186.455 149.86 186.577C149.86 185.355 149.86 184.071 149.86 182.849C149.922 180.099 149.983 177.349 149.983 174.538Z" fill="#0F4450"/>
<path d="M115.607 99.4914C115.73 98.3913 115.913 97.3524 116.035 96.4357C116.28 94.5412 116.525 92.8912 116.708 91.6689C114.629 92.5856 112.61 93.9301 110.836 95.9468C109.796 97.1691 108.756 98.2691 107.839 99.308C109.857 99.3691 112.488 99.3691 115.607 99.4914Z" fill="#0F4450"/>
<path d="M113.711 114.831C113.833 113.608 114.017 112.386 114.139 111.164C109.98 111.042 106.432 110.919 103.802 110.858L110.408 118.375L110.958 119.047L113.528 116.358C113.589 115.808 113.65 115.319 113.711 114.831Z" fill="#0F4450"/>
<path d="M103.679 110.675C106.309 110.736 109.918 110.797 114.2 110.919C114.689 106.764 115.179 102.975 115.607 99.7358C112.365 99.6136 109.735 99.5524 107.777 99.4913C104.23 103.464 101.722 106.03 100.865 106.886C100.682 107.069 100.56 107.192 100.56 107.192L103.679 110.675Z" fill="#0F4450"/>
<path d="M114.506 110.919C117.748 110.981 121.296 111.103 125.15 111.164C125.211 110.003 125.211 108.903 125.272 107.803C125.394 104.93 125.517 102.303 125.578 99.9802C122.03 99.858 118.727 99.7969 115.852 99.6747C115.424 102.975 114.996 106.764 114.506 110.919Z" fill="#0F4450"/>
<path d="M137.811 161.948C137.689 161.948 137.628 161.948 137.506 161.948C137.444 166.043 137.444 170.076 137.444 173.926C137.567 173.926 137.628 173.926 137.75 173.926C137.75 170.076 137.75 166.043 137.811 161.948Z" fill="#263238"/>
<path d="M138.484 122.898C138.484 123.509 138.423 124.181 138.423 124.853C138.545 124.853 138.606 124.853 138.729 124.853C138.729 124.181 138.79 123.509 138.79 122.836C138.668 122.836 138.606 122.836 138.484 122.898Z" fill="#263238"/>
<path d="M138.423 125.159C138.301 128.948 138.178 132.92 138.056 137.137C138.178 137.137 138.24 137.137 138.362 137.137C138.484 132.981 138.607 128.948 138.729 125.159C138.607 125.159 138.484 125.159 138.423 125.159Z" fill="#263238"/>
<path d="M137.994 137.381C137.871 141.231 137.81 145.204 137.688 149.359C137.81 149.359 137.871 149.359 137.994 149.359C138.055 145.265 138.177 141.231 138.3 137.381C138.177 137.381 138.116 137.381 137.994 137.381Z" fill="#263238"/>
<path d="M140.074 91.9745C140.074 91.5467 140.074 91.2411 140.135 90.9967C140.135 90.7522 140.135 90.63 140.135 90.63C140.135 90.63 140.135 90.7522 140.074 90.9356C140.074 91.18 140.013 91.4856 140.013 91.9134C139.952 92.7689 139.89 94.0523 139.768 95.7023C139.707 96.9246 139.585 98.3913 139.523 99.9802C139.585 99.9802 139.646 99.9802 139.707 99.9802C139.768 98.3913 139.829 96.9246 139.89 95.7023C140.013 94.1745 140.074 92.8912 140.074 91.9745Z" fill="#263238"/>
<path d="M138.974 111.531C139.035 111.531 139.157 111.531 139.218 111.531C139.218 110.919 139.279 110.308 139.279 109.697C139.463 106.153 139.585 103.036 139.708 100.347C139.646 100.347 139.585 100.347 139.524 100.347C139.402 102.975 139.218 106.153 139.035 109.697C139.035 110.308 138.974 110.919 138.974 111.531Z" fill="#263238"/>
<path d="M137.995 149.665C137.872 149.665 137.811 149.665 137.689 149.665C137.628 151.682 137.628 153.698 137.567 155.776C137.505 157.732 137.505 159.687 137.505 161.643C137.628 161.643 137.689 161.643 137.811 161.643C137.811 159.687 137.872 157.732 137.872 155.776C137.934 153.698 137.995 151.682 137.995 149.665Z" fill="#263238"/>
<path d="M138.484 122.592C138.606 122.592 138.667 122.531 138.79 122.531C138.912 118.681 139.096 115.136 139.218 111.836C139.157 111.836 139.034 111.836 138.973 111.836C138.79 115.136 138.667 118.742 138.484 122.592Z" fill="#263238"/>
<path d="M137.688 174.232C137.566 174.232 137.505 174.232 137.382 174.232C137.382 178.388 137.382 182.421 137.382 186.21C137.505 186.21 137.566 186.21 137.688 186.21C137.688 182.421 137.688 178.388 137.688 174.232Z" fill="#263238"/>
<path d="M137.444 186.516C137.444 190.794 137.506 194.827 137.567 198.494C137.628 198.494 137.75 198.494 137.811 198.494C137.75 194.827 137.75 190.794 137.75 186.516C137.628 186.516 137.506 186.516 137.444 186.516Z" fill="#263238"/>
<path d="M138.056 219.578C138.056 218.722 137.995 217.439 137.995 215.789C137.995 214.444 137.934 212.855 137.934 211.083C137.873 211.083 137.812 211.083 137.75 211.083C137.812 212.855 137.812 214.444 137.873 215.789C137.934 217.439 137.934 218.722 137.995 219.578C137.995 220.005 137.995 220.311 138.056 220.555C138.056 220.678 138.056 220.739 138.056 220.8C138.056 220.739 138.056 220.678 138.056 220.555C138.056 220.372 138.056 220.005 138.056 219.578Z" fill="#263238"/>
<path d="M137.75 198.799C137.689 198.799 137.567 198.799 137.505 198.799C137.505 199.838 137.505 200.877 137.567 201.855C137.628 205.216 137.689 208.272 137.75 210.838C137.811 210.838 137.872 210.838 137.934 210.838C137.872 208.272 137.872 205.277 137.811 201.855C137.811 200.877 137.75 199.838 137.75 198.799Z" fill="#263238"/>
<path d="M150.718 149.726C150.779 146.181 150.84 142.698 150.84 139.398C150.718 139.215 150.595 138.97 150.534 138.787C150.473 142.331 150.412 145.998 150.351 149.726C150.473 149.726 150.595 149.726 150.718 149.726Z" fill="#263238"/>
<path d="M150.717 149.97C150.595 149.97 150.472 149.97 150.411 149.97C150.35 152.476 150.35 155.043 150.289 157.609C150.289 159.076 150.228 160.543 150.228 162.01C150.35 162.01 150.472 162.01 150.533 162.01C150.533 160.543 150.595 159.076 150.595 157.609C150.595 155.043 150.656 152.476 150.717 149.97Z" fill="#263238"/>
<path d="M150.718 111.836C150.779 111.897 150.84 111.897 150.963 111.897V111.836C150.963 108.903 150.901 106.275 150.84 103.953C150.84 102.853 150.779 101.814 150.779 100.836C150.779 101.202 150.718 101.508 150.657 101.875C150.657 102.547 150.657 103.219 150.657 103.953C150.718 106.214 150.718 108.903 150.718 111.836Z" fill="#263238"/>
<path d="M150.717 117.153C150.778 117.153 150.901 117.153 150.962 117.153C150.962 115.381 150.962 113.731 150.962 112.142C150.901 112.142 150.84 112.142 150.717 112.142C150.717 113.731 150.717 115.381 150.717 117.153Z" fill="#263238"/>
<path d="M150.595 94.1746C150.595 93.8079 150.595 93.5023 150.534 93.319C150.534 93.319 150.534 93.319 150.473 93.3801C150.473 93.6245 150.473 93.869 150.473 94.2357C150.473 95.0912 150.534 96.3746 150.534 98.0246C150.534 98.3302 150.534 98.6358 150.534 98.9413C150.595 99.2469 150.656 99.5524 150.717 99.858C150.717 99.1858 150.656 98.5746 150.656 98.0246C150.656 96.3135 150.656 95.0301 150.595 94.1746Z" fill="#263238"/>
<path d="M150.534 162.254C150.412 162.254 150.29 162.254 150.228 162.254C150.167 166.41 150.106 170.382 150.045 174.293C150.167 174.293 150.29 174.293 150.351 174.293C150.412 170.382 150.473 166.41 150.534 162.254Z" fill="#263238"/>
<path d="M150.29 221.044C150.29 220.189 150.229 218.905 150.229 217.255C150.167 215.666 150.167 213.65 150.167 211.388C150.106 211.388 150.045 211.388 149.984 211.388C149.984 213.65 150.045 215.666 150.106 217.255C150.167 218.905 150.167 220.128 150.229 221.044C150.229 221.472 150.229 221.778 150.29 222.022C150.29 222.266 150.29 222.328 150.29 222.328C150.29 222.328 150.29 222.205 150.29 222.022C150.29 221.778 150.29 221.472 150.29 221.044Z" fill="#263238"/>
<path d="M150.167 186.821C150.044 186.821 149.983 186.821 149.861 186.821C149.861 191.16 149.8 195.194 149.861 198.86C149.922 198.86 150.044 198.86 150.105 198.86C150.105 195.133 150.105 191.099 150.167 186.821Z" fill="#263238"/>
<path d="M150.106 199.044C150.044 199.044 149.922 199.044 149.861 199.044C149.861 200.572 149.861 201.977 149.861 203.383C149.861 206.255 149.922 208.883 149.983 211.205C150.044 211.205 150.106 211.205 150.167 211.205C150.167 208.883 150.106 206.316 150.106 203.383C150.106 201.977 150.106 200.572 150.106 199.044Z" fill="#263238"/>
<path d="M150.35 174.538C150.228 174.538 150.105 174.538 150.044 174.538C149.983 177.41 149.983 180.16 149.922 182.849C149.922 184.132 149.922 185.355 149.922 186.577C150.044 186.577 150.105 186.577 150.228 186.577C150.228 185.355 150.228 184.071 150.289 182.788C150.228 180.16 150.289 177.349 150.35 174.538Z" fill="#263238"/>
<path d="M123.498 161.582C123.376 161.582 123.315 161.582 123.192 161.582C123.07 165.676 122.886 169.71 122.764 173.56C122.886 173.56 122.948 173.56 123.07 173.56C123.192 169.71 123.315 165.676 123.498 161.582Z" fill="#263238"/>
<path d="M125.088 111.164C125.149 111.164 125.271 111.164 125.333 111.164C125.394 110.003 125.394 108.903 125.455 107.803C125.577 104.93 125.638 102.303 125.7 99.9802C125.638 99.9802 125.577 99.9802 125.516 99.9802C125.394 102.303 125.333 104.93 125.21 107.803C125.21 108.903 125.149 110.003 125.088 111.164Z" fill="#263238"/>
<path d="M124.109 137.015C123.987 140.865 123.803 144.898 123.62 148.993C123.742 148.993 123.803 148.993 123.925 148.993C124.048 144.898 124.231 140.865 124.354 137.015C124.292 137.015 124.231 137.015 124.109 137.015Z" fill="#263238"/>
<path d="M124.599 124.792C124.476 128.581 124.293 132.553 124.109 136.77C124.232 136.77 124.293 136.77 124.415 136.77C124.599 132.614 124.721 128.581 124.843 124.792C124.782 124.792 124.66 124.792 124.599 124.792Z" fill="#263238"/>
<path d="M125.822 94.0523C125.761 95.6413 125.7 97.5358 125.578 99.6747C125.639 99.6747 125.7 99.6747 125.761 99.6747C125.822 97.4746 125.883 95.5801 125.945 94.0523C126.006 92.4634 126.006 91.18 126.067 90.3245C126.067 90.1411 126.067 89.9578 126.067 89.8356C126.067 90.0189 126.067 90.1411 126.067 90.3856C125.945 91.18 125.883 92.4634 125.822 94.0523Z" fill="#263238"/>
<path d="M125.088 111.469C124.905 115.442 124.783 119.781 124.599 124.425C124.66 124.425 124.783 124.425 124.844 124.425C125.027 119.72 125.15 115.381 125.333 111.469C125.272 111.469 125.15 111.469 125.088 111.469Z" fill="#263238"/>
<path d="M123.926 149.298C123.804 149.298 123.743 149.298 123.62 149.298C123.559 150.581 123.498 151.926 123.437 153.27C123.314 155.959 123.253 158.648 123.131 161.276C123.253 161.276 123.314 161.276 123.437 161.276C123.559 158.648 123.62 156.02 123.743 153.27C123.865 151.926 123.926 150.643 123.926 149.298Z" fill="#263238"/>
<path d="M122.03 198.371C121.969 198.371 121.907 198.371 121.785 198.371C121.785 198.494 121.785 198.616 121.785 198.677C121.602 203.322 121.479 207.294 121.357 210.35C121.418 210.35 121.479 210.35 121.479 210.35C121.602 207.294 121.785 203.322 121.969 198.677C122.03 198.616 122.03 198.494 122.03 198.371Z" fill="#263238"/>
<path d="M122.275 186.088C122.091 190.427 121.969 194.46 121.847 198.066C121.908 198.066 121.969 198.066 122.091 198.066C122.214 194.46 122.397 190.427 122.581 186.088C122.458 186.088 122.336 186.088 122.275 186.088Z" fill="#263238"/>
<path d="M122.703 173.804C122.519 178.021 122.397 181.993 122.274 185.782C122.336 185.782 122.458 185.782 122.519 185.782C122.641 182.054 122.825 178.021 123.008 173.804C122.886 173.804 122.825 173.804 122.703 173.804Z" fill="#263238"/>
<path d="M121.357 212.488C121.296 214.077 121.296 215.361 121.235 216.216C121.235 216.644 121.235 216.95 121.235 217.194C121.235 217.439 121.235 217.5 121.235 217.5C121.235 217.5 121.235 217.377 121.235 217.194C121.235 216.95 121.235 216.644 121.296 216.216C121.357 215.361 121.418 214.077 121.48 212.488C121.48 211.938 121.541 211.327 121.541 210.716C121.48 210.716 121.48 210.716 121.418 210.716C121.357 211.327 121.357 211.938 121.357 212.488Z" fill="#263238"/>
<path d="M115.607 99.4914C115.668 99.4914 115.79 99.4914 115.852 99.4914C115.974 98.3914 116.096 97.4136 116.219 96.4358C116.463 94.4802 116.708 92.8301 116.83 91.5468C116.769 91.5468 116.708 91.6079 116.647 91.6079C116.463 92.8301 116.219 94.4802 115.974 96.3746C115.913 97.3524 115.79 98.3914 115.607 99.4914Z" fill="#263238"/>
<path d="M114.444 111.164C114.322 111.164 114.261 111.164 114.139 111.164C114.016 112.325 113.833 113.547 113.71 114.831C113.649 115.319 113.588 115.808 113.527 116.297L113.588 116.236C113.588 116.236 113.588 116.97 113.649 118.131C113.772 117.031 113.894 115.992 114.016 114.831C114.2 113.608 114.322 112.386 114.444 111.164Z" fill="#263238"/>
<path d="M115.852 99.7358C115.791 99.7358 115.669 99.7358 115.608 99.7358C115.179 102.975 114.69 106.764 114.201 110.919C114.323 110.919 114.384 110.919 114.507 110.919C114.996 106.764 115.424 102.975 115.852 99.7358Z" fill="#263238"/>
<path d="M150.839 100.652C153.775 100.714 156.467 100.775 158.852 100.836C158.852 100.775 158.791 100.652 158.791 100.591C156.406 100.53 153.775 100.408 150.839 100.347C150.839 100.469 150.839 100.591 150.839 100.652Z" fill="#263238"/>
<path d="M115.607 99.7358C115.668 99.7358 115.791 99.7358 115.852 99.7358C118.727 99.7969 121.969 99.9191 125.578 100.041C125.639 100.041 125.7 100.041 125.761 100.041C129.187 100.164 132.918 100.225 136.771 100.347C137.689 100.347 138.668 100.408 139.585 100.408C139.646 100.408 139.708 100.408 139.769 100.408C141.237 100.469 142.705 100.469 144.173 100.53C144.173 100.408 144.173 100.347 144.234 100.225C142.827 100.164 141.359 100.164 139.83 100.102C139.769 100.102 139.708 100.102 139.646 100.102C138.729 100.102 137.811 100.041 136.833 100.041C132.979 99.9191 129.248 99.858 125.822 99.7358C125.761 99.7358 125.7 99.7358 125.639 99.7358C122.091 99.6747 118.788 99.5524 115.974 99.4913C115.913 99.4913 115.791 99.4913 115.73 99.4913C112.549 99.4302 109.919 99.3691 107.961 99.308C107.9 99.3691 107.9 99.4302 107.839 99.4302C109.735 99.4913 112.365 99.6135 115.607 99.7358Z" fill="#263238"/>
<path d="M131.511 111.653C134.08 111.714 136.588 111.775 138.973 111.836C139.035 111.836 139.157 111.836 139.218 111.836C140.38 111.836 141.542 111.897 142.705 111.897C142.949 111.775 143.255 111.714 143.5 111.592C142.093 111.531 140.686 111.531 139.218 111.469C139.157 111.469 139.035 111.469 138.973 111.469C136.588 111.408 134.08 111.347 131.511 111.286C129.37 111.225 127.351 111.164 125.333 111.103C125.272 111.103 125.149 111.103 125.088 111.103C121.235 110.981 117.687 110.919 114.445 110.858C114.323 110.858 114.261 110.858 114.139 110.858C109.857 110.736 106.248 110.675 103.618 110.614L103.741 110.797C106.371 110.858 109.918 110.981 114.078 111.103C114.2 111.103 114.261 111.103 114.384 111.103C117.626 111.225 121.173 111.286 125.027 111.408C125.088 111.408 125.211 111.408 125.272 111.408C127.351 111.531 129.37 111.592 131.511 111.653Z" fill="#263238"/>
<path d="M144.968 112.019C145.152 112.019 145.274 112.019 145.458 112.019C145.213 111.958 144.968 111.897 144.785 111.775C144.846 111.836 144.968 111.958 144.968 112.019Z" fill="#263238"/>
<path d="M150.718 111.897C149.494 111.836 148.21 111.836 146.864 111.775C146.681 111.836 146.497 111.958 146.314 112.019C146.252 112.019 146.13 112.081 146.069 112.081C147.72 112.142 149.25 112.142 150.718 112.203C150.779 112.203 150.84 112.203 150.962 112.203C155.122 112.325 158.486 112.386 160.81 112.386C160.81 112.325 160.81 112.264 160.81 112.264C158.486 112.203 155.122 112.081 150.962 111.958C150.901 111.897 150.84 111.897 150.718 111.897Z" fill="#263238"/>
<path d="M124.843 124.792C127.29 124.853 129.859 124.914 132.489 124.975C134.508 125.036 136.465 125.098 138.361 125.159C138.484 125.159 138.545 125.159 138.667 125.159C143.01 125.281 146.986 125.342 150.534 125.464V125.22C146.986 125.098 143.01 124.975 138.667 124.853C138.545 124.853 138.484 124.853 138.361 124.853C136.465 124.792 134.508 124.731 132.489 124.67C129.859 124.609 127.29 124.548 124.843 124.486C124.782 124.486 124.66 124.486 124.599 124.486C121.173 124.425 117.931 124.303 114.995 124.242C115.056 124.364 115.056 124.425 115.117 124.486C117.992 124.548 121.173 124.67 124.537 124.731C124.66 124.792 124.782 124.792 124.843 124.792Z" fill="#263238"/>
<path d="M124.415 137.014C126.678 137.076 129.064 137.137 131.511 137.198C133.713 137.259 135.915 137.32 137.995 137.381C138.117 137.381 138.178 137.381 138.3 137.381C142.705 137.503 146.803 137.564 150.351 137.687V137.442C146.803 137.32 142.705 137.198 138.3 137.076C138.178 137.076 138.117 137.076 137.995 137.076C135.915 137.014 133.713 136.953 131.511 136.892C129.064 136.831 126.678 136.77 124.415 136.709C124.293 136.709 124.232 136.709 124.109 136.709C122.458 136.648 120.806 136.648 119.216 136.587L119.155 136.892C120.745 136.953 122.397 137.014 124.048 137.014C124.232 137.014 124.293 137.014 124.415 137.014Z" fill="#263238"/>
<path d="M123.925 149.298C126.066 149.359 128.207 149.42 130.47 149.481C132.978 149.543 135.364 149.604 137.688 149.665C137.81 149.665 137.871 149.665 137.994 149.665C142.581 149.787 146.741 149.909 150.35 149.97C150.472 149.97 150.594 149.97 150.656 149.97C152.613 150.031 154.387 150.031 155.916 150.093C155.916 150.031 155.855 149.97 155.855 149.909C154.326 149.848 152.552 149.787 150.656 149.726C150.533 149.726 150.411 149.726 150.35 149.726C146.741 149.604 142.581 149.481 137.994 149.359C137.871 149.359 137.81 149.359 137.688 149.359C135.364 149.298 132.978 149.237 130.47 149.176C128.207 149.115 126.066 149.054 123.925 148.993C123.803 148.993 123.742 148.993 123.619 148.993C121.173 148.931 118.848 148.87 116.646 148.809C116.646 148.931 116.585 148.993 116.585 149.115C118.787 149.176 121.173 149.237 123.619 149.298C123.742 149.298 123.864 149.298 123.925 149.298Z" fill="#263238"/>
<path d="M123.498 161.582C125.455 161.643 127.474 161.704 129.492 161.765C132.245 161.826 134.936 161.887 137.505 161.948C137.628 161.948 137.689 161.948 137.811 161.948C142.399 162.071 146.62 162.193 150.167 162.254C150.29 162.254 150.412 162.254 150.473 162.254C153.593 162.315 156.162 162.376 158.119 162.437C158.119 162.376 158.119 162.315 158.119 162.315C156.162 162.254 153.593 162.132 150.473 162.071C150.351 162.071 150.228 162.071 150.167 162.071C146.62 161.948 142.399 161.826 137.811 161.704C137.689 161.704 137.628 161.704 137.505 161.704C134.936 161.643 132.245 161.582 129.492 161.46C127.474 161.398 125.455 161.337 123.498 161.276C123.376 161.276 123.314 161.276 123.192 161.276C119.889 161.215 116.831 161.093 113.956 161.032C113.956 161.154 113.895 161.215 113.895 161.337C116.769 161.398 119.889 161.521 123.192 161.582C123.253 161.582 123.376 161.582 123.498 161.582Z" fill="#263238"/>
<path d="M122.702 173.804C122.825 173.804 122.886 173.804 123.008 173.804C124.782 173.865 126.617 173.926 128.452 173.926C131.572 173.988 134.569 174.11 137.383 174.171C137.505 174.171 137.566 174.171 137.688 174.171C142.276 174.293 146.497 174.415 149.983 174.476C150.106 174.476 150.228 174.476 150.289 174.476C153.47 174.538 156.039 174.599 157.874 174.66C157.874 174.599 157.874 174.599 157.874 174.538C156.039 174.476 153.409 174.354 150.289 174.293C150.167 174.293 150.044 174.293 149.983 174.293C146.497 174.171 142.276 174.049 137.688 173.926C137.566 173.926 137.505 173.926 137.383 173.926C134.569 173.865 131.572 173.743 128.452 173.682C126.617 173.621 124.782 173.56 123.008 173.56C122.886 173.56 122.825 173.56 122.702 173.56C119.093 173.438 115.668 173.376 112.548 173.315C112.548 173.438 112.548 173.499 112.548 173.621C115.668 173.621 119.093 173.743 122.702 173.804Z" fill="#263238"/>
<path d="M122.274 186.088C122.335 186.088 122.457 186.088 122.519 186.088C124.109 186.149 125.76 186.149 127.473 186.21C130.96 186.332 134.324 186.393 137.444 186.455C137.566 186.455 137.627 186.455 137.749 186.455C142.337 186.577 146.497 186.638 149.922 186.76C150.044 186.76 150.105 186.76 150.228 186.76C152.919 186.821 155.121 186.882 156.773 186.882C156.773 186.821 156.773 186.76 156.773 186.76C155.121 186.699 152.858 186.638 150.228 186.516C150.105 186.516 150.044 186.516 149.922 186.516C146.497 186.393 142.337 186.271 137.749 186.149C137.627 186.149 137.566 186.149 137.444 186.149C134.324 186.088 130.96 185.966 127.473 185.905C125.822 185.843 124.17 185.843 122.519 185.782C122.457 185.782 122.335 185.782 122.274 185.782C118.91 185.721 115.79 185.599 112.854 185.538C112.854 185.66 112.854 185.721 112.915 185.843C115.79 185.905 118.971 186.027 122.274 186.088Z" fill="#263238"/>
<path d="M121.846 198.371C121.908 198.371 121.969 198.371 122.091 198.371C123.559 198.433 124.966 198.433 126.495 198.494C130.41 198.616 134.141 198.677 137.567 198.799C137.628 198.799 137.75 198.799 137.811 198.799C142.399 198.921 146.558 198.983 149.923 199.105C149.984 199.105 150.106 199.105 150.167 199.105C152.002 199.166 153.654 199.166 154.938 199.227C154.938 199.166 154.938 199.105 154.938 199.044C153.593 198.983 152.002 198.921 150.106 198.86C150.045 198.86 149.923 198.86 149.861 198.86C146.497 198.738 142.399 198.616 137.75 198.494C137.689 198.494 137.567 198.494 137.505 198.494C134.019 198.371 130.349 198.31 126.434 198.188C124.966 198.127 123.498 198.127 122.03 198.066C121.969 198.066 121.908 198.066 121.785 198.066C119.277 198.005 116.831 197.944 114.567 197.883C114.567 198.005 114.567 198.066 114.629 198.188C116.953 198.249 119.338 198.31 121.846 198.371Z" fill="#263238"/>
<path d="M121.418 210.655C121.479 210.655 121.479 210.655 121.54 210.655C123.253 210.716 125.027 210.777 126.862 210.777C130.655 210.9 134.325 210.961 137.75 211.083C137.811 211.083 137.872 211.083 137.934 211.083C142.521 211.205 146.619 211.266 149.984 211.388C150.045 211.388 150.106 211.388 150.167 211.388C151.024 211.388 151.88 211.45 152.614 211.45C152.614 211.388 152.614 211.327 152.675 211.266C151.88 211.266 151.085 211.205 150.167 211.205C150.106 211.205 150.045 211.205 149.984 211.205C146.619 211.083 142.521 210.961 137.934 210.838C137.872 210.838 137.811 210.838 137.75 210.838C134.325 210.716 130.716 210.655 126.862 210.533C125.027 210.472 123.253 210.411 121.54 210.411C121.479 210.411 121.418 210.411 121.418 210.411C119.705 210.35 117.993 210.35 116.402 210.288C116.402 210.411 116.402 210.472 116.464 210.594C118.054 210.594 119.705 210.655 121.418 210.655Z" fill="#263238"/>
<path d="M128.208 89.8356C129.615 89.8356 131.389 89.8356 133.407 89.8967C135.426 89.8967 137.261 89.8967 138.607 89.8356C139.28 89.8356 139.83 89.7744 140.197 89.7744C140.564 89.7744 140.748 89.7133 140.748 89.7133C140.748 89.7133 140.625 89.6522 140.381 89.6522V89.7133L128.514 89.6522C128.453 89.6522 128.33 89.6522 128.269 89.6522C127.596 89.6522 127.046 89.7133 126.679 89.7133C126.312 89.7133 126.128 89.7744 126.128 89.7744C126.19 89.8356 126.985 89.8356 128.208 89.8356Z" fill="#263238"/>
<path d="M135.425 122.775C133.896 122.592 132.55 121.92 131.694 121.309C130.837 120.697 130.409 120.27 130.348 120.27C130.348 120.27 130.409 120.392 130.593 120.636C130.776 120.881 131.082 121.186 131.51 121.492C132.367 122.164 133.712 122.836 135.303 123.081C136.465 123.264 137.505 123.081 138.422 122.897C138.545 122.897 138.606 122.836 138.728 122.836C138.973 122.775 139.218 122.653 139.401 122.592C139.89 122.409 140.257 122.164 140.502 122.042C140.747 121.859 140.869 121.797 140.869 121.736C140.869 121.675 140.319 122.042 139.34 122.409C139.156 122.47 138.973 122.531 138.728 122.592C138.667 122.592 138.545 122.653 138.422 122.653C137.627 122.836 136.587 122.897 135.425 122.775Z" fill="#263238"/>
<path d="M160.994 118.131C160.994 118.07 157.323 117.642 152.858 117.275C152.246 117.214 151.635 117.153 151.023 117.153C150.962 117.153 150.84 117.153 150.778 117.153C147.292 116.847 144.662 116.725 144.662 116.786C144.662 116.847 147.231 117.153 150.656 117.459C151.329 117.52 152.063 117.581 152.797 117.642C156.345 117.947 159.403 118.131 160.504 118.192C160.81 118.131 160.994 118.131 160.994 118.131Z" fill="#263238"/>
<path d="M140.503 86.0466C140.87 87.4522 142.399 88.6134 144.601 88.3689C144.295 88.98 144.112 89.5912 144.051 90.2023C143.745 92.219 144.479 94.2968 146.008 95.7635C144.968 97.0469 144.357 98.6358 144.173 100.225C144.173 100.347 144.173 100.408 144.112 100.53C143.99 102.241 144.357 104.014 145.274 105.542C144.295 106.703 143.317 107.986 143.317 109.453C143.317 110.125 143.623 110.797 144.112 111.286C144.234 111.347 144.418 111.469 144.601 111.653C144.662 111.714 144.724 111.775 144.785 111.775C145.029 111.897 145.213 111.958 145.458 112.019C145.641 112.081 145.886 112.081 146.069 112.019C146.13 112.019 146.253 112.019 146.314 111.958C146.497 111.897 146.681 111.836 146.864 111.714C147.415 111.408 147.843 110.858 148.149 110.369C148.944 108.842 149.066 107.069 148.455 105.48C149.678 104.503 150.412 103.219 150.718 101.814C150.779 101.447 150.84 101.141 150.84 100.775C150.84 100.714 150.84 100.714 150.84 100.653C150.84 100.53 150.84 100.469 150.84 100.347C150.84 100.164 150.84 99.9192 150.779 99.7358C150.718 99.4303 150.718 99.1247 150.596 98.8191C150.29 97.658 149.678 96.558 148.699 95.6413C149.372 95.0302 149.862 94.3579 150.168 93.6246C149.8 93.9913 149.372 94.2357 149.005 94.419C148.577 94.6024 148.21 94.6635 147.965 94.6635C147.843 94.6635 147.721 94.6635 147.66 94.6635C147.598 94.6635 147.537 94.6635 147.537 94.6635C147.537 94.6635 147.598 94.6635 147.66 94.6024C147.721 94.6024 147.843 94.6024 147.965 94.5413C148.21 94.4802 148.577 94.419 148.944 94.2357C149.311 94.0524 149.8 93.7468 150.168 93.319C150.29 93.1357 150.412 92.9523 150.535 92.769C150.596 92.6468 150.596 92.5246 150.657 92.3412C150.84 91.4856 150.84 90.6301 150.657 89.7745C150.412 89.2856 150.106 88.8578 149.8 88.5522C149.128 87.9411 148.577 87.8189 148.638 87.7578C148.638 87.7578 148.699 87.7578 148.761 87.7578C148.822 87.7578 148.944 87.7578 149.066 87.8189C149.311 87.88 149.678 88.0633 149.984 88.3689C150.106 88.4911 150.29 88.6745 150.412 88.7967C150.106 88.0022 149.617 87.2078 148.944 86.5355C150.351 83.541 149.862 79.9354 147.965 77.1853C147.048 81.2187 144.968 84.9466 140.503 86.0466ZM147.476 95.8857C147.476 95.9469 147.109 95.9469 146.742 96.008C146.375 96.008 146.008 96.0691 146.008 96.008C145.947 95.9469 146.253 95.7024 146.742 95.7024C147.17 95.6413 147.537 95.7635 147.476 95.8857ZM146.375 105.542C145.763 105.419 145.213 105.419 145.213 105.358C145.213 105.297 145.763 105.114 146.436 105.236C147.109 105.358 147.598 105.603 147.598 105.725C147.537 105.786 147.048 105.664 146.375 105.542ZM146.008 87.0244C146.681 86.8411 147.293 86.8411 147.293 86.9633C147.293 87.0244 146.742 87.1466 146.13 87.33C145.458 87.5133 144.968 87.6967 144.907 87.6355C144.846 87.5744 145.335 87.2078 146.008 87.0244Z" fill="#263238"/>
<path d="M130.899 60.6849C131.082 61.5405 131.449 62.4572 132 63.435C132.305 63.9239 132.611 64.4128 132.978 64.9017C133.345 65.3906 133.774 65.8184 134.263 66.2461C134.752 66.6739 135.303 67.0406 135.792 67.3462C136.343 67.6517 136.832 67.8962 137.382 68.0795C138.422 68.4462 139.462 68.6295 140.319 68.6906C140.441 68.6906 140.502 68.6906 140.563 68.6906V66.6128C140.563 66.6128 132.305 65.8795 130.593 58.3015C130.593 58.4237 130.593 58.4849 130.593 58.6071C130.654 59.1571 130.715 59.8904 130.899 60.6849Z" fill="#B78876"/>
<path d="M140.319 89.6523L140.441 86.0467C140.441 86.0467 140.441 86.0467 140.38 86.0467L140.503 73.7019C140.441 73.0908 140.441 72.4797 140.564 71.9296V68.9962C140.441 68.9962 140.38 68.9962 140.258 68.9962C139.402 68.9351 138.362 68.8129 137.261 68.4462C136.71 68.2629 136.16 68.0184 135.609 67.7129C135.059 67.4073 134.508 67.0406 134.019 66.6129C133.529 66.1851 133.04 65.6962 132.673 65.2073C132.306 64.7184 131.939 64.2295 131.694 63.6795C131.144 62.6405 130.838 61.6627 130.655 60.8072C130.471 59.9516 130.471 59.2793 130.471 58.7904C130.471 58.546 130.471 58.3627 130.532 58.2404V58.1793L130.471 58.2404C129.982 59.4627 129.125 62.0294 129.737 64.1072L122.213 66.1851L121.357 66.9795C121.357 70.5241 121.418 74.5575 121.602 77.002C121.969 82.2577 127.168 82.7466 127.168 82.7466C127.168 82.7466 130.655 82.7466 133.958 80.3021C133.958 80.3021 132.428 84.2133 127.29 84.0299L127.168 82.7466C127.168 82.7466 127.596 88.3078 127.535 89.7134H128.391L140.319 89.6523ZM123.253 68.9962C122.886 68.9962 122.58 68.6907 122.58 68.324C122.58 67.9573 122.886 67.6518 123.253 67.6518C123.62 67.6518 123.926 67.9573 123.926 68.324C123.926 68.6907 123.62 68.9962 123.253 68.9962ZM124.538 67.4073C124.477 67.5295 123.926 67.1629 123.192 67.224C122.458 67.2851 122.03 67.7129 121.907 67.5907C121.846 67.5295 121.907 67.4073 122.152 67.1629C122.336 66.9795 122.703 66.7962 123.131 66.7351C123.559 66.674 123.987 66.8573 124.171 66.9795C124.477 67.224 124.599 67.3462 124.538 67.4073ZM125.822 73.7019C125.7 73.7019 125.578 73.5797 125.516 73.4575C125.394 73.1519 125.516 72.9075 125.578 72.663C125.7 72.1741 125.883 71.6852 126.006 71.1352C126.679 68.9962 127.229 67.2851 127.351 67.2851C127.413 67.2851 126.984 69.0574 126.312 71.1963C126.128 71.7463 126.006 72.2352 125.822 72.7241C125.761 72.9686 125.7 73.1519 125.7 73.3352C125.761 73.4575 125.883 73.5186 126.067 73.5186C126.801 73.5797 127.229 73.6408 127.229 73.6408C127.229 73.7019 126.801 73.7019 126.067 73.7019C126.067 73.763 125.945 73.763 125.822 73.7019ZM128.636 76.2686C127.168 76.9409 126.312 75.5964 126.312 75.5964C127.78 75.5964 130.41 73.8853 129.737 74.3742C129.676 74.313 130.104 75.5964 128.636 76.2686ZM130.899 68.9351C130.532 68.9351 130.226 68.6296 130.226 68.2629C130.226 67.8962 130.532 67.5907 130.899 67.5907C131.266 67.5907 131.572 67.8962 131.572 68.2629C131.572 68.6296 131.266 68.9351 130.899 68.9351ZM132.428 67.3462C132.367 67.4684 131.817 67.1018 131.083 67.1629C130.349 67.224 129.92 67.6518 129.798 67.5295C129.737 67.4684 129.798 67.3462 130.043 67.1018C130.226 66.9184 130.593 66.7351 131.083 66.674C131.511 66.6129 131.939 66.7962 132.123 66.9184C132.367 67.1018 132.428 67.2851 132.428 67.3462Z" fill="#B78876"/>
<path d="M123.253 67.6517C122.886 67.6517 122.58 67.9573 122.58 68.324C122.58 68.6907 122.886 68.9962 123.253 68.9962C123.62 68.9962 123.926 68.6907 123.926 68.324C123.926 67.9573 123.62 67.6517 123.253 67.6517Z" fill="#263238"/>
<path d="M124.293 67.0406C124.048 66.8573 123.681 66.7351 123.253 66.7962C122.825 66.8573 122.458 67.0406 122.274 67.224C122.091 67.4073 121.968 67.5906 122.03 67.6517C122.091 67.7129 122.58 67.2851 123.314 67.2851C124.048 67.224 124.537 67.5906 124.66 67.4684C124.599 67.3462 124.476 67.224 124.293 67.0406Z" fill="#263238"/>
<path d="M130.899 67.5906C130.532 67.5906 130.226 67.8961 130.226 68.2628C130.226 68.6295 130.532 68.9351 130.899 68.9351C131.266 68.9351 131.572 68.6295 131.572 68.2628C131.511 67.835 131.266 67.5906 130.899 67.5906Z" fill="#263238"/>
<path d="M132.122 66.9795C131.877 66.7961 131.51 66.6739 131.082 66.735C130.654 66.7961 130.287 66.9795 130.042 67.1628C129.859 67.3461 129.736 67.5295 129.798 67.5906C129.859 67.6517 130.348 67.2239 131.082 67.2239C131.816 67.1628 132.306 67.5295 132.428 67.4073C132.428 67.285 132.367 67.1017 132.122 66.9795Z" fill="#263238"/>
<path d="M126.189 73.5185C126.005 73.5185 125.822 73.4574 125.822 73.3352C125.761 73.213 125.822 72.9685 125.944 72.7241C126.066 72.2352 126.25 71.7463 126.433 71.1962C127.106 69.0573 127.534 67.285 127.473 67.285C127.412 67.285 126.8 68.9962 126.128 71.1351C125.944 71.6851 125.822 72.174 125.699 72.6629C125.638 72.9074 125.516 73.1518 125.638 73.4574C125.699 73.5796 125.822 73.7019 125.944 73.7019C126.066 73.7019 126.189 73.7019 126.25 73.7019C126.984 73.7019 127.412 73.6407 127.412 73.6407C127.351 73.6407 126.862 73.5796 126.189 73.5185Z" fill="#263238"/>
<path d="M126.25 75.5963C126.25 75.5963 127.168 76.8797 128.574 76.2686C130.104 75.5963 129.614 74.3741 129.614 74.3741C130.409 73.824 127.718 75.5352 126.25 75.5963Z" fill="white"/>
<path d="M134.018 80.2408C130.715 82.6853 127.229 82.6853 127.229 82.6853L127.351 83.9687C132.489 84.152 134.018 80.2408 134.018 80.2408Z" fill="#A36957"/>
<path d="M129.737 63.985C129.125 61.9071 129.981 59.3404 130.471 58.1182L130.532 58.057C130.532 57.9959 130.532 57.9348 130.593 57.9348C130.593 57.9348 130.593 57.9959 130.593 58.1182C130.593 58.1793 130.593 58.2404 130.593 58.3626C132.306 65.9406 140.563 66.6739 140.563 66.6739V68.7517C141.297 68.8129 141.909 68.7517 142.337 68.6906C142.582 68.6906 142.766 68.6295 142.888 68.6295C143.01 68.6295 143.071 68.6295 143.071 68.6295C143.071 68.6295 143.01 68.6906 142.888 68.6906C142.766 68.6906 142.582 68.7517 142.337 68.8129C141.909 68.874 141.297 68.9351 140.563 68.9351V71.8685C140.625 71.6851 140.625 71.5018 140.686 71.3185C140.93 70.5851 141.542 69.9129 142.337 69.7907C143.255 69.6684 144.111 70.4018 144.295 71.3185C144.478 72.2352 143.989 73.1519 143.194 73.6408C142.643 73.9463 142.032 74.0685 141.359 74.0074C141.359 74.0685 141.359 74.0685 141.359 74.1297C141.298 74.3741 141.359 74.6797 141.542 74.9852C141.726 75.2908 142.032 75.4741 142.399 75.5352C142.766 75.5964 143.133 75.413 143.377 75.2297C143.622 74.9852 143.744 74.6797 143.744 74.4352C143.805 73.8852 143.561 73.5796 143.622 73.5796C143.622 73.5185 143.989 73.8241 143.989 74.4352C143.989 74.7408 143.867 75.1075 143.561 75.413C143.255 75.7186 142.827 75.9019 142.337 75.8408C141.848 75.7797 141.481 75.4741 141.236 75.1075C140.992 74.7408 140.992 74.313 141.114 74.0685V74.0074C140.93 73.9463 140.686 73.8852 140.502 73.8241L140.441 73.763L140.319 86.1077C140.319 86.1077 140.319 86.1077 140.38 86.1077C140.38 86.1077 140.38 86.1077 140.441 86.1077C144.906 85.0077 147.047 81.2798 148.026 77.3075C148.087 77.0631 148.148 76.7575 148.21 76.513C148.148 76.5742 148.148 76.6964 148.087 76.7575C147.72 77.4297 147.414 77.9186 147.17 78.2853C146.925 78.5909 146.741 78.7742 146.741 78.7742C146.68 78.7131 147.292 78.0409 147.904 76.6964C148.087 76.3297 148.271 75.8408 148.454 75.3519C148.882 72.7241 148.882 70.2184 148.821 68.5684V68.2017C148.577 67.1628 148.21 66.185 147.842 65.4517C147.17 64.1072 146.558 63.3738 146.619 63.3738C146.619 63.3738 146.803 63.5572 147.047 63.8627C147.292 64.1683 147.659 64.7183 148.026 65.3906C148.271 65.8795 148.515 66.4295 148.76 67.0406V66.4295C148.76 66.3684 148.76 66.3684 148.76 66.2461C148.638 65.4517 148.515 64.5961 148.393 64.1072C145.457 53.168 136.037 51.2124 134.202 51.2124C132.183 51.2124 128.697 50.1735 123.681 55.6125C118.665 61.1127 121.479 66.9184 121.479 66.9184L122.335 66.1239L129.737 63.985Z" fill="#263238"/>
<path d="M144.417 111.836C144.295 111.714 144.234 111.653 144.173 111.531C143.928 111.531 143.744 111.592 143.5 111.653C143.194 111.714 142.949 111.836 142.705 111.958C142.215 112.203 141.726 112.508 141.359 112.936C140.564 113.792 140.136 114.892 140.197 116.053C140.564 115.931 140.931 115.747 141.298 115.625C140.992 116.236 140.808 116.847 140.747 117.52C141.359 117.52 141.971 117.214 142.399 116.786C142.276 117.275 142.215 117.764 142.093 118.192C143.194 117.642 144.111 116.725 144.601 115.564C144.968 114.769 145.09 113.853 144.968 112.997C144.907 112.814 144.845 112.692 144.784 112.569C144.54 112.142 144.356 111.958 144.417 111.836C144.478 111.897 144.601 111.958 144.784 112.142C144.784 112.081 144.784 112.081 144.723 112.019C144.601 112.019 144.478 111.958 144.417 111.836Z" fill="#263238"/>
<path d="M143.989 111.286C143.928 111.347 143.989 111.408 144.112 111.592C144.173 111.714 144.234 111.775 144.356 111.897C144.479 112.019 144.601 112.081 144.662 112.081C144.846 112.142 144.968 112.203 144.968 112.142C144.968 112.142 144.968 112.081 144.907 112.019C144.846 111.958 144.785 111.897 144.662 111.775C144.601 111.714 144.54 111.653 144.479 111.653C144.295 111.469 144.112 111.347 143.989 111.286C144.05 111.286 144.05 111.225 143.989 111.286Z" fill="#D07D36"/>
<path d="M146.436 105.236C145.763 105.114 145.212 105.297 145.212 105.358C145.212 105.419 145.763 105.48 146.375 105.542C146.986 105.603 147.537 105.786 147.537 105.664C147.598 105.603 147.109 105.297 146.436 105.236Z" fill="#D07D36"/>
<path d="M146.008 96.0079C146.069 96.069 146.375 96.0079 146.742 96.0079C147.109 95.9468 147.476 96.0079 147.476 95.8857C147.476 95.8246 147.17 95.6413 146.742 95.7024C146.314 95.7024 146.008 95.8857 146.008 96.0079Z" fill="#D07D36"/>
<path d="M146.13 87.33C146.803 87.1467 147.354 87.0244 147.293 86.9633C147.293 86.9022 146.681 86.8411 146.008 87.0244C145.335 87.2078 144.846 87.5745 144.907 87.6356C144.968 87.6967 145.458 87.5133 146.13 87.33Z" fill="#D07D36"/>
<path d="M142.338 68.8129C142.582 68.7518 142.766 68.6907 142.888 68.6907C143.011 68.6296 143.072 68.6296 143.072 68.6296C143.072 68.6296 143.011 68.6296 142.888 68.6296C142.766 68.6296 142.582 68.6907 142.338 68.6907C141.91 68.7518 141.298 68.7518 140.564 68.7518C140.503 68.7518 140.38 68.7518 140.319 68.7518C139.463 68.6907 138.484 68.5073 137.383 68.1407C136.833 67.9573 136.343 67.7129 135.793 67.4073C135.242 67.1017 134.753 66.7351 134.264 66.3073C133.774 65.8795 133.346 65.4517 132.979 64.9628C132.612 64.4739 132.306 63.985 132 63.4961C131.45 62.5183 131.144 61.5405 130.899 60.746C130.716 59.8905 130.655 59.2182 130.594 58.7293C130.594 58.6071 130.594 58.4849 130.594 58.4238C130.594 58.3626 130.594 58.2404 130.594 58.1793C130.594 58.0571 130.594 57.996 130.594 57.996C130.594 57.996 130.594 58.0571 130.532 58.1182C130.532 58.1182 130.532 58.1182 130.532 58.1793C130.532 58.3015 130.471 58.4849 130.471 58.7293C130.471 59.2182 130.471 59.8905 130.655 60.746C130.838 61.6016 131.144 62.5794 131.695 63.6183C132 64.1072 132.306 64.6572 132.673 65.1461C133.04 65.635 133.53 66.1239 134.019 66.5517C134.508 66.9795 135.059 67.3462 135.609 67.6518C136.16 67.9573 136.71 68.2018 137.261 68.3851C138.362 68.7518 139.402 68.9351 140.258 68.9351C140.38 68.9351 140.442 68.9351 140.564 68.9351C141.298 68.9351 141.91 68.874 142.338 68.8129Z" fill="#263238"/>
<path d="M147.047 63.8016C146.802 63.4961 146.619 63.3127 146.619 63.3127C146.558 63.3739 147.169 64.0461 147.842 65.3906C148.209 66.1239 148.576 67.0406 148.821 68.1406C149.005 68.9962 149.188 69.974 149.188 71.0129C149.188 72.6019 148.882 74.0686 148.454 75.2908C148.271 75.7797 148.087 76.2075 147.904 76.6353C147.292 77.9798 146.68 78.7131 146.741 78.7131C146.741 78.7131 146.925 78.5298 147.169 78.2242C147.414 77.9186 147.781 77.3686 148.087 76.6964C148.148 76.6353 148.148 76.5131 148.209 76.4519C148.882 75.1075 149.494 73.213 149.433 71.0129C149.433 69.8518 149.249 68.7518 148.943 67.774C148.882 67.5295 148.76 67.2239 148.699 66.9795C148.454 66.3684 148.209 65.7572 147.965 65.3295C147.659 64.6572 147.292 64.1683 147.047 63.8016Z" fill="#263238"/>
<path d="M149.984 88.3689C149.617 88.0634 149.311 87.88 149.066 87.8189C148.944 87.7578 148.822 87.7578 148.76 87.7578C148.699 87.7578 148.638 87.7578 148.638 87.7578C148.638 87.8189 149.189 87.9411 149.8 88.5523C150.106 88.8578 150.412 89.2245 150.657 89.7745C150.657 89.7745 150.657 89.7745 150.657 89.8356C150.901 90.3856 151.024 90.9968 150.901 91.669C150.84 91.9135 150.779 92.1579 150.718 92.4024C150.657 92.5246 150.596 92.6468 150.534 92.769C150.412 92.9524 150.29 93.1357 150.167 93.3191C149.8 93.7468 149.372 94.0524 148.944 94.2357C148.577 94.4191 148.21 94.5413 147.965 94.5413C147.843 94.5413 147.721 94.6024 147.659 94.6024C147.598 94.6024 147.537 94.6024 147.537 94.6635C147.537 94.6635 147.598 94.6635 147.659 94.6635C147.721 94.6635 147.843 94.6635 147.965 94.6635C148.21 94.6635 148.577 94.6024 149.005 94.4191C149.372 94.2357 149.8 93.9913 150.167 93.6246C150.229 93.5635 150.29 93.5024 150.351 93.4413C150.412 93.3802 150.412 93.3191 150.473 93.3191C150.473 93.3191 150.473 93.3191 150.534 93.2579C150.718 93.0135 150.901 92.769 151.024 92.4635C151.146 92.219 151.207 91.9135 151.268 91.6079C151.391 90.8745 151.207 90.2023 150.963 89.6523C150.779 89.3467 150.596 89.0412 150.412 88.7967C150.29 88.6745 150.167 88.4912 149.984 88.3689Z" fill="#263238"/>
<path d="M144.417 111.897C144.356 111.958 144.539 112.142 144.723 112.508C144.784 112.631 144.845 112.753 144.906 112.936C145.028 113.242 145.09 113.608 145.09 113.975C145.09 114.586 144.967 115.075 144.845 115.442C144.784 115.625 144.723 115.747 144.661 115.87C144.6 115.992 144.6 116.053 144.6 116.053C144.6 116.053 144.661 116.053 144.723 115.931C144.784 115.87 144.906 115.686 145.028 115.503C145.212 115.136 145.395 114.586 145.395 113.914C145.395 113.242 145.151 112.692 144.906 112.386C144.845 112.325 144.784 112.264 144.723 112.203C144.6 111.958 144.417 111.897 144.417 111.897Z" fill="#263238"/>
<path d="M141.175 73.9463C141.359 73.3963 141.726 73.2741 141.726 73.2741C141.787 73.3352 141.542 73.5185 141.42 73.9463C142.032 74.0074 142.705 73.9463 143.255 73.5796C144.05 73.0907 144.54 72.174 144.356 71.2574C144.173 70.3407 143.316 69.6073 142.399 69.7295C141.603 69.8518 140.992 70.524 140.747 71.2574C140.686 71.4407 140.625 71.624 140.625 71.8074C140.502 72.4185 140.564 72.9685 140.564 73.5796L140.625 73.6407C140.747 73.8852 140.992 73.8852 141.175 73.9463ZM142.399 70.8296C142.582 70.7685 142.888 70.7685 143.194 70.9518C143.5 71.1962 143.561 71.5629 143.561 71.8685C143.561 72.2352 143.439 72.5407 143.255 72.7852C143.072 73.0296 142.766 73.1518 142.582 73.1518C142.093 73.213 141.909 72.9685 141.909 72.9074C141.909 72.8463 142.154 72.9685 142.521 72.8463C142.827 72.7852 143.194 72.3574 143.194 71.8074C143.194 71.5629 143.133 71.3185 143.01 71.1962C142.888 71.074 142.643 71.0129 142.46 71.074C142.093 71.1351 141.848 71.1962 141.848 71.1351C141.787 71.1351 141.971 70.9518 142.399 70.8296Z" fill="#B78876"/>
<path d="M142.399 71.1351C142.582 71.1351 142.766 71.1351 142.949 71.2574C143.071 71.3796 143.133 71.624 143.133 71.8685C143.133 72.4185 142.766 72.7852 142.46 72.9074C142.154 73.0296 141.909 72.9074 141.848 72.9685C141.787 72.9685 142.032 73.2741 142.521 73.213C142.766 73.213 143.01 73.0907 143.194 72.8463C143.377 72.6018 143.5 72.2963 143.5 71.9296C143.5 71.624 143.438 71.1962 143.133 71.0129C142.827 70.8296 142.521 70.8296 142.337 70.8907C141.909 71.0129 141.726 71.1962 141.787 71.2574C141.848 71.2574 142.093 71.1351 142.399 71.1351Z" fill="#A36957"/>
<path d="M141.175 73.9463V74.0074C141.114 74.313 141.114 74.6796 141.298 75.0463C141.481 75.413 141.909 75.7185 142.399 75.7797C142.888 75.8408 143.316 75.6574 143.622 75.3519C143.928 75.0463 144.05 74.6796 144.05 74.3741C144.05 73.7629 143.744 73.4574 143.683 73.5185C143.622 73.5185 143.867 73.8241 143.805 74.3741C143.805 74.6185 143.683 74.9241 143.438 75.1685C143.194 75.413 142.827 75.5352 142.46 75.4741C142.093 75.413 141.787 75.1685 141.603 74.9241C141.42 74.6185 141.42 74.313 141.42 74.0685C141.42 74.0074 141.42 74.0074 141.42 73.9463C141.542 73.5185 141.787 73.274 141.726 73.274C141.726 73.274 141.359 73.3963 141.175 73.9463Z" fill="#D07D36"/>
<path d="M127.902 219.944C129.676 220.128 131.633 220.372 133.591 220.555C138.178 221.105 142.338 221.594 145.335 222.022C145.702 222.083 146.069 222.144 146.436 222.144C147.415 222.266 148.21 222.389 148.883 222.45C149.25 222.511 149.617 222.511 149.861 222.572C150.106 222.572 150.228 222.572 150.228 222.572C150.228 222.572 150.106 222.511 149.923 222.511C149.678 222.45 149.372 222.389 148.944 222.328C148.332 222.205 147.476 222.083 146.497 221.961C146.13 221.9 145.824 221.839 145.396 221.778C145.274 221.778 145.09 221.716 144.968 221.716C143.072 221.411 140.747 221.105 138.117 220.8C136.71 220.616 135.242 220.433 133.713 220.25C129.125 219.7 124.966 219.333 121.969 219.089C120.439 218.966 119.216 218.905 118.421 218.844C118.36 218.844 118.299 218.844 118.176 218.844C117.87 218.844 117.626 218.844 117.442 218.783C117.198 218.783 117.075 218.783 117.075 218.783C117.075 218.783 117.198 218.844 117.381 218.844C117.626 218.844 117.932 218.905 118.36 218.966C118.421 218.966 118.482 218.966 118.543 218.966C119.4 219.028 120.562 219.15 121.969 219.333C123.559 219.516 125.639 219.7 127.902 219.944Z" fill="#263238"/>
<path d="M109.856 89.0411C109.856 89.0411 101.537 87.4522 89.548 76.5742C77.559 65.6961 71.6868 51.0291 70.28 51.1514C68.8731 51.2736 62.5728 48.5235 51.4402 74.6186C40.3075 100.653 45.1398 106.519 47.5254 106.397C49.8498 106.275 65.7535 101.386 75.7851 102.241C85.8167 103.097 98.7844 107.925 98.7844 107.925L109.856 89.0411Z" fill="#D07D36"/>
<path opacity="0.4" d="M109.856 89.0411C109.856 89.0411 101.537 87.4522 89.548 76.5742C77.559 65.6961 71.6868 51.0291 70.28 51.1514C68.8731 51.2736 62.5728 48.5235 51.4402 74.6186C40.3075 100.653 45.1398 106.519 47.5254 106.397C49.8498 106.275 65.7535 101.386 75.7851 102.241C85.8167 103.097 98.7844 107.925 98.7844 107.925L109.856 89.0411Z" fill="white"/>
<path d="M127.84 103.708L125.148 109.147L123.925 111.592C122.273 114.953 118.297 116.42 114.872 114.953L96.9497 109.269L106.614 85.4355L124.598 94.358C128.145 96.0691 129.552 100.286 127.84 103.708Z" fill="#D07D36"/>
<path d="M117.87 112.57L112.548 123.814L109.673 123.081L91.6285 138.603L86.1846 128.642C86.1846 128.642 96.9502 123.631 98.8464 119.72C100.743 115.747 98.4182 114.953 98.4182 114.953L103.373 108.964L117.87 112.57Z" fill="#D07D36"/>
<path d="M52.4812 76.2075C46.5479 90.3245 44.2846 102.791 47.4042 104.136C50.5238 105.419 57.8028 95.0302 63.7361 80.9132C69.6695 66.7962 71.9327 54.3292 68.8131 52.9847C65.6324 51.7014 58.3533 62.0905 52.4812 76.2075Z" fill="#263238"/>
<path d="M129.614 111.408L124.721 110.064L127.534 104.319L131.205 106.458L129.614 111.408Z" fill="#0F4450"/>
<path d="M101.722 111.042L114.873 118.925L116.403 115.747L101.722 111.042Z" fill="#263238"/>
<path d="M127.534 104.319L124.721 110.064L125.761 110.308L128.024 104.564L127.534 104.319Z" fill="#263238"/>
<path d="M97.7453 107.497C97.7453 107.497 94.3198 106.336 94.4422 106.397C94.5645 106.458 104.963 87.2078 104.963 87.2078L105.819 87.5744L98.1123 106.825" fill="#263238"/>
<path d="M124.293 105.725C124.232 105.908 121.785 104.992 118.849 103.769C115.913 102.547 113.588 101.447 113.65 101.264C113.711 101.08 116.158 101.997 119.094 103.219C122.03 104.441 124.354 105.542 124.293 105.725Z" fill="#263238"/>
<path d="M125.7 102.302C125.639 102.486 123.437 101.63 120.806 100.408C118.176 99.1857 116.096 98.0857 116.158 97.9635C116.219 97.7801 118.421 98.6357 121.051 99.858C123.681 101.019 125.761 102.18 125.7 102.302Z" fill="#263238"/>
<path d="M122.519 109.269C122.519 109.33 121.907 109.208 120.99 108.964C120.5 108.842 120.011 108.658 119.399 108.475C118.788 108.292 118.176 107.986 117.503 107.68C114.812 106.519 112.793 105.419 112.854 105.236C112.916 105.053 115.118 105.969 117.748 107.069C118.421 107.375 119.032 107.68 119.583 107.864C120.133 108.108 120.684 108.292 121.112 108.475C122.03 108.964 122.519 109.208 122.519 109.269Z" fill="#263238"/>
<path d="M65.2042 72.724C65.2042 72.724 57.864 68.4462 54.2551 78.2853C50.585 88.1244 58.231 89.4689 58.231 89.4689C61.1671 84.641 63.4915 79.0797 65.2042 72.724Z" fill="#D07D36"/>
<path d="M72.5439 60.9293C72.6051 60.9293 72.4828 61.6016 72.2993 62.7627C72.1158 63.9849 71.8099 65.6961 71.4429 67.835C71.1982 68.874 70.8924 70.0351 70.5254 71.2573C70.3419 71.8685 70.2195 72.4796 70.036 73.1518C69.9749 73.4574 69.8525 73.8241 69.7914 74.1296C69.669 74.4352 69.5467 74.8019 69.4244 75.1074C68.935 76.4519 68.4457 77.8575 67.8952 79.3242C67.7728 79.6909 67.6505 80.0576 67.5281 80.4242C67.4058 80.7909 67.2223 81.1576 67.0388 81.5243C66.733 82.2576 66.3659 82.991 66.0601 83.7854C65.6931 84.5188 65.3873 85.3132 65.0202 86.0466C64.8367 86.4133 64.7144 86.7799 64.5309 87.1466C64.3474 87.5133 64.1639 87.8189 63.9804 88.1855C63.2464 89.53 62.5123 90.8745 61.7783 92.0967C61.5948 92.4023 61.4113 92.7079 61.2278 93.0134C61.0443 93.319 60.8608 93.5634 60.6773 93.869C60.3103 94.419 59.9433 94.969 59.5763 95.519C58.8423 96.5579 58.2306 97.5358 57.6189 98.4524C56.2732 100.164 55.1722 101.508 54.4381 102.425C53.643 103.341 53.2148 103.83 53.2148 103.83C53.1536 103.83 53.5818 103.28 54.2546 102.303C54.9887 101.325 56.0285 99.9191 57.313 98.208C57.9247 97.2913 58.5364 96.3135 59.2093 95.2746C59.5763 94.7246 59.8821 94.1746 60.2491 93.6245C60.4326 93.319 60.6161 93.0745 60.7996 92.769C60.9831 92.4634 61.1666 92.1578 61.289 91.8523C61.9618 90.63 62.6959 89.2855 63.4299 87.9411C63.6134 87.5744 63.7969 87.2688 63.9804 86.9022C64.1639 86.5355 64.2862 86.1688 64.4697 85.8021C64.7756 85.0688 65.1426 84.3354 65.4484 83.6021C65.8154 82.8687 66.1213 82.1354 66.4271 81.402C66.6106 81.0354 66.7941 80.6687 66.9165 80.302C67.0388 79.9353 67.1611 79.5687 67.3446 79.202C67.8952 77.7353 68.3845 76.3297 68.8738 74.9852C68.9962 74.6796 69.1185 74.313 69.2409 74.0074C69.3632 73.7018 69.4244 73.3352 69.5467 73.0296C69.7302 72.3574 69.9137 71.7462 70.0972 71.1351C70.4642 69.9129 70.7701 68.8128 71.0759 67.7739C71.5041 65.6961 71.8711 63.9849 72.1158 62.7627C72.2993 61.6016 72.4828 60.9293 72.5439 60.9293Z" fill="#263238"/>
<path d="M144.784 116.786C144.784 116.786 137.75 129.864 135.854 130.048C125.394 131.148 114.139 127.725 110.224 126.32C109.796 125.892 109.368 125.342 108.879 124.67C108.451 124.12 108.084 123.447 107.9 122.775C107.655 121.92 107.288 120.82 107.35 120.147C107.35 119.292 106.371 118.925 105.943 119.475C105.514 120.086 105.392 122.408 106.432 124.853C107.472 127.297 103.802 125.403 102.456 124.731C101.11 124.059 96.8286 122.164 96.2781 122.408C95.4829 122.775 95.7276 123.692 97.1344 124.364C98.5413 125.036 102.456 127.236 102.028 127.97C101.661 128.703 94.81 125.097 94.81 125.097C94.81 125.097 93.4643 124.12 92.975 124.914C92.1186 126.381 99.6423 129.62 100.376 129.864C100.866 130.048 100.499 130.842 99.9482 130.598C99.3977 130.353 93.2197 126.87 92.3633 128.398C91.6905 129.559 98.5413 131.086 99.3977 132.553C100.254 134.02 94.3207 130.842 93.709 131.942C93.4643 132.37 93.342 132.675 97.0733 134.02C98.8471 134.631 102.211 135.425 105.27 136.098V136.159C105.27 136.159 140.625 152.659 149.923 136.281C155.978 125.586 156.59 124.242 158.731 118.192" fill="#B78876"/>
<path d="M1.77388 139.092H70.6493C71.628 139.092 72.4232 139.887 72.4232 140.865V154.798C72.9125 160.726 72.4232 162.193 65.6335 162.682V168.976L59.4555 162.804H1.77388C0.795187 162.804 0 162.009 0 161.032V140.865C0 139.887 0.795187 139.092 1.77388 139.092Z" fill="#0F4450"/>
<path d="M59.149 146.487H22.7539V148.015H59.149V146.487Z" fill="#D07D36"/>
<path d="M59.149 149.787H22.7539V151.315H59.149V149.787Z" fill="#D07D36"/>
<path d="M41.2267 153.27H22.7539V154.798H41.2267V153.27Z" fill="#D07D36"/>
<path d="M19.5133 145.815H9.35938V155.959H19.5133V145.815Z" fill="#D07D36"/>
<path d="M243.877 36.3009C243.877 34.5897 242.47 33.2452 240.818 33.2452L164.603 33.6119C162.89 33.6119 161.544 35.0175 161.544 36.6675L161.667 60.6848C161.667 62.3959 163.074 63.7404 164.725 63.7404H166.377L166.438 72.5406L175.063 63.6793L240.941 63.3737C242.653 63.3737 243.999 61.9681 243.999 60.3181L243.877 36.3009Z" fill="#D07D36"/>
<path d="M220.816 52.6179C220.754 51.2123 220.816 49.1956 220.816 47.3622C220.816 47.3622 219.348 44.1233 222.161 41.1899C224.975 38.2565 226.932 38.8676 228.033 38.8676C229.073 38.8676 234.211 40.0899 235.679 46.14C235.741 46.3844 235.802 46.8733 235.863 47.3011C235.924 47.6067 235.924 47.9123 235.924 48.0956C236.046 50.3568 237.392 52.3124 239.288 53.3513C239.961 51.8235 240.328 50.0512 240.328 48.2789C240.267 41.3121 234.64 35.6897 227.666 35.7509C220.693 35.812 215.066 41.4343 215.127 48.4012C215.127 52.9846 217.635 57.018 221.366 59.2181C220.816 57.2625 220.571 55.0624 220.816 52.6179Z" fill="#E0E0E0"/>
<path d="M235.924 48.1567L235.863 48.2178C235.863 50.6624 235.557 58.9125 231.52 60.4404C235.007 59.3403 237.82 56.7736 239.288 53.4735C237.392 52.3735 236.046 50.4179 235.924 48.1567Z" fill="#263238"/>
<path d="M220.816 52.9235C220.816 52.8013 220.816 52.7401 220.816 52.6179C220.571 55.0624 220.816 57.2625 221.367 59.2181C222.223 59.707 223.079 60.1348 223.997 60.3792C223.936 58.607 223.813 56.1625 223.813 56.1625C223.813 56.1625 220.938 55.7958 220.816 52.9235Z" fill="#263238"/>
<path d="M231.398 47.5456C231.398 47.5456 226.749 47.0567 225.954 42.6566C225.648 43.3289 225.159 44.7344 225.465 45.8956L221.305 46.9345L220.816 47.3623C220.755 49.1957 220.755 51.2124 220.816 52.618C220.816 52.7402 220.816 52.8013 220.816 52.9235C220.938 55.8569 223.813 56.1625 223.813 56.1625C223.813 56.1625 225.709 56.2236 227.606 54.9402C227.606 54.9402 226.749 57.0792 223.874 56.8958L223.813 56.1625C223.813 56.1625 223.997 58.6681 223.997 60.3793C225.22 60.7459 226.443 60.9293 227.789 60.9293C228.89 60.9293 229.991 60.7459 230.97 60.5015L231.398 47.5456ZM225.648 48.279C225.648 48.0956 225.832 47.9123 226.015 47.9123C226.199 47.9123 226.382 48.0956 226.382 48.279C226.382 48.4623 226.199 48.6456 226.015 48.6456C225.832 48.6456 225.648 48.4623 225.648 48.279ZM225.587 47.6067C225.709 47.4845 225.893 47.4234 226.138 47.3623C226.382 47.3623 226.566 47.4234 226.688 47.5456C226.81 47.6067 226.872 47.729 226.872 47.729C226.81 47.7901 226.566 47.6067 226.138 47.6067C225.771 47.6067 225.465 47.8512 225.404 47.7901C225.404 47.8512 225.465 47.729 225.587 47.6067ZM221.244 47.5456C221.366 47.4234 221.55 47.3623 221.795 47.3012C222.039 47.3012 222.223 47.3623 222.345 47.4845C222.467 47.5456 222.529 47.6678 222.529 47.6678C222.467 47.729 222.223 47.5456 221.795 47.5456C221.428 47.5456 221.122 47.7901 221.061 47.729C221.061 47.7901 221.122 47.6678 221.244 47.5456ZM221.428 48.2179C221.428 48.0345 221.611 47.8512 221.795 47.8512C221.978 47.8512 222.162 48.0345 222.162 48.2179C222.162 48.4012 221.978 48.5845 221.795 48.5845C221.611 48.5845 221.428 48.4012 221.428 48.2179ZM223.14 51.2124C223.079 51.2124 223.018 51.1513 222.957 51.0901C222.896 50.9068 222.957 50.7846 223.018 50.6624C223.079 50.4179 223.201 50.1123 223.263 49.8068C223.63 48.6456 223.997 47.6678 224.058 47.729C224.119 47.729 223.813 48.7068 223.446 49.8679C223.324 50.1735 223.263 50.4179 223.14 50.7235C223.079 50.8457 223.079 50.9679 223.079 51.029C223.079 51.0901 223.201 51.0901 223.263 51.1513C223.63 51.2124 223.874 51.2124 223.874 51.2735C223.874 51.2735 223.63 51.3346 223.201 51.2735C223.263 51.2124 223.201 51.2124 223.14 51.2124ZM224.669 52.618C223.874 52.9846 223.385 52.2513 223.385 52.2513C224.18 52.2513 225.648 51.3346 225.281 51.5791C225.281 51.5791 225.465 52.3124 224.669 52.618Z" fill="#0F4450"/>
<path d="M222.161 48.2179C222.161 48.0345 221.978 47.8512 221.794 47.8512C221.611 47.8512 221.427 48.0345 221.427 48.2179C221.427 48.4012 221.611 48.5845 221.794 48.5845C221.978 48.5845 222.161 48.4012 222.161 48.2179Z" fill="#263238"/>
<path d="M222.529 47.7289C222.529 47.7289 222.529 47.6066 222.345 47.5455C222.223 47.4844 222.039 47.3622 221.795 47.3622C221.55 47.3622 221.366 47.4844 221.244 47.6066C221.122 47.7289 221.06 47.79 221.122 47.8511C221.183 47.9122 221.428 47.6677 221.856 47.6677C222.223 47.5455 222.467 47.79 222.529 47.7289Z" fill="#263238"/>
<path d="M226.382 48.2789C226.382 48.0956 226.198 47.9122 226.015 47.9122C225.831 47.9122 225.648 48.0956 225.648 48.2789C225.648 48.4622 225.831 48.6456 226.015 48.6456C226.198 48.6456 226.382 48.4622 226.382 48.2789Z" fill="#263238"/>
<path d="M226.871 47.79C226.871 47.79 226.871 47.6678 226.688 47.6067C226.565 47.5456 226.382 47.4233 226.137 47.4233C225.893 47.4233 225.709 47.5456 225.587 47.6678C225.464 47.79 225.403 47.8511 225.464 47.9122C225.526 47.9734 225.77 47.7289 226.198 47.7289C226.504 47.6067 226.81 47.8511 226.871 47.79Z" fill="#263238"/>
<path d="M223.996 51.2124C223.996 51.2124 223.751 51.1513 223.384 51.0901C223.262 51.0901 223.201 51.0902 223.201 50.9679C223.201 50.9068 223.201 50.7846 223.262 50.6624C223.323 50.4179 223.446 50.1123 223.568 49.8068C223.935 48.6456 224.241 47.6678 224.18 47.6678C224.118 47.6678 223.813 48.5845 223.384 49.7457C223.262 50.0512 223.201 50.2957 223.14 50.6013C223.079 50.7235 223.017 50.8457 223.079 51.029C223.079 51.0901 223.201 51.1513 223.262 51.1513C223.323 51.1513 223.384 51.1513 223.446 51.1513C223.751 51.2124 223.996 51.2124 223.996 51.2124Z" fill="#263238"/>
<path d="M223.384 52.2513C223.384 52.2513 223.874 52.9846 224.669 52.618C225.525 52.2513 225.28 51.579 225.28 51.579C225.647 51.3346 224.179 52.2513 223.384 52.2513Z" fill="white"/>
<path d="M227.605 54.8792C225.77 56.1625 223.813 56.1014 223.813 56.1014L223.874 56.8348C226.688 57.0181 227.605 54.8792 227.605 54.8792Z" fill="#263238"/>
<path d="M235.863 48.2178H235.924C235.924 48.1567 235.924 48.1567 235.863 48.2178C235.924 47.9733 235.863 47.6678 235.863 47.3622C235.802 46.9344 235.741 46.4455 235.68 46.2011C234.212 40.1509 229.012 38.9287 228.034 38.9287C226.933 38.9287 225.037 38.2564 222.162 41.251C219.348 44.1844 220.816 47.4233 220.816 47.4233L221.305 46.9955L225.465 45.9566C225.159 44.7955 225.648 43.3899 225.954 42.7177C226.749 47.0567 231.398 47.6067 231.398 47.6067L230.97 60.5014C231.153 60.4403 231.337 60.4403 231.459 60.3792C235.619 58.9125 235.924 50.6012 235.863 48.2178Z" fill="#263238"/>
<path d="M210.536 42.2543L170.899 42.4489L170.91 44.6489L210.547 44.4544L210.536 42.2543Z" fill="#263238"/>
<path d="M210.597 47.8765L170.96 48.071L170.971 50.2711L210.608 50.0766L210.597 47.8765Z" fill="#263238"/>
<path d="M190.595 53.426L170.96 53.5223L170.971 55.7224L190.606 55.6261L190.595 53.426Z" fill="#263238"/>
</svg>
