<svg width="20" height="20" viewBox="0 0 20 20" fill="none" xmlns="http://www.w3.org/2000/svg">
<path d="M11.3032 3.52401L12.6252 6.0378C12.8033 6.38545 13.2815 6.71527 13.6846 6.78659L16.0754 7.16098C17.6036 7.40166 17.9599 8.45353 16.863 9.5054L14.9972 11.2793C14.6878 11.5735 14.5097 12.1529 14.6128 12.5719L15.1472 14.7647C15.5691 16.4941 14.5941 17.1715 12.9908 16.2623L10.7501 14.9965C10.3469 14.7647 9.67185 14.7647 9.2687 14.9965L7.02792 16.2623C5.42469 17.1626 4.44962 16.4941 4.87152 14.7647L5.40594 12.5719C5.49032 12.144 5.31218 11.5646 5.00278 11.2704L3.13703 9.49648C2.04008 8.45353 2.39636 7.40166 3.92459 7.15206L6.31537 6.77767C6.71853 6.71527 7.19668 6.37654 7.37482 6.02888L8.69679 3.5151C9.41871 2.16015 10.5813 2.16015 11.3032 3.52401Z" fill="black"/>
</svg>
