<svg width="10" height="11" viewBox="0 0 10 11" fill="none" xmlns="http://www.w3.org/2000/svg">
<path d="M4.44368 1.61398L4.44404 1.61326C4.50376 1.4937 4.5956 1.39314 4.70927 1.32285C4.82294 1.25256 4.95394 1.21533 5.08758 1.21533C5.22123 1.21533 5.35223 1.25256 5.4659 1.32285C5.57957 1.39314 5.67141 1.4937 5.73113 1.61326L5.73149 1.61398L6.71835 3.60139L8.92317 3.92179C8.92361 3.92185 8.92404 3.92191 8.92447 3.92197C9.0569 3.94058 9.18148 3.99593 9.28407 4.08175C9.38699 4.16785 9.46364 4.28115 9.50525 4.40873C9.54686 4.5363 9.55177 4.673 9.51942 4.80323C9.48709 4.93334 9.41886 5.05176 9.32251 5.14498L4.44368 1.61398ZM4.44368 1.61398L3.4568 3.60142L1.25037 3.92243C1.11813 3.94122 0.99378 3.99664 0.891392 4.08243C0.788763 4.16843 0.712318 4.28149 0.670746 4.40877C0.629174 4.53605 0.624142 4.67244 0.656223 4.80243C0.688303 4.93243 0.756209 5.05082 0.852222 5.14414L0.852658 5.14457L2.44796 6.68975L2.07142 8.87229L2.07138 8.87252C1.97017 9.46147 2.58986 9.90228 3.11325 9.62829C3.11335 9.62824 3.11344 9.62819 3.11354 9.62814L5.08757 8.5961L7.06149 9.62828L7.06177 9.62843C7.58393 9.90086 8.20535 9.46314 8.10377 8.87285L8.10375 8.87271L7.72721 6.69016L9.32226 5.14522L4.44368 1.61398Z" fill="white"/>
<path d="M4.44368 1.61398L4.44404 1.61326C4.50376 1.4937 4.5956 1.39314 4.70927 1.32285C4.82294 1.25256 4.95394 1.21533 5.08758 1.21533C5.22123 1.21533 5.35223 1.25256 5.4659 1.32285C5.57957 1.39314 5.67141 1.4937 5.73113 1.61326L5.73149 1.61398L6.71835 3.60139L8.92317 3.92179C8.92361 3.92185 8.92404 3.92191 8.92447 3.92197C9.0569 3.94058 9.18148 3.99593 9.28407 4.08175C9.38699 4.16785 9.46364 4.28115 9.50525 4.40873C9.54686 4.5363 9.55177 4.673 9.51942 4.80323C9.48709 4.93334 9.41886 5.05176 9.32251 5.14498L4.44368 1.61398ZM4.44368 1.61398L3.4568 3.60142L1.25037 3.92243C1.11813 3.94122 0.99378 3.99664 0.891392 4.08243C0.788763 4.16843 0.712318 4.28149 0.670746 4.40877C0.629174 4.53605 0.624142 4.67244 0.656223 4.80243C0.688303 4.93243 0.756209 5.05082 0.852222 5.14414L0.852658 5.14457L2.44796 6.68975L2.07142 8.87229L2.07138 8.87252C1.97017 9.46147 2.58986 9.90228 3.11325 9.62829C3.11335 9.62824 3.11344 9.62819 3.11354 9.62814L5.08757 8.5961L7.06149 9.62828L7.06177 9.62843C7.58393 9.90086 8.20535 9.46314 8.10377 8.87285L8.10375 8.87271L7.72721 6.69016L9.32226 5.14522L4.44368 1.61398Z" fill="url(#paint0_radial_85_1375)" fill-opacity="0.5"/>
<path d="M4.44368 1.61398L4.44404 1.61326C4.50376 1.4937 4.5956 1.39314 4.70927 1.32285C4.82294 1.25256 4.95394 1.21533 5.08758 1.21533C5.22123 1.21533 5.35223 1.25256 5.4659 1.32285C5.57957 1.39314 5.67141 1.4937 5.73113 1.61326L5.73149 1.61398L6.71835 3.60139L8.92317 3.92179C8.92361 3.92185 8.92404 3.92191 8.92447 3.92197C9.0569 3.94058 9.18148 3.99593 9.28407 4.08175C9.38699 4.16785 9.46364 4.28115 9.50525 4.40873C9.54686 4.5363 9.55177 4.673 9.51942 4.80323C9.48709 4.93334 9.41886 5.05176 9.32251 5.14498L4.44368 1.61398ZM4.44368 1.61398L3.4568 3.60142L1.25037 3.92243C1.11813 3.94122 0.99378 3.99664 0.891392 4.08243C0.788763 4.16843 0.712318 4.28149 0.670746 4.40877C0.629174 4.53605 0.624142 4.67244 0.656223 4.80243C0.688303 4.93243 0.756209 5.05082 0.852222 5.14414L0.852658 5.14457L2.44796 6.68975L2.07142 8.87229L2.07138 8.87252C1.97017 9.46147 2.58986 9.90228 3.11325 9.62829C3.11335 9.62824 3.11344 9.62819 3.11354 9.62814L5.08757 8.5961L7.06149 9.62828L7.06177 9.62843C7.58393 9.90086 8.20535 9.46314 8.10377 8.87285L8.10375 8.87271L7.72721 6.69016L9.32226 5.14522L4.44368 1.61398Z" stroke="white" stroke-width="0.690181" stroke-linecap="round" stroke-linejoin="round"/>
<path d="M4.44368 1.61398L4.44404 1.61326C4.50376 1.4937 4.5956 1.39314 4.70927 1.32285C4.82294 1.25256 4.95394 1.21533 5.08758 1.21533C5.22123 1.21533 5.35223 1.25256 5.4659 1.32285C5.57957 1.39314 5.67141 1.4937 5.73113 1.61326L5.73149 1.61398L6.71835 3.60139L8.92317 3.92179C8.92361 3.92185 8.92404 3.92191 8.92447 3.92197C9.0569 3.94058 9.18148 3.99593 9.28407 4.08175C9.38699 4.16785 9.46364 4.28115 9.50525 4.40873C9.54686 4.5363 9.55177 4.673 9.51942 4.80323C9.48709 4.93334 9.41886 5.05176 9.32251 5.14498L4.44368 1.61398ZM4.44368 1.61398L3.4568 3.60142L1.25037 3.92243C1.11813 3.94122 0.99378 3.99664 0.891392 4.08243C0.788763 4.16843 0.712318 4.28149 0.670746 4.40877C0.629174 4.53605 0.624142 4.67244 0.656223 4.80243C0.688303 4.93243 0.756209 5.05082 0.852222 5.14414L0.852658 5.14457L2.44796 6.68975L2.07142 8.87229L2.07138 8.87252C1.97017 9.46147 2.58986 9.90228 3.11325 9.62829C3.11335 9.62824 3.11344 9.62819 3.11354 9.62814L5.08757 8.5961L7.06149 9.62828L7.06177 9.62843C7.58393 9.90086 8.20535 9.46314 8.10377 8.87285L8.10375 8.87271L7.72721 6.69016L9.32226 5.14522L4.44368 1.61398Z" stroke="url(#paint1_radial_85_1375)" stroke-opacity="0.5" stroke-width="0.690181" stroke-linecap="round" stroke-linejoin="round"/>
<defs>
<radialGradient id="paint0_radial_85_1375" cx="0" cy="0" r="1" gradientUnits="userSpaceOnUse" gradientTransform="translate(0.980469 0.289744) rotate(53.0386) scale(11.359 11.5347)">
<stop offset="0.046875" stop-color="#FDB54A"/>
<stop offset="0.983052" stop-color="#F28649"/>
</radialGradient>
<radialGradient id="paint1_radial_85_1375" cx="0" cy="0" r="1" gradientUnits="userSpaceOnUse" gradientTransform="translate(0.980469 0.289744) rotate(53.0386) scale(11.359 11.5347)">
<stop offset="0.046875" stop-color="#FDB54A"/>
<stop offset="0.983052" stop-color="#F28649"/>
</radialGradient>
</defs>
</svg>
