<svg width="10" height="11" viewBox="0 0 10 11" fill="none" xmlns="http://www.w3.org/2000/svg">
<path d="M3.67373 3.91676L4.74105 1.76733C4.77211 1.70513 4.8199 1.65281 4.87904 1.61624C4.93818 1.57967 5.00633 1.5603 5.07587 1.5603C5.1454 1.5603 5.21355 1.57967 5.27269 1.61624C5.33183 1.65281 5.37962 1.70513 5.41069 1.76733L6.478 3.91676L8.86406 4.26349C8.93288 4.27303 8.99763 4.30173 9.05093 4.34632C9.10422 4.3909 9.14391 4.44957 9.16545 4.51562C9.187 4.58168 9.18954 4.65246 9.17279 4.71989C9.15603 4.78733 9.12066 4.84869 9.0707 4.89698L7.34443 6.56902L7.75196 8.93125C7.80414 9.23444 7.48369 9.46532 7.20968 9.32235L5.07587 8.20656L2.94164 9.32235C2.66804 9.46573 2.3476 9.23444 2.39977 8.93084L2.80731 6.56861L1.08103 4.89657C1.03132 4.84824 0.996154 4.78694 0.979543 4.71963C0.962932 4.65232 0.965538 4.5817 0.987063 4.51579C1.00859 4.44989 1.04817 4.39135 1.10131 4.34682C1.15445 4.30229 1.21902 4.27356 1.28767 4.2639L3.67373 3.91676Z" fill="#FFFBDB" stroke="url(#paint0_radial_85_1377)" stroke-width="0.985973" stroke-linecap="round" stroke-linejoin="round"/>
<defs>
<radialGradient id="paint0_radial_85_1377" cx="0" cy="0" r="1" gradientUnits="userSpaceOnUse" gradientTransform="translate(0.968751 0.289622) rotate(53.0386) scale(11.359 11.5347)">
<stop offset="0.046875" stop-color="#FDB54A"/>
<stop offset="0.983052" stop-color="#F28649"/>
</radialGradient>
</defs>
</svg>
