<svg width="7" height="7" viewBox="0 0 7 7" fill="none" xmlns="http://www.w3.org/2000/svg">
<path d="M2.06844 2.39409L2.83759 0.873233C2.85998 0.829219 2.89441 0.792199 2.93703 0.766325C2.97965 0.740451 3.02876 0.726746 3.07887 0.726746C3.12898 0.726746 3.17809 0.740451 3.22071 0.766325C3.26333 0.792199 3.29776 0.829219 3.32015 0.873233L4.0893 2.39409L5.80877 2.63942C5.85837 2.64617 5.90503 2.66648 5.94344 2.69803C5.98184 2.72957 6.01044 2.77108 6.02597 2.81782C6.0415 2.86456 6.04333 2.91464 6.03125 2.96236C6.01918 3.01007 5.99369 3.05349 5.95769 3.08766L4.71367 4.27073L5.00736 5.94216C5.04496 6.15668 4.81403 6.32005 4.61657 6.21889L3.07887 5.4294L1.54088 6.21889C1.34371 6.32034 1.11278 6.15668 1.15038 5.94187L1.44407 4.27044L0.200054 3.08736C0.164228 3.05317 0.138889 3.0098 0.126919 2.96217C0.114948 2.91454 0.116826 2.86457 0.132338 2.81794C0.14785 2.77131 0.176375 2.72989 0.21467 2.69838C0.252965 2.66687 0.299494 2.64655 0.348969 2.63971L2.06844 2.39409V2.39409Z" fill="#FFC42D"/>
</svg>
