<svg width="19" height="19" viewBox="0 0 19 19" fill="none" xmlns="http://www.w3.org/2000/svg">
<path fill-rule="evenodd" clip-rule="evenodd" d="M2.15 0.96875C1.83671 0.96875 1.53626 1.0932 1.31473 1.31473C1.0932 1.53626 0.96875 1.83671 0.96875 2.15V16.85C0.96875 17.5028 1.49725 18.0312 2.15 18.0312H16.85C17.0051 18.0312 17.1587 18.0007 17.302 17.9413C17.4454 17.882 17.5756 17.795 17.6853 17.6853C17.795 17.5756 17.882 17.4454 17.9413 17.302C18.0007 17.1587 18.0312 17.0051 18.0312 16.85V2.15C18.0312 1.99488 18.0007 1.84127 17.9413 1.69796C17.882 1.55464 17.795 1.42442 17.6853 1.31473C17.5756 1.20504 17.4454 1.11803 17.302 1.05867C17.1587 0.999304 17.0051 0.96875 16.85 0.96875H2.15ZM13.6562 6C13.6562 5.82595 13.5871 5.65903 13.464 5.53596C13.341 5.41289 13.174 5.34375 13 5.34375C12.826 5.34375 12.659 5.41289 12.536 5.53596C12.4129 5.65903 12.3438 5.82595 12.3438 6V13C12.3438 13.174 12.4129 13.341 12.536 13.464C12.659 13.5871 12.826 13.6562 13 13.6562C13.174 13.6562 13.341 13.5871 13.464 13.464C13.5871 13.341 13.6562 13.174 13.6562 13V6ZM9.5 7.96875C9.67405 7.96875 9.84097 8.03789 9.96404 8.16096C10.0871 8.28403 10.1562 8.45095 10.1562 8.625V13C10.1562 13.174 10.0871 13.341 9.96404 13.464C9.84097 13.5871 9.67405 13.6562 9.5 13.6562C9.32595 13.6562 9.15903 13.5871 9.03596 13.464C8.91289 13.341 8.84375 13.174 8.84375 13V8.625C8.84375 8.45095 8.91289 8.28403 9.03596 8.16096C9.15903 8.03789 9.32595 7.96875 9.5 7.96875ZM6.65625 10.375C6.65625 10.201 6.58711 10.034 6.46404 9.91096C6.34097 9.78789 6.17405 9.71875 6 9.71875C5.82595 9.71875 5.65903 9.78789 5.53596 9.91096C5.41289 10.034 5.34375 10.201 5.34375 10.375V13C5.34375 13.174 5.41289 13.341 5.53596 13.464C5.65903 13.5871 5.82595 13.6562 6 13.6562C6.17405 13.6562 6.34097 13.5871 6.46404 13.464C6.58711 13.341 6.65625 13.174 6.65625 13V10.375Z" fill=""/>
</svg>
