<svg width="83" height="21" viewBox="0 0 83 21" fill="none" xmlns="http://www.w3.org/2000/svg">
<g filter="url(#filter0_d_2_10786)">
<path d="M16.9141 16.8398L16.668 18H10.5859L10.7734 16.9922L12.6953 16.4414L11.2891 12.7148C9.49219 12.8242 7.72656 12.8789 5.99219 12.8789H5.5L4.29297 16.3828L6.70703 17.0273L6.49609 18H0.671875L0.882812 16.8867L2.69922 16.3359L7.98438 1.78125L9.37891 1.37109L15.1445 16.4414L16.9141 16.8398ZM10.7852 11.3438L8.19531 4.46484C8.10938 4.99609 7.38281 7.28906 6.01562 11.3438H10.7852ZM21.8294 4.23047C21.7434 4.30859 21.5286 4.34766 21.1848 4.34766C20.8802 4.34766 20.5833 4.31641 20.2942 4.25391C20.0052 4.18359 19.8177 4.08984 19.7317 3.97266C19.638 3.85547 19.5911 3.64063 19.5911 3.32812C19.5911 3.02344 19.6302 2.71875 19.7083 2.41406C19.7864 2.10156 19.8802 1.91016 19.9895 1.83984C20.1067 1.75391 20.3137 1.71094 20.6106 1.71094C20.9075 1.71094 21.2122 1.75391 21.5247 1.83984C21.8372 1.91797 22.0325 2.00781 22.1106 2.10938C22.1966 2.21875 22.2395 2.41406 22.2395 2.69531C22.2395 2.99219 22.1966 3.30078 22.1106 3.62109C22.0325 3.94141 21.9387 4.14453 21.8294 4.23047ZM19.8958 16.5234V8.90625L18.0911 8.00391L18.1966 7.45312L21.9934 6.69141V16.5234L23.927 17.0391L23.7161 18H18.0091L18.1848 17.0156L19.8958 16.5234ZM31.4205 16.6055C31.772 16.6055 32.1588 16.5547 32.5806 16.4531C33.0103 16.3516 33.4048 16.2344 33.7642 16.1016C34.1236 15.9609 34.3814 15.8477 34.5377 15.7617L34.8189 16.1719C34.5611 16.4766 34.2095 16.793 33.7642 17.1211C33.3267 17.4492 32.8345 17.7266 32.2877 17.9531C31.7408 18.1797 31.2017 18.293 30.6705 18.293C29.772 18.293 28.9634 18.1016 28.2447 17.7188C27.5259 17.3359 26.9517 16.7266 26.522 15.8906C26.0923 15.0547 25.8775 13.9883 25.8775 12.6914C25.8775 11.5586 26.1002 10.5273 26.5455 9.59766C26.9908 8.66016 27.6158 7.92188 28.4205 7.38281C29.233 6.84375 30.1548 6.57422 31.1861 6.57422C31.9595 6.57422 32.6236 6.74219 33.1783 7.07812C33.7408 7.40625 34.1666 7.85547 34.4556 8.42578C34.7525 8.98828 34.9009 9.61719 34.9009 10.3125C34.9009 10.8281 34.8189 11.3516 34.6548 11.8828C34.608 12.0234 34.5494 12.125 34.4791 12.1875C34.4166 12.25 34.315 12.2812 34.1744 12.2812H27.8814C27.9361 13.0312 28.1158 13.7383 28.4205 14.4023C28.733 15.0586 29.147 15.5898 29.6627 15.9961C30.1861 16.4023 30.772 16.6055 31.4205 16.6055ZM30.0494 7.94531C29.4478 7.94531 29.0494 8.04297 28.8541 8.23828C28.6353 8.46484 28.4283 8.85938 28.233 9.42188C28.0377 9.97656 27.9205 10.6367 27.8814 11.4023L32.9556 11.0039C32.9556 10.3555 32.8228 9.80078 32.5572 9.33984C32.2994 8.87891 31.9517 8.53125 31.5142 8.29688C31.0767 8.0625 30.5884 7.94531 30.0494 7.94531ZM36.9452 6.86719H38.6795L38.9256 4.30078L40.7772 3.53906V6.86719H44.492L44.3045 7.88672L40.7772 8.49609V13.6992C40.7772 14.3789 40.8709 14.9961 41.0584 15.5508C41.2459 16.0977 41.5194 16.4727 41.8787 16.6758C42.0116 16.7461 42.1952 16.7812 42.4295 16.7812C42.867 16.7812 43.3397 16.7148 43.8475 16.582C44.3553 16.4414 44.6366 16.3672 44.6912 16.3594L44.9139 16.9102C44.4373 17.2383 43.8787 17.5508 43.2381 17.8477C42.6053 18.1445 42.0741 18.293 41.6444 18.293C39.6678 18.293 38.6795 16.9609 38.6795 14.2969V8.49609L36.7342 7.91016L36.9452 6.86719ZM49.8644 17.9883C49.755 18.0742 49.5206 18.1172 49.1613 18.1172C48.8331 18.1172 48.5128 18.0781 48.2003 18C47.8878 17.9297 47.6808 17.832 47.5792 17.707C47.4777 17.582 47.4269 17.3477 47.4269 17.0039C47.4269 16.6758 47.4698 16.3438 47.5558 16.0078C47.6417 15.6719 47.7433 15.4648 47.8605 15.3867C47.9855 15.293 48.2159 15.2461 48.5519 15.2461C48.8722 15.2461 49.2003 15.2891 49.5363 15.375C49.8722 15.4609 50.0831 15.5625 50.1691 15.6797C50.2628 15.7969 50.3097 16.0117 50.3097 16.3242C50.3097 16.6523 50.2628 16.9922 50.1691 17.3438C50.0831 17.6875 49.9816 17.9023 49.8644 17.9883ZM53.5141 8.00391L53.6195 7.45312L56.8305 6.69141L57.2523 8.625C57.9477 8.07812 58.7172 7.60547 59.5609 7.20703C60.4125 6.80078 61.1508 6.59766 61.7758 6.59766C62.2836 6.59766 62.7562 6.73047 63.1937 6.99609C63.6391 7.25391 64.0023 7.69531 64.2836 8.32031C64.5727 8.9375 64.7172 9.75 64.7172 10.7578V16.5234L66.6859 17.0391L66.4867 18H61.1898L61.3891 16.9805L62.6195 16.4648V11.5547C62.6195 10.75 62.5102 10.0898 62.2914 9.57422C62.0727 9.05859 61.8109 8.6875 61.5062 8.46094C61.35 8.35938 61.1977 8.30859 61.0492 8.30859C60.7367 8.30859 60.1781 8.40234 59.3734 8.58984C58.5766 8.77734 57.9047 8.96484 57.3578 9.15234C57.3656 9.19922 57.3773 9.30078 57.393 9.45703C57.4086 9.60547 57.4164 9.72656 57.4164 9.82031V16.5234L59.3969 17.0508L59.1859 18H53.4555L53.6547 16.9688L55.3187 16.4062V8.91797L53.5141 8.00391ZM68.4255 12.8789C68.4255 11.793 68.6442 10.7656 69.0817 9.79688C69.527 8.82812 70.1403 8.05078 70.9216 7.46484C71.7106 6.87109 72.6012 6.57422 73.5934 6.57422C74.5544 6.57422 75.4177 6.77344 76.1833 7.17188C76.9489 7.5625 77.5583 8.16406 78.0114 8.97656C78.4645 9.78906 78.6911 10.7969 78.6911 12C78.6911 13.0938 78.4645 14.125 78.0114 15.0938C77.5661 16.0625 76.9567 16.8398 76.1833 17.4258C75.4098 18.0039 74.5661 18.293 73.652 18.293C72.652 18.293 71.7575 18.1016 70.9684 17.7188C70.1872 17.3281 69.5661 16.7266 69.1052 15.9141C68.652 15.1016 68.4255 14.0898 68.4255 12.8789ZM74.2262 16.7461C74.5778 16.7461 74.9177 16.6953 75.2458 16.5938C75.5739 16.4844 75.8395 16.3281 76.0427 16.125C76.2458 15.9219 76.3981 15.5664 76.4997 15.0586C76.6012 14.543 76.652 14.0586 76.652 13.6055C76.652 12.4961 76.4802 11.5273 76.1364 10.6992C75.8005 9.86328 75.3395 9.22656 74.7536 8.78906C74.1677 8.34375 73.5153 8.12109 72.7966 8.12109C72.3512 8.12109 72.0036 8.17578 71.7536 8.28516C71.5036 8.38672 71.277 8.53516 71.0739 8.73047C70.902 8.92578 70.7575 9.28125 70.6403 9.79688C70.5231 10.3047 70.4645 10.8047 70.4645 11.2969C70.4645 12.2031 70.6012 13.0742 70.8747 13.9102C71.1559 14.7383 71.5778 15.418 72.1403 15.9492C72.7106 16.4805 73.4059 16.7461 74.2262 16.7461Z" fill="#E3851E"/>
</g>
<defs>
<filter id="filter0_d_2_10786" x="0.671875" y="0.971094" width="81.419" height="19.7219" filterUnits="userSpaceOnUse" color-interpolation-filters="sRGB">
<feFlood flood-opacity="0" result="BackgroundImageFix"/>
<feColorMatrix in="SourceAlpha" type="matrix" values="0 0 0 0 0 0 0 0 0 0 0 0 0 0 0 0 0 0 127 0" result="hardAlpha"/>
<feOffset dx="2" dy="1"/>
<feGaussianBlur stdDeviation="0.7"/>
<feComposite in2="hardAlpha" operator="out"/>
<feColorMatrix type="matrix" values="0 0 0 0 0.484532 0 0 0 0 0.250056 0 0 0 0 0.00825174 0 0 0 0.82 0"/>
<feBlend mode="normal" in2="BackgroundImageFix" result="effect1_dropShadow_2_10786"/>
<feBlend mode="normal" in="SourceGraphic" in2="effect1_dropShadow_2_10786" result="shape"/>
</filter>
</defs>
</svg>
