<svg width="12" height="11" viewBox="0 0 12 11" fill="none" xmlns="http://www.w3.org/2000/svg">
<path d="M4.869 1.01228C4.811 1.06878 4.563 1.28213 4.359 1.48086C3.076 2.64599 0.976 5.68544 0.335 7.27629C0.232 7.51788 0.014 8.1287 0 8.45505C0 8.76776 0.072 9.06586 0.218 9.35032C0.422 9.70493 0.743 9.98939 1.122 10.1453C1.385 10.2456 2.172 10.4015 2.186 10.4015C3.047 10.5573 4.446 10.6431 5.992 10.6431C7.465 10.6431 8.807 10.5573 9.681 10.4297C9.695 10.4151 10.673 10.2592 11.008 10.0888C11.62 9.77604 12 9.16523 12 8.51155V8.45505C11.985 8.02933 11.605 7.13406 11.591 7.13406C10.949 5.62894 8.952 2.65963 7.625 1.46625C7.625 1.46625 7.284 1.13016 7.071 0.984031C6.765 0.756072 6.386 0.643066 6.007 0.643066C5.584 0.643066 5.19 0.770684 4.869 1.01228Z" fill="black"/>
</svg>
