<svg width="18" height="18" viewBox="0 0 18 18" fill="none" xmlns="http://www.w3.org/2000/svg">
<path fill-rule="evenodd" clip-rule="evenodd" d="M7.92038 1.93248C7.36176 1.93248 6.88652 2.32066 6.75312 2.84387H11.2387C11.1053 2.32066 10.6301 1.93248 10.0715 1.93248H7.92038ZM12.506 2.84387H14.1568C15.9077 2.84387 17.3334 4.2869 17.3334 6.05904C17.3334 6.05904 17.2834 6.80925 17.2667 7.85397C17.265 7.93667 17.225 8.01768 17.1592 8.06663C16.7581 8.36283 16.3913 8.60755 16.3579 8.62443C14.9739 9.55269 13.3656 10.2059 11.6522 10.5307C11.5405 10.5527 11.4305 10.4945 11.3738 10.3949C10.8935 9.56282 9.99641 9.02105 8.99591 9.02105C8.00208 9.02105 7.09663 9.55691 6.60222 10.3898C6.54469 10.4877 6.4363 10.5443 6.32541 10.5232C4.62623 10.1974 3.01792 9.5451 1.64224 8.63287L0.841836 8.07591C0.775136 8.03372 0.733448 7.95777 0.733448 7.87338C0.708436 7.443 0.666748 6.05904 0.666748 6.05904C0.666748 4.2869 2.09246 2.84387 3.84334 2.84387H5.48582C5.64424 1.62025 6.66975 0.666664 7.92038 0.666664H10.0715C11.3221 0.666664 12.3476 1.62025 12.506 2.84387ZM17.0499 9.67936L17.0166 9.69624C15.3324 10.827 13.3064 11.5781 11.1803 11.8903C10.8802 11.9325 10.58 11.7384 10.4967 11.4346C10.3132 10.7426 9.72127 10.287 9.01259 10.287H9.00425H8.98757C8.27889 10.287 7.68692 10.7426 7.5035 11.4346C7.42012 11.7384 7.11997 11.9325 6.81982 11.8903C4.69376 11.5781 2.66775 10.827 0.983573 9.69624C0.975236 9.6878 0.891861 9.63717 0.825161 9.67936C0.750123 9.72155 0.750123 9.82282 0.750123 9.82282L0.808486 14.1266C0.808486 15.8987 2.22586 17.3333 3.97674 17.3333H14.0151C15.766 17.3333 17.1833 15.8987 17.1833 14.1266L17.25 9.82282C17.25 9.82282 17.25 9.72155 17.175 9.67936C17.1333 9.65404 17.0833 9.66248 17.0499 9.67936ZM9.62123 13.2152C9.62123 13.5696 9.34609 13.8481 8.99591 13.8481C8.65407 13.8481 8.3706 13.5696 8.3706 13.2152V12.1266C8.3706 11.7806 8.65407 11.4937 8.99591 11.4937C9.34609 11.4937 9.62123 11.7806 9.62123 12.1266V13.2152Z" fill="#D07D36"/>
</svg>
