<svg width="12" height="11" viewBox="0 0 12 11" fill="none" xmlns="http://www.w3.org/2000/svg">
<path d="M3.69601 3.50405L5.11679 0.642796C5.15815 0.559991 5.22176 0.490344 5.30048 0.441666C5.3792 0.392988 5.46993 0.367203 5.56249 0.367203C5.65505 0.367203 5.74578 0.392988 5.82451 0.441666C5.90323 0.490344 5.96684 0.559991 6.0082 0.642796L7.42898 3.50405L10.6052 3.96561C10.6968 3.97831 10.783 4.01652 10.854 4.07586C10.9249 4.13521 10.9778 4.21331 11.0064 4.30124C11.0351 4.38917 11.0385 4.4834 11.0162 4.57316C10.9939 4.66292 10.9468 4.74461 10.8803 4.80889L8.58234 7.03467L9.12484 10.1792C9.19429 10.5828 8.76773 10.8901 8.40296 10.6998L5.56249 9.21451L2.72148 10.6998C2.35726 10.8907 1.9307 10.5828 2.00015 10.1787L2.54265 7.03412L0.24468 4.80834C0.178501 4.74402 0.131695 4.66241 0.109583 4.57281C0.0874702 4.48321 0.0909385 4.3892 0.119593 4.30147C0.148248 4.21374 0.200939 4.13581 0.271679 4.07653C0.342418 4.01726 0.428368 3.97902 0.519758 3.96616L3.69601 3.50405V3.50405Z" fill="#FFC42D"/>
</svg>
